<svg width="50" height="50" viewBox="0 0 50 50" fill="none" xmlns="http://www.w3.org/2000/svg">
<g clip-path="url(#clip0_3880_4250)">
<rect x="-3" y="21" width="56" height="10" fill="#0B0D17"/>
<path d="M20.1172 22.4172C19.4015 21.606 18.3545 21.0938 17.1875 21.0938C15.3485 21.0938 13.8064 22.3644 13.3914 24.0755L9.375 40.625H15.2344L19.2508 24.0755C19.4024 23.4503 19.7051 22.8843 20.1172 22.4172Z" fill="#42D37B"/>
<path d="M48.0469 46.0938H5.85938C4.78242 46.0938 3.90625 45.2176 3.90625 44.1406V1.95312C3.90625 0.874414 3.03184 0 1.95312 0C0.874414 0 0 0.874414 0 1.95312V44.1406C0 47.3715 2.62852 50 5.85938 50H48.0469C49.1256 50 50 49.1256 50 48.0469C50 46.9682 49.1256 46.0938 48.0469 46.0938Z" fill="#2C88FF"/>
<path d="M11.4934 23.6148L7.477 40.1644C7.33569 40.7465 7.46939 41.3613 7.8397 41.8322C8.21001 42.3032 8.77593 42.5781 9.37505 42.5781H25.0001C25.5992 42.5781 26.1651 42.3032 26.5354 41.8322C26.9057 41.3613 27.0394 40.7465 26.8981 40.1644L22.8818 23.6149C22.2426 20.9806 19.901 19.1406 17.1876 19.1406C14.4741 19.1406 12.1325 20.9806 11.4934 23.6148ZM19.0857 24.5361L22.5162 38.6719H11.8589L15.2896 24.5359C15.5022 23.6592 16.2827 23.0469 17.1876 23.0469C18.0924 23.0469 18.8729 23.6592 19.0857 24.5361Z" fill="#2C88FF"/>
<path d="M30.8594 40.625C30.8594 41.7037 31.7339 42.5781 32.8126 42.5781H36.7188C37.2845 42.5781 37.8224 42.3328 38.1934 41.9058C38.5644 41.4787 38.732 40.9117 38.6527 40.3516L34.7078 12.4558C34.3017 9.58594 31.8077 7.42188 28.9063 7.42188C26.0049 7.42188 23.5109 9.58594 23.1048 12.4559L22.4604 17.0127C22.3093 18.0808 23.0527 19.069 24.1208 19.22C25.1883 19.3713 26.1772 18.6277 26.3282 17.5597L26.9726 13.003C27.1077 12.0481 27.939 11.3281 28.9063 11.3281C29.8736 11.3281 30.705 12.0481 30.8401 13.0028L34.4701 38.6719H32.8126C31.7339 38.6719 30.8594 39.5463 30.8594 40.625Z" fill="#42D37B"/>
<path d="M42.1876 40.625C42.1876 41.7037 43.062 42.5781 44.1407 42.5781H48.0469C48.6026 42.5781 49.1321 42.3414 49.5026 41.9272C49.8731 41.5129 50.0497 40.9605 49.9881 40.4082L46.0582 5.21162C45.7303 2.24053 43.2267 0 40.2344 0C37.2421 0 34.7385 2.24053 34.4107 5.21152L34.2917 6.28877C34.1734 7.36094 34.9465 8.32607 36.0188 8.44443C37.0907 8.56279 38.0561 7.78955 38.1744 6.71738L38.2933 5.64004C38.4024 4.65166 39.2369 3.90625 40.2344 3.90625C41.232 3.90625 42.0665 4.65166 42.1757 5.64258L45.8636 38.6719H44.1407C43.062 38.6719 42.1876 39.5463 42.1876 40.625Z" fill="#2C88FF"/>
<path d="M9.375 11.3281H13.2812C14.36 11.3281 15.2344 10.4537 15.2344 9.375C15.2344 8.29629 14.36 7.42188 13.2812 7.42188H9.375C8.29629 7.42188 7.42188 8.29629 7.42188 9.375C7.42188 10.4537 8.29629 11.3281 9.375 11.3281Z" fill="#42D37B"/>
<path d="M9.375 3.90625H13.2812C14.36 3.90625 15.2344 3.03184 15.2344 1.95312C15.2344 0.874414 14.36 0 13.2812 0H9.375C8.29629 0 7.42188 0.874414 7.42188 1.95312C7.42188 3.03184 8.29629 3.90625 9.375 3.90625Z" fill="#42D37B"/>
</g>
<defs>
<clipPath id="clip0_3880_4250">
<rect width="50" height="50" fill="white"/>
</clipPath>
</defs>
</svg>
