<svg width="50" height="50" viewBox="0 0 50 50" fill="none" xmlns="http://www.w3.org/2000/svg">
<path d="M17.5781 40.2354H11.7188C6.32529 40.2354 1.95312 35.8631 1.95312 30.4697V11.7197C1.95312 6.32627 6.32529 1.9541 11.7188 1.9541H17.5781C12.1847 1.9541 7.8125 6.32627 7.8125 11.7197V30.4697C7.8125 35.8632 12.1847 40.2354 17.5781 40.2354ZM40.1602 20.7108C39.3644 20.1836 38.2277 20.3529 37.6518 21.22L37.2184 21.8726C36.8111 22.4857 36.0733 22.7912 35.3519 22.6457L34.584 22.4908C33.3147 22.2348 32.1947 23.3548 32.4508 24.624L32.6057 25.3919C32.7512 26.1134 32.4456 26.8512 31.8325 27.2584L31.18 27.6918C30.1015 28.4082 30.1015 29.9922 31.18 30.7086L31.8325 31.142C32.4456 31.5492 32.7512 32.287 32.6057 33.0085L32.4508 33.7764C32.1947 35.0456 33.3147 36.1656 34.584 35.9096L35.3519 35.7547C36.0733 35.6092 36.8111 35.9148 37.2184 36.5278L37.6518 37.1804C38.2277 38.0476 39.3644 38.2169 40.1602 37.6896C38.6392 35.4283 37.6953 31.5025 37.6953 29.2002C37.6953 26.898 38.6392 22.9722 40.1602 20.7108Z" fill="#42D37B"/>
<path d="M50 11.7197V15.2354C49.8969 17.8268 46.196 17.8248 46.0938 15.2354V11.7197C46.0938 7.41192 42.5891 3.90723 38.2812 3.90723H11.7188C7.41094 3.90723 3.90625 7.41192 3.90625 11.7197V30.4697C3.90625 34.7775 7.41094 38.2822 11.7188 38.2822H27.0508C29.6422 38.3854 29.6402 42.0862 27.0508 42.1885H11.7188C5.25703 42.1885 0 36.9315 0 30.4697V11.7197C0 5.25801 5.25703 0.000976562 11.7188 0.000976562H38.2812C44.743 0.000976562 50 5.25801 50 11.7197ZM27.7344 20.5088C27.7344 19.4301 26.86 18.5557 25.7812 18.5557H11.7188C9.12734 18.6588 9.1293 22.3597 11.7188 22.4619H25.7812C26.86 22.4619 27.7344 21.5875 27.7344 20.5088ZM11.7188 26.3682C9.12734 26.4713 9.1293 30.1722 11.7188 30.2744H20.6055C23.1969 30.1713 23.1949 26.4704 20.6055 26.3682H11.7188ZM50 29.2002C50 30.4641 49.3714 31.6362 48.3187 32.3356L47.7458 32.716L47.8818 33.3901C48.1318 34.629 47.7475 35.9023 46.8538 36.7959C45.9601 37.6896 44.687 38.0737 43.4479 37.824L42.7737 37.688L42.3933 38.2608C40.9582 40.4883 37.5572 40.4879 36.1226 38.2609L35.7421 37.688L35.0679 37.824C33.8288 38.0736 32.5557 37.6896 31.662 36.7959C30.7684 35.9023 30.384 34.629 30.634 33.3901L30.77 32.716L30.1972 32.3355C27.9696 30.9006 27.9702 27.4993 30.1972 26.0648L30.77 25.6843L30.634 25.0103C30.384 23.7712 30.7684 22.4981 31.6621 21.6043C32.5558 20.7106 33.829 20.3265 35.068 20.5762L35.7421 20.7122L36.1226 20.1395C37.5576 17.9118 40.9587 17.9124 42.3933 20.1394V20.1395L42.7737 20.7122L43.4479 20.5762C44.6867 20.3264 45.9601 20.7106 46.8538 21.6043C47.7476 22.4981 48.1318 23.7712 47.8819 25.0102L47.7459 25.6842L48.3187 26.0648C49.3714 26.7642 50 27.9363 50 29.2002ZM45.9789 29.2002L45.5048 28.8852C44.2247 28.035 43.5939 26.5121 43.8978 25.0057L44.0103 24.4477L43.4524 24.5603C41.9458 24.8641 40.423 24.2333 39.5727 22.9532L39.2578 22.4791L38.943 22.9531C38.0926 24.2333 36.5697 24.8642 35.0633 24.5603L34.5053 24.4477L34.6179 25.0056C34.9218 26.5121 34.2909 28.035 33.0108 28.8853L32.5367 29.2002L33.0108 29.5152C34.2909 30.3654 34.9217 31.8883 34.6179 33.3948L34.5053 33.9527L35.0633 33.8402C36.5422 33.5355 38.0951 34.1609 38.943 35.4474L39.2578 35.9214L39.5727 35.4474C40.423 34.1673 41.9453 33.5366 43.4523 33.8402L44.0103 33.9527L43.8978 33.3948C43.5938 31.8883 44.2247 30.3654 45.5048 29.5151L45.9789 29.2002Z" fill="#2C88FF"/>
<path d="M38.2812 14.6494H11.7187C9.1273 14.5463 9.12925 10.8454 11.7187 10.7432H38.2812C40.8726 10.8464 40.8707 14.5473 38.2812 14.6494ZM43.9837 49.7242C45.2062 49.1955 45.996 47.9934 45.996 46.6614V42.9697C45.8929 40.3783 42.192 40.3803 42.0898 42.9697V45.3604L40.4852 43.8785C39.737 43.1875 38.5833 43.1875 37.835 43.8785L36.2304 45.3605V42.9698C36.1273 40.3784 32.4264 40.3804 32.3242 42.9698V46.6615C32.3242 47.9935 33.114 49.1956 34.3365 49.7242C35.5558 50.2516 36.9683 50.0065 37.9385 49.1001L39.1601 47.9721L40.3817 49.1001C41.0123 49.6891 41.8294 49.9987 42.6591 49.9987C43.1061 49.9987 43.5568 49.9088 43.9837 49.7242Z" fill="#42D37B"/>
</svg>
