<svg width="114" height="114" viewBox="0 0 114 114" fill="none" xmlns="http://www.w3.org/2000/svg">
<g clip-path="url(#clip0_3822_4538)">
<path d="M40.1342 0.000302657C17.7283 0.119201 6.47953 38.6532 2.28135 58.4607C-1.91684 78.2684 2.46994 118.903 35.0332 113.512C40.2968 112.641 41.5254 112.462 45.8643 110.284C53.5871 106.408 62.7269 103.68 70.9866 102.857C74.3734 102.519 78.656 101.401 80.9224 100.994C99.0969 97.7253 117.645 80.1174 112.029 61.6676C107.813 47.8122 95.4576 42.2346 83.0846 43.0015C76.2896 43.4225 69.0579 39.4365 67.6078 35.033C62.8844 20.6902 57.452 -0.0914317 40.1342 0.000302657Z" fill="url(#paint0_linear_3822_4538)"/>
<path opacity="0.1" d="M56.5793 12.501L28.4634 23.9724C27.5399 24.3492 27.5399 25.657 28.4634 26.034L56.5793 37.5055C56.849 37.6155 57.1509 37.6155 57.4205 37.5055L85.5365 26.034C86.46 25.6573 86.46 24.3494 85.5365 23.9724L57.4205 12.501C57.1509 12.391 56.849 12.391 56.5793 12.501Z" fill="#2C88FF"/>
<path opacity="0.1" d="M107.318 89.3408V94.954C107.318 96.183 106.323 97.1805 105.092 97.1805H8.90845C7.67716 97.1805 6.68188 96.183 6.68188 94.954V89.3408C6.68188 88.1118 7.67716 87.1143 8.90845 87.1143H39.1908C39.5139 87.1143 39.8211 87.2545 40.0325 87.499L42.8991 90.8103H71.1008L73.9675 87.499C74.179 87.2548 74.486 87.1143 74.8091 87.1143H105.091C106.323 87.1143 107.318 88.1118 107.318 89.3408Z" fill="#2C88FF"/>
<path d="M100.65 86.3757H13.3495V30.7709C13.3495 28.6545 15.0651 26.939 17.1814 26.939H96.8186C98.935 26.939 100.651 28.6545 100.651 30.7709V86.3757H100.65Z" fill="black"/>
<path d="M107.318 83.3291V88.9423C107.318 90.1713 106.323 91.1688 105.092 91.1688H8.90845C7.67716 91.1688 6.68188 90.1713 6.68188 88.9423V83.3291C6.68188 82.1 7.67716 81.1025 8.90845 81.1025H39.1908C39.5139 81.1025 39.8211 81.2428 40.0325 81.4873L42.8991 84.7986H71.1008L73.9675 81.4873C74.179 81.243 74.486 81.1025 74.8091 81.1025H105.091C106.323 81.1025 107.318 82.1 107.318 83.3291Z" fill="white"/>
<path d="M94.3679 75.7646H19.632C19.0172 75.7646 18.5187 75.2661 18.5187 74.6514V33.5864C18.5187 32.9717 19.0172 32.4731 19.632 32.4731H94.3679C94.9826 32.4731 95.4811 32.9717 95.4811 33.5864V74.6514C95.4811 75.2661 94.9831 75.7646 94.3679 75.7646Z" fill="white"/>
<path d="M95.4811 46.9805V33.5864C95.4811 32.9717 94.9826 32.4731 94.3679 32.4731H19.632C19.0172 32.4731 18.5187 32.9717 18.5187 33.5864V46.9805H95.4811Z" fill="white"/>
<path d="M89.1832 57.4243H50.1025C49.4876 57.4243 48.9893 56.9258 48.9893 56.311C48.9893 55.6963 49.4876 55.1978 50.1025 55.1978H89.1832C89.7981 55.1978 90.2964 55.6963 90.2964 56.311C90.2964 56.9258 89.7979 57.4243 89.1832 57.4243Z" fill="#2C88FF"/>
<path d="M89.1832 61.3213H50.1025C49.4876 61.3213 48.9893 60.8228 48.9893 60.208C48.9893 59.5933 49.4876 59.0947 50.1025 59.0947H89.1832C89.7981 59.0947 90.2964 59.5933 90.2964 60.208C90.2964 60.8228 89.7979 61.3213 89.1832 61.3213Z" fill="#2C88FF"/>
<path d="M89.1832 65.2183H50.1025C49.4876 65.2183 48.9893 64.7197 48.9893 64.105C48.9893 63.4902 49.4876 62.9917 50.1025 62.9917H89.1832C89.7981 62.9917 90.2964 63.4902 90.2964 64.105C90.2964 64.7197 89.7979 65.2183 89.1832 65.2183Z" fill="#2C88FF"/>
<path d="M89.1832 66.8892C89.7981 66.8892 90.2964 67.3877 90.2964 68.0024C90.2964 68.6172 89.7981 69.1157 89.1832 69.1157H50.1025C49.4876 69.1157 48.9893 68.6172 48.9893 68.0024C48.9893 67.3877 49.4876 66.8892 50.1025 66.8892H89.1832Z" fill="#2C88FF"/>
<path d="M35.843 57.4243H24.817C24.202 57.4243 23.7037 56.9258 23.7037 56.311C23.7037 55.6963 24.202 55.1978 24.817 55.1978H35.843C36.4579 55.1978 36.9562 55.6963 36.9562 56.311C36.9562 56.9258 36.4577 57.4243 35.843 57.4243Z" fill="#2C88FF"/>
<path d="M41.8547 61.3213H24.817C24.202 61.3213 23.7037 60.8228 23.7037 60.208C23.7037 59.5933 24.202 59.0947 24.817 59.0947H41.8547C42.4697 59.0947 42.968 59.5933 42.968 60.208C42.968 60.8228 42.4694 61.3213 41.8547 61.3213Z" fill="#2C88FF"/>
<path d="M41.8547 65.2188H24.817C24.202 65.2188 23.7037 64.7202 23.7037 64.1055C23.7037 63.4907 24.202 62.9922 24.817 62.9922H41.8547C42.4697 62.9922 42.968 63.4907 42.968 64.1055C42.968 64.7202 42.4694 65.2188 41.8547 65.2188Z" fill="#2C88FF"/>
<path d="M41.8547 69.1157H24.817C24.202 69.1157 23.7037 68.6172 23.7037 68.0024C23.7037 67.3877 24.202 66.8892 24.817 66.8892H41.8547C42.4697 66.8892 42.968 67.3877 42.968 68.0024C42.968 68.6172 42.4694 69.1157 41.8547 69.1157Z" fill="#2C88FF"/>
<path d="M25.1615 53.4053C25.7763 53.4053 26.2748 52.9068 26.2748 52.292C26.2748 51.6771 25.7763 51.1787 25.1615 51.1787C24.5467 51.1787 24.0482 51.6771 24.0482 52.292C24.0482 52.9068 24.5467 53.4053 25.1615 53.4053Z" fill="#2C88FF"/>
<path d="M28.7797 53.4053C29.3945 53.4053 29.8929 52.9068 29.8929 52.292C29.8929 51.6771 29.3945 51.1787 28.7797 51.1787C28.1648 51.1787 27.6664 51.6771 27.6664 52.292C27.6664 52.9068 28.1648 53.4053 28.7797 53.4053Z" fill="#2C88FF"/>
<path d="M22.377 14.1055H21.709V13.4375C21.709 12.8227 21.2105 12.3242 20.5957 12.3242C19.981 12.3242 19.4824 12.8227 19.4824 13.4375V14.1055H18.8145C18.1997 14.1055 17.7012 14.604 17.7012 15.2188C17.7012 15.8335 18.1997 16.332 18.8145 16.332H19.4824V17C19.4824 17.6148 19.981 18.1133 20.5957 18.1133C21.2105 18.1133 21.709 17.6148 21.709 17V16.332H22.377C22.9917 16.332 23.4902 15.8335 23.4902 15.2188C23.4902 14.604 22.9917 14.1055 22.377 14.1055Z" fill="black"/>
<path d="M37.9257 102.756H37.2577V102.088C37.2577 101.473 36.7592 100.975 36.1444 100.975C35.5297 100.975 35.0311 101.473 35.0311 102.088V102.756H34.3632C33.7484 102.756 33.2499 103.254 33.2499 103.869C33.2499 104.484 33.7484 104.982 34.3632 104.982H35.0311V105.65C35.0311 106.265 35.5297 106.764 36.1444 106.764C36.7592 106.764 37.2577 106.265 37.2577 105.65V104.982H37.9257C38.5404 104.982 39.0389 104.484 39.0389 103.869C39.0389 103.254 38.5406 102.756 37.9257 102.756Z" fill="black"/>
<path d="M96.1492 18.1055H95.4812V17.4375C95.4812 16.8227 94.9829 16.3242 94.3679 16.3242C93.7529 16.3242 93.2546 16.8227 93.2546 17.4375V18.1055H92.5867C91.9717 18.1055 91.4734 18.604 91.4734 19.2188C91.4734 19.8335 91.9717 20.332 92.5867 20.332H93.2546V21C93.2546 21.6148 93.7529 22.1133 94.3679 22.1133C94.9829 22.1133 95.4812 21.6148 95.4812 21V20.332H96.1492C96.7641 20.332 97.2625 19.8335 97.2625 19.2188C97.2625 18.604 96.7644 18.1055 96.1492 18.1055Z" fill="black"/>
<path d="M32.1113 10.8362C31.8263 10.8362 31.5415 10.7275 31.324 10.5102L30.33 9.5163L29.3361 10.5102C28.9012 10.9449 28.1965 10.9449 27.7617 10.5102C27.3268 10.0754 27.3268 9.37046 27.7617 8.93583L29.5429 7.15458C29.9778 6.71996 30.6825 6.71996 31.1173 7.15458L32.8986 8.93583C33.3334 9.37068 33.3334 10.0756 32.8986 10.5102C32.681 10.7273 32.3963 10.8362 32.1113 10.8362Z" fill="black"/>
<path d="M51.2713 107.687C50.9863 107.687 50.7015 107.578 50.484 107.361L49.4901 106.367L48.4961 107.361C48.0613 107.795 47.3566 107.795 46.9217 107.361C46.4869 106.926 46.4869 106.221 46.9217 105.786L48.703 104.005C49.1378 103.571 49.8425 103.571 50.2774 104.005L52.0586 105.786C52.4935 106.221 52.4935 106.926 52.0586 107.361C51.8411 107.578 51.5561 107.687 51.2713 107.687Z" fill="black"/>
<path d="M76.8901 21.0991V42.316C76.8901 42.768 76.6163 43.1755 76.1954 43.3469L57.4211 51.0085C57.1516 51.1176 56.8488 51.1176 56.5794 51.0085L37.805 43.3469C37.3842 43.1755 37.1104 42.768 37.1104 42.316V21.0991H76.8901Z" fill="white"/>
<path d="M56.5793 6.48923L28.4634 17.9607C27.5399 18.3374 27.5399 19.6453 28.4634 20.0223L56.5793 31.4938C56.849 31.6037 57.1509 31.6037 57.4205 31.4938L85.5365 20.0223C86.46 19.6455 86.46 18.3377 85.5365 17.9607L57.4205 6.48923C57.1509 6.37924 56.849 6.37924 56.5793 6.48923Z" fill="white"/>
<path d="M73.379 70.5823H67.7854C67.1706 70.5823 66.6721 70.0837 66.6721 69.469V63.0055C66.6721 60.846 68.4229 59.0952 70.5824 59.0952C72.742 59.0952 74.4927 60.846 74.4927 63.0055V69.469C74.4923 70.0837 73.994 70.5823 73.379 70.5823Z" fill="black"/>
<path d="M70.582 60.9479C72.9515 60.9479 74.8724 59.0271 74.8724 56.6576C74.8724 54.2881 72.9515 52.3672 70.582 52.3672C68.2125 52.3672 66.2916 54.2881 66.2916 56.6576C66.2916 59.0271 68.2125 60.9479 70.582 60.9479Z" fill="black"/>
<path d="M105.092 79.9893H101.764V30.7711C101.764 28.0442 99.5456 25.8261 96.8187 25.8261H78.0025V24.2989L85.9573 21.0533C86.7989 20.7099 87.3429 19.9008 87.3429 18.9919C87.3429 18.0828 86.7992 17.2737 85.9573 16.9301L57.8412 5.45864C57.299 5.23709 56.7012 5.23709 56.1588 5.45864L28.0429 16.9301C27.2012 17.2734 26.6575 18.0828 26.6575 18.9919C26.6575 19.9008 27.2014 20.7099 28.0431 21.0533L35.9979 24.2989V42.316C35.9979 43.2251 36.5416 44.0343 37.3835 44.3776L56.159 52.0381C56.4302 52.149 56.7154 52.2042 57.0002 52.2042C57.2852 52.2042 57.5702 52.1488 57.8412 52.0381L69.4687 47.294V51.3699C67.0215 51.8845 65.1783 54.0596 65.1783 56.6576C65.1783 57.9868 65.6617 59.2045 66.4606 60.1468C65.8949 60.9593 65.5584 61.9425 65.5584 63.0053V69.4688C65.5584 70.6965 66.5573 71.6953 67.785 71.6953H73.3788C74.6065 71.6953 75.6053 70.6965 75.6053 69.4688V63.0053C75.6053 61.9421 75.2723 60.9557 74.7063 60.1432C75.5034 59.2016 75.9854 57.985 75.9854 56.6576C75.9854 54.0596 74.1423 51.8845 71.6951 51.3699V46.3855L76.6166 44.3776C77.4583 44.0343 78.0022 43.2249 78.0022 42.316V28.0527H96.8185C98.3174 28.0527 99.5371 29.2722 99.5371 30.7711V81.1025C99.5371 81.7173 100.035 82.2158 100.65 82.2158H105.091C105.705 82.2158 106.205 82.7152 106.205 83.3291V88.9423C106.205 89.5561 105.705 90.0555 105.091 90.0555H8.90845C8.29458 90.0555 7.79517 89.5561 7.79517 88.9423V83.3291C7.79517 82.7152 8.29458 82.2158 8.90845 82.2158H39.1908L42.0575 85.5274C42.269 85.7716 42.5761 85.9121 42.8991 85.9121H71.1008C71.4239 85.9121 71.7309 85.7719 71.9424 85.5274L74.8089 82.2158H93.8369C94.4519 82.2158 94.9502 81.7173 94.9502 81.1025C94.9502 80.4878 94.4519 79.9893 93.8369 79.9893H74.8089C74.1623 79.9893 73.5487 80.2698 73.1256 80.7585L70.5918 83.6854H43.4077L40.8741 80.7585C40.451 80.2696 39.8374 79.9893 39.1906 79.9893H14.4628V30.7711C14.4628 29.2722 15.6823 28.0527 17.1812 28.0527H30.2966C30.9113 28.0527 31.4099 27.5542 31.4099 26.9394C31.4099 26.3246 30.9113 25.8261 30.2966 25.8261H17.1815C14.4548 25.8261 12.2365 28.0444 12.2365 30.7711V79.9893H8.90845C7.06686 79.9893 5.5686 81.4875 5.5686 83.3291V88.9423C5.5686 90.7839 7.06686 92.2821 8.90845 92.2821H105.091C106.933 92.2821 108.431 90.7839 108.431 88.9423V83.3291C108.432 81.4875 106.934 79.9893 105.092 79.9893ZM72.0667 69.4688V66.1289C72.0667 65.5142 71.5684 65.0156 70.9534 65.0156C70.3384 65.0156 69.8401 65.5142 69.8401 66.1289V69.4688H67.7852V63.0053C67.7852 62.4573 67.9469 61.9483 68.2207 61.5168C68.9346 61.865 69.7359 62.0612 70.5822 62.0612C71.4283 62.0612 72.2292 61.8653 72.943 61.5173C73.2169 61.9485 73.3792 62.4573 73.3792 63.0055L73.3806 69.4688H72.0667ZM73.7593 56.6576C73.7593 58.4094 72.3343 59.8346 70.5822 59.8346C68.8301 59.8346 67.4051 58.4094 67.4051 56.6576C67.4051 54.9057 68.8301 53.4805 70.5822 53.4805C72.3343 53.4805 73.7593 54.9057 73.7593 56.6576ZM57 7.51999L85.1159 18.9915L70.1251 25.1078L54.4408 18.1999C53.8779 17.9519 53.2208 18.207 52.9732 18.7701C52.7254 19.3328 52.9806 19.9899 53.5435 20.2377L67.2577 26.2781L57 30.4632L28.8841 18.9915L57 7.51999ZM57 49.9765L38.2243 42.3158V25.2071L56.1588 32.5245C56.43 32.6354 56.7152 32.6906 57 32.6906C57.285 32.6906 57.57 32.6352 57.8409 32.5245L69.4687 27.7806V44.8893L57 49.9765ZM71.6953 43.9808V26.8722L75.7757 25.2074V42.316L71.6953 43.9808Z" fill="#2C88FF"/>
</g>
<defs>
<linearGradient id="paint0_linear_3822_4538" x1="203.121" y1="-0.805268" x2="-98.4441" y2="107.062" gradientUnits="userSpaceOnUse">
<stop stop-color="#D2D7FF" stop-opacity="0"/>
<stop offset="1" stop-color="#B7D8FF"/>
</linearGradient>
<clipPath id="clip0_3822_4538">
<rect width="114" height="114" fill="white"/>
</clipPath>
</defs>
</svg>
