<svg width="114" height="114" viewBox="0 0 114 114" fill="none" xmlns="http://www.w3.org/2000/svg">
<g clip-path="url(#clip0_3823_5133)">
<path d="M74.1333 9.2251C52.4176 34.3882 5.22651 6.86606 3.6933 48.2512C2.83229 71.4905 30.7647 60.5521 40.5665 78.8992C45.8873 88.8586 52.1052 109.166 62.428 112.721C84.8731 120.45 102.018 91.6046 83.0409 67.616C79.335 62.9314 79.8522 57.5961 83.8772 52.902C90.1861 45.5439 100.09 42.099 105.493 34.2857C121.547 11.0671 94.1238 -13.9389 74.1333 9.2251Z" fill="url(#paint0_linear_3823_5133)"/>
<g opacity="0.1">
<path opacity="0.1" d="M88.7056 42.9185C88.7056 35.1834 82.7378 28.8466 75.1559 28.2501C74.4425 18.8465 66.5865 11.4385 57.0003 11.4385C47.414 11.4385 39.5581 18.8465 38.8447 28.2501C31.2628 28.8466 25.2949 35.1834 25.2949 42.9185C25.2949 50.7801 31.4587 57.2012 39.2169 57.6152V67.2731H30.63C29.4009 67.2731 28.4034 68.2706 28.4034 69.4996V105.679C28.4034 106.91 29.4009 107.906 30.63 107.906H82.9253C84.1565 107.906 85.1518 106.91 85.1518 105.679V76.3174C85.1518 75.0861 84.1565 74.0908 82.9253 74.0908H74.7836V57.6152C82.5418 57.2012 88.7056 50.7801 88.7056 42.9185Z" fill="#2C88FF"/>
<path opacity="0.1" d="M21.7518 67.3296C21.3174 66.8947 20.612 66.8947 20.1776 67.3296L17.8183 69.6888C17.3835 70.1234 17.3835 70.8284 17.8183 71.263C18.2527 71.6979 18.9581 71.6979 19.3925 71.263L20.9647 69.6911L22.5369 71.263C22.7542 71.4805 23.0392 71.5892 23.3239 71.5892C23.6087 71.5892 23.8939 71.4805 24.111 71.263C24.5459 70.8284 24.5459 70.1234 24.111 69.6888L21.7518 67.3296Z" fill="#2C88FF"/>
<path opacity="0.1" d="M21.7518 61.1718C21.3174 60.737 20.612 60.737 20.1776 61.1718L17.8183 63.5311C17.3835 63.9657 17.3835 64.6707 17.8183 65.1053C18.2527 65.5401 18.9581 65.5401 19.3925 65.1053L20.9647 63.5333L22.5369 65.1053C22.7542 65.3228 23.0392 65.4315 23.3239 65.4315C23.6087 65.4315 23.8939 65.3228 24.111 65.1053C24.5459 64.6707 24.5459 63.9657 24.111 63.5311L21.7518 61.1718Z" fill="#2C88FF"/>
<path opacity="0.1" d="M21.752 55.0142C21.5432 54.8053 21.2599 54.688 20.9647 54.688C20.6695 54.688 20.3862 54.8051 20.1774 55.0142L17.8181 57.3737C17.3835 57.8083 17.3835 58.5132 17.8184 58.9481C18.2532 59.3825 18.9579 59.3827 19.3928 58.9479L20.9647 57.3757L22.5367 58.9479C22.7542 59.1654 23.0392 59.274 23.324 59.274C23.6087 59.274 23.894 59.1654 24.1111 58.9481C24.5459 58.5132 24.5459 57.8083 24.1113 57.3737L21.752 55.0142Z" fill="#2C88FF"/>
<path opacity="0.1" d="M92.2487 58.9477C92.4575 59.1566 92.7408 59.2739 93.036 59.2739C93.3312 59.2739 93.6145 59.1568 93.8233 58.9477L96.1826 56.5883C96.6172 56.1536 96.6172 55.4487 96.1824 55.0138C95.7475 54.5794 95.0428 54.5792 94.6079 55.0141L93.036 56.5862L91.464 55.0141C91.0292 54.5792 90.324 54.5794 89.8896 55.0138C89.4548 55.4487 89.4548 56.1536 89.8894 56.5883L92.2487 58.9477Z" fill="#2C88FF"/>
<path opacity="0.1" d="M94.6079 61.1718L93.0357 62.7438L91.4636 61.1718C91.0291 60.737 90.3238 60.737 89.8894 61.1718C89.4545 61.6065 89.4545 62.3114 89.8894 62.746L92.2486 65.1053C92.4659 65.3228 92.7509 65.4315 93.0357 65.4315C93.3205 65.4315 93.6057 65.3228 93.8228 65.1053L96.1821 62.746C96.6169 62.3114 96.6169 61.6065 96.1821 61.1718C95.7477 60.737 95.0423 60.737 94.6079 61.1718Z" fill="#2C88FF"/>
<path opacity="0.1" d="M94.6079 67.3296L93.0357 68.9015L91.4636 67.3296C91.0291 66.8947 90.3238 66.8947 89.8894 67.3296C89.4545 67.7642 89.4545 68.4691 89.8894 68.9037L92.2486 71.263C92.4659 71.4805 92.7509 71.5892 93.0357 71.5892C93.3205 71.5892 93.6057 71.4805 93.8228 71.263L96.1821 68.9037C96.6169 68.4691 96.6169 67.7642 96.1821 67.3296C95.7477 66.8947 95.0423 66.8947 94.6079 67.3296Z" fill="#2C88FF"/>
</g>
<path d="M73.9867 52.2937C82.1157 52.2937 88.7056 45.7039 88.7056 37.5748C88.7056 29.8397 82.7378 23.5029 75.1559 22.9064C74.4425 13.5027 66.5865 6.09473 57.0003 6.09473C47.414 6.09473 39.5581 13.5027 38.8447 22.9064C31.2628 23.5029 25.2949 29.8397 25.2949 37.5748C25.2949 45.7037 31.8847 52.2937 40.0138 52.2937H73.9867Z" fill="black"/>
<path d="M69.2812 52.2937C75.1582 52.2937 79.9226 47.6596 79.9226 41.9433C79.9226 36.5038 75.608 32.0478 70.1264 31.6283C69.6107 25.0156 63.931 19.8062 57.0004 19.8062C50.0697 19.8062 44.39 25.0156 43.8743 31.6283C38.3928 32.0478 34.0781 36.504 34.0781 41.9433C34.0781 47.6598 38.8425 52.2937 44.7195 52.2937H69.2812Z" fill="white"/>
<path d="M72.5571 76.8068H41.4436C40.2139 76.8068 39.217 75.81 39.217 74.5803V41.0093C39.217 39.7795 40.2139 38.7827 41.4436 38.7827H72.5569C73.7867 38.7827 74.7835 39.7795 74.7835 41.0093V74.5803C74.7837 75.81 73.7869 76.8068 72.5571 76.8068Z" fill="white"/>
<path d="M69.0553 65.4028H45.083C44.4683 65.4028 43.9697 64.9043 43.9697 64.2895C43.9697 63.6748 44.4683 63.1763 45.083 63.1763H69.0555C69.6703 63.1763 70.1688 63.6748 70.1688 64.2895C70.1686 64.9043 69.6703 65.4028 69.0553 65.4028Z" fill="#2C88FF"/>
<path d="M69.0553 51.2776H45.083C44.4683 51.2776 43.9697 50.7791 43.9697 50.1643V43.6646C43.9697 43.0498 44.4683 42.5513 45.083 42.5513H69.0555C69.6703 42.5513 70.1688 43.0498 70.1688 43.6646V50.1643C70.1686 50.7791 69.6703 51.2776 69.0553 51.2776Z" fill="black"/>
<path d="M69.0553 56.168H57.2483C56.6335 56.168 56.135 55.6694 56.135 55.0547C56.135 54.4399 56.6335 53.9414 57.2483 53.9414H69.0553C69.6701 53.9414 70.1686 54.4399 70.1686 55.0547C70.1686 55.6694 69.6703 56.168 69.0553 56.168Z" fill="#2C88FF"/>
<path d="M69.0553 60.1177H57.2483C56.6335 60.1177 56.135 59.6191 56.135 59.0044C56.135 58.3896 56.6335 57.8911 57.2483 57.8911H69.0553C69.6701 57.8911 70.1686 58.3896 70.1686 59.0044C70.1686 59.6194 69.6703 60.1177 69.0553 60.1177Z" fill="#2C88FF"/>
<path d="M66.8745 46.6909C67.4894 46.6909 67.9878 46.1925 67.9878 45.5776C67.9878 44.9628 67.4894 44.4644 66.8745 44.4644C66.2597 44.4644 65.7612 44.9628 65.7612 45.5776C65.7612 46.1925 66.2597 46.6909 66.8745 46.6909Z" fill="white"/>
<path d="M62.9329 46.6909C63.5477 46.6909 64.0461 46.1925 64.0461 45.5776C64.0461 44.9628 63.5477 44.4644 62.9329 44.4644C62.318 44.4644 61.8196 44.9628 61.8196 45.5776C61.8196 46.1925 62.318 46.6909 62.9329 46.6909Z" fill="white"/>
<path d="M58.9915 46.6909C59.6063 46.6909 60.1047 46.1925 60.1047 45.5776C60.1047 44.9628 59.6063 44.4644 58.9915 44.4644C58.3766 44.4644 57.8782 44.9628 57.8782 45.5776C57.8782 46.1925 58.3766 46.6909 58.9915 46.6909Z" fill="white"/>
<path d="M85.1517 70.9735V100.335C85.1517 101.566 84.1564 102.562 82.9252 102.562H30.6299C29.4008 102.562 28.4033 101.566 28.4033 100.335V64.1558C28.4033 62.9267 29.4008 61.9292 30.6299 61.9292H47.6007C48.2019 61.9292 48.7786 62.1741 49.1972 62.6061L55.1666 68.7469H82.9252C84.1564 68.7469 85.1517 69.7422 85.1517 70.9735Z" fill="white"/>
<path d="M49.3744 92.0244H37.5674C36.9526 92.0244 36.4541 91.5259 36.4541 90.9111C36.4541 90.2964 36.9526 89.7979 37.5674 89.7979H49.3744C49.9892 89.7979 50.4877 90.2964 50.4877 90.9111C50.4877 91.5259 49.9892 92.0244 49.3744 92.0244Z" fill="#2C88FF"/>
<path d="M49.3744 95.9741H37.5674C36.9526 95.9741 36.4541 95.4756 36.4541 94.8608C36.4541 94.2461 36.9526 93.7476 37.5674 93.7476H49.3744C49.9892 93.7476 50.4877 94.2461 50.4877 94.8608C50.4877 95.4756 49.9892 95.9741 49.3744 95.9741Z" fill="#2C88FF"/>
<path d="M78.5083 96.2949H60.5217C59.907 96.2949 59.4084 95.7963 59.4084 95.1816V86.0723C59.4084 85.4575 59.907 84.959 60.5217 84.959H78.5083C79.1231 84.959 79.6216 85.4575 79.6216 86.0723V95.1816C79.6216 95.7963 79.1233 96.2949 78.5083 96.2949Z" fill="black"/>
<path d="M82.9257 67.6331H55.637L49.996 61.8296C49.3707 61.1863 48.4977 60.8174 47.6008 60.8174H40.33V41.0095C40.33 40.3956 40.8294 39.8962 41.4433 39.8962H72.5568C73.1707 39.8962 73.6701 40.3956 73.6701 41.0095V68.5C73.6701 69.115 74.3855 69 75.0005 69C75.6155 69 75.8969 68.615 75.8969 68L75.8967 53.2867C83.7286 52.3402 89.8185 45.6578 89.8185 37.5748C89.8185 33.5654 88.3164 29.7408 85.5891 26.8058C83.0907 24.1172 79.7758 22.3954 76.1732 21.8973C75.6152 17.4079 73.5031 13.2685 70.1639 10.1593C66.5778 6.82036 61.9029 4.98145 57.0001 4.98145C52.0972 4.98145 47.4223 6.82036 43.8362 10.1593C40.497 13.2685 38.3849 17.4079 37.8269 21.8973C34.2243 22.3954 30.9094 24.1172 28.411 26.8058C25.6837 29.741 24.1816 33.5654 24.1816 37.5748C24.1816 45.6576 30.2717 52.3402 38.1034 53.2869V60.8174H30.6307C28.7891 60.8174 27.2908 62.3156 27.2908 64.1572V100.336C27.2908 102.178 28.7891 103.676 30.6307 103.676L58.0005 103.676C58.6155 103.676 55.5005 103.178 55.5005 102.563C55.5005 101.948 55.6155 101.45 55.0005 101.45L30.6307 101.449C30.0168 101.449 29.5174 100.95 29.5174 100.336V64.1572C29.5174 63.5434 30.0168 63.044 30.6307 63.044H47.6008C47.8999 63.044 48.1907 63.1669 48.3993 63.3815L54.368 69.5226C54.5778 69.7381 54.8657 69.8599 55.1665 69.8599H82.9257C83.5396 69.8599 84.039 70.3593 84.039 70.9732V100.336C84.039 100.95 83.5396 101.45 82.9257 101.45H51.6271C51.0122 101.45 50.5139 101.948 50.5139 102.563C50.5139 103.178 51.0122 103.676 51.6271 103.676H82.9255C84.7671 103.676 86.2653 102.178 86.2653 100.336V70.973C86.2655 69.1312 84.7673 67.6331 82.9257 67.6331ZM26.408 37.5748C26.408 30.5243 31.9089 24.5687 38.9317 24.0161C39.4788 23.9731 39.9127 23.5378 39.9544 22.9905C40.2795 18.7062 42.1968 14.7282 45.3534 11.7889C48.526 8.83496 52.6623 7.20801 57.0001 7.20801C61.3378 7.20801 65.4741 8.83496 68.6468 11.7889C71.8034 14.728 73.7206 18.706 74.0457 22.9905C74.0874 23.5378 74.5213 23.9731 75.0684 24.0161C82.0912 24.5685 87.5921 30.5241 87.5921 37.5748C87.5921 44.4281 82.4971 50.109 75.8969 51.0408V41.0095C75.8969 39.1679 74.3986 37.6696 72.557 37.6696H41.4433C39.6017 37.6696 38.1034 39.1679 38.1034 41.0095V51.0399C31.5032 50.1076 26.408 44.4279 26.408 37.5748Z" fill="#2C88FF"/>
<path d="M21.7518 61.9858C21.3174 61.551 20.612 61.551 20.1776 61.9858L17.8183 64.3451C17.3835 64.7797 17.3835 65.4846 17.8183 65.9193C18.2527 66.3541 18.9581 66.3541 19.3925 65.9193L20.9647 64.3473L22.5369 65.9193C22.7542 66.1368 23.0392 66.2454 23.3239 66.2454C23.6087 66.2454 23.8939 66.1368 24.111 65.9193C24.5459 65.4846 24.5459 64.7797 24.111 64.3451L21.7518 61.9858Z" fill="#2C88FF"/>
<path d="M21.7518 55.8281C21.3174 55.3932 20.612 55.3932 20.1776 55.8281L17.8183 58.1874C17.3835 58.622 17.3835 59.3269 17.8183 59.7615C18.2527 60.1964 18.9581 60.1964 19.3925 59.7615L20.9647 58.1896L22.5369 59.7615C22.7542 59.9791 23.0392 60.0877 23.3239 60.0877C23.6087 60.0877 23.8939 59.9791 24.111 59.7615C24.5459 59.3269 24.5459 58.622 24.111 58.1874L21.7518 55.8281Z" fill="#2C88FF"/>
<path d="M21.7518 49.6704C21.3174 49.2355 20.612 49.2355 20.1776 49.6704L17.8183 52.0296C17.3835 52.4643 17.3835 53.1692 17.8183 53.6038C18.2527 54.0387 18.9581 54.0387 19.3925 53.6038L20.9647 52.0319L22.5369 53.6038C22.7542 53.8214 23.0392 53.93 23.3239 53.93C23.6087 53.93 23.8939 53.8214 24.111 53.6038C24.5459 53.1692 24.5459 52.4643 24.111 52.0296L21.7518 49.6704Z" fill="#2C88FF"/>
<path d="M89.8894 51.2446L92.2486 53.6038C92.4659 53.8214 92.7509 53.93 93.0357 53.93C93.3205 53.93 93.6057 53.8214 93.8228 53.6038L96.1821 51.2446C96.6169 50.8099 96.6169 50.105 96.1821 49.6704C95.7477 49.2355 95.0423 49.2355 94.6079 49.6704L93.0357 51.2423L91.4635 49.6704C91.0291 49.2355 90.3238 49.2355 89.8894 49.6704C89.4545 50.105 89.4545 50.8099 89.8894 51.2446Z" fill="#2C88FF"/>
<path d="M94.6077 55.8281L93.0355 57.4L91.4633 55.8281C91.0289 55.3932 90.3235 55.3932 89.8891 55.8281C89.4543 56.2627 89.4543 56.9676 89.8891 57.4023L92.2484 59.7615C92.4657 59.9791 92.7507 60.0877 93.0355 60.0877C93.3203 60.0877 93.6055 59.9791 93.8226 59.7615L96.1818 57.4023C96.6167 56.9676 96.6167 56.2627 96.1818 55.8281C95.7474 55.3932 95.0421 55.3932 94.6077 55.8281Z" fill="#2C88FF"/>
<path d="M94.6077 61.986L93.0355 63.5579L91.4633 61.986C91.0289 61.5511 90.3235 61.5511 89.8891 61.986C89.4543 62.4206 89.4543 63.1255 89.8891 63.5601L92.2484 65.9194C92.4657 66.1369 92.7507 66.2456 93.0355 66.2456C93.3203 66.2456 93.6055 66.1369 93.8226 65.9194L96.1818 63.5601C96.6167 63.1255 96.6167 62.4206 96.1818 61.986C95.7474 61.5509 95.0421 61.5509 94.6077 61.986Z" fill="#2C88FF"/>
<path d="M19.0596 85.6978C18.4446 85.6978 17.9463 85.1994 17.9463 84.5845C17.9463 83.9094 17.3968 83.3599 16.7217 83.3599C16.1067 83.3599 15.6084 82.8616 15.6084 82.2466C15.6084 81.6316 16.1067 81.1333 16.7217 81.1333C17.3968 81.1333 17.9463 80.5838 17.9463 79.9087C17.9463 79.2937 18.4446 78.7954 19.0596 78.7954C19.6745 78.7954 20.1729 79.2937 20.1729 79.9087C20.1729 80.5838 20.7224 81.1333 21.3975 81.1333C22.0124 81.1333 22.5107 81.6316 22.5107 82.2466C22.5107 82.8616 22.0124 83.3599 21.3975 83.3599C20.7224 83.3599 20.1729 83.9094 20.1729 84.5845C20.1729 85.1992 19.6743 85.6978 19.0596 85.6978Z" fill="black"/>
<path d="M95.0024 80.2886C94.3875 80.2886 93.8892 79.7903 93.8892 79.1753C93.8892 78.5002 93.3396 77.9507 92.6646 77.9507C92.0496 77.9507 91.5513 77.4524 91.5513 76.8374C91.5513 76.2224 92.0496 75.7241 92.6646 75.7241C93.3396 75.7241 93.8892 75.1746 93.8892 74.4995C93.8892 73.8845 94.3875 73.3862 95.0024 73.3862C95.6174 73.3862 96.1157 73.8845 96.1157 74.4995C96.1157 75.1746 96.6652 75.7241 97.3403 75.7241C97.9553 75.7241 98.4536 76.2224 98.4536 76.8374C98.4536 77.4524 97.9553 77.9507 97.3403 77.9507C96.6652 77.9507 96.1157 78.5002 96.1157 79.1753C96.1157 79.79 95.6172 80.2886 95.0024 80.2886Z" fill="black"/>
<path d="M101.178 42.2339C100.563 42.2339 100.065 41.7356 100.065 41.1206C100.065 40.4455 99.5156 39.896 98.8403 39.896C98.2254 39.896 97.7271 39.3977 97.7271 38.7827C97.7271 38.1677 98.2254 37.6694 98.8403 37.6694C99.5156 37.6694 100.065 37.1199 100.065 36.4448C100.065 35.8298 100.563 35.3315 101.178 35.3315C101.793 35.3315 102.292 35.8298 102.292 36.4448C102.292 37.1199 102.841 37.6694 103.516 37.6694C104.131 37.6694 104.629 38.1677 104.629 38.7827C104.629 39.3977 104.131 39.896 103.516 39.896C102.841 39.896 102.292 40.4455 102.292 41.1206C102.292 41.7354 101.793 42.2339 101.178 42.2339Z" fill="black"/>
<path d="M10.4147 75.2275C10.13 75.2275 9.84474 75.1188 9.62765 74.9013C9.1928 74.4667 9.1928 73.7617 9.62765 73.3271L11.8542 71.1005C12.2886 70.6657 12.994 70.6657 13.4284 71.1005C13.8632 71.5352 13.8632 72.2401 13.4284 72.6747L11.2018 74.9013C10.9847 75.1188 10.6997 75.2275 10.4147 75.2275Z" fill="black"/>
<path d="M81.8852 16.5898C81.6004 16.5898 81.3152 16.4811 81.0981 16.2636C80.6633 15.829 80.6633 15.124 81.0981 14.6894L83.3247 12.4629C83.7591 12.028 84.4645 12.028 84.8989 12.4629C85.3337 12.8975 85.3337 13.6024 84.8989 14.037L82.6723 16.2636C82.455 16.4811 82.17 16.5898 81.8852 16.5898Z" fill="black"/>
</g>
<defs>
<linearGradient id="paint0_linear_3823_5133" x1="196.019" y1="-0.805268" x2="-94.0089" y2="97.893" gradientUnits="userSpaceOnUse">
<stop stop-color="#D2D7FF" stop-opacity="0"/>
<stop offset="1" stop-color="#B7D8FF"/>
</linearGradient>
<clipPath id="clip0_3823_5133">
<rect width="114" height="114" fill="white"/>
</clipPath>
</defs>
</svg>
