<svg width="114" height="114" viewBox="0 0 114 114" fill="none" xmlns="http://www.w3.org/2000/svg">
<g clip-path="url(#clip0_3822_4868)">
<path d="M111.456 44.6649C113.055 41.057 113.959 37.0728 113.998 32.8817C114.151 16.8569 101.483 3.46906 85.4715 2.78618C80.2188 2.56218 75.2505 3.69706 70.8886 5.86841C62.1336 10.2269 51.8658 10.2269 43.1107 5.86841C38.7491 3.69706 33.7808 2.56218 28.5281 2.78618C12.5173 3.46929 -0.150719 16.8567 0.00135493 32.8817C0.0412104 37.0728 0.945195 41.057 2.54387 44.6649C6.02354 52.5178 6.02354 61.4821 2.54387 69.3352C0.945195 72.9432 0.0409877 76.9276 0.00135493 81.1186C-0.150719 97.1437 12.5173 110.531 28.5285 111.214C33.7812 111.438 38.7495 110.303 43.1112 108.132C51.8662 103.773 62.1338 103.773 70.8886 108.132C75.2503 110.303 80.2188 111.438 85.4715 111.214C101.483 110.531 114.151 97.1434 113.998 81.1186C113.959 76.9276 113.055 72.9434 111.456 69.3355C107.976 61.4821 107.976 52.5178 111.456 44.6649Z" fill="url(#paint0_linear_3822_4868)"/>
<path opacity="0.1" d="M97.3106 27.4404H16.6895C14.845 27.4404 13.3496 28.9358 13.3496 30.7803V77.5256C13.3496 79.3701 14.845 80.8655 16.6895 80.8655H41.5114V83.3545C41.5114 84.5843 42.5082 85.5811 43.738 85.5811H48.3877V98.0498H39.6255C38.3717 98.0498 37.3553 99.0663 37.3553 100.32C37.3553 101.574 38.3717 102.59 39.6255 102.59H74.3744C75.6281 102.59 76.6446 101.574 76.6446 100.32C76.6446 99.066 75.6281 98.0498 74.3744 98.0498H65.6124V85.5811H70.2621C71.4918 85.5811 72.4887 84.5843 72.4887 83.3545V80.8655H97.3106C99.1551 80.8655 100.65 79.3701 100.65 77.5256V30.7803C100.65 28.9358 99.1551 27.4404 97.3106 27.4404Z" fill="#2C88FF"/>
<path d="M25.8292 86.4692H25.1613V85.8013C25.1613 85.1865 24.663 84.688 24.048 84.688C23.433 84.688 22.9347 85.1865 22.9347 85.8013V86.4692H22.2667C21.6517 86.4692 21.1534 86.9678 21.1534 87.5825C21.1534 88.1973 21.6517 88.6958 22.2667 88.6958H22.9347V89.3638C22.9347 89.9785 23.433 90.4771 24.048 90.4771C24.663 90.4771 25.1613 89.9785 25.1613 89.3638V88.6958H25.8292C26.4442 88.6958 26.9425 88.1973 26.9425 87.5825C26.9425 86.9678 26.4442 86.4692 25.8292 86.4692Z" fill="black"/>
<path d="M22.2667 10.7319H21.5988V10.064C21.5988 9.44921 21.1005 8.95068 20.4855 8.95068C19.8705 8.95068 19.3722 9.44921 19.3722 10.064V10.7319H18.7042C18.0892 10.7319 17.5909 11.2305 17.5909 11.8452C17.5909 12.46 18.0892 12.9585 18.7042 12.9585H19.3722V13.6265C19.3722 14.2412 19.8705 14.7397 20.4855 14.7397C21.1005 14.7397 21.5988 14.2412 21.5988 13.6265V12.9585H22.2667C22.8817 12.9585 23.38 12.46 23.38 11.8452C23.38 11.2305 22.8817 10.7319 22.2667 10.7319Z" fill="black"/>
<path d="M33.8923 12.5132H33.2244V11.8452C33.2244 11.2305 32.7261 10.7319 32.1111 10.7319C31.4961 10.7319 30.9978 11.2305 30.9978 11.8452V12.5132H30.3298C29.7149 12.5132 29.2166 13.0117 29.2166 13.6265C29.2166 14.2412 29.7149 14.7397 30.3298 14.7397H30.9978V15.4077C30.9978 16.0225 31.4961 16.521 32.1111 16.521C32.7261 16.521 33.2244 16.0225 33.2244 15.4077V14.7397H33.8923C34.5073 14.7397 35.0056 14.2412 35.0056 13.6265C35.0056 13.0117 34.5071 12.5132 33.8923 12.5132Z" fill="black"/>
<path d="M32.111 83.4255C31.8262 83.4255 31.541 83.3169 31.3239 83.0996L30.3298 82.1057L29.3356 83.0996C28.9012 83.5342 28.1958 83.5342 27.7614 83.0996C27.3266 82.6647 27.3266 81.9598 27.7614 81.5252L29.5427 79.7439C29.9771 79.3093 30.6825 79.3093 31.1169 79.7439L32.8981 81.5252C33.333 81.96 33.333 82.665 32.8981 83.0996C32.6808 83.3167 32.3958 83.4255 32.111 83.4255Z" fill="black"/>
<path d="M93.8586 89.5862C93.5738 89.5862 93.2886 89.4776 93.0715 89.2603L92.0773 88.2663L91.0832 89.2603C90.6488 89.6949 89.9434 89.6949 89.509 89.2603C89.0741 88.8254 89.0741 88.1205 89.509 87.6858L91.2903 85.9046C91.7247 85.47 92.43 85.47 92.8644 85.9046L94.6457 87.6858C95.0805 88.1207 95.0805 88.8256 94.6457 89.2603C94.4286 89.4773 94.1434 89.5862 93.8586 89.5862Z" fill="black"/>
<path d="M48.3877 72.9497H65.6124V95.006H48.3877V72.9497Z" fill="white"/>
<path d="M70.2622 79.5696H43.738C42.5083 79.5696 41.5115 78.5727 41.5115 77.343V72.3003H72.4885V77.343C72.4887 78.5727 71.4917 79.5696 70.2622 79.5696Z" fill="white"/>
<path d="M97.3106 74.8538H16.6895C14.845 74.8538 13.3496 73.3584 13.3496 71.5139V24.7686C13.3496 22.9241 14.845 21.4287 16.6895 21.4287H97.3106C99.1551 21.4287 100.65 22.9241 100.65 24.7686V71.5139C100.65 73.3584 99.1551 74.8538 97.3106 74.8538Z" fill="black"/>
<path d="M100.65 65.8593H13.3496V24.7686C13.3496 22.9241 14.845 21.4287 16.6895 21.4287H97.3102C99.1546 21.4287 100.65 22.9241 100.65 24.7686V65.8593Z" fill="white"/>
<path d="M33.0405 36.0681L30.0765 34.0489L27.1125 36.0681C26.3735 36.5716 25.3724 36.0423 25.3724 35.1481V21.4287H34.7808V35.1481C34.7806 36.0423 33.7795 36.5718 33.0405 36.0681Z" fill="black"/>
<path d="M89.1829 38.4209H50.1023C49.4873 38.4209 48.989 37.9224 48.989 37.3076C48.989 36.6929 49.4873 36.1943 50.1023 36.1943H89.1829C89.7979 36.1943 90.2962 36.6929 90.2962 37.3076C90.2962 37.9224 89.7979 38.4209 89.1829 38.4209Z" fill="#2C88FF"/>
<path d="M89.1829 42.7632H50.1023C49.4873 42.7632 48.989 42.2647 48.989 41.6499C48.989 41.0351 49.4873 40.5366 50.1023 40.5366H89.1829C89.7979 40.5366 90.2962 41.0351 90.2962 41.6499C90.2962 42.2647 89.7979 42.7632 89.1829 42.7632Z" fill="#2C88FF"/>
<path d="M89.1829 47.106H50.1023C49.4873 47.106 48.989 46.6074 48.989 45.9927C48.989 45.3779 49.4873 44.8794 50.1023 44.8794H89.1829C89.7979 44.8794 90.2962 45.3779 90.2962 45.9927C90.2962 46.6074 89.7979 47.106 89.1829 47.106Z" fill="#2C88FF"/>
<path d="M89.1829 51.4482H50.1023C49.4873 51.4482 48.989 50.9497 48.989 50.335C48.989 49.7202 49.4873 49.2217 50.1023 49.2217H89.1829C89.7979 49.2217 90.2962 49.7202 90.2962 50.335C90.2962 50.9497 89.7979 51.4482 89.1829 51.4482Z" fill="#2C88FF"/>
<path d="M89.1829 55.7905H50.1023C49.4873 55.7905 48.989 55.292 48.989 54.6772C48.989 54.0625 49.4873 53.564 50.1023 53.564H89.1829C89.7979 53.564 90.2962 54.0625 90.2962 54.6772C90.2962 55.292 89.7979 55.7905 89.1829 55.7905Z" fill="#2C88FF"/>
<path d="M89.1829 57.9062C89.7979 57.9062 90.2962 58.4048 90.2962 59.0195C90.2962 59.6343 89.7979 60.1328 89.1829 60.1328H50.1023C49.4873 60.1328 48.989 59.6343 48.989 59.0195C48.989 58.4048 49.4873 57.9062 50.1023 57.9062H89.1829Z" fill="#2C88FF"/>
<path d="M35.8428 48.4414H24.8169C24.2019 48.4414 23.7036 47.9429 23.7036 47.3281C23.7036 46.7134 24.2019 46.2148 24.8169 46.2148H35.8428C36.4578 46.2148 36.9561 46.7134 36.9561 47.3281C36.9561 47.9429 36.4576 48.4414 35.8428 48.4414Z" fill="#2C88FF"/>
<path d="M41.8545 52.3384H24.8169C24.2019 52.3384 23.7036 51.8399 23.7036 51.2251C23.7036 50.6103 24.2019 50.1118 24.8169 50.1118H41.8545C42.4695 50.1118 42.9678 50.6103 42.9678 51.2251C42.9678 51.8399 42.4693 52.3384 41.8545 52.3384Z" fill="#2C88FF"/>
<path d="M41.8545 56.2358H24.8169C24.2019 56.2358 23.7036 55.7373 23.7036 55.1226C23.7036 54.5078 24.2019 54.0093 24.8169 54.0093H41.8545C42.4695 54.0093 42.9678 54.5078 42.9678 55.1226C42.9678 55.7373 42.4693 56.2358 41.8545 56.2358Z" fill="#2C88FF"/>
<path d="M41.8545 60.1328H24.8169C24.2019 60.1328 23.7036 59.6343 23.7036 59.0195C23.7036 58.4048 24.2019 57.9062 24.8169 57.9062H41.8545C42.4695 57.9062 42.9678 58.4048 42.9678 59.0195C42.9678 59.6343 42.4693 60.1328 41.8545 60.1328Z" fill="#2C88FF"/>
<path d="M25.1614 44.4224C25.7762 44.4224 26.2747 43.9239 26.2747 43.3091C26.2747 42.6942 25.7762 42.1958 25.1614 42.1958C24.5465 42.1958 24.0481 42.6942 24.0481 43.3091C24.0481 43.9239 24.5465 44.4224 25.1614 44.4224Z" fill="#2C88FF"/>
<path d="M28.7795 44.4224C29.3944 44.4224 29.8928 43.9239 29.8928 43.3091C29.8928 42.6942 29.3944 42.1958 28.7795 42.1958C28.1647 42.1958 27.6663 42.6942 27.6663 43.3091C27.6663 43.9239 28.1647 44.4224 28.7795 44.4224Z" fill="#2C88FF"/>
<path d="M52.5468 31.4083C52.262 31.4083 51.977 31.2997 51.7597 31.0824L51.2478 30.5707L50.7364 31.0822C50.3015 31.517 49.5968 31.517 49.162 31.0822C48.7271 30.6473 48.7271 29.9426 49.1618 29.5078L50.4605 28.209C50.6694 28.0002 50.9526 27.8828 51.2478 27.8828C51.5431 27.8828 51.8263 28.0002 52.0349 28.2088L53.3339 29.5075C53.7687 29.9424 53.7687 30.6471 53.3341 31.0819C53.1168 31.2997 52.8316 31.4083 52.5468 31.4083Z" fill="#2C88FF"/>
<path d="M74.3746 96.579H39.6255C38.3718 96.579 37.3553 95.5626 37.3553 94.3088C37.3553 93.055 38.3718 92.0386 39.6255 92.0386H74.3744C75.6282 92.0386 76.6446 93.055 76.6446 94.3088C76.6448 95.5626 75.6284 96.579 74.3746 96.579Z" fill="white"/>
<path d="M97.3106 20.3154H16.6895C14.234 20.3154 12.2363 22.3131 12.2363 24.7686V71.5139C12.2363 73.9693 14.234 75.967 16.6895 75.967H34.6981C35.3131 75.967 35.8114 75.4685 35.8114 74.8537C35.8114 74.239 35.3131 73.7405 34.6981 73.7405H16.6895C15.4617 73.7405 14.4629 72.7416 14.4629 71.5139V24.7686C14.4629 23.5408 15.4617 22.542 16.6895 22.542H97.3106C98.5384 22.542 99.5372 23.5408 99.5372 24.7686V33.9994C99.5372 34.6142 100.035 35.1127 100.65 35.1127C101.265 35.1127 101.764 34.6142 101.764 33.9994V24.7686C101.764 22.3131 99.7661 20.3154 97.3106 20.3154Z" fill="#2C88FF"/>
<path d="M100.5 32.9999C99.8851 32.9999 99.5372 32.3852 99.5372 32.9999V71.5141C99.5372 72.7418 98.5384 73.7407 97.3106 73.7407H41.5114C40.8964 73.7407 40.3981 74.2392 40.3981 74.8539V77.343C40.3981 79.1846 41.8964 80.6829 43.738 80.6829H47.2744V90.925H39.6255C37.7597 90.925 36.2418 92.4429 36.2418 94.3085C36.2418 96.1742 37.7597 97.692 39.6255 97.692H74.3741C76.24 97.692 77.7579 96.1742 77.7579 94.3085C77.7579 92.4429 76.24 90.925 74.3741 90.925H66.7257V80.6829H70.2621C72.1037 80.6829 73.602 79.1846 73.602 77.343V75.9672H97.3106C99.7661 75.9672 101.764 73.9695 101.764 71.5141V31.5003C101.764 30.8855 101.115 32.9999 100.5 32.9999ZM75.5315 94.3085C75.5315 94.9464 75.0125 95.4654 74.3744 95.4654H39.6258C38.9876 95.4654 38.4686 94.9464 38.4686 94.3085C38.4686 93.6706 38.9876 93.1516 39.6258 93.1516H74.3744C75.0125 93.1516 75.5315 93.6706 75.5315 94.3085ZM64.4991 90.925H49.501V80.6829H64.4989L64.4991 90.925ZM71.3752 77.343C71.3752 77.9569 70.8758 78.4563 70.2619 78.4563H43.738C43.1241 78.4563 42.6247 77.9569 42.6247 77.343V75.9672H71.3752V77.343Z" fill="#2C88FF"/>
</g>
<defs>
<linearGradient id="paint0_linear_3822_4868" x1="205.595" y1="1.992" x2="-96.2152" y2="117.358" gradientUnits="userSpaceOnUse">
<stop stop-color="#D2D7FF" stop-opacity="0"/>
<stop offset="1" stop-color="#B7D8FF"/>
</linearGradient>
<clipPath id="clip0_3822_4868">
<rect width="114" height="114" fill="white"/>
</clipPath>
</defs>
</svg>
