<svg width="50" height="50" viewBox="0 0 50 50" fill="none" xmlns="http://www.w3.org/2000/svg">
<g clip-path="url(#clip0_3880_4270)">
<rect x="-2.00024" y="21" width="56" height="10" fill="#0B0D17"/>
<path d="M11.7894 24.0382C12.5852 23.0112 13.017 21.7488 13.017 20.4494C13.017 12.6087 17.6489 7.18961 21.9917 4.15959C21.9982 3.58771 21.999 3.01573 21.9998 2.44385C13.4124 4.17795 7.40692 10.463 7.40692 20.4494C5.53317 22.8677 3.90698 25.2055 2.86195 27.2054C1.73889 29.3544 3.31283 31.9269 5.73551 31.9332C6.54197 31.9353 7.21658 32.5445 7.28524 33.348L7.70702 38.2824C7.95243 41.1537 10.3546 43.3593 13.2362 43.3593H16.3434C16.2846 42.7797 16.2264 42.2001 16.1668 41.6209C14.5607 41.1284 13.3796 39.655 13.3325 37.8904L12.8742 32.8487C12.8742 29.4919 9.84992 28.1321 9.79415 28.0839C9.31954 27.6733 8.69004 27.6364 9.58741 26.4645C10.1059 25.7871 11.181 24.8234 11.7894 24.0382Z" fill="#42D37B"/>
<path d="M18.8012 50C17.7225 50 16.848 49.1256 16.848 48.0468V47.2656C16.848 46.1886 15.9718 45.3124 14.8949 45.3124H13.2362C11.352 45.3124 9.5499 44.6106 8.16199 43.3363C6.77409 42.062 5.92144 40.3262 5.76089 38.4489L5.36977 33.8734C1.71485 33.6754 -0.627466 29.5313 1.13095 26.3009C2.08292 24.4794 3.50256 22.3396 5.46255 19.7738C5.6395 10.2511 11.4617 2.92787 20.6943 0.738778C23.2372 0.227444 24.1084 3.82407 21.6164 4.53462C13.8273 6.42703 9.35995 12.2278 9.35995 20.4496C9.35995 20.8827 9.21601 21.3035 8.95077 21.6458C6.95377 24.2233 5.48755 26.3983 4.593 28.1101C4.29574 28.6788 4.52357 29.1694 4.63529 29.3539C4.74935 29.5422 5.08578 29.9802 5.74438 29.9802C7.57624 29.9802 9.07518 31.3566 9.23124 33.1817L9.65302 38.1161C9.81328 39.9917 11.3537 41.406 13.2361 41.406H14.8948C18.1257 41.406 20.7542 44.0346 20.7542 47.2655V48.0467C20.7543 49.1256 19.8799 50 18.8012 50ZM48.6877 17.6547C49.0534 16.6398 48.5272 15.5207 47.5125 15.155C46.498 14.7892 45.3785 15.3153 45.0127 16.3301C41.3356 26.0091 27.181 23.5546 27.0044 13.1836C26.9155 6.55808 34.1373 1.84133 40.1533 4.80191C41.1334 5.2526 42.2931 4.82349 42.7438 3.8435C43.1946 2.86351 42.7656 1.70363 41.7856 1.25294C39.9781 0.421489 38.1264 0 36.2818 0C18.7903 0.72452 18.7984 25.6469 36.2818 26.3675C41.8236 26.3675 46.8091 22.8661 48.6877 17.6547ZM43.1179 48.0468V35.9373C43.1179 34.3776 43.4081 33.0248 44.0588 31.5509C44.4944 30.564 44.0476 29.4109 43.0607 28.9752C42.0739 28.5397 40.9209 28.9865 40.4851 29.9732C39.6163 31.9415 39.2116 33.8366 39.2116 35.9372V48.0467C39.2116 49.1255 40.086 49.9999 41.1647 49.9999C42.2434 49.9999 43.1179 49.1256 43.1179 48.0468Z" fill="#2C88FF"/>
<path d="M37.7499 17.1877C36.4142 17.1877 35.1599 16.6612 34.2182 15.7054L31.4665 12.8883C30.7128 12.1166 30.7274 10.8801 31.4991 10.1263C32.2709 9.37267 33.5073 9.38722 34.261 10.1588L37.0067 12.9699C37.2026 13.1687 37.4686 13.2814 37.7498 13.2814C38.0311 13.2814 38.2971 13.1687 38.4989 12.9639L46.1248 5.26608C46.8837 4.49976 48.1204 4.4939 48.8869 5.25309C49.6533 6.01228 49.659 7.24892 48.8999 8.01523L41.2777 15.7092C40.34 16.6612 39.0857 17.1877 37.7499 17.1877Z" fill="#42D37B"/>
</g>
<defs>
<clipPath id="clip0_3880_4270">
<rect width="50" height="50" fill="white"/>
</clipPath>
</defs>
</svg>
