<svg width="21" height="16" viewBox="0 0 21 16" fill="none" xmlns="http://www.w3.org/2000/svg">
<path d="M2.11006 15.968C1.32606 13.728 0.934063 11.5067 0.934063 9.304C0.934063 6.76533 1.60606 4.73066 2.95006 3.2C4.29406 1.632 6.25406 0.847996 8.83006 0.847996V4.376C6.8514 4.376 5.86206 5.64533 5.86206 8.184V9.024H9.44606V15.968H2.11006ZM12.6941 15.968C11.9474 13.6907 11.5741 11.4693 11.5741 9.304C11.5741 6.76533 12.2274 4.73066 13.5341 3.2C14.8781 1.632 16.8381 0.847996 19.4141 0.847996V4.376C17.4727 4.376 16.5021 5.64533 16.5021 8.184V9.024H20.0301V15.968H12.6941Z" fill="#42D37B"/>
</svg>
