<svg width="114" height="114" viewBox="0 0 114 114" fill="none" xmlns="http://www.w3.org/2000/svg">
<path d="M93.4711 45.5998C93.716 43.8631 93.8273 42.1041 93.8051 40.3229C93.6715 20.2615 77.284 3.91858 57.2449 3.78498C36.8051 3.65139 20.1727 20.1947 20.1727 40.6123C20.1727 42.3045 20.284 43.9744 20.5066 45.5998C21.3973 52.2127 18.3023 58.7588 12.6691 62.3658C4.74258 67.3979 0 73.8326 0 80.824C0 97.0557 25.5164 110.215 57 110.215C88.4836 110.215 114 97.0557 114 80.824C114 73.8326 109.257 67.3979 101.331 62.3436C95.6754 58.7588 92.5805 52.235 93.4711 45.5998Z" fill="url(#paint0_linear_3823_4998)"/>
<path opacity="0.1" d="M94.2281 101.309H20.3285C17.9906 101.309 16.098 99.416 16.098 97.0781V19.1484C16.098 16.8105 17.9906 14.918 20.3285 14.918H94.2281C96.566 14.918 98.4586 16.8105 98.4586 19.1484V97.0559C98.4586 99.3937 96.566 101.309 94.2281 101.309Z" fill="#2C88FF"/>
<path d="M94.2281 96.6328H20.3285C17.9906 96.6328 16.098 94.7402 16.098 92.4023V14.4727C16.098 12.1348 17.9906 10.2422 20.3285 10.2422H94.2281C96.566 10.2422 98.4586 12.1348 98.4586 14.4727V92.3801C98.4586 94.718 96.566 96.6328 94.2281 96.6328Z" fill="white"/>
<path d="M16.0758 37.4512H98.4586V58.8262H16.0758V37.4512Z" fill="black"/>
<path d="M35.5137 32.2854L36.9387 35.1576C37.0946 35.4916 37.4063 35.7143 37.7848 35.7588L40.9465 36.2264C41.8594 36.36 42.2157 37.4732 41.57 38.1189L39.2766 40.3455C39.0094 40.5904 38.8981 40.9689 38.9649 41.3252L39.4993 44.4869C39.6551 45.3998 38.6977 46.09 37.8739 45.667L35.0461 44.1752C34.7122 43.9971 34.3336 43.9971 33.9997 44.1752L31.1719 45.667C30.3481 46.09 29.3907 45.3998 29.5465 44.4869L30.0809 41.3252C30.1477 40.9689 30.0141 40.5904 29.7692 40.3455L27.4758 38.1189C26.8079 37.4732 27.1864 36.36 28.0993 36.2264L31.261 35.7588C31.6172 35.7143 31.929 35.4693 32.1071 35.1576L33.5321 32.2854C33.9106 31.4615 35.0907 31.4615 35.5137 32.2854Z" fill="white"/>
<path d="M58.2692 32.2854L59.6942 35.1576C59.8501 35.4916 60.1618 35.7143 60.5403 35.7588L63.702 36.2264C64.6149 36.36 64.9712 37.4732 64.3255 38.1189L62.0321 40.3455C61.7649 40.5904 61.6536 40.9689 61.7204 41.3252L62.2548 44.4869C62.4106 45.3998 61.4532 46.09 60.6294 45.667L57.8016 44.1752C57.4676 43.9971 57.0891 43.9971 56.7551 44.1752L53.9274 45.667C53.1036 46.09 52.1462 45.3998 52.302 44.4869L52.8364 41.3252C52.9032 40.9689 52.7696 40.5904 52.5247 40.3455L50.2313 38.1189C49.5634 37.4732 49.9419 36.36 50.8548 36.2264L54.0165 35.7588C54.3727 35.7143 54.6844 35.4693 54.8626 35.1576L56.2876 32.2854C56.6884 31.4615 57.8684 31.4615 58.2692 32.2854Z" fill="white"/>
<path d="M81.0246 32.2854L82.4496 35.1576C82.6055 35.4916 82.9172 35.7143 83.2957 35.7588L86.4574 36.2264C87.3703 36.36 87.7266 37.4732 87.0809 38.1189L84.7875 40.3455C84.5203 40.5904 84.409 40.9689 84.4758 41.3252L85.0101 44.4869C85.166 45.3998 84.2086 46.09 83.3848 45.667L80.557 44.1752C80.223 43.9971 79.8445 43.9971 79.5105 44.1752L76.6828 45.667C75.859 46.09 74.9015 45.3998 75.0574 44.4869L75.5918 41.3252C75.6586 40.9689 75.525 40.5904 75.2801 40.3455L72.9867 38.1189C72.3187 37.4732 72.6972 36.36 73.6101 36.2264L76.7719 35.7588C77.1281 35.7143 77.4398 35.4693 77.618 35.1576L79.043 32.2854C79.4437 31.4615 80.6238 31.4615 81.0246 32.2854Z" fill="white"/>
<path d="M35.5137 51.0998L36.9387 53.9721C37.0946 54.306 37.4063 54.5287 37.7848 54.5732L40.9465 55.0408C41.8594 55.1744 42.2157 56.2877 41.57 56.9334L39.2766 59.16C39.0094 59.4049 38.8981 59.7834 38.9649 60.1396L39.4993 63.3014C39.6551 64.2142 38.6977 64.9045 37.8739 64.4814L35.0461 62.9896C34.7122 62.8115 34.3336 62.8115 33.9997 62.9896L31.1719 64.4814C30.3481 64.9045 29.3907 64.2142 29.5465 63.3014L30.0809 60.1396C30.1477 59.7834 30.0141 59.4049 29.7692 59.16L27.4758 56.9334C26.8079 56.2877 27.1864 55.1744 28.0993 55.0408L31.261 54.5732C31.6172 54.5287 31.929 54.2838 32.1071 53.9721L33.5321 51.0998C33.9106 50.276 35.0907 50.276 35.5137 51.0998Z" fill="white"/>
<path d="M58.2692 51.0998L59.6942 53.9721C59.8501 54.306 60.1618 54.5287 60.5403 54.5732L63.702 55.0408C64.6149 55.1744 64.9712 56.2877 64.3255 56.9334L62.0321 59.16C61.7649 59.4049 61.6536 59.7834 61.7204 60.1396L62.2548 63.3014C62.4106 64.2142 61.4532 64.9045 60.6294 64.4814L57.8016 62.9896C57.4676 62.8115 57.0891 62.8115 56.7551 62.9896L53.9274 64.4814C53.1036 64.9045 52.1462 64.2142 52.302 63.3014L52.8364 60.1396C52.9032 59.7834 52.7696 59.4049 52.5247 59.16L50.2313 56.9334C49.5634 56.2877 49.9419 55.1744 50.8548 55.0408L54.0165 54.5732C54.3727 54.5287 54.6844 54.2838 54.8626 53.9721L56.2876 51.0998C56.6884 50.276 57.8684 50.276 58.2692 51.0998Z" fill="white"/>
<path d="M81.0246 51.0998L82.4496 53.9721C82.6055 54.306 82.9172 54.5287 83.2957 54.5732L86.4574 55.0408C87.3703 55.1744 87.7266 56.2877 87.0809 56.9334L84.7875 59.16C84.5203 59.4049 84.409 59.7834 84.4758 60.1396L85.0101 63.3014C85.166 64.2142 84.2086 64.9045 83.3848 64.4814L80.557 62.9896C80.223 62.8115 79.8445 62.8115 79.5105 62.9896L76.6828 64.4814C75.859 64.9045 74.9015 64.2142 75.0574 63.3014L75.5918 60.1396C75.6586 59.7834 75.525 59.4049 75.2801 59.16L72.9867 56.9334C72.3187 56.2877 72.6972 55.1744 73.6101 55.0408L76.7719 54.5732C77.1281 54.5287 77.4398 54.2838 77.618 53.9721L79.043 51.0998C79.4437 50.276 80.6238 50.276 81.0246 51.0998Z" fill="white"/>
<path d="M30.6376 46.9139C30.17 46.9139 29.7247 46.7803 29.3239 46.4908C28.6337 45.9787 28.2997 45.1549 28.4333 44.3088L28.9677 41.1471L26.6743 38.9205C26.0731 38.3193 25.8505 37.451 26.1177 36.6271C26.3848 35.8256 27.0751 35.2244 27.9212 35.1131L31.0829 34.6455L32.5079 31.7732C32.8864 31.0162 33.6434 30.5264 34.5118 30.5264C35.3579 30.5264 36.1372 30.9939 36.5157 31.7732L37.9407 34.6455L41.1024 35.1131C41.9485 35.2467 42.6387 35.8256 42.9059 36.6271C43.1731 37.4287 42.9505 38.3193 42.3493 38.9205L40.0559 41.1471L40.5903 44.3088C40.7239 45.1549 40.3899 45.9787 39.6997 46.4908C39.0095 47.0029 38.1188 47.0475 37.3618 46.669L34.5341 45.1772L31.7063 46.669C31.3501 46.8248 30.9938 46.9139 30.6376 46.9139ZM34.5118 42.9506C34.868 42.9506 35.2243 43.0397 35.5583 43.1955L38.386 44.6873L37.8516 41.5256C37.718 40.8131 37.963 40.0561 38.4973 39.5662L40.7907 37.3396L37.629 36.8721C36.8942 36.7607 36.2708 36.3154 35.9591 35.6475L34.5341 32.7752L33.1313 35.6475C32.7973 36.3154 32.1739 36.7607 31.4614 36.8721L28.2997 37.3396L30.593 39.5662C31.1274 40.0783 31.3501 40.8131 31.2387 41.5479L30.7044 44.7096L33.5321 43.2178C33.7993 43.0174 34.1555 42.9506 34.5118 42.9506Z" fill="#2C88FF"/>
<path d="M53.3931 46.9139C52.9255 46.9139 52.4802 46.7803 52.0794 46.4908C51.3892 45.9787 51.0552 45.1549 51.1888 44.3088L51.7232 41.1471L49.4298 38.9205C48.8286 38.3193 48.606 37.451 48.8731 36.6271C49.1403 35.8256 49.8306 35.2244 50.6767 35.1131L53.8384 34.6455L55.2634 31.7732C55.6419 31.0162 56.3989 30.5264 57.2673 30.5264C58.1134 30.5264 58.8927 30.9939 59.2712 31.7732L60.6962 34.6455L63.8579 35.1131C64.704 35.2467 65.3942 35.8256 65.6614 36.6271C65.9286 37.4287 65.706 38.3193 65.1048 38.8982L62.8114 41.1248L63.3458 44.2865C63.4794 45.1326 63.1454 45.9564 62.4552 46.4686C61.7649 46.9807 60.8743 47.0252 60.1173 46.6467L57.2896 45.1549L54.4618 46.6467C54.1056 46.8248 53.7493 46.9139 53.3931 46.9139ZM57.2673 42.9506C57.6235 42.9506 57.9798 43.0396 58.3138 43.1955L61.1415 44.6873L60.6071 41.5256C60.4735 40.8131 60.7185 40.0561 61.2528 39.5439L63.5462 37.3174L60.3845 36.8498C59.6497 36.7385 59.0263 36.2932 58.7146 35.6252L57.2896 32.7529L55.8868 35.6252C55.5528 36.2932 54.9294 36.7385 54.2169 36.8498L51.0552 37.3174L53.3485 39.5439C53.8829 40.0561 54.1056 40.7908 53.9942 41.5256L53.4599 44.6873L56.2876 43.1955C56.5548 43.0174 56.911 42.9506 57.2673 42.9506Z" fill="#2C88FF"/>
<path d="M81.0247 32.2854L82.4497 35.1576C82.6056 35.4916 82.9173 35.7143 83.2958 35.7588L86.4575 36.2264C87.3704 36.36 87.7267 37.4732 87.081 38.1189L84.7876 40.3455C84.5204 40.5904 84.4091 40.9689 84.4759 41.3252L85.0102 44.4869C85.1661 45.3998 84.2087 46.09 83.3849 45.667L80.5571 44.1752C80.2231 43.9971 79.8446 43.9971 79.5106 44.1752L76.6829 45.667C75.8591 46.09 74.9017 45.3998 75.0575 44.4869L75.5919 41.3252C75.6587 40.9689 75.5251 40.5904 75.2802 40.3455L72.9868 38.1189C72.3188 37.4732 72.6974 36.36 73.6103 36.2264L76.772 35.7588C77.1282 35.7143 77.4399 35.4693 77.6181 35.1576L79.0431 32.2854C79.4438 31.4615 80.6239 31.4615 81.0247 32.2854V32.2854Z" stroke="#2C88FF" stroke-width="2" stroke-miterlimit="10" stroke-linecap="round" stroke-linejoin="round"/>
<path d="M38.386 65.7283C38.0297 65.7283 37.6735 65.6393 37.3395 65.4611L34.5117 63.9693L31.684 65.4611C30.927 65.8619 30.0364 65.7951 29.3461 65.283C28.6559 64.7709 28.3219 63.9471 28.4555 63.101L28.9899 59.9393L26.6965 57.7127C26.0953 57.1115 25.8727 56.2432 26.1399 55.4416C26.4071 54.64 27.0973 54.0389 27.9434 53.9275L31.1051 53.46L32.5301 50.5877C32.9086 49.8307 33.6657 49.3408 34.534 49.3408C35.3801 49.3408 36.1594 49.8084 36.5379 50.5877L37.9629 53.46L41.1246 53.9275C41.9707 54.0611 42.661 54.64 42.9282 55.4416C43.1953 56.2432 42.9727 57.1338 42.3715 57.735L40.0782 59.9615L40.6125 63.1232C40.7461 63.9693 40.4121 64.7932 39.7219 65.3053C39.2989 65.5725 38.8313 65.7283 38.386 65.7283ZM34.5117 51.5896L33.109 54.4619C32.775 55.1299 32.1516 55.5752 31.4391 55.6865L28.2774 56.1541L30.5707 58.3807C31.1051 58.8928 31.3278 59.6275 31.2164 60.3623L30.6821 63.524L33.5098 62.0322C34.1555 61.6982 34.9348 61.6982 35.5805 62.0322L38.4082 63.524L37.8739 60.3623C37.7403 59.6498 37.9852 58.8928 38.5196 58.3807L40.8129 56.1541L37.6512 55.6865C36.9164 55.5752 36.293 55.1299 35.9813 54.4619L34.5117 51.5896Z" fill="#2C88FF"/>
<path d="M61.1415 65.7283C60.7852 65.7283 60.429 65.6393 60.095 65.4611L57.2672 63.9693L54.4395 65.4611C53.6825 65.8619 52.7918 65.7951 52.1016 65.283C51.4114 64.7709 51.0774 63.9471 51.211 63.101L51.7454 59.9393L49.452 57.7127C48.8508 57.1115 48.6282 56.2432 48.8954 55.4416C49.1626 54.64 49.8528 54.0389 50.6989 53.9275L53.8606 53.46L55.2856 50.5877C55.6641 49.8307 56.4211 49.3408 57.2895 49.3408C58.1356 49.3408 58.9149 49.8084 59.2934 50.5877L60.7184 53.46L63.8801 53.9275C64.7262 54.0611 65.4165 54.64 65.6836 55.4416C65.9508 56.2432 65.7282 57.1338 65.127 57.7127L62.8336 59.9393L63.368 63.101C63.5016 63.9471 63.1676 64.7709 62.4774 65.283C62.0543 65.5725 61.609 65.7283 61.1415 65.7283ZM57.2672 51.5896L55.8645 54.4619C55.5305 55.1299 54.9071 55.5752 54.1946 55.6865L51.0329 56.1541L53.3262 58.3807C53.8606 58.8928 54.0833 59.6275 53.9719 60.3623L53.4376 63.524L56.2653 62.0322C56.911 61.6982 57.6903 61.6982 58.336 62.0322L61.1637 63.524L60.6293 60.3623C60.4958 59.6498 60.7407 58.8928 61.2751 58.3807L63.5684 56.1541L60.4067 55.6865C59.6719 55.5752 59.0485 55.1299 58.7368 54.4619L57.2672 51.5896Z" fill="#2C88FF"/>
<path d="M83.897 65.7283C83.5407 65.7283 83.1845 65.6393 82.8505 65.4611L80.0227 63.9693L77.195 65.4611C76.438 65.8619 75.5474 65.7951 74.8571 65.283C74.1669 64.7709 73.8329 63.9471 73.9665 63.101L74.5009 59.9393L72.2075 57.7127C71.6063 57.1115 71.3837 56.2432 71.6509 55.4416C71.918 54.64 72.6083 54.0389 73.4544 53.9275L76.6161 53.46L78.0411 50.5877C78.4196 49.8307 79.1766 49.3408 80.045 49.3408C80.8911 49.3408 81.6704 49.8084 82.0489 50.5877L83.4739 53.46L86.6356 53.9275C87.4817 54.0611 88.172 54.64 88.4392 55.4416C88.7063 56.2432 88.4837 57.1338 87.8825 57.7127L85.5891 59.9393L86.1235 63.101C86.2571 63.9471 85.9231 64.7709 85.2329 65.283C84.8098 65.5725 84.3645 65.7283 83.897 65.7283ZM80.0227 51.5896L78.62 54.4619C78.286 55.1299 77.6626 55.5752 76.9501 55.6865L73.7884 56.1541L76.0817 58.3807C76.6161 58.8928 76.8388 59.6275 76.7274 60.34L76.1931 63.5018L79.0208 62.01C79.6665 61.676 80.4458 61.676 81.0915 62.01L83.9192 63.5018L83.3849 60.34C83.2513 59.6275 83.4962 58.8705 84.0306 58.3807L86.3239 56.1541L83.1622 55.6865C82.4274 55.5752 81.804 55.1299 81.4923 54.4619L80.0227 51.5896Z" fill="#2C88FF"/>
<path d="M98.4586 22.7555V14.4727C98.4586 12.1348 96.566 10.2422 94.2281 10.2422H20.3285C17.9906 10.2422 16.098 12.1348 16.098 14.4727V22.7332L98.4586 22.7555Z" fill="white"/>
<path d="M24.3808 21.6422C23.7574 21.6422 23.2676 22.132 23.2676 22.7555C23.2676 23.3789 23.7574 23.8687 24.3808 23.8687H98.4586C99.082 23.8687 99.5719 23.3789 99.5719 22.7555V14.4727C99.5719 11.5113 97.1672 9.12891 94.2281 9.12891H20.3285C17.3672 9.12891 14.9847 11.5336 14.9847 14.4727V92.3801C14.9847 95.3414 17.3894 97.7238 20.3285 97.7238H94.2281C97.1894 97.7238 99.5719 95.3191 99.5719 92.3801V21.6199C99.5719 20.9965 99.082 21 98.4586 21C97.8352 21 97.3453 22.132 97.3453 22.7555V92.4023C97.3453 94.1168 95.9426 95.5195 94.2281 95.5195H20.3285C18.614 95.5195 17.2113 94.1168 17.2113 92.4023V14.4727C17.2113 12.7582 18.614 11.3555 20.3285 11.3555H94.2281C95.9426 11.3555 97.3453 12.7582 97.3453 14.4727V21.6199L24.3808 21.6422Z" fill="#2C88FF"/>
<path d="M89.2183 17.6123H85.5444C84.921 17.6123 84.4312 17.1225 84.4312 16.499C84.4312 15.8756 84.921 15.3857 85.5444 15.3857H89.2183C89.8417 15.3857 90.3315 15.8756 90.3315 16.499C90.3315 17.1225 89.8417 17.6123 89.2183 17.6123Z" fill="#2C88FF"/>
<path d="M80.646 17.6123H76.9722C76.3487 17.6123 75.8589 17.1225 75.8589 16.499C75.8589 15.8756 76.3487 15.3857 76.9722 15.3857H80.646C81.2694 15.3857 81.7593 15.8756 81.7593 16.499C81.7593 17.1225 81.2694 17.6123 80.646 17.6123Z" fill="#2C88FF"/>
<path d="M68.2887 17.6123H37.8961C37.2727 17.6123 36.7828 17.1225 36.7828 16.499C36.7828 15.8756 37.2727 15.3857 37.8961 15.3857H68.2887C68.9121 15.3857 69.402 15.8756 69.402 16.499C69.402 17.1225 68.9121 17.6123 68.2887 17.6123Z" fill="#2C88FF"/>
<path d="M32.2406 86.8804H29.4574C28.834 86.8804 28.3441 86.3905 28.3441 85.7671C28.3441 85.1437 28.834 84.6538 29.4574 84.6538H32.2406C32.864 84.6538 33.3539 85.1437 33.3539 85.7671C33.3539 86.3905 32.8418 86.8804 32.2406 86.8804Z" fill="#2C88FF"/>
<path d="M52.9476 86.8804H36.8051C36.1816 86.8804 35.6918 86.3905 35.6918 85.7671C35.6918 85.1437 36.1816 84.6538 36.8051 84.6538H52.9476C53.5711 84.6538 54.0609 85.1437 54.0609 85.7671C54.0609 86.3905 53.5488 86.8804 52.9476 86.8804Z" fill="#2C88FF"/>
<path d="M38.9203 83.0508H29.4574C28.834 83.0508 28.3441 82.5609 28.3441 81.9375C28.3441 81.3141 28.834 80.8242 29.4574 80.8242H38.9203C39.5437 80.8242 40.0336 81.3141 40.0336 81.9375C40.0336 82.5609 39.5215 83.0508 38.9203 83.0508Z" fill="#2C88FF"/>
<path d="M32.2406 77.5288H29.4574C28.834 77.5288 28.3441 77.039 28.3441 76.4155C28.3441 75.7921 28.834 75.3022 29.4574 75.3022H32.2406C32.864 75.3022 33.3539 75.7921 33.3539 76.4155C33.3539 77.039 32.8418 77.5288 32.2406 77.5288Z" fill="#2C88FF"/>
<path d="M83.6297 84.2975C81.5813 84.2975 79.9336 82.6275 79.9336 80.6014C79.9336 78.5752 81.6035 76.9053 83.6297 76.9053C85.6559 76.9053 87.3258 78.5752 87.3258 80.6014C87.3258 82.6275 85.6559 84.2975 83.6297 84.2975ZM83.6297 79.1318C82.8281 79.1318 82.1602 79.7998 82.1602 80.6014C82.1602 81.4029 82.8281 82.0709 83.6297 82.0709C84.4313 82.0709 85.0992 81.4029 85.0992 80.6014C85.0992 79.7775 84.4313 79.1318 83.6297 79.1318Z" fill="#2C88FF"/>
<path d="M86.2125 86.8802C85.5891 86.8802 85.0992 86.3903 85.0992 85.7669C85.0992 84.9653 84.4313 84.2974 83.6297 84.2974C82.8281 84.2974 82.1602 84.9653 82.1602 85.7669C82.1602 86.3903 81.6703 86.8802 81.0469 86.8802C80.4234 86.8802 79.9336 86.3903 79.9336 85.7669C79.9336 83.7185 81.6035 82.0708 83.6297 82.0708C85.6559 82.0708 87.3258 83.7407 87.3258 85.7669C87.3258 86.3903 86.8137 86.8802 86.2125 86.8802Z" fill="#2C88FF"/>
<path d="M76.3933 86.8804H73.6101C72.9867 86.8804 72.4968 86.3905 72.4968 85.7671C72.4968 85.1437 72.9867 84.6538 73.6101 84.6538H76.3933C77.0167 84.6538 77.5066 85.1437 77.5066 85.7671C77.5066 86.3905 76.9945 86.8804 76.3933 86.8804Z" fill="#2C88FF"/>
<path d="M76.3933 83.0508H73.6101C72.9867 83.0508 72.4968 82.5609 72.4968 81.9375C72.4968 81.3141 72.9867 80.8242 73.6101 80.8242H76.3933C77.0167 80.8242 77.5066 81.3141 77.5066 81.9375C77.5066 82.5609 76.9945 83.0508 76.3933 83.0508Z" fill="#2C88FF"/>
<path d="M14.2055 104.871C13.916 104.871 13.6266 104.76 13.4262 104.537L11.9789 103.09L10.5317 104.537C10.0864 104.982 9.39612 104.982 8.95081 104.537C8.50549 104.092 8.50549 103.401 8.95081 102.956L11.1774 100.729C11.6227 100.284 12.3129 100.284 12.7582 100.729L14.9848 102.956C15.4301 103.401 15.4301 104.092 14.9848 104.537C14.7621 104.76 14.4949 104.871 14.2055 104.871Z" fill="black"/>
<path d="M107.587 80.4681C107.298 80.4681 107.009 80.3567 106.808 80.1341L105.361 78.6868L103.914 80.1341C103.468 80.5794 102.778 80.5794 102.333 80.1341C101.887 79.6888 101.887 78.9985 102.333 78.5532L104.559 76.3267C105.005 75.8813 105.695 75.8813 106.14 76.3267L108.367 78.5532C108.812 78.9985 108.812 79.6888 108.367 80.1341C108.166 80.3567 107.877 80.4681 107.587 80.4681Z" fill="black"/>
<path d="M6.85779 46.0008C6.56833 46.0008 6.27888 45.8895 6.07849 45.6668C5.63318 45.2215 5.63318 44.5312 6.07849 44.0859L8.30505 41.8594C8.75037 41.4141 9.4406 41.4141 9.88591 41.8594C10.3312 42.3047 10.3312 42.9949 9.88591 43.4402L7.65935 45.6668C7.41443 45.8895 7.14724 46.0008 6.85779 46.0008Z" fill="black"/>
<path d="M102.021 58.0018C101.732 58.0018 101.442 57.8904 101.242 57.6678C100.796 57.2225 100.796 56.5322 101.242 56.0869L103.468 53.8604C103.914 53.415 104.604 53.415 105.049 53.8604C105.494 54.3057 105.494 54.9959 105.049 55.4412L102.823 57.6678C102.6 57.8904 102.31 58.0018 102.021 58.0018Z" fill="black"/>
<path d="M10.8656 32.1736C10.5762 32.1736 10.2867 32.0623 10.0864 31.8396L8.63909 30.3924L7.19182 31.8396C6.74651 32.285 6.05627 32.285 5.61096 31.8396C5.16565 31.3943 5.16565 30.7041 5.61096 30.2588L7.83752 28.0322C8.28284 27.5869 8.97307 27.5869 9.41838 28.0322L11.6449 30.2588C12.0903 30.7041 12.0903 31.3943 11.6449 31.8396C11.4223 32.0623 11.1551 32.1736 10.8656 32.1736Z" fill="black"/>
<defs>
<linearGradient id="paint0_linear_3823_4998" x1="205.596" y1="3.03238" x2="-94.7238" y2="120.043" gradientUnits="userSpaceOnUse">
<stop stop-color="#D2D7FF" stop-opacity="0"/>
<stop offset="1" stop-color="#B7D8FF"/>
</linearGradient>
</defs>
</svg>
