<svg width="50" height="50" viewBox="0 0 50 50" fill="none" xmlns="http://www.w3.org/2000/svg">
<path d="M25.293 11.7188C22.0621 11.7188 19.4336 9.09023 19.4336 5.85938C19.4336 2.62852 22.0621 0 25.293 0C28.5238 0 31.1523 2.62852 31.1523 5.85938C31.1523 9.09023 28.5238 11.7188 25.293 11.7188ZM25.293 3.90625C24.216 3.90625 23.3398 4.78242 23.3398 5.85938C23.3398 6.93633 24.216 7.8125 25.293 7.8125C26.3699 7.8125 27.2461 6.93633 27.2461 5.85938C27.2461 4.78242 26.3699 3.90625 25.293 3.90625ZM33.9844 21.875C33.9844 17.4595 30.3416 13.8672 25.8641 13.8672H24.722C20.2443 13.8672 16.6016 17.4595 16.6016 21.875C16.6016 22.9537 17.476 23.8281 18.5547 23.8281C19.6334 23.8281 20.5078 22.9537 20.5078 21.875C20.5078 19.6134 22.3982 17.7734 24.7219 17.7734H25.864C28.1877 17.7734 30.0781 19.6134 30.0781 21.875C30.0781 22.9537 30.9525 23.8281 32.0312 23.8281C33.11 23.8281 33.9844 22.9537 33.9844 21.875ZM8.69141 37.8906C5.46055 37.8906 2.83203 35.2621 2.83203 32.0312C2.83203 28.8004 5.46055 26.1719 8.69141 26.1719C11.9223 26.1719 14.5508 28.8004 14.5508 32.0312C14.5508 35.2621 11.9223 37.8906 8.69141 37.8906ZM8.69141 30.0781C7.61445 30.0781 6.73828 30.9543 6.73828 32.0312C6.73828 33.1082 7.61445 33.9844 8.69141 33.9844C9.76836 33.9844 10.6445 33.1082 10.6445 32.0312C10.6445 30.9543 9.76836 30.0781 8.69141 30.0781ZM17.3828 48.0469C17.3828 43.6313 13.74 40.0391 9.2625 40.0391H8.12031C3.64277 40.0391 0 43.6313 0 48.0469C0 49.1256 0.874414 50 1.95312 50C3.03184 50 3.90625 49.1256 3.90625 48.0469C3.90625 45.7853 5.79668 43.9453 8.12031 43.9453H9.2624C11.5861 43.9453 13.4766 45.7853 13.4766 48.0469C13.4766 49.1256 14.351 50 15.4297 50C16.5084 50 17.3828 49.1256 17.3828 48.0469ZM41.3086 37.8906C38.0777 37.8906 35.4492 35.2621 35.4492 32.0312C35.4492 28.8004 38.0777 26.1719 41.3086 26.1719C44.5395 26.1719 47.168 28.8004 47.168 32.0312C47.168 35.2621 44.5395 37.8906 41.3086 37.8906ZM41.3086 30.0781C40.2316 30.0781 39.3555 30.9543 39.3555 32.0312C39.3555 33.1082 40.2316 33.9844 41.3086 33.9844C42.3855 33.9844 43.2617 33.1082 43.2617 32.0312C43.2617 30.9543 42.3855 30.0781 41.3086 30.0781ZM50 48.0469C50 43.6313 46.3572 40.0391 41.8797 40.0391H40.7376C36.26 40.0391 32.6172 43.6313 32.6172 48.0469C32.6172 49.1256 33.4916 50 34.5703 50C35.649 50 36.5234 49.1256 36.5234 48.0469C36.5234 45.7853 38.4139 43.9453 40.7375 43.9453H41.8796C44.2033 43.9453 46.0938 45.7853 46.0938 48.0469C46.0938 49.1256 46.9682 50 48.0469 50C49.1256 50 50 49.1256 50 48.0469Z" fill="#42D37B"/>
<path d="M42.9494 22.8519C42.0674 22.8519 41.2673 22.2502 41.052 21.3549C40.142 17.5697 37.8868 14.2279 34.7021 11.9451C33.8253 11.3166 33.624 10.0965 34.2525 9.21977C34.8811 8.34291 36.1013 8.14174 36.9777 8.77016C40.925 11.5995 43.7208 15.7445 44.8501 20.4417C45.1023 21.4906 44.4565 22.5452 43.4076 22.7973C43.2542 22.8343 43.1006 22.8519 42.9494 22.8519ZM9.43632 21.3549C10.3373 17.6076 12.5614 14.2879 15.699 12.0077C16.5717 11.3735 16.7649 10.1521 16.1308 9.27943C15.4965 8.40687 14.2749 8.21361 13.4025 8.84779C9.51377 11.6741 6.75624 15.7915 5.63818 20.4418C5.38603 21.4907 6.03183 22.5453 7.08066 22.7974C7.23417 22.8343 7.38769 22.852 7.53886 22.852C8.4208 22.8519 9.22099 22.2502 9.43632 21.3549ZM31.2447 42.3886C32.2746 42.0679 32.8496 40.973 32.5288 39.9431C32.2081 38.9133 31.1136 38.3381 30.0833 38.6589C28.3674 39.1933 26.7844 39.4531 25.2441 39.4531C23.6242 39.4531 21.9082 39.1577 20.1437 38.5749C19.1192 38.2369 18.0147 38.7929 17.6767 39.8172C17.3384 40.8415 17.8945 41.946 18.9189 42.2843C21.0793 42.9976 23.2074 43.3593 25.2441 43.3593C27.1842 43.3593 29.1471 43.0418 31.2447 42.3886Z" fill="#2C88FF"/>
</svg>
