<svg width="847" height="587" viewBox="0 0 847 587" fill="none" xmlns="http://www.w3.org/2000/svg">
<g filter="url(#filter0_d_3821_4494)">
<rect x="121" y="76" width="592" height="402" rx="20" fill="white"/>
</g>
<g filter="url(#filter1_d_3821_4494)">
<rect x="65" y="49" width="148" height="65" rx="20" fill="white"/>
</g>
<path d="M106.643 82.9091H108.381L109.839 84.8267L110.222 85.3381L112.396 88.2273H110.657L109.225 86.3097L108.867 85.8239L106.643 82.9091ZM112.932 80.4545C112.932 81.8352 112.683 83.0284 112.185 84.0341C111.686 85.0398 111.002 85.8153 110.133 86.3608C109.263 86.9062 108.271 87.179 107.154 87.179C106.038 87.179 105.045 86.9062 104.175 86.3608C103.306 85.8153 102.622 85.0398 102.123 84.0341C101.625 83.0284 101.376 81.8352 101.376 80.4545C101.376 79.0739 101.625 77.8807 102.123 76.875C102.622 75.8693 103.306 75.0938 104.175 74.5483C105.045 74.0028 106.038 73.7301 107.154 73.7301C108.271 73.7301 109.263 74.0028 110.133 74.5483C111.002 75.0938 111.686 75.8693 112.185 76.875C112.683 77.8807 112.932 79.0739 112.932 80.4545ZM111.398 80.4545C111.398 79.321 111.209 78.3643 110.829 77.5845C110.454 76.8047 109.945 76.2145 109.302 75.8139C108.663 75.4134 107.947 75.2131 107.154 75.2131C106.361 75.2131 105.643 75.4134 105 75.8139C104.361 76.2145 103.851 76.8047 103.472 77.5845C103.097 78.3643 102.91 79.321 102.91 80.4545C102.91 81.5881 103.097 82.5447 103.472 83.3246C103.851 84.1044 104.361 84.6946 105 85.0952C105.643 85.4957 106.361 85.696 107.154 85.696C107.947 85.696 108.663 85.4957 109.302 85.0952C109.945 84.6946 110.454 84.1044 110.829 83.3246C111.209 82.5447 111.398 81.5881 111.398 80.4545ZM117.618 87L114.626 77.1818H116.212L118.334 84.6989H118.436L120.533 77.1818H122.143L124.214 84.6733H124.317L126.439 77.1818H128.024L125.033 87H123.55L121.402 79.4574H121.248L119.101 87H117.618ZM130.018 87V77.1818H131.527V87H130.018ZM130.785 75.5455C130.491 75.5455 130.238 75.4453 130.025 75.245C129.816 75.0447 129.712 74.804 129.712 74.5227C129.712 74.2415 129.816 74.0007 130.025 73.8004C130.238 73.6001 130.491 73.5 130.785 73.5C131.079 73.5 131.331 73.6001 131.54 73.8004C131.753 74.0007 131.859 74.2415 131.859 74.5227C131.859 74.804 131.753 75.0447 131.54 75.245C131.331 75.4453 131.079 75.5455 130.785 75.5455ZM135.696 83.4205L135.671 81.554H135.977L140.273 77.1818H142.139L137.563 81.8097H137.435L135.696 83.4205ZM134.29 87V73.9091H135.798V87H134.29ZM140.528 87L136.693 82.142L137.767 81.0938L142.446 87H140.528ZM145.589 73.9091V87H144.081V73.9091H145.589ZM151.242 87.2301C150.619 87.2301 150.055 87.1129 149.548 86.8786C149.041 86.6399 148.638 86.2969 148.34 85.8494C148.041 85.3977 147.892 84.8523 147.892 84.2131C147.892 83.6506 148.003 83.1946 148.225 82.8452C148.446 82.4915 148.742 82.2145 149.113 82.0142C149.484 81.8139 149.893 81.6648 150.34 81.5668C150.792 81.4645 151.246 81.3835 151.702 81.3239C152.298 81.2472 152.782 81.1896 153.153 81.1513C153.528 81.1087 153.801 81.0384 153.971 80.9403C154.146 80.8423 154.233 80.6719 154.233 80.429V80.3778C154.233 79.7472 154.06 79.2571 153.715 78.9077C153.374 78.5582 152.857 78.3835 152.162 78.3835C151.442 78.3835 150.877 78.5412 150.468 78.8565C150.059 79.1719 149.771 79.5085 149.605 79.8665L148.173 79.3551C148.429 78.7585 148.77 78.294 149.196 77.9616C149.627 77.625 150.095 77.3906 150.602 77.2585C151.114 77.1222 151.617 77.054 152.111 77.054C152.426 77.054 152.788 77.0923 153.198 77.169C153.611 77.2415 154.009 77.3928 154.393 77.6229C154.781 77.853 155.102 78.2003 155.358 78.6648C155.614 79.1293 155.742 79.7514 155.742 80.5312V87H154.233V85.6705H154.156C154.054 85.8835 153.884 86.1115 153.645 86.3544C153.406 86.5973 153.089 86.804 152.693 86.9744C152.296 87.1449 151.813 87.2301 151.242 87.2301ZM151.472 85.875C152.068 85.875 152.571 85.7578 152.98 85.5234C153.394 85.2891 153.705 84.9865 153.913 84.6158C154.127 84.245 154.233 83.8551 154.233 83.446V82.0653C154.169 82.142 154.028 82.2124 153.811 82.2763C153.598 82.3359 153.351 82.3892 153.07 82.4361C152.793 82.4787 152.522 82.517 152.258 82.5511C151.998 82.581 151.787 82.6065 151.625 82.6278C151.233 82.679 150.867 82.7621 150.526 82.8771C150.189 82.9879 149.916 83.1562 149.707 83.3821C149.503 83.6037 149.401 83.9062 149.401 84.2898C149.401 84.8139 149.595 85.2102 149.982 85.4787C150.374 85.7429 150.871 85.875 151.472 85.875ZM158.699 87V73.9091H160.208V78.7415H160.336C160.447 78.571 160.6 78.3537 160.796 78.0895C160.996 77.821 161.282 77.5824 161.653 77.3736C162.028 77.1605 162.535 77.054 163.174 77.054C164.001 77.054 164.729 77.2607 165.36 77.674C165.991 78.0874 166.483 78.6733 166.837 79.4318C167.19 80.1903 167.367 81.0852 167.367 82.1165C167.367 83.1562 167.19 84.0575 166.837 84.8203C166.483 85.5788 165.993 86.1669 165.366 86.5845C164.74 86.9979 164.018 87.2045 163.199 87.2045C162.569 87.2045 162.064 87.1001 161.685 86.8913C161.305 86.6783 161.013 86.4375 160.809 86.169C160.604 85.8963 160.447 85.6705 160.336 85.4915H160.157V87H158.699ZM160.182 82.0909C160.182 82.8324 160.291 83.4865 160.508 84.0533C160.726 84.6158 161.043 85.0568 161.461 85.3764C161.878 85.6918 162.39 85.8494 162.995 85.8494C163.626 85.8494 164.152 85.6832 164.574 85.3509C165 85.0142 165.32 84.5625 165.533 83.9957C165.75 83.4247 165.859 82.7898 165.859 82.0909C165.859 81.4006 165.752 80.7784 165.539 80.2244C165.33 79.6662 165.013 79.2251 164.587 78.9013C164.165 78.5732 163.634 78.4091 162.995 78.4091C162.381 78.4091 161.866 78.5646 161.448 78.8757C161.03 79.1825 160.715 79.6129 160.502 80.1669C160.289 80.7166 160.182 81.358 160.182 82.0909ZM176.629 79.3807L175.274 79.7642C175.189 79.5384 175.063 79.3189 174.897 79.1058C174.735 78.8885 174.513 78.7095 174.232 78.5689C173.951 78.4283 173.591 78.358 173.152 78.358C172.551 78.358 172.05 78.4964 171.65 78.7734C171.253 79.0462 171.055 79.3935 171.055 79.8153C171.055 80.1903 171.192 80.4865 171.464 80.7038C171.737 80.9212 172.163 81.1023 172.743 81.2472L174.2 81.6051C175.078 81.8182 175.732 82.1442 176.163 82.5831C176.593 83.0178 176.808 83.5781 176.808 84.2642C176.808 84.8267 176.646 85.3295 176.322 85.7727C176.003 86.2159 175.555 86.5653 174.98 86.821C174.405 87.0767 173.736 87.2045 172.973 87.2045C171.972 87.2045 171.143 86.9872 170.486 86.5526C169.83 86.1179 169.415 85.483 169.24 84.6477L170.672 84.2898C170.808 84.8182 171.066 85.2145 171.445 85.4787C171.829 85.7429 172.329 85.875 172.947 85.875C173.65 85.875 174.209 85.7259 174.622 85.4276C175.04 85.125 175.248 84.7628 175.248 84.3409C175.248 84 175.129 83.7145 174.891 83.4844C174.652 83.25 174.285 83.0753 173.791 82.9602L172.155 82.5767C171.256 82.3636 170.595 82.0334 170.173 81.5859C169.756 81.1342 169.547 80.5696 169.547 79.892C169.547 79.3381 169.702 78.848 170.013 78.4219C170.329 77.9957 170.757 77.6612 171.298 77.4183C171.844 77.1754 172.462 77.054 173.152 77.054C174.123 77.054 174.886 77.267 175.44 77.6932C175.998 78.1193 176.395 78.6818 176.629 79.3807Z" fill="black"/>
<g filter="url(#filter2_d_3821_4494)">
<rect x="60" y="367" width="117" height="65" rx="20" fill="white"/>
</g>
<path d="M104.744 405H100.704V391.909H104.923C106.193 391.909 107.28 392.171 108.183 392.695C109.086 393.215 109.779 393.963 110.26 394.939C110.742 395.911 110.983 397.074 110.983 398.429C110.983 399.793 110.74 400.967 110.254 401.951C109.768 402.931 109.061 403.685 108.132 404.214C107.203 404.738 106.074 405 104.744 405ZM102.29 403.594H104.642C105.724 403.594 106.621 403.385 107.333 402.967C108.045 402.55 108.575 401.955 108.925 401.184C109.274 400.413 109.449 399.494 109.449 398.429C109.449 397.372 109.276 396.462 108.931 395.7C108.586 394.933 108.07 394.344 107.384 393.935C106.698 393.522 105.844 393.315 104.821 393.315H102.29V403.594ZM116.327 405.23C115.704 405.23 115.14 405.113 114.633 404.879C114.126 404.64 113.723 404.297 113.425 403.849C113.126 403.398 112.977 402.852 112.977 402.213C112.977 401.651 113.088 401.195 113.309 400.845C113.531 400.491 113.827 400.214 114.198 400.014C114.569 399.814 114.978 399.665 115.425 399.567C115.877 399.464 116.331 399.384 116.787 399.324C117.383 399.247 117.867 399.19 118.238 399.151C118.613 399.109 118.885 399.038 119.056 398.94C119.231 398.842 119.318 398.672 119.318 398.429V398.378C119.318 397.747 119.145 397.257 118.8 396.908C118.459 396.558 117.942 396.384 117.247 396.384C116.527 396.384 115.962 396.541 115.553 396.857C115.144 397.172 114.856 397.509 114.69 397.866L113.258 397.355C113.514 396.759 113.855 396.294 114.281 395.962C114.711 395.625 115.18 395.391 115.687 395.259C116.199 395.122 116.702 395.054 117.196 395.054C117.511 395.054 117.873 395.092 118.282 395.169C118.696 395.241 119.094 395.393 119.478 395.623C119.866 395.853 120.187 396.2 120.443 396.665C120.699 397.129 120.827 397.751 120.827 398.531V405H119.318V403.67H119.241C119.139 403.884 118.969 404.112 118.73 404.354C118.491 404.597 118.174 404.804 117.778 404.974C117.381 405.145 116.898 405.23 116.327 405.23ZM116.557 403.875C117.153 403.875 117.656 403.758 118.065 403.523C118.479 403.289 118.79 402.987 118.998 402.616C119.211 402.245 119.318 401.855 119.318 401.446V400.065C119.254 400.142 119.113 400.212 118.896 400.276C118.683 400.336 118.436 400.389 118.155 400.436C117.878 400.479 117.607 400.517 117.343 400.551C117.083 400.581 116.872 400.607 116.71 400.628C116.318 400.679 115.952 400.762 115.611 400.877C115.274 400.988 115.001 401.156 114.792 401.382C114.588 401.604 114.486 401.906 114.486 402.29C114.486 402.814 114.68 403.21 115.067 403.479C115.459 403.743 115.956 403.875 116.557 403.875ZM127.85 395.182V396.46H122.762V395.182H127.85ZM124.245 392.83H125.753V402.188C125.753 402.614 125.815 402.933 125.939 403.146C126.066 403.355 126.228 403.496 126.424 403.568C126.625 403.636 126.836 403.67 127.057 403.67C127.223 403.67 127.36 403.662 127.466 403.645C127.573 403.624 127.658 403.607 127.722 403.594L128.029 404.949C127.926 404.987 127.784 405.026 127.6 405.064C127.417 405.107 127.185 405.128 126.904 405.128C126.478 405.128 126.06 405.036 125.651 404.853C125.246 404.67 124.909 404.391 124.641 404.016C124.377 403.641 124.245 403.168 124.245 402.597V392.83ZM133.008 405.23C132.386 405.23 131.821 405.113 131.314 404.879C130.807 404.64 130.404 404.297 130.106 403.849C129.808 403.398 129.659 402.852 129.659 402.213C129.659 401.651 129.77 401.195 129.991 400.845C130.213 400.491 130.509 400.214 130.88 400.014C131.25 399.814 131.659 399.665 132.107 399.567C132.559 399.464 133.012 399.384 133.468 399.324C134.065 399.247 134.549 399.19 134.919 399.151C135.294 399.109 135.567 399.038 135.738 398.94C135.912 398.842 136 398.672 136 398.429V398.378C136 397.747 135.827 397.257 135.482 396.908C135.141 396.558 134.623 396.384 133.929 396.384C133.208 396.384 132.644 396.541 132.235 396.857C131.826 397.172 131.538 397.509 131.372 397.866L129.94 397.355C130.196 396.759 130.537 396.294 130.963 395.962C131.393 395.625 131.862 395.391 132.369 395.259C132.88 395.122 133.383 395.054 133.877 395.054C134.193 395.054 134.555 395.092 134.964 395.169C135.377 395.241 135.776 395.393 136.159 395.623C136.547 395.853 136.869 396.2 137.125 396.665C137.38 397.129 137.508 397.751 137.508 398.531V405H136V403.67H135.923C135.821 403.884 135.65 404.112 135.412 404.354C135.173 404.597 134.855 404.804 134.459 404.974C134.063 405.145 133.579 405.23 133.008 405.23ZM133.238 403.875C133.835 403.875 134.338 403.758 134.747 403.523C135.16 403.289 135.471 402.987 135.68 402.616C135.893 402.245 136 401.855 136 401.446V400.065C135.936 400.142 135.795 400.212 135.578 400.276C135.365 400.336 135.118 400.389 134.836 400.436C134.559 400.479 134.289 400.517 134.025 400.551C133.765 400.581 133.554 400.607 133.392 400.628C133 400.679 132.633 400.762 132.292 400.877C131.956 400.988 131.683 401.156 131.474 401.382C131.27 401.604 131.167 401.906 131.167 402.29C131.167 402.814 131.361 403.21 131.749 403.479C132.141 403.743 132.637 403.875 133.238 403.875Z" fill="black"/>
<g filter="url(#filter3_d_3821_4494)">
<rect x="670" y="171" width="117" height="65" rx="20" fill="white"/>
</g>
<path d="M708.848 199.182C708.771 198.534 708.46 198.031 707.915 197.673C707.369 197.315 706.7 197.136 705.907 197.136C705.328 197.136 704.821 197.23 704.386 197.418C703.956 197.605 703.619 197.863 703.376 198.191C703.138 198.519 703.018 198.892 703.018 199.31C703.018 199.659 703.101 199.96 703.268 200.211C703.438 200.458 703.655 200.665 703.92 200.831C704.184 200.993 704.461 201.127 704.751 201.234C705.04 201.336 705.307 201.419 705.55 201.483L706.879 201.841C707.22 201.93 707.599 202.054 708.017 202.212C708.439 202.369 708.841 202.585 709.225 202.857C709.613 203.126 709.932 203.471 710.184 203.893C710.435 204.315 710.561 204.832 710.561 205.446C710.561 206.153 710.376 206.793 710.005 207.364C709.638 207.935 709.101 208.388 708.394 208.725C707.691 209.062 706.836 209.23 705.831 209.23C704.893 209.23 704.081 209.079 703.395 208.776C702.714 208.474 702.177 208.052 701.785 207.511C701.397 206.969 701.177 206.341 701.126 205.625H702.763C702.805 206.119 702.971 206.528 703.261 206.852C703.555 207.172 703.926 207.411 704.373 207.568C704.825 207.722 705.311 207.798 705.831 207.798C706.436 207.798 706.979 207.7 707.461 207.504C707.942 207.304 708.324 207.027 708.605 206.673C708.886 206.315 709.027 205.898 709.027 205.42C709.027 204.986 708.905 204.632 708.662 204.359C708.42 204.087 708.1 203.865 707.704 203.695C707.307 203.524 706.879 203.375 706.419 203.247L704.808 202.787C703.785 202.493 702.976 202.073 702.379 201.528C701.782 200.982 701.484 200.268 701.484 199.386C701.484 198.653 701.682 198.014 702.079 197.469C702.479 196.919 703.016 196.493 703.689 196.19C704.367 195.884 705.123 195.73 705.959 195.73C706.802 195.73 707.552 195.881 708.209 196.184C708.865 196.482 709.385 196.891 709.768 197.411C710.156 197.931 710.361 198.521 710.382 199.182H708.848ZM717.079 209.205C716.133 209.205 715.317 208.996 714.631 208.578C713.949 208.156 713.423 207.568 713.052 206.814C712.686 206.055 712.502 205.173 712.502 204.168C712.502 203.162 712.686 202.276 713.052 201.509C713.423 200.737 713.939 200.136 714.599 199.706C715.264 199.271 716.039 199.054 716.926 199.054C717.437 199.054 717.942 199.139 718.441 199.31C718.939 199.48 719.393 199.757 719.802 200.141C720.211 200.52 720.537 201.023 720.78 201.649C721.023 202.276 721.145 203.047 721.145 203.963V204.602H713.576V203.298H719.61C719.61 202.744 719.5 202.25 719.278 201.815C719.061 201.381 718.75 201.038 718.345 200.786C717.944 200.535 717.471 200.409 716.926 200.409C716.325 200.409 715.805 200.558 715.366 200.857C714.931 201.151 714.597 201.534 714.363 202.007C714.128 202.48 714.011 202.987 714.011 203.528V204.398C714.011 205.139 714.139 205.768 714.395 206.283C714.654 206.795 715.015 207.185 715.475 207.453C715.935 207.717 716.47 207.849 717.079 207.849C717.475 207.849 717.833 207.794 718.153 207.683C718.477 207.568 718.756 207.398 718.99 207.172C719.225 206.942 719.406 206.656 719.534 206.315L720.991 206.724C720.838 207.219 720.58 207.653 720.218 208.028C719.855 208.399 719.408 208.689 718.875 208.898C718.343 209.102 717.744 209.205 717.079 209.205ZM723.439 209V199.182H724.897V200.665H724.999C725.178 200.179 725.502 199.785 725.971 199.482C726.439 199.18 726.968 199.028 727.556 199.028C727.667 199.028 727.805 199.031 727.971 199.035C728.137 199.039 728.263 199.045 728.348 199.054V200.588C728.297 200.575 728.18 200.556 727.997 200.531C727.818 200.501 727.628 200.486 727.428 200.486C726.951 200.486 726.525 200.586 726.15 200.786C725.779 200.982 725.485 201.255 725.267 201.604C725.054 201.95 724.948 202.344 724.948 202.787V209H723.439ZM738.464 199.182L734.833 209H733.299L729.668 199.182H731.305L734.015 207.006H734.117L736.827 199.182H738.464ZM744.22 209.205C743.274 209.205 742.458 208.996 741.772 208.578C741.09 208.156 740.564 207.568 740.193 206.814C739.826 206.055 739.643 205.173 739.643 204.168C739.643 203.162 739.826 202.276 740.193 201.509C740.564 200.737 741.079 200.136 741.74 199.706C742.404 199.271 743.18 199.054 744.066 199.054C744.578 199.054 745.083 199.139 745.581 199.31C746.08 199.48 746.534 199.757 746.943 200.141C747.352 200.52 747.678 201.023 747.921 201.649C748.164 202.276 748.285 203.047 748.285 203.963V204.602H740.717V203.298H746.751C746.751 202.744 746.64 202.25 746.419 201.815C746.201 201.381 745.89 201.038 745.485 200.786C745.085 200.535 744.612 200.409 744.066 200.409C743.466 200.409 742.946 200.558 742.507 200.857C742.072 201.151 741.738 201.534 741.503 202.007C741.269 202.48 741.152 202.987 741.152 203.528V204.398C741.152 205.139 741.279 205.768 741.535 206.283C741.795 206.795 742.155 207.185 742.615 207.453C743.076 207.717 743.61 207.849 744.22 207.849C744.616 207.849 744.974 207.794 745.294 207.683C745.618 207.568 745.897 207.398 746.131 207.172C746.365 206.942 746.547 206.656 746.674 206.315L748.132 206.724C747.978 207.219 747.721 207.653 747.358 208.028C746.996 208.399 746.549 208.689 746.016 208.898C745.483 209.102 744.885 209.205 744.22 209.205ZM750.58 209V199.182H752.037V200.665H752.14C752.319 200.179 752.642 199.785 753.111 199.482C753.58 199.18 754.108 199.028 754.696 199.028C754.807 199.028 754.946 199.031 755.112 199.035C755.278 199.039 755.404 199.045 755.489 199.054V200.588C755.438 200.575 755.321 200.556 755.137 200.531C754.958 200.501 754.769 200.486 754.569 200.486C754.091 200.486 753.665 200.586 753.29 200.786C752.919 200.982 752.625 201.255 752.408 201.604C752.195 201.95 752.088 202.344 752.088 202.787V209H750.58Z" fill="black"/>
<g filter="url(#filter4_d_3821_4494)">
<rect x="550" y="451" width="117" height="65" rx="20" fill="white"/>
</g>
<path d="M595.246 479H593.661C593.567 478.544 593.403 478.143 593.169 477.798C592.939 477.453 592.657 477.163 592.325 476.929C591.997 476.69 591.633 476.511 591.232 476.392C590.831 476.273 590.414 476.213 589.979 476.213C589.187 476.213 588.469 476.413 587.825 476.814C587.186 477.214 586.677 477.805 586.297 478.585C585.922 479.364 585.735 480.321 585.735 481.455C585.735 482.588 585.922 483.545 586.297 484.325C586.677 485.104 587.186 485.695 587.825 486.095C588.469 486.496 589.187 486.696 589.979 486.696C590.414 486.696 590.831 486.636 591.232 486.517C591.633 486.398 591.997 486.221 592.325 485.987C592.657 485.748 592.939 485.456 593.169 485.111C593.403 484.761 593.567 484.361 593.661 483.909H595.246C595.127 484.578 594.91 485.177 594.594 485.705C594.279 486.234 593.887 486.683 593.418 487.054C592.949 487.42 592.423 487.7 591.839 487.891C591.26 488.083 590.64 488.179 589.979 488.179C588.863 488.179 587.87 487.906 587.001 487.361C586.131 486.815 585.447 486.04 584.949 485.034C584.45 484.028 584.201 482.835 584.201 481.455C584.201 480.074 584.45 478.881 584.949 477.875C585.447 476.869 586.131 476.094 587.001 475.548C587.87 475.003 588.863 474.73 589.979 474.73C590.64 474.73 591.26 474.826 591.839 475.018C592.423 475.21 592.949 475.491 593.418 475.862C593.887 476.228 594.279 476.675 594.594 477.204C594.91 477.728 595.127 478.327 595.246 479ZM599.112 474.909V488H597.603V474.909H599.112ZM605.863 488.205C604.977 488.205 604.199 487.994 603.53 487.572C602.866 487.15 602.346 486.56 601.971 485.801C601.6 485.043 601.415 484.156 601.415 483.142C601.415 482.119 601.6 481.227 601.971 480.464C602.346 479.701 602.866 479.109 603.53 478.687C604.199 478.265 604.977 478.054 605.863 478.054C606.75 478.054 607.525 478.265 608.19 478.687C608.859 479.109 609.379 479.701 609.75 480.464C610.125 481.227 610.312 482.119 610.312 483.142C610.312 484.156 610.125 485.043 609.75 485.801C609.379 486.56 608.859 487.15 608.19 487.572C607.525 487.994 606.75 488.205 605.863 488.205ZM605.863 486.849C606.537 486.849 607.091 486.677 607.525 486.332C607.96 485.987 608.282 485.533 608.491 484.97C608.699 484.408 608.804 483.798 608.804 483.142C608.804 482.486 608.699 481.874 608.491 481.308C608.282 480.741 607.96 480.283 607.525 479.933C607.091 479.584 606.537 479.409 605.863 479.409C605.19 479.409 604.636 479.584 604.202 479.933C603.767 480.283 603.445 480.741 603.236 481.308C603.028 481.874 602.923 482.486 602.923 483.142C602.923 483.798 603.028 484.408 603.236 484.97C603.445 485.533 603.767 485.987 604.202 486.332C604.636 486.677 605.19 486.849 605.863 486.849ZM618.803 483.986V478.182H620.311V488H618.803V486.338H618.7C618.47 486.837 618.112 487.261 617.626 487.61C617.141 487.955 616.527 488.128 615.786 488.128C615.172 488.128 614.626 487.994 614.149 487.725C613.672 487.452 613.297 487.043 613.024 486.498C612.751 485.948 612.615 485.256 612.615 484.42V478.182H614.124V484.318C614.124 485.034 614.324 485.605 614.724 486.031C615.129 486.457 615.645 486.67 616.271 486.67C616.646 486.67 617.028 486.575 617.415 486.383C617.808 486.191 618.136 485.897 618.4 485.501C618.668 485.104 618.803 484.599 618.803 483.986ZM626.781 488.205C625.963 488.205 625.241 487.998 624.615 487.585C623.988 487.167 623.498 486.579 623.144 485.82C622.791 485.058 622.614 484.156 622.614 483.116C622.614 482.085 622.791 481.19 623.144 480.432C623.498 479.673 623.99 479.087 624.621 478.674C625.252 478.261 625.98 478.054 626.807 478.054C627.446 478.054 627.951 478.161 628.322 478.374C628.697 478.582 628.982 478.821 629.178 479.089C629.379 479.354 629.534 479.571 629.645 479.741H629.773V474.909H631.281V488H629.824V486.491H629.645C629.534 486.67 629.377 486.896 629.172 487.169C628.968 487.437 628.676 487.678 628.296 487.891C627.917 488.1 627.412 488.205 626.781 488.205ZM626.986 486.849C627.591 486.849 628.102 486.692 628.52 486.376C628.938 486.057 629.255 485.616 629.472 485.053C629.69 484.487 629.798 483.832 629.798 483.091C629.798 482.358 629.692 481.717 629.479 481.167C629.266 480.613 628.95 480.183 628.533 479.876C628.115 479.565 627.6 479.409 626.986 479.409C626.347 479.409 625.814 479.573 625.388 479.901C624.966 480.225 624.649 480.666 624.436 481.224C624.227 481.778 624.122 482.401 624.122 483.091C624.122 483.79 624.229 484.425 624.442 484.996C624.659 485.562 624.979 486.014 625.401 486.351C625.827 486.683 626.355 486.849 626.986 486.849Z" fill="black"/>
<path d="M284.12 382.686C282.802 382.686 281.578 383.044 280.511 383.658C280.605 383.102 280.658 382.534 280.658 381.954C280.658 376.456 276.2 372 270.699 372C265.825 372 261.777 375.496 260.91 380.116C259.943 379.753 258.9 379.542 257.805 379.542C252.943 379.542 249 383.483 249 388.343C249 393.203 252.943 397.144 257.805 397.144H284.114C288.11 397.144 291.349 393.906 291.349 389.912C291.349 385.919 288.115 382.686 284.12 382.686Z" fill="white" stroke="#263238" stroke-miterlimit="10"/>
<path d="M411.399 151.677C409.999 151.677 408.687 152.058 407.556 152.708C407.656 152.117 407.714 151.513 407.714 150.893C407.714 145.037 402.969 140.294 397.111 140.294C391.92 140.294 387.609 144.018 386.689 148.937C385.658 148.551 384.545 148.328 383.379 148.328C378.2 148.328 374 152.527 374 157.703C374 162.879 378.2 167.078 383.379 167.078H411.399C415.652 167.078 419.103 163.629 419.103 159.378C419.103 155.126 415.652 151.677 411.399 151.677Z" fill="white" stroke="#263238" stroke-miterlimit="10"/>
<path d="M406.45 169.057H408.793" stroke="#263238" stroke-miterlimit="10" stroke-linecap="round" stroke-linejoin="round"/>
<path d="M395.025 169.057H403.227" stroke="#263238" stroke-miterlimit="10" stroke-linecap="round" stroke-linejoin="round"/>
<path d="M387.274 140.768C388.393 139.908 389.366 139.281 391.516 139" stroke="#263238" stroke-miterlimit="10" stroke-linecap="round" stroke-linejoin="round"/>
<path d="M384.481 145.049C384.481 145.049 384.68 143.843 385.629 142.484" stroke="#263238" stroke-miterlimit="10" stroke-linecap="round" stroke-linejoin="round"/>
<path d="M258.499 241.332C256.396 241.332 254.428 241.9 252.729 242.884C252.881 241.999 252.963 241.086 252.963 240.161C252.963 231.366 245.834 224.24 237.035 224.24C229.243 224.24 222.758 229.837 221.381 237.227C219.835 236.642 218.165 236.308 216.414 236.308C208.634 236.308 202.33 242.614 202.33 250.385C202.33 258.161 208.64 264.462 216.414 264.462H258.505C264.896 264.462 270.075 259.285 270.075 252.897C270.069 246.514 264.885 241.332 258.499 241.332Z" fill="#D5E7FF"/>
<path d="M205.599 263.302C206.15 263.671 206.765 264.022 207.445 264.344L205.599 263.302Z" fill="#D5E7FF"/>
<path d="M201 257.903C201 257.903 201.615 259.625 203.402 261.469L201 257.903Z" fill="#D5E7FF"/>
<path d="M226.969 223.337C228.762 222.096 231.515 220.861 235.271 221.013L226.969 223.337Z" fill="#D5E7FF"/>
<path d="M224.433 225.698C224.433 225.698 224.89 225.053 225.815 224.24L224.433 225.698Z" fill="#D5E7FF"/>
<path d="M396.689 245.995H393.906V253.349H396.689V245.995Z" fill="#263238" stroke="#263238" stroke-miterlimit="10"/>
<path d="M396.689 289.379H393.906V296.733H396.689V289.379Z" fill="#263238" stroke="#263238" stroke-miterlimit="10"/>
<path d="M321.838 203.442H319.056V210.797H321.838V203.442Z" fill="#263238" stroke="#263238" stroke-miterlimit="10"/>
<path d="M321.838 267.964H319.056V275.319H321.838V267.964Z" fill="#263238" stroke="#263238" stroke-miterlimit="10"/>
<path d="M394.82 199.372H321.575V215.229H394.82V199.372Z" fill="white" stroke="#263238" stroke-miterlimit="10"/>
<path d="M375.576 203.419H325.096V211.183H375.576V203.419Z" fill="#2C88FF" stroke="#263238" stroke-miterlimit="10"/>
<path d="M382.413 208.917C383.493 208.917 384.369 208.042 384.369 206.961C384.369 205.881 383.493 205.006 382.413 205.006C381.332 205.006 380.456 205.881 380.456 206.961C380.456 208.042 381.332 208.917 382.413 208.917Z" fill="white" stroke="#263238" stroke-miterlimit="10"/>
<path d="M392.038 206.961C392.038 205.878 391.159 205.006 390.081 205.006C388.998 205.006 388.125 205.884 388.125 206.961C388.125 208.045 389.003 208.917 390.081 208.917C391.165 208.917 392.038 208.045 392.038 206.961Z" fill="#2C88FF" stroke="#263238" stroke-miterlimit="10"/>
<path d="M370.995 208.917C372.076 208.917 372.952 208.042 372.952 206.961C372.952 205.881 372.076 205.006 370.995 205.006C369.915 205.006 369.039 205.881 369.039 206.961C369.039 208.042 369.915 208.917 370.995 208.917Z" fill="white" stroke="#263238" stroke-miterlimit="10"/>
<path d="M392.043 215.229H324.357V220.657H392.043V215.229Z" fill="#263238" stroke="#263238" stroke-miterlimit="10"/>
<path d="M394.82 220.657H321.575V236.514H394.82V220.657Z" fill="white" stroke="#263238" stroke-miterlimit="10"/>
<path d="M375.576 224.704H325.096V232.468H375.576V224.704Z" fill="#2C88FF" stroke="#263238" stroke-miterlimit="10"/>
<path d="M382.413 230.208C383.493 230.208 384.369 229.333 384.369 228.252C384.369 227.172 383.493 226.297 382.413 226.297C381.332 226.297 380.456 227.172 380.456 228.252C380.456 229.333 381.332 230.208 382.413 230.208Z" fill="#2C88FF" stroke="#263238" stroke-miterlimit="10"/>
<path d="M392.038 228.252C392.038 227.169 391.159 226.297 390.081 226.297C388.998 226.297 388.125 227.175 388.125 228.252C388.125 229.33 389.003 230.208 390.081 230.208C391.165 230.208 392.038 229.33 392.038 228.252Z" fill="white" stroke="#263238" stroke-miterlimit="10"/>
<path d="M370.995 230.208C372.076 230.208 372.952 229.333 372.952 228.252C372.952 227.172 372.076 226.297 370.995 226.297C369.915 226.297 369.039 227.172 369.039 228.252C369.039 229.333 369.915 230.208 370.995 230.208Z" fill="white" stroke="#263238" stroke-miterlimit="10"/>
<path d="M392.043 236.52H324.357V241.948H392.043V236.52Z" fill="#263238" stroke="#263238" stroke-miterlimit="10"/>
<path d="M394.82 241.948H321.575V257.805H394.82V241.948Z" fill="white" stroke="#263238" stroke-miterlimit="10"/>
<path d="M375.576 245.995H325.096V253.759H375.576V245.995Z" fill="#2C88FF" stroke="#263238" stroke-miterlimit="10"/>
<path d="M382.413 251.493C383.493 251.493 384.369 250.617 384.369 249.537C384.369 248.457 383.493 247.582 382.413 247.582C381.332 247.582 380.456 248.457 380.456 249.537C380.456 250.617 381.332 251.493 382.413 251.493Z" fill="white" stroke="#263238" stroke-miterlimit="10"/>
<path d="M392.038 249.537C392.038 248.454 391.159 247.582 390.081 247.582C388.998 247.582 388.125 248.46 388.125 249.537C388.125 250.621 389.003 251.493 390.081 251.493C391.165 251.493 392.038 250.621 392.038 249.537Z" fill="#2C88FF" stroke="#263238" stroke-miterlimit="10"/>
<path d="M370.995 251.493C372.076 251.493 372.952 250.617 372.952 249.537C372.952 248.457 372.076 247.582 370.995 247.582C369.915 247.582 369.039 248.457 369.039 249.537C369.039 250.617 369.915 251.493 370.995 251.493Z" fill="white" stroke="#263238" stroke-miterlimit="10"/>
<path d="M392.043 257.805H324.357V263.234H392.043V257.805Z" fill="#263238" stroke="#263238" stroke-miterlimit="10"/>
<path d="M394.82 263.233H321.575V279.09H394.82V263.233Z" fill="white" stroke="#263238" stroke-miterlimit="10"/>
<path d="M375.576 267.28H325.096V275.044H375.576V267.28Z" fill="#2C88FF" stroke="#263238" stroke-miterlimit="10"/>
<path d="M382.413 272.784C383.493 272.784 384.369 271.908 384.369 270.828C384.369 269.748 383.493 268.872 382.413 268.872C381.332 268.872 380.456 269.748 380.456 270.828C380.456 271.908 381.332 272.784 382.413 272.784Z" fill="#2C88FF" stroke="#263238" stroke-miterlimit="10"/>
<path d="M392.038 270.828C392.038 269.745 391.159 268.872 390.081 268.872C388.998 268.872 388.125 269.75 388.125 270.828C388.125 271.905 389.003 272.784 390.081 272.784C391.165 272.784 392.038 271.905 392.038 270.828Z" fill="white" stroke="#263238" stroke-miterlimit="10"/>
<path d="M370.995 272.784C372.076 272.784 372.952 271.908 372.952 270.828C372.952 269.748 372.076 268.872 370.995 268.872C369.915 268.872 369.039 269.748 369.039 270.828C369.039 271.908 369.915 272.784 370.995 272.784Z" fill="white" stroke="#263238" stroke-miterlimit="10"/>
<path d="M392.043 279.096H324.357V284.525H392.043V279.096Z" fill="#263238" stroke="#263238" stroke-miterlimit="10"/>
<path d="M394.82 284.524H321.575V300.381H394.82V284.524Z" fill="white" stroke="#263238" stroke-miterlimit="10"/>
<path d="M375.576 288.571H325.096V296.335H375.576V288.571Z" fill="#2C88FF" stroke="#263238" stroke-miterlimit="10"/>
<path d="M382.413 294.069C383.493 294.069 384.369 293.193 384.369 292.113C384.369 291.033 383.493 290.157 382.413 290.157C381.332 290.157 380.456 291.033 380.456 292.113C380.456 293.193 381.332 294.069 382.413 294.069Z" fill="white" stroke="#263238" stroke-miterlimit="10"/>
<path d="M392.038 292.113C392.038 291.03 391.159 290.157 390.081 290.157C388.998 290.157 388.125 291.036 388.125 292.113C388.125 293.197 389.003 294.069 390.081 294.069C391.165 294.069 392.038 293.197 392.038 292.113Z" fill="#2C88FF" stroke="#263238" stroke-miterlimit="10"/>
<path d="M370.995 294.069C372.076 294.069 372.952 293.193 372.952 292.113C372.952 291.033 372.076 290.157 370.995 290.157C369.915 290.157 369.039 291.033 369.039 292.113C369.039 293.193 369.915 294.069 370.995 294.069Z" fill="white" stroke="#263238" stroke-miterlimit="10"/>
<path d="M363.075 197.241H367.176" stroke="#263238" stroke-miterlimit="10" stroke-linecap="round" stroke-linejoin="round"/>
<path d="M334.662 197.241H358.388" stroke="#263238" stroke-miterlimit="10" stroke-linecap="round" stroke-linejoin="round"/>
<path d="M318.552 293.565V296.493" stroke="#263238" stroke-miterlimit="10" stroke-linecap="round" stroke-linejoin="round"/>
<path d="M318.552 284.489V290.638" stroke="#263238" stroke-miterlimit="10" stroke-linecap="round" stroke-linejoin="round"/>
<path d="M619.917 279.097H567.714V314.846H619.917V279.097Z" fill="#263238" stroke="#263238" stroke-miterlimit="10"/>
<path d="M627.75 330.65H559.888L567.715 314.846H619.918L627.75 330.65Z" fill="white" stroke="#263238" stroke-miterlimit="10" stroke-linecap="round" stroke-linejoin="round"/>
<path d="M616.754 281.925H570.878V312.011H616.754V281.925Z" fill="white" stroke="#263238" stroke-miterlimit="10"/>
<path d="M600.691 294.082L593.831 285.972L586.971 294.082H589.848V306.782H597.821V294.082H600.691Z" fill="#42D37B"/>
<path d="M591.64 319.852L591.728 317.925H588.975L588.793 319.852H591.64Z" fill="white" stroke="#263238" stroke-miterlimit="10"/>
<path d="M597.34 319.852L597.247 317.925H594.487L594.493 319.852H597.34Z" fill="white" stroke="#263238" stroke-miterlimit="10"/>
<path d="M612.185 321.907H615.137L614.446 319.852H611.593L612.185 321.907Z" fill="white" stroke="#263238" stroke-miterlimit="10"/>
<path d="M588.793 319.852L588.974 317.925H586.215L585.94 319.852H588.793Z" fill="white" stroke="#263238" stroke-miterlimit="10"/>
<path d="M583.087 319.852L583.456 317.925H580.697L580.24 319.852H583.087Z" fill="white" stroke="#263238" stroke-miterlimit="10"/>
<path d="M608.74 319.852L608.277 317.925H605.524L605.893 319.852H608.74Z" fill="white" stroke="#263238" stroke-miterlimit="10"/>
<path d="M611.593 319.852L611.036 317.925H608.277L608.74 319.852H611.593Z" fill="white" stroke="#263238" stroke-miterlimit="10"/>
<path d="M580.239 319.852L580.696 317.925H577.937L577.386 319.852H580.239Z" fill="white" stroke="#263238" stroke-miterlimit="10"/>
<path d="M600.193 319.852L600.005 317.925H597.246L597.34 319.852H600.193Z" fill="white" stroke="#263238" stroke-miterlimit="10"/>
<path d="M614.446 319.852L613.796 317.925H611.037L611.593 319.852H614.446Z" fill="white" stroke="#263238" stroke-miterlimit="10"/>
<path d="M605.893 319.852L605.524 317.925H602.765L603.04 319.852H605.893Z" fill="white" stroke="#263238" stroke-miterlimit="10"/>
<path d="M603.04 319.852L602.765 317.925H600.006L600.193 319.852H603.04Z" fill="white" stroke="#263238" stroke-miterlimit="10"/>
<path d="M594.493 319.852L594.487 317.925H591.728L591.64 319.852H594.493Z" fill="white" stroke="#263238" stroke-miterlimit="10"/>
<path d="M574.54 319.852H571.687L570.902 321.907H573.849L574.54 319.852Z" fill="white" stroke="#263238" stroke-miterlimit="10"/>
<path d="M575.184 317.925H572.425L571.687 319.852H574.54L575.184 317.925Z" fill="white" stroke="#263238" stroke-miterlimit="10"/>
<path d="M577.387 319.852L577.937 317.925H575.184L574.54 319.852H577.387Z" fill="white" stroke="#263238" stroke-miterlimit="10"/>
<path d="M570.058 324.115L569.15 326.486H572.319L573.11 324.115H570.058Z" fill="white" stroke="#263238" stroke-miterlimit="10"/>
<path d="M573.849 321.907H570.902L570.058 324.115H573.11L573.849 321.907Z" fill="white" stroke="#263238" stroke-miterlimit="10"/>
<path d="M573.11 324.115L572.32 326.486H575.489L576.168 324.115H573.11Z" fill="white" stroke="#263238" stroke-miterlimit="10"/>
<path d="M585.94 319.852L586.216 317.925H583.456L583.087 319.852H585.94Z" fill="white" stroke="#263238" stroke-miterlimit="10"/>
<path d="M585.646 321.907L585.939 319.852H583.086L582.694 321.907H585.646Z" fill="white" stroke="#263238" stroke-miterlimit="10"/>
<path d="M582.694 321.907L583.087 319.852H580.24L579.748 321.907H582.694Z" fill="white" stroke="#263238" stroke-miterlimit="10"/>
<path d="M588.594 321.907L588.793 319.852H585.94L585.647 321.907H588.594Z" fill="white" stroke="#263238" stroke-miterlimit="10"/>
<path d="M577.387 319.852H574.539L573.848 321.907H576.801L577.387 319.852Z" fill="white" stroke="#263238" stroke-miterlimit="10"/>
<path d="M612.823 324.115H615.875L615.137 321.907H612.185L612.823 324.115Z" fill="white" stroke="#263238" stroke-miterlimit="10"/>
<path d="M579.747 321.907L580.24 319.852H577.387L576.801 321.907H579.747Z" fill="white" stroke="#263238" stroke-miterlimit="10"/>
<path d="M573.849 321.907L573.111 324.115H576.169L576.801 321.907H573.849Z" fill="white" stroke="#263238" stroke-miterlimit="10"/>
<path d="M606.292 321.907L605.894 319.852H603.041L603.339 321.907H606.292Z" fill="white" stroke="#263238" stroke-miterlimit="10"/>
<path d="M603.339 321.907L603.04 319.852H600.193L600.392 321.907H603.339Z" fill="white" stroke="#263238" stroke-miterlimit="10"/>
<path d="M612.185 321.907L611.593 319.852H608.74L609.238 321.907H612.185Z" fill="white" stroke="#263238" stroke-miterlimit="10"/>
<path d="M594.493 321.907V319.852H591.64L591.546 321.907H594.493Z" fill="white" stroke="#263238" stroke-miterlimit="10"/>
<path d="M600.392 321.907L600.193 319.852H597.34L597.439 321.907H600.392Z" fill="white" stroke="#263238" stroke-miterlimit="10"/>
<path d="M597.44 321.907L597.341 319.852H594.493V321.907H597.44Z" fill="white" stroke="#263238" stroke-miterlimit="10"/>
<path d="M591.546 321.907L591.64 319.852H588.793L588.594 321.907H591.546Z" fill="white" stroke="#263238" stroke-miterlimit="10"/>
<path d="M600.393 321.907L600.603 324.115H603.661L603.339 321.907H600.393Z" fill="white" stroke="#263238" stroke-miterlimit="10"/>
<path d="M603.339 321.907L603.662 324.115H606.714L606.292 321.907H603.339Z" fill="white" stroke="#263238" stroke-miterlimit="10"/>
<path d="M576.801 321.907L576.168 324.115H579.22L579.747 321.907H576.801Z" fill="white" stroke="#263238" stroke-miterlimit="10"/>
<path d="M606.292 321.907L606.714 324.115H609.766L609.239 321.907H606.292Z" fill="white" stroke="#263238" stroke-miterlimit="10"/>
<path d="M594.493 321.907V324.115H597.551L597.44 321.907H594.493Z" fill="white" stroke="#263238" stroke-miterlimit="10"/>
<path d="M609.239 321.907L609.766 324.115H612.824L612.185 321.907H609.239Z" fill="white" stroke="#263238" stroke-miterlimit="10"/>
<path d="M597.44 321.907L597.551 324.115H600.603L600.392 321.907H597.44Z" fill="white" stroke="#263238" stroke-miterlimit="10"/>
<path d="M582.695 321.907L582.279 324.115H585.331L585.647 321.907H582.695Z" fill="white" stroke="#263238" stroke-miterlimit="10"/>
<path d="M579.748 321.907L579.221 324.115H582.279L582.695 321.907H579.748Z" fill="white" stroke="#263238" stroke-miterlimit="10"/>
<path d="M591.547 321.907L591.441 324.115H594.493V321.907H591.547Z" fill="white" stroke="#263238" stroke-miterlimit="10"/>
<path d="M588.594 321.907L588.383 324.115H591.441L591.547 321.907H588.594Z" fill="white" stroke="#263238" stroke-miterlimit="10"/>
<path d="M585.647 321.907L585.331 324.115H588.383L588.594 321.907H585.647Z" fill="white" stroke="#263238" stroke-miterlimit="10"/>
<path d="M609.238 321.907L608.74 319.852H605.893L606.291 321.907H609.238Z" fill="white" stroke="#263238" stroke-miterlimit="10"/>
<path d="M575.184 317.925L575.84 315.952H573.175L572.425 317.925H575.184Z" fill="white" stroke="#263238" stroke-miterlimit="10"/>
<path d="M572.425 317.925H569.876L569.056 319.852H571.686L572.425 317.925Z" fill="white" stroke="#263238" stroke-miterlimit="10"/>
<path d="M573.174 315.952H570.72L569.876 317.925H572.425L573.174 315.952Z" fill="white" stroke="#263238" stroke-miterlimit="10"/>
<path d="M571.687 319.852H569.056L568.177 321.907H570.902L571.687 319.852Z" fill="white" stroke="#263238" stroke-miterlimit="10"/>
<path d="M570.902 321.907H568.178L567.235 324.115H570.059L570.902 321.907Z" fill="white" stroke="#263238" stroke-miterlimit="10"/>
<path d="M570.058 324.115H567.235L566.227 326.486H569.15L570.058 324.115Z" fill="white" stroke="#263238" stroke-miterlimit="10"/>
<path d="M617.293 319.852L618.084 321.907H620.69L619.812 319.852H617.293Z" fill="white" stroke="#263238" stroke-miterlimit="10"/>
<path d="M618.934 324.115H621.635L620.691 321.907H618.084L618.934 324.115Z" fill="white" stroke="#263238" stroke-miterlimit="10"/>
<path d="M619.842 326.486H622.648L621.634 324.115H618.934L619.842 326.486Z" fill="white" stroke="#263238" stroke-miterlimit="10"/>
<path d="M597.247 317.925L597.153 315.952H594.487V317.925H597.247Z" fill="white" stroke="#263238" stroke-miterlimit="10"/>
<path d="M617.293 319.852H619.812L618.992 317.925H616.555L617.293 319.852Z" fill="white" stroke="#263238" stroke-miterlimit="10"/>
<path d="M615.876 324.115H618.934L618.084 321.907H615.138L615.876 324.115Z" fill="white" stroke="#263238" stroke-miterlimit="10"/>
<path d="M577.937 317.925L578.505 315.952H575.84L575.184 317.925H577.937Z" fill="white" stroke="#263238" stroke-miterlimit="10"/>
<path d="M613.796 317.925L614.446 319.852H617.293L616.555 317.925H613.796Z" fill="white" stroke="#263238" stroke-miterlimit="10"/>
<path d="M618.992 317.925L618.154 315.952H615.799L616.555 317.925H618.992Z" fill="white" stroke="#263238" stroke-miterlimit="10"/>
<path d="M616.555 317.925L615.799 315.952H613.133L613.795 317.925H616.555Z" fill="white" stroke="#263238" stroke-miterlimit="10"/>
<path d="M606.713 324.115L607.17 326.486H610.339L609.765 324.115H606.713Z" fill="white" stroke="#263238" stroke-miterlimit="10"/>
<path d="M616.673 326.486H619.842L618.934 324.115H615.876L616.673 326.486Z" fill="white" stroke="#263238" stroke-miterlimit="10"/>
<path d="M613.796 317.925L613.134 315.952H610.469L611.037 317.925H613.796Z" fill="white" stroke="#263238" stroke-miterlimit="10"/>
<path d="M612.823 324.115L613.509 326.486H616.672L615.875 324.115H612.823Z" fill="white" stroke="#263238" stroke-miterlimit="10"/>
<path d="M609.765 324.115L610.339 326.486H613.509L612.823 324.115H609.765Z" fill="white" stroke="#263238" stroke-miterlimit="10"/>
<path d="M615.138 321.907H618.085L617.294 319.852H614.447L615.138 321.907Z" fill="white" stroke="#263238" stroke-miterlimit="10"/>
<path d="M588.975 317.925L589.162 315.952H586.497L586.215 317.925H588.975Z" fill="white" stroke="#263238" stroke-miterlimit="10"/>
<path d="M611.036 317.925L610.468 315.952H607.803L608.277 317.925H611.036Z" fill="white" stroke="#263238" stroke-miterlimit="10"/>
<path d="M586.216 317.925L586.497 315.952H583.831L583.457 317.925H586.216Z" fill="white" stroke="#263238" stroke-miterlimit="10"/>
<path d="M594.487 317.925V315.952H591.822L591.728 317.925H594.487Z" fill="white" stroke="#263238" stroke-miterlimit="10"/>
<path d="M583.456 317.925L583.83 315.952H581.171L580.696 317.925H583.456Z" fill="white" stroke="#263238" stroke-miterlimit="10"/>
<path d="M580.696 317.925L581.171 315.952H578.505L577.937 317.925H580.696Z" fill="white" stroke="#263238" stroke-miterlimit="10"/>
<path d="M591.728 317.925L591.822 315.952H589.162L588.975 317.925H591.728Z" fill="white" stroke="#263238" stroke-miterlimit="10"/>
<path d="M608.278 317.925L607.803 315.952H605.144L605.524 317.925H608.278Z" fill="white" stroke="#263238" stroke-miterlimit="10"/>
<path d="M605.524 317.925L605.144 315.952H602.478L602.765 317.925H605.524Z" fill="white" stroke="#263238" stroke-miterlimit="10"/>
<path d="M600.005 317.925L599.812 315.952H597.152L597.246 317.925H600.005Z" fill="white" stroke="#263238" stroke-miterlimit="10"/>
<path d="M606.713 324.115H603.661H600.603H597.551H594.493H591.441H588.383H585.331H582.279H579.221H576.169L575.489 326.486H578.658H581.822H584.991H588.16H591.33H594.499H597.662H600.832H604.001H607.17L606.713 324.115Z" fill="white" stroke="#263238" stroke-miterlimit="10"/>
<path d="M602.765 317.925L602.478 315.952H599.812L600.005 317.925H602.765Z" fill="white" stroke="#263238" stroke-miterlimit="10"/>
<path d="M627.779 330.65H559.888V331.61H627.779V330.65Z" fill="#263238" stroke="#263238" stroke-miterlimit="10"/>
<path d="M564.029 172.034H511.826V207.783H564.029V172.034Z" fill="#263238" stroke="#263238" stroke-miterlimit="10"/>
<path d="M571.862 223.587H504L511.827 207.782H564.029L571.862 223.587Z" fill="white" stroke="#263238" stroke-miterlimit="10" stroke-linecap="round" stroke-linejoin="round"/>
<path d="M560.866 174.862H514.99V204.948H560.866V174.862Z" fill="white" stroke="#263238" stroke-miterlimit="10"/>
<path d="M544.803 187.018L537.943 178.908L531.083 187.018H533.959V199.719H541.932V187.018H544.803Z" fill="#42D37B"/>
<path d="M535.752 212.788L535.84 210.862H533.086L532.905 212.788H535.752Z" fill="white" stroke="#263238" stroke-miterlimit="10"/>
<path d="M541.452 212.788L541.359 210.862H538.599L538.605 212.788H541.452Z" fill="white" stroke="#263238" stroke-miterlimit="10"/>
<path d="M556.297 214.844H559.249L558.558 212.789H555.705L556.297 214.844Z" fill="white" stroke="#263238" stroke-miterlimit="10"/>
<path d="M532.904 212.788L533.086 210.862H530.327L530.052 212.788H532.904Z" fill="white" stroke="#263238" stroke-miterlimit="10"/>
<path d="M527.199 212.788L527.568 210.862H524.809L524.352 212.788H527.199Z" fill="white" stroke="#263238" stroke-miterlimit="10"/>
<path d="M552.852 212.788L552.389 210.862H549.636L550.005 212.788H552.852Z" fill="white" stroke="#263238" stroke-miterlimit="10"/>
<path d="M555.705 212.788L555.148 210.862H552.389L552.852 212.788H555.705Z" fill="white" stroke="#263238" stroke-miterlimit="10"/>
<path d="M524.351 212.788L524.808 210.862H522.049L521.499 212.788H524.351Z" fill="white" stroke="#263238" stroke-miterlimit="10"/>
<path d="M544.305 212.788L544.117 210.862H541.358L541.452 212.788H544.305Z" fill="white" stroke="#263238" stroke-miterlimit="10"/>
<path d="M558.558 212.788L557.908 210.862H555.148L555.705 212.788H558.558Z" fill="white" stroke="#263238" stroke-miterlimit="10"/>
<path d="M550.005 212.788L549.636 210.862H546.877L547.152 212.788H550.005Z" fill="white" stroke="#263238" stroke-miterlimit="10"/>
<path d="M547.152 212.788L546.877 210.862H544.117L544.305 212.788H547.152Z" fill="white" stroke="#263238" stroke-miterlimit="10"/>
<path d="M538.605 212.788L538.599 210.862H535.84L535.752 212.788H538.605Z" fill="white" stroke="#263238" stroke-miterlimit="10"/>
<path d="M518.652 212.789H515.799L515.014 214.844H517.96L518.652 212.789Z" fill="white" stroke="#263238" stroke-miterlimit="10"/>
<path d="M519.296 210.862H516.537L515.799 212.788H518.652L519.296 210.862Z" fill="white" stroke="#263238" stroke-miterlimit="10"/>
<path d="M521.498 212.788L522.049 210.862H519.296L518.651 212.788H521.498Z" fill="white" stroke="#263238" stroke-miterlimit="10"/>
<path d="M514.17 217.051L513.262 219.423H516.431L517.222 217.051H514.17Z" fill="white" stroke="#263238" stroke-miterlimit="10"/>
<path d="M517.96 214.844H515.014L514.17 217.051H517.222L517.96 214.844Z" fill="white" stroke="#263238" stroke-miterlimit="10"/>
<path d="M517.222 217.051L516.431 219.423H519.601L520.28 217.051H517.222Z" fill="white" stroke="#263238" stroke-miterlimit="10"/>
<path d="M530.052 212.788L530.328 210.862H527.568L527.199 212.788H530.052Z" fill="white" stroke="#263238" stroke-miterlimit="10"/>
<path d="M529.758 214.844L530.051 212.789H527.198L526.806 214.844H529.758Z" fill="white" stroke="#263238" stroke-miterlimit="10"/>
<path d="M526.806 214.844L527.199 212.789H524.352L523.86 214.844H526.806Z" fill="white" stroke="#263238" stroke-miterlimit="10"/>
<path d="M532.705 214.844L532.905 212.789H530.052L529.759 214.844H532.705Z" fill="white" stroke="#263238" stroke-miterlimit="10"/>
<path d="M521.498 212.789H518.651L517.96 214.844H520.913L521.498 212.789Z" fill="white" stroke="#263238" stroke-miterlimit="10"/>
<path d="M556.936 217.051H559.988L559.25 214.844H556.297L556.936 217.051Z" fill="white" stroke="#263238" stroke-miterlimit="10"/>
<path d="M523.859 214.844L524.351 212.789H521.498L520.913 214.844H523.859Z" fill="white" stroke="#263238" stroke-miterlimit="10"/>
<path d="M517.961 214.844L517.222 217.051H520.28L520.913 214.844H517.961Z" fill="white" stroke="#263238" stroke-miterlimit="10"/>
<path d="M550.404 214.844L550.005 212.789H547.152L547.451 214.844H550.404Z" fill="white" stroke="#263238" stroke-miterlimit="10"/>
<path d="M547.451 214.844L547.152 212.789H544.305L544.504 214.844H547.451Z" fill="white" stroke="#263238" stroke-miterlimit="10"/>
<path d="M556.297 214.844L555.705 212.789H552.852L553.35 214.844H556.297Z" fill="white" stroke="#263238" stroke-miterlimit="10"/>
<path d="M538.605 214.844V212.789H535.752L535.658 214.844H538.605Z" fill="white" stroke="#263238" stroke-miterlimit="10"/>
<path d="M544.504 214.844L544.304 212.789H541.451L541.551 214.844H544.504Z" fill="white" stroke="#263238" stroke-miterlimit="10"/>
<path d="M541.552 214.844L541.452 212.789H538.605V214.844H541.552Z" fill="white" stroke="#263238" stroke-miterlimit="10"/>
<path d="M535.658 214.844L535.752 212.789H532.905L532.706 214.844H535.658Z" fill="white" stroke="#263238" stroke-miterlimit="10"/>
<path d="M544.504 214.844L544.715 217.051H547.773L547.451 214.844H544.504Z" fill="white" stroke="#263238" stroke-miterlimit="10"/>
<path d="M547.451 214.844L547.773 217.051H550.826L550.404 214.844H547.451Z" fill="white" stroke="#263238" stroke-miterlimit="10"/>
<path d="M520.913 214.844L520.28 217.051H523.332L523.859 214.844H520.913Z" fill="white" stroke="#263238" stroke-miterlimit="10"/>
<path d="M550.404 214.844L550.826 217.051H553.878L553.351 214.844H550.404Z" fill="white" stroke="#263238" stroke-miterlimit="10"/>
<path d="M538.605 214.844V217.051H541.663L541.552 214.844H538.605Z" fill="white" stroke="#263238" stroke-miterlimit="10"/>
<path d="M553.35 214.844L553.878 217.051H556.936L556.297 214.844H553.35Z" fill="white" stroke="#263238" stroke-miterlimit="10"/>
<path d="M541.552 214.844L541.663 217.051H544.715L544.504 214.844H541.552Z" fill="white" stroke="#263238" stroke-miterlimit="10"/>
<path d="M526.806 214.844L526.39 217.051H529.443L529.759 214.844H526.806Z" fill="white" stroke="#263238" stroke-miterlimit="10"/>
<path d="M523.86 214.844L523.333 217.051H526.391L526.807 214.844H523.86Z" fill="white" stroke="#263238" stroke-miterlimit="10"/>
<path d="M535.659 214.844L535.553 217.051H538.605V214.844H535.659Z" fill="white" stroke="#263238" stroke-miterlimit="10"/>
<path d="M532.706 214.844L532.495 217.051H535.553L535.658 214.844H532.706Z" fill="white" stroke="#263238" stroke-miterlimit="10"/>
<path d="M529.759 214.844L529.443 217.051H532.495L532.706 214.844H529.759Z" fill="white" stroke="#263238" stroke-miterlimit="10"/>
<path d="M553.35 214.844L552.852 212.789H550.005L550.403 214.844H553.35Z" fill="white" stroke="#263238" stroke-miterlimit="10"/>
<path d="M519.296 210.862L519.952 208.889H517.286L516.537 210.862H519.296Z" fill="white" stroke="#263238" stroke-miterlimit="10"/>
<path d="M516.536 210.862H513.988L513.168 212.788H515.798L516.536 210.862Z" fill="white" stroke="#263238" stroke-miterlimit="10"/>
<path d="M517.286 208.889H514.832L513.988 210.862H516.536L517.286 208.889Z" fill="white" stroke="#263238" stroke-miterlimit="10"/>
<path d="M515.798 212.789H513.168L512.289 214.844H515.013L515.798 212.789Z" fill="white" stroke="#263238" stroke-miterlimit="10"/>
<path d="M515.014 214.844H512.29L511.347 217.051H514.17L515.014 214.844Z" fill="white" stroke="#263238" stroke-miterlimit="10"/>
<path d="M514.17 217.051H511.346L510.339 219.423H513.262L514.17 217.051Z" fill="white" stroke="#263238" stroke-miterlimit="10"/>
<path d="M561.405 212.789L562.195 214.844H564.802L563.924 212.789H561.405Z" fill="white" stroke="#263238" stroke-miterlimit="10"/>
<path d="M563.046 217.051H565.746L564.803 214.844H562.196L563.046 217.051Z" fill="white" stroke="#263238" stroke-miterlimit="10"/>
<path d="M563.954 219.423H566.76L565.746 217.051H563.046L563.954 219.423Z" fill="white" stroke="#263238" stroke-miterlimit="10"/>
<path d="M541.359 210.862L541.265 208.889H538.599V210.862H541.359Z" fill="white" stroke="#263238" stroke-miterlimit="10"/>
<path d="M561.405 212.788H563.924L563.104 210.862H560.667L561.405 212.788Z" fill="white" stroke="#263238" stroke-miterlimit="10"/>
<path d="M559.988 217.051H563.046L562.196 214.844H559.25L559.988 217.051Z" fill="white" stroke="#263238" stroke-miterlimit="10"/>
<path d="M522.049 210.862L522.617 208.889H519.952L519.295 210.862H522.049Z" fill="white" stroke="#263238" stroke-miterlimit="10"/>
<path d="M557.908 210.862L558.559 212.788H561.406L560.668 210.862H557.908Z" fill="white" stroke="#263238" stroke-miterlimit="10"/>
<path d="M563.104 210.862L562.266 208.889H559.911L560.667 210.862H563.104Z" fill="white" stroke="#263238" stroke-miterlimit="10"/>
<path d="M560.666 210.862L559.911 208.889H557.245L557.907 210.862H560.666Z" fill="white" stroke="#263238" stroke-miterlimit="10"/>
<path d="M550.825 217.051L551.282 219.423H554.451L553.877 217.051H550.825Z" fill="white" stroke="#263238" stroke-miterlimit="10"/>
<path d="M560.785 219.423H563.954L563.046 217.051H559.988L560.785 219.423Z" fill="white" stroke="#263238" stroke-miterlimit="10"/>
<path d="M557.908 210.862L557.246 208.889H554.581L555.149 210.862H557.908Z" fill="white" stroke="#263238" stroke-miterlimit="10"/>
<path d="M556.935 217.051L557.62 219.423H560.784L559.987 217.051H556.935Z" fill="white" stroke="#263238" stroke-miterlimit="10"/>
<path d="M553.878 217.051L554.452 219.423H557.621L556.936 217.051H553.878Z" fill="white" stroke="#263238" stroke-miterlimit="10"/>
<path d="M559.25 214.844H562.196L561.405 212.789H558.558L559.25 214.844Z" fill="white" stroke="#263238" stroke-miterlimit="10"/>
<path d="M533.086 210.862L533.274 208.889H530.608L530.327 210.862H533.086Z" fill="white" stroke="#263238" stroke-miterlimit="10"/>
<path d="M555.148 210.862L554.58 208.889H551.915L552.389 210.862H555.148Z" fill="white" stroke="#263238" stroke-miterlimit="10"/>
<path d="M530.328 210.862L530.609 208.889H527.943L527.568 210.862H530.328Z" fill="white" stroke="#263238" stroke-miterlimit="10"/>
<path d="M538.599 210.862V208.889H535.934L535.84 210.862H538.599Z" fill="white" stroke="#263238" stroke-miterlimit="10"/>
<path d="M527.568 210.862L527.943 208.889H525.283L524.808 210.862H527.568Z" fill="white" stroke="#263238" stroke-miterlimit="10"/>
<path d="M524.808 210.862L525.283 208.889H522.617L522.049 210.862H524.808Z" fill="white" stroke="#263238" stroke-miterlimit="10"/>
<path d="M535.84 210.862L535.934 208.889H533.274L533.086 210.862H535.84Z" fill="white" stroke="#263238" stroke-miterlimit="10"/>
<path d="M552.39 210.862L551.915 208.889H549.255L549.636 210.862H552.39Z" fill="white" stroke="#263238" stroke-miterlimit="10"/>
<path d="M549.636 210.862L549.255 208.889H546.59L546.877 210.862H549.636Z" fill="white" stroke="#263238" stroke-miterlimit="10"/>
<path d="M544.117 210.862L543.924 208.889H541.264L541.358 210.862H544.117Z" fill="white" stroke="#263238" stroke-miterlimit="10"/>
<path d="M550.825 217.051H547.773H544.715H541.663H538.605H535.553H532.495H529.443H526.391H523.333H520.281L519.601 219.423H522.77H525.934H529.103H532.272H535.442H538.611H541.775H544.944H548.113H551.282L550.825 217.051Z" fill="white" stroke="#263238" stroke-miterlimit="10"/>
<path d="M546.876 210.862L546.589 208.889H543.924L544.117 210.862H546.876Z" fill="white" stroke="#263238" stroke-miterlimit="10"/>
<path d="M571.891 223.587H504V224.547H571.891V223.587Z" fill="#263238" stroke="#263238" stroke-miterlimit="10"/>
<path d="M567.578 386.161H515.375V421.909H567.578V386.161Z" fill="#263238" stroke="#263238" stroke-miterlimit="10"/>
<path d="M575.411 437.713H507.549L515.375 421.909H567.578L575.411 437.713Z" fill="white" stroke="#263238" stroke-miterlimit="10" stroke-linecap="round" stroke-linejoin="round"/>
<path d="M564.415 388.989H518.539V419.075H564.415V388.989Z" fill="white" stroke="#263238" stroke-miterlimit="10"/>
<path d="M548.352 401.145L541.492 393.035L534.632 401.145H537.508V413.846H545.482V401.145H548.352Z" fill="#42D37B"/>
<path d="M539.301 426.916L539.389 424.99H536.636L536.454 426.916H539.301Z" fill="white" stroke="#263238" stroke-miterlimit="10"/>
<path d="M545.002 426.916L544.908 424.99H542.149L542.155 426.916H545.002Z" fill="white" stroke="#263238" stroke-miterlimit="10"/>
<path d="M559.846 428.972H562.799L562.107 426.916H559.254L559.846 428.972Z" fill="white" stroke="#263238" stroke-miterlimit="10"/>
<path d="M536.454 426.916L536.635 424.99H533.876L533.601 426.916H536.454Z" fill="white" stroke="#263238" stroke-miterlimit="10"/>
<path d="M530.748 426.916L531.117 424.99H528.358L527.901 426.916H530.748Z" fill="white" stroke="#263238" stroke-miterlimit="10"/>
<path d="M556.401 426.916L555.938 424.99H553.185L553.554 426.916H556.401Z" fill="white" stroke="#263238" stroke-miterlimit="10"/>
<path d="M559.255 426.916L558.698 424.99H555.939L556.402 426.916H559.255Z" fill="white" stroke="#263238" stroke-miterlimit="10"/>
<path d="M527.901 426.916L528.358 424.99H525.598L525.048 426.916H527.901Z" fill="white" stroke="#263238" stroke-miterlimit="10"/>
<path d="M547.854 426.916L547.666 424.99H544.907L545.001 426.916H547.854Z" fill="white" stroke="#263238" stroke-miterlimit="10"/>
<path d="M562.107 426.916L561.457 424.99H558.698L559.254 426.916H562.107Z" fill="white" stroke="#263238" stroke-miterlimit="10"/>
<path d="M553.555 426.916L553.186 424.99H550.426L550.702 426.916H553.555Z" fill="white" stroke="#263238" stroke-miterlimit="10"/>
<path d="M550.701 426.916L550.426 424.99H547.667L547.854 426.916H550.701Z" fill="white" stroke="#263238" stroke-miterlimit="10"/>
<path d="M542.154 426.916L542.148 424.99H539.389L539.301 426.916H542.154Z" fill="white" stroke="#263238" stroke-miterlimit="10"/>
<path d="M522.201 426.916H519.348L518.563 428.972H521.51L522.201 426.916Z" fill="white" stroke="#263238" stroke-miterlimit="10"/>
<path d="M522.846 424.99H520.086L519.348 426.916H522.201L522.846 424.99Z" fill="white" stroke="#263238" stroke-miterlimit="10"/>
<path d="M525.048 426.916L525.598 424.99H522.845L522.201 426.916H525.048Z" fill="white" stroke="#263238" stroke-miterlimit="10"/>
<path d="M517.72 431.179L516.812 433.551H519.981L520.772 431.179H517.72Z" fill="white" stroke="#263238" stroke-miterlimit="10"/>
<path d="M521.51 428.971H518.563L517.719 431.179H520.772L521.51 428.971Z" fill="white" stroke="#263238" stroke-miterlimit="10"/>
<path d="M520.772 431.179L519.981 433.551H523.15L523.83 431.179H520.772Z" fill="white" stroke="#263238" stroke-miterlimit="10"/>
<path d="M533.601 426.916L533.877 424.99H531.118L530.749 426.916H533.601Z" fill="white" stroke="#263238" stroke-miterlimit="10"/>
<path d="M533.308 428.972L533.6 426.916H530.747L530.355 428.972H533.308Z" fill="white" stroke="#263238" stroke-miterlimit="10"/>
<path d="M530.356 428.972L530.748 426.916H527.901L527.409 428.972H530.356Z" fill="white" stroke="#263238" stroke-miterlimit="10"/>
<path d="M536.255 428.972L536.454 426.916H533.601L533.308 428.972H536.255Z" fill="white" stroke="#263238" stroke-miterlimit="10"/>
<path d="M525.048 426.916H522.201L521.509 428.972H524.462L525.048 426.916Z" fill="white" stroke="#263238" stroke-miterlimit="10"/>
<path d="M560.485 431.179H563.537L562.799 428.971H559.847L560.485 431.179Z" fill="white" stroke="#263238" stroke-miterlimit="10"/>
<path d="M527.409 428.972L527.901 426.916H525.048L524.462 428.972H527.409Z" fill="white" stroke="#263238" stroke-miterlimit="10"/>
<path d="M521.51 428.971L520.772 431.179H523.83L524.462 428.971H521.51Z" fill="white" stroke="#263238" stroke-miterlimit="10"/>
<path d="M553.953 428.972L553.555 426.916H550.702L551 428.972H553.953Z" fill="white" stroke="#263238" stroke-miterlimit="10"/>
<path d="M551 428.972L550.701 426.916H547.854L548.053 428.972H551Z" fill="white" stroke="#263238" stroke-miterlimit="10"/>
<path d="M559.847 428.972L559.255 426.916H556.402L556.9 428.972H559.847Z" fill="white" stroke="#263238" stroke-miterlimit="10"/>
<path d="M542.154 428.972V426.916H539.301L539.208 428.972H542.154Z" fill="white" stroke="#263238" stroke-miterlimit="10"/>
<path d="M548.053 428.972L547.854 426.916H545.001L545.1 428.972H548.053Z" fill="white" stroke="#263238" stroke-miterlimit="10"/>
<path d="M545.101 428.972L545.002 426.916H542.155V428.972H545.101Z" fill="white" stroke="#263238" stroke-miterlimit="10"/>
<path d="M539.207 428.972L539.301 426.916H536.454L536.255 428.972H539.207Z" fill="white" stroke="#263238" stroke-miterlimit="10"/>
<path d="M548.054 428.971L548.265 431.179H551.323L551 428.971H548.054Z" fill="white" stroke="#263238" stroke-miterlimit="10"/>
<path d="M551 428.971L551.323 431.179H554.375L553.953 428.971H551Z" fill="white" stroke="#263238" stroke-miterlimit="10"/>
<path d="M524.462 428.971L523.829 431.179H526.881L527.409 428.971H524.462Z" fill="white" stroke="#263238" stroke-miterlimit="10"/>
<path d="M553.953 428.971L554.375 431.179H557.427L556.9 428.971H553.953Z" fill="white" stroke="#263238" stroke-miterlimit="10"/>
<path d="M542.155 428.971V431.179H545.213L545.101 428.971H542.155Z" fill="white" stroke="#263238" stroke-miterlimit="10"/>
<path d="M556.9 428.971L557.427 431.179H560.485L559.846 428.971H556.9Z" fill="white" stroke="#263238" stroke-miterlimit="10"/>
<path d="M545.101 428.971L545.212 431.179H548.264L548.053 428.971H545.101Z" fill="white" stroke="#263238" stroke-miterlimit="10"/>
<path d="M530.356 428.971L529.94 431.179H532.992L533.308 428.971H530.356Z" fill="white" stroke="#263238" stroke-miterlimit="10"/>
<path d="M527.41 428.971L526.882 431.179H529.94L530.356 428.971H527.41Z" fill="white" stroke="#263238" stroke-miterlimit="10"/>
<path d="M539.208 428.971L539.103 431.179H542.155V428.971H539.208Z" fill="white" stroke="#263238" stroke-miterlimit="10"/>
<path d="M536.255 428.971L536.044 431.179H539.102L539.208 428.971H536.255Z" fill="white" stroke="#263238" stroke-miterlimit="10"/>
<path d="M533.309 428.971L532.993 431.179H536.045L536.256 428.971H533.309Z" fill="white" stroke="#263238" stroke-miterlimit="10"/>
<path d="M556.9 428.972L556.402 426.916H553.555L553.953 428.972H556.9Z" fill="white" stroke="#263238" stroke-miterlimit="10"/>
<path d="M522.845 424.99L523.501 423.016H520.836L520.086 424.99H522.845Z" fill="white" stroke="#263238" stroke-miterlimit="10"/>
<path d="M520.086 424.99H517.537L516.717 426.916H519.348L520.086 424.99Z" fill="white" stroke="#263238" stroke-miterlimit="10"/>
<path d="M520.836 423.016H518.381L517.537 424.99H520.086L520.836 423.016Z" fill="white" stroke="#263238" stroke-miterlimit="10"/>
<path d="M519.348 426.916H516.718L515.839 428.972H518.563L519.348 426.916Z" fill="white" stroke="#263238" stroke-miterlimit="10"/>
<path d="M518.563 428.971H515.839L514.896 431.179H517.72L518.563 428.971Z" fill="white" stroke="#263238" stroke-miterlimit="10"/>
<path d="M517.719 431.179H514.896L513.888 433.551H516.811L517.719 431.179Z" fill="white" stroke="#263238" stroke-miterlimit="10"/>
<path d="M564.955 426.916L565.746 428.972H568.353L567.474 426.916H564.955Z" fill="white" stroke="#263238" stroke-miterlimit="10"/>
<path d="M566.595 431.179H569.296L568.353 428.971H565.746L566.595 431.179Z" fill="white" stroke="#263238" stroke-miterlimit="10"/>
<path d="M567.503 433.551H570.309L569.296 431.179H566.595L567.503 433.551Z" fill="white" stroke="#263238" stroke-miterlimit="10"/>
<path d="M544.908 424.99L544.814 423.016H542.149V424.99H544.908Z" fill="white" stroke="#263238" stroke-miterlimit="10"/>
<path d="M564.955 426.916H567.474L566.654 424.99H564.217L564.955 426.916Z" fill="white" stroke="#263238" stroke-miterlimit="10"/>
<path d="M563.537 431.179H566.595L565.746 428.971H562.799L563.537 431.179Z" fill="white" stroke="#263238" stroke-miterlimit="10"/>
<path d="M525.598 424.99L526.166 423.016H523.501L522.845 424.99H525.598Z" fill="white" stroke="#263238" stroke-miterlimit="10"/>
<path d="M561.458 424.99L562.108 426.916H564.955L564.217 424.99H561.458Z" fill="white" stroke="#263238" stroke-miterlimit="10"/>
<path d="M566.653 424.99L565.815 423.016H563.46L564.216 424.99H566.653Z" fill="white" stroke="#263238" stroke-miterlimit="10"/>
<path d="M564.217 424.99L563.461 423.016H560.795L561.457 424.99H564.217Z" fill="white" stroke="#263238" stroke-miterlimit="10"/>
<path d="M554.375 431.179L554.832 433.551H558.001L557.427 431.179H554.375Z" fill="white" stroke="#263238" stroke-miterlimit="10"/>
<path d="M564.334 433.551H567.503L566.595 431.179H563.537L564.334 433.551Z" fill="white" stroke="#263238" stroke-miterlimit="10"/>
<path d="M561.457 424.99L560.795 423.016H558.13L558.698 424.99H561.457Z" fill="white" stroke="#263238" stroke-miterlimit="10"/>
<path d="M560.484 431.179L561.17 433.551H564.333L563.537 431.179H560.484Z" fill="white" stroke="#263238" stroke-miterlimit="10"/>
<path d="M557.427 431.179L558.001 433.551H561.17L560.485 431.179H557.427Z" fill="white" stroke="#263238" stroke-miterlimit="10"/>
<path d="M562.799 428.972H565.746L564.955 426.916H562.108L562.799 428.972Z" fill="white" stroke="#263238" stroke-miterlimit="10"/>
<path d="M536.636 424.99L536.823 423.016H534.158L533.876 424.99H536.636Z" fill="white" stroke="#263238" stroke-miterlimit="10"/>
<path d="M558.698 424.99L558.13 423.016H555.465L555.939 424.99H558.698Z" fill="white" stroke="#263238" stroke-miterlimit="10"/>
<path d="M533.877 424.99L534.158 423.016H531.493L531.118 424.99H533.877Z" fill="white" stroke="#263238" stroke-miterlimit="10"/>
<path d="M542.148 424.99V423.016H539.483L539.389 424.99H542.148Z" fill="white" stroke="#263238" stroke-miterlimit="10"/>
<path d="M531.118 424.99L531.493 423.016H528.833L528.359 424.99H531.118Z" fill="white" stroke="#263238" stroke-miterlimit="10"/>
<path d="M528.358 424.99L528.833 423.016H526.167L525.599 424.99H528.358Z" fill="white" stroke="#263238" stroke-miterlimit="10"/>
<path d="M539.389 424.99L539.483 423.016H536.823L536.636 424.99H539.389Z" fill="white" stroke="#263238" stroke-miterlimit="10"/>
<path d="M555.939 424.99L555.465 423.016H552.805L553.186 424.99H555.939Z" fill="white" stroke="#263238" stroke-miterlimit="10"/>
<path d="M553.185 424.99L552.805 423.016H550.139L550.426 424.99H553.185Z" fill="white" stroke="#263238" stroke-miterlimit="10"/>
<path d="M547.666 424.99L547.473 423.016H544.813L544.907 424.99H547.666Z" fill="white" stroke="#263238" stroke-miterlimit="10"/>
<path d="M554.375 431.179H551.323H548.265H545.213H542.155H539.102H536.044H532.992H529.94H526.882H523.83L523.15 433.551H526.32H529.483H532.652H535.822H538.991H542.16H545.324H548.493H551.662H554.832L554.375 431.179Z" fill="white" stroke="#263238" stroke-miterlimit="10"/>
<path d="M550.426 424.99L550.139 423.016H547.473L547.666 424.99H550.426Z" fill="white" stroke="#263238" stroke-miterlimit="10"/>
<path d="M575.44 437.713H507.549V438.674H575.44V437.713Z" fill="#263238" stroke="#263238" stroke-miterlimit="10"/>
<path d="M395.337 247.213L399.836 252.203C411.65 265.306 432.942 262.443 440.876 246.685V246.685C445.712 237.079 456.132 231.624 466.78 233.123L470.902 233.703C484.767 235.655 498.211 228.037 503.662 215.14L514.5 189.5" stroke="black" stroke-dasharray="2 2"/>
<path d="M395.789 291.427L401.967 298.279C413.805 311.409 434.692 310.439 445.262 296.268V296.268V296.268C457.766 282.514 476.648 276.459 494.818 280.378L568.5 296.268" stroke="black" stroke-dasharray="2 2"/>
<path d="M320.303 272.314L302.929 283.619C286.093 294.573 284.267 318.531 299.247 331.91V331.91C308.027 339.752 320.537 341.838 331.386 337.27L340.741 333.331C364.568 323.298 392.006 334.607 401.844 358.515L403.565 362.697C410.78 380.23 427.121 392.318 445.997 394.085L515.965 400.638" stroke="black" stroke-dasharray="2 2"/>
<g clip-path="url(#clip0_3821_4494)">
<path d="M718.298 75.5771C720.32 75.3509 722.349 75.4816 724.378 75.4691C728.405 75.4383 732.445 75.4533 736.457 75.7754C738.816 75.9637 741.174 76.009 743.528 76.1944C744.571 76.2781 745.617 76.2864 746.663 76.3014C747.546 76.3181 748.409 76.4978 749.28 76.6251C749.664 76.6822 750.026 76.8479 749.792 77.3501C749.688 77.5755 749.895 77.6189 749.958 77.7434C750.235 78.3159 750.139 78.5471 749.53 78.7967C749.144 78.9581 748.731 79.0038 748.333 78.9657C744.891 78.6037 741.426 78.5994 737.999 78.1946C734.392 77.7733 730.78 77.6047 727.165 77.4095C724.427 77.2624 721.688 77.1563 718.948 76.9719C718.307 76.9292 717.626 76.9226 717.082 76.4168C717.321 76.2038 717.508 76.3864 717.693 76.3715C717.819 76.3237 717.652 76.3703 717.782 76.3254C718.124 76.1904 718.612 76.1652 718.298 75.5771Z" fill="#010101"/>
<path d="M697.003 56.0881C697.021 54.5586 697.291 53.0596 697.447 51.5455C697.825 47.7686 698.227 43.992 698.919 40.2679C699.314 38.1419 699.605 36.0028 699.99 33.8748C700.196 32.7322 700.29 31.564 700.482 30.4165C700.614 29.6522 700.819 28.9017 701.011 28.1531C701.116 27.7502 701.309 27.431 701.832 27.6465C701.908 27.6804 702.034 27.6803 702.103 27.6369C702.332 27.4935 702.554 27.3577 702.818 27.5504C703.077 27.7402 703.135 28.0459 703.186 28.3287C703.252 28.7118 703.189 29.0987 703.119 29.4866C702.571 32.5161 702.091 35.5603 701.479 38.5712C701.061 40.6322 700.626 42.6921 700.299 44.7747C699.665 48.8045 699.017 52.8361 698.365 56.8648C698.256 57.5272 698.113 58.1874 697.657 58.7605C697.34 58.4148 697.769 58.1249 697.655 57.8302C697.664 57.2835 697.114 56.8026 697.445 56.1952C697.479 56.1191 697.101 56.3645 697.003 56.0881Z" fill="#010101"/>
<path d="M726.746 41.4435C726.82 41.1539 727.287 41.3395 727.308 40.9685C727.323 40.7176 727.523 40.7553 727.685 40.8118C727.987 40.9141 727.772 41.0795 727.709 41.1869C727.353 41.7941 726.983 42.3965 726.605 42.993C725.377 44.9319 724.032 46.7879 722.679 48.638C721.334 50.4768 719.94 52.278 718.572 54.0995C716.309 57.1093 714.067 60.1297 711.769 63.1135C711.502 63.4599 711.2 63.7803 710.925 64.1209C710.769 64.3125 710.576 64.5125 710.342 64.3363C710.127 64.1744 710.333 63.9898 710.45 63.8342C710.51 63.7544 710.588 63.6519 710.579 63.5679C710.568 63.4466 710.505 63.3155 710.432 63.2129C710.314 63.0584 710.155 63.1651 710.104 63.2573C709.843 63.6744 709.393 63.8172 708.982 64.091C708.683 63.2282 708.912 62.5018 709.435 61.8242C711.513 59.1328 713.586 56.4318 715.656 53.7345C717.086 51.8706 718.454 49.9604 719.945 48.1427C722.073 45.5432 724.135 42.8812 726.513 40.4934C726.832 40.1741 727.229 40.0691 727.726 39.7052C727.437 40.4636 726.891 40.7966 726.648 41.334C726.612 41.5571 726.984 41.8135 726.596 42.0092C726.007 42.3037 725.729 42.9039 725.298 43.3474C725.296 43.6852 724.993 43.8319 724.83 44.0721C724.853 44.0895 724.875 44.1001 724.904 44.1166C725.158 43.9323 725.284 43.6765 725.29 43.3655C725.765 42.9194 726.037 42.2725 726.673 41.9783C726.931 41.8513 726.769 41.6278 726.746 41.4435Z" fill="#020202"/>
<path d="M726.137 60.6793C724.232 61.643 722.741 63.1983 720.866 64.2328C719.012 65.2579 717.3 66.5397 715.523 67.7076C715.381 67.8087 715.211 67.8351 715.136 67.6714C715.063 67.5211 715.187 67.3884 715.341 67.3198C715.373 67.2848 715.405 67.243 715.426 67.1992C715.487 66.9115 715.712 66.7957 715.95 66.6715C717.341 65.9513 718.344 64.6769 719.813 64.0756C718.555 64.4608 717.571 65.2793 716.627 66.1161C716.195 66.4986 715.792 66.6656 715.244 66.5797L715.237 66.5329L715.241 66.5835C714.924 66.5889 714.81 67.027 714.453 66.9424C714.295 67.0253 714.265 67.3123 713.948 67.1984C714.109 66.4744 714.531 65.9229 715.155 65.5657C717.137 64.4279 718.911 62.9605 720.999 61.9924C721.511 61.7526 721.911 61.286 722.395 60.9783C724.078 59.9186 725.774 58.881 727.474 57.8462C728.572 57.1793 729.682 56.5278 730.789 55.8734C731.208 55.9393 731.171 56.2033 730.954 56.4031C730.311 57.0017 729.861 57.8124 728.878 58.0479C728.371 58.1712 727.794 58.5049 727.997 59.2888C728.028 59.4073 727.853 59.5673 727.674 59.6052C727.362 59.8759 727.027 60.1121 726.649 60.2793C726.548 60.269 726.49 60.219 726.482 60.1178C726.6 59.5156 726.379 59.5217 725.98 59.8585C726.071 60.1054 726.508 59.9166 726.504 60.2716C726.418 60.4503 726.316 60.6004 726.137 60.6793Z" fill="#050404"/>
<path d="M726.046 67.9723C724.707 68.9515 723.219 69.6576 721.705 70.3025C720.952 70.6225 720.269 71.0423 719.571 71.4506C719.41 71.5439 719.252 71.7699 719.088 71.6762C718.816 71.5188 718.472 71.3608 718.305 71.1516C718.068 70.8532 718.302 70.4465 718.586 70.2137C718.934 69.928 719.318 69.6578 719.73 69.4861C721.675 68.684 723.498 67.629 725.436 66.8211C726.031 66.5734 726.675 66.3499 727.253 66.9226C727.122 67.2709 726.772 67.2332 726.517 67.261C726.022 67.3109 726.053 67.6375 726.046 67.9723Z" fill="#090808"/>
<path d="M752.24 77.9454C752.632 77.5684 753.182 77.2211 753.901 77.209C755.334 77.1818 756.703 77.5178 758.074 77.9081C758.533 78.0402 758.16 78.3601 758.3 78.549C757.885 78.5099 757.819 79.0437 757.39 79.0541C756.049 79.079 754.711 79.1478 753.374 79.2234C753.001 79.2465 752.725 79.2465 752.628 78.7859C752.585 78.5871 752.6 78.1216 752.108 78.4063C752.064 78.4327 752.008 78.2529 752.24 77.9454Z" fill="#100E0E"/>
<path d="M702.636 25.4718C702.24 24.9767 701.998 24.4368 702.053 23.7817C702.167 22.4438 702.569 21.1928 703.092 19.9732C703.166 19.803 703.262 19.6128 703.518 19.711C703.677 19.7712 703.95 19.7207 703.79 20.0354C704.297 20.3042 704.133 20.7525 704.108 21.1683C704.042 22.2919 703.956 23.4182 703.934 24.5392C703.926 24.9494 703.788 25.1555 703.409 25.1796C703.145 25.1949 702.947 25.0752 703.024 25.5556C703.077 25.828 702.809 25.4177 702.636 25.4718Z" fill="#171616"/>
<path d="M729.147 65.2719C729.349 64.8525 729.772 64.7849 730.088 64.582C731.097 63.9373 732.146 63.3589 733.326 63.0695C733.734 62.9664 734.144 62.8462 734.573 62.8902C734.836 62.916 735.196 62.782 735.276 63.2177C735.283 63.2645 735.269 63.314 735.266 63.3588C734.638 63.0348 735.287 64.0479 734.725 63.8684C734.489 63.7914 734.266 64.0703 734.033 64.1803C732.834 64.7348 731.598 65.2261 730.552 66.0632C730.224 66.3224 729.857 66.379 729.457 66.2559C728.907 66.0918 728.794 65.6845 729.147 65.2719Z" fill="#070707"/>
<path d="M701.886 58.7636C702.082 58.5837 702.702 58.8371 702.45 58.1827C702.357 57.9397 702.666 57.7205 702.779 57.5552C703.204 56.9285 703.118 56.2685 703.123 55.593C703.128 55.0673 703.076 54.5393 703.282 54.0102C703.369 53.7837 703.409 53.6828 703.617 53.7024C703.818 53.7229 703.82 53.9271 703.872 54.0735C703.882 54.0993 703.871 54.1384 703.859 54.1707C703.427 55.3814 703.517 56.7122 703.093 57.9114C702.934 58.3626 702.99 58.5901 703.267 58.8764C702.8 59.1135 702.371 59.0762 701.886 58.7636Z" fill="#909898"/>
<path d="M702.191 51.3527C701.715 51.4343 701.916 52.3307 701.253 52.1104C701.285 51.4618 701.422 50.8025 701.834 50.2319C702.562 50.6378 702.562 50.6378 702.191 51.3527Z" fill="#A5A0A0"/>
<path d="M733.495 33.5618C733.447 33.7046 733.45 33.885 733.227 33.8777C733.11 33.873 733.072 33.7964 733.11 33.7061C733.183 33.5291 733.337 33.5321 733.495 33.5618Z" fill="#7D7E7E"/>
<path d="M726.497 60.177C726.125 60.3127 725.775 60.3465 725.465 59.9522C725.737 59.5915 726.158 59.4389 726.535 59.2345C726.658 59.1667 726.794 59.1619 726.892 59.2475C727.04 59.3774 726.99 59.524 726.88 59.6615C726.745 59.8333 726.61 60.0117 726.474 60.1835L726.497 60.177Z" fill="#686C6C"/>
<path d="M711.667 46.0398C711.866 45.9992 712.201 45.8107 712.054 46.2601C711.87 46.8303 711.605 47.3742 711.356 47.9192C711.18 48.3044 710.992 48.0197 710.811 47.9011C711.096 47.2829 711.381 46.658 711.667 46.0398Z" fill="#B0B0B0"/>
<path d="M706.652 43.9137C706.48 43.4087 706.539 42.9168 706.701 42.438C706.749 42.2952 706.882 42.1511 707.065 42.2115C707.229 42.2642 707.339 42.43 707.256 42.5878C707.044 43.0119 707.305 43.6378 706.652 43.9137Z" fill="#B6BFBF"/>
</g>
<defs>
<filter id="filter0_d_3821_4494" x="55" y="21" width="724" height="534" filterUnits="userSpaceOnUse" color-interpolation-filters="sRGB">
<feFlood flood-opacity="0" result="BackgroundImageFix"/>
<feColorMatrix in="SourceAlpha" type="matrix" values="0 0 0 0 0 0 0 0 0 0 0 0 0 0 0 0 0 0 127 0" result="hardAlpha"/>
<feOffset dy="11"/>
<feGaussianBlur stdDeviation="33"/>
<feComposite in2="hardAlpha" operator="out"/>
<feColorMatrix type="matrix" values="0 0 0 0 0.4375 0 0 0 0 0.682761 0 0 0 0 1 0 0 0 0.12 0"/>
<feBlend mode="normal" in2="BackgroundImageFix" result="effect1_dropShadow_3821_4494"/>
<feBlend mode="normal" in="SourceGraphic" in2="effect1_dropShadow_3821_4494" result="shape"/>
</filter>
<filter id="filter1_d_3821_4494" x="5" y="0" width="268" height="185" filterUnits="userSpaceOnUse" color-interpolation-filters="sRGB">
<feFlood flood-opacity="0" result="BackgroundImageFix"/>
<feColorMatrix in="SourceAlpha" type="matrix" values="0 0 0 0 0 0 0 0 0 0 0 0 0 0 0 0 0 0 127 0" result="hardAlpha"/>
<feOffset dy="11"/>
<feGaussianBlur stdDeviation="30"/>
<feComposite in2="hardAlpha" operator="out"/>
<feColorMatrix type="matrix" values="0 0 0 0 0.4375 0 0 0 0 0.682761 0 0 0 0 1 0 0 0 0.09 0"/>
<feBlend mode="normal" in2="BackgroundImageFix" result="effect1_dropShadow_3821_4494"/>
<feBlend mode="normal" in="SourceGraphic" in2="effect1_dropShadow_3821_4494" result="shape"/>
</filter>
<filter id="filter2_d_3821_4494" x="0" y="318" width="237" height="185" filterUnits="userSpaceOnUse" color-interpolation-filters="sRGB">
<feFlood flood-opacity="0" result="BackgroundImageFix"/>
<feColorMatrix in="SourceAlpha" type="matrix" values="0 0 0 0 0 0 0 0 0 0 0 0 0 0 0 0 0 0 127 0" result="hardAlpha"/>
<feOffset dy="11"/>
<feGaussianBlur stdDeviation="30"/>
<feComposite in2="hardAlpha" operator="out"/>
<feColorMatrix type="matrix" values="0 0 0 0 0.4375 0 0 0 0 0.682761 0 0 0 0 1 0 0 0 0.09 0"/>
<feBlend mode="normal" in2="BackgroundImageFix" result="effect1_dropShadow_3821_4494"/>
<feBlend mode="normal" in="SourceGraphic" in2="effect1_dropShadow_3821_4494" result="shape"/>
</filter>
<filter id="filter3_d_3821_4494" x="610" y="122" width="237" height="185" filterUnits="userSpaceOnUse" color-interpolation-filters="sRGB">
<feFlood flood-opacity="0" result="BackgroundImageFix"/>
<feColorMatrix in="SourceAlpha" type="matrix" values="0 0 0 0 0 0 0 0 0 0 0 0 0 0 0 0 0 0 127 0" result="hardAlpha"/>
<feOffset dy="11"/>
<feGaussianBlur stdDeviation="30"/>
<feComposite in2="hardAlpha" operator="out"/>
<feColorMatrix type="matrix" values="0 0 0 0 0.4375 0 0 0 0 0.682761 0 0 0 0 1 0 0 0 0.09 0"/>
<feBlend mode="normal" in2="BackgroundImageFix" result="effect1_dropShadow_3821_4494"/>
<feBlend mode="normal" in="SourceGraphic" in2="effect1_dropShadow_3821_4494" result="shape"/>
</filter>
<filter id="filter4_d_3821_4494" x="490" y="402" width="237" height="185" filterUnits="userSpaceOnUse" color-interpolation-filters="sRGB">
<feFlood flood-opacity="0" result="BackgroundImageFix"/>
<feColorMatrix in="SourceAlpha" type="matrix" values="0 0 0 0 0 0 0 0 0 0 0 0 0 0 0 0 0 0 127 0" result="hardAlpha"/>
<feOffset dy="11"/>
<feGaussianBlur stdDeviation="30"/>
<feComposite in2="hardAlpha" operator="out"/>
<feColorMatrix type="matrix" values="0 0 0 0 0.4375 0 0 0 0 0.682761 0 0 0 0 1 0 0 0 0.09 0"/>
<feBlend mode="normal" in2="BackgroundImageFix" result="effect1_dropShadow_3821_4494"/>
<feBlend mode="normal" in="SourceGraphic" in2="effect1_dropShadow_3821_4494" result="shape"/>
</filter>
<clipPath id="clip0_3821_4494">
<rect width="79.3861" height="44.1034" fill="white" transform="translate(707.554 14) rotate(37.0199)"/>
</clipPath>
</defs>
</svg>
