<svg width="81" height="75" viewBox="0 0 81 75" fill="none" xmlns="http://www.w3.org/2000/svg">
<path d="M24.3008 43.575H41.8508V46.275H24.3008V43.575Z" fill="#17161A"/>
<path d="M24.3008 36.825H39.1508V39.525H24.3008V36.825Z" fill="#17161A"/>
<path d="M76.95 7.125H62.1V1.725C62.1 0.979468 61.4955 0.375 60.75 0.375H20.25C19.5045 0.375 18.9 0.979468 18.9 1.725V7.125H4.05C1.8134 7.125 0 8.9384 0 11.175V51.675C0 53.9116 1.8134 55.725 4.05 55.725H33.75V63.825H21.6C20.8545 63.825 20.25 64.4295 20.25 65.175V71.925H17.55V74.625H63.45V71.925H60.75V65.175C60.75 64.4295 60.1455 63.825 59.4 63.825H47.25V55.725H76.95C79.1866 55.725 81 53.9116 81 51.675V11.175C81 8.9384 79.1866 7.125 76.95 7.125ZM76.95 9.825C77.6955 9.825 78.3 10.4295 78.3 11.175V44.925H62.1V29.7105L68.645 21.9117C70.2837 19.9513 70.3239 17.1109 68.7419 15.1044C67.1599 13.0985 64.3887 12.4756 62.1 13.612V9.825H76.95ZM51.8254 37.7551L47.689 34.2845L59.839 19.807L63.9754 23.2775L51.8254 37.7551ZM46.7451 37.0168L49.2981 39.1592L46.2375 40.2152L46.7451 37.0168ZM66.5765 20.1754L65.7084 21.2084L61.572 17.7371L62.4401 16.7035C63.3992 15.5612 65.1026 15.4122 66.2443 16.3713C67.3866 17.3298 67.5356 19.0331 66.5765 20.1754ZM21.6 3.075H59.4V16.1268L44.7524 33.5851C44.5955 33.7723 44.4913 33.9984 44.4531 34.2397L43.2165 42.0147C43.1427 42.4821 43.32 42.9541 43.6832 43.2586C44.0464 43.5625 44.5421 43.6541 44.9903 43.4992L52.4312 40.9343C52.6625 40.8559 52.8682 40.7161 53.0251 40.5296L59.4 32.9286V48.975H21.6V3.075ZM4.05 9.825H18.9V44.925H2.7V11.175C2.7 10.4295 3.30447 9.825 4.05 9.825ZM58.05 71.925H22.95V66.525H58.05V71.925ZM44.55 63.825H36.45V55.725H44.55V63.825ZM76.95 53.025H4.05C3.30447 53.025 2.7 52.4205 2.7 51.675V47.625H18.9V50.325C18.9 51.0705 19.5045 51.675 20.25 51.675H60.75C61.4955 51.675 62.1 51.0705 62.1 50.325V47.625H78.3V51.675C78.3 52.4205 77.6955 53.025 76.95 53.025Z" fill="#17161A"/>
<path d="M72.9004 48.9751H75.6004V51.6751H72.9004V48.9751Z" fill="#17161A"/>
<path d="M24.3008 5.7749H29.7008V8.4749H24.3008V5.7749Z" fill="#17161A"/>
<path d="M32.4004 5.7749H55.3504V8.4749H32.4004V5.7749Z" fill="#17161A"/>
<path d="M24.3008 12.5249H55.3508V15.2249H24.3008V12.5249Z" fill="#17161A"/>
<path d="M24.3008 19.2749H27.0008V21.9749H24.3008V19.2749Z" fill="#17161A"/>
<path d="M29.6992 19.2749H32.3992V21.9749H29.6992V19.2749Z" fill="#17161A"/>
<path d="M35.0996 19.2749H49.9496V21.9749H35.0996V19.2749Z" fill="#17161A"/>
<path d="M24.3008 26.0249H32.4008V28.7249H24.3008V26.0249Z" fill="#17161A"/>
<path d="M35.0996 26.0249H44.5496V28.7249H35.0996V26.0249Z" fill="#17161A"/>
</svg>
