<svg width="30" height="30" viewBox="0 0 30 30" fill="none" xmlns="http://www.w3.org/2000/svg">
<path d="M17.5865 11.3204H18.2159L20.009 9.52736L20.0971 8.76656C16.7609 5.82195 11.6679 6.13924 8.72329 9.47548C7.90458 10.4023 7.31064 11.5046 6.9873 12.6976C7.18701 12.6155 7.40833 12.6025 7.61669 12.6596L11.2019 12.0682C11.2019 12.0682 11.3843 11.7665 11.4786 11.7855C13.0736 10.034 15.758 9.82994 17.5995 11.3204H17.5865Z" fill="#EA4335"/>
<path d="M22.5628 12.6975C22.1504 11.1802 21.3049 9.81596 20.1283 8.77246L17.6125 11.2883C18.675 12.1563 19.2802 13.4643 19.2542 14.8363V15.2833C20.4914 15.2833 21.4934 16.2861 21.4934 17.5224C21.4934 18.7596 20.4905 19.7616 19.2542 19.7616H14.7751L14.3281 20.2146V22.9007L14.7751 23.3477H19.2542C21.8219 23.3676 24.1 21.7033 24.8625 19.2515C25.6233 16.7988 24.6896 14.136 22.5628 12.6975Z" fill="#4285F4"/>
<path d="M10.2904 23.3228H14.7695V19.7376H10.2904C9.97136 19.7376 9.6558 19.6693 9.36532 19.5361L8.73594 19.7307L6.93078 21.5237L6.77344 22.1531C7.78581 22.9173 9.02123 23.328 10.2904 23.3228Z" fill="#34A853"/>
<path d="M10.2903 11.6914C7.80212 11.7061 5.59841 13.2995 4.80477 15.6571C4.01112 18.0147 4.80217 20.6169 6.77418 22.1333L9.37211 19.5354C8.24476 19.0262 7.74419 17.7 8.2534 16.5726C8.76262 15.4453 10.0888 14.9447 11.2162 15.4539C11.7124 15.6787 12.1101 16.0764 12.3349 16.5726L14.9328 13.9747C13.8271 12.53 12.1092 11.6854 10.2903 11.6914Z" fill="#FBBC05"/>
</svg>
