<svg width="18" height="18" viewBox="0 0 18 18" fill="none" xmlns="http://www.w3.org/2000/svg">
<g clip-path="url(#clip0_4332_7406)">
<path d="M0 1.99807C0 1.4189 0.202708 0.941106 0.608108 0.564671C1.01351 0.188218 1.54055 0 2.18919 0C2.82626 0 3.34169 0.185316 3.73552 0.555984C4.14092 0.938222 4.34363 1.43628 4.34363 2.05019C4.34363 2.60617 4.14672 3.06948 3.75289 3.44015C3.3475 3.82239 2.81467 4.01351 2.15444 4.01351H2.13706C1.49999 4.01351 0.984561 3.82239 0.590733 3.44015C0.196905 3.05791 0 2.57721 0 1.99807ZM0.225869 17.2007V5.59458H4.08301V17.2007H0.225869ZM6.22008 17.2007H10.0772V10.7201C10.0772 10.3146 10.1236 10.0019 10.2162 9.78184C10.3784 9.38801 10.6245 9.05499 10.9546 8.7828C11.2847 8.5106 11.6988 8.3745 12.1969 8.3745C13.4942 8.3745 14.1429 9.24901 14.1429 10.998V17.2007H18V10.5463C18 8.83202 17.5946 7.53184 16.7838 6.64574C15.973 5.75964 14.9015 5.31659 13.5695 5.31659C12.0753 5.31659 10.9112 5.95945 10.0772 7.24516V7.27991H10.0598L10.0772 7.24516V5.59458H6.22008C6.24324 5.96523 6.25482 7.11774 6.25482 9.05211C6.25482 10.9865 6.24324 13.7027 6.22008 17.2007Z" fill="black"/>
</g>
<defs>
<clipPath id="clip0_4332_7406">
<rect width="18" height="17.2008" fill="white"/>
</clipPath>
</defs>
</svg>
