<svg width="98" height="98" viewBox="0 0 98 98" fill="none" xmlns="http://www.w3.org/2000/svg">
<path d="M56.8552 89.6853C56.6414 89.6872 56.4305 89.6345 56.2427 89.5322L48.9999 85.75L41.6959 89.5781C41.4802 89.6919 41.2371 89.7436 40.9938 89.7273C40.7505 89.7111 40.5164 89.6276 40.3177 89.4862C40.1211 89.3446 39.9691 89.1497 39.8796 88.9245C39.79 88.6993 39.7667 88.4533 39.8124 88.2153L41.2059 80.0843L35.2187 74.2809C35.0447 74.1115 34.9216 73.8968 34.8633 73.6611C34.805 73.4254 34.8137 73.1781 34.8886 72.9471C34.9635 72.7161 35.1015 72.5107 35.287 72.354C35.4725 72.1974 35.6981 72.0957 35.9384 72.0606L44.0999 70.8815L47.7596 63.4856C47.8783 63.2822 48.0482 63.1136 48.2524 62.9963C48.4566 62.8791 48.6879 62.8174 48.9234 62.8174C49.1588 62.8174 49.3902 62.8791 49.5943 62.9963C49.7985 63.1136 49.9684 63.2822 50.0871 63.4856L53.7315 70.8815L61.8931 72.0606C62.1333 72.0957 62.3589 72.1974 62.5445 72.354C62.73 72.5107 62.8679 72.7161 62.9428 72.9471C63.0177 73.1781 63.0265 73.4254 62.9681 73.6611C62.9098 73.8968 62.7867 74.1115 62.6127 74.2809L56.7174 80.0384L58.1874 88.1693C58.226 88.4086 58.1978 88.6538 58.1059 88.8781C58.0141 89.1023 57.8621 89.2968 57.6668 89.4403C57.4323 89.6124 57.1458 89.6989 56.8552 89.6853ZM48.9999 82.9325C49.209 82.9304 49.4149 82.9832 49.5971 83.0856L55.1249 86.0103L54.0684 79.8087C54.0298 79.6018 54.0431 79.3886 54.1073 79.1881C54.1714 78.9877 54.2843 78.8063 54.4359 78.6603L58.9377 74.2503L52.7209 73.3468C52.5119 73.3199 52.313 73.2414 52.1419 73.1184C51.9709 72.9954 51.833 72.8319 51.7409 72.6425L48.9999 66.9922L46.2131 72.6425C46.1167 72.8287 45.9777 72.9896 45.8074 73.112C45.6371 73.2344 45.4403 73.3149 45.2331 73.3468L39.0009 74.2503L43.5027 78.6603C43.657 78.8048 43.7728 78.9855 43.8397 79.186C43.9065 79.3865 43.9223 79.6006 43.8856 79.8087L42.8137 86.0103L48.3874 83.0856C48.5752 82.9832 48.7861 82.9305 48.9999 82.9325Z" fill="#17161A"/>
<path d="M13.3527 89.6852C13.0777 89.6885 12.8091 89.6026 12.5871 89.4402C12.3918 89.2968 12.2398 89.1022 12.148 88.878C12.0561 88.6538 12.0279 88.4085 12.0665 88.1693L13.123 82.0443L8.69771 77.7568C8.51978 77.5904 8.39343 77.3763 8.33371 77.1401C8.27398 76.904 8.2834 76.6556 8.36083 76.4246C8.43753 76.1933 8.5769 75.9878 8.76343 75.831C8.94997 75.6742 9.17635 75.5723 9.41739 75.5365L15.5424 74.6483L18.2833 69.1052C18.402 68.9019 18.5719 68.7332 18.7761 68.6159C18.9803 68.4987 19.2116 68.437 19.4471 68.437C19.6825 68.437 19.9139 68.4987 20.1181 68.6159C20.3222 68.7332 20.4921 68.9019 20.6108 69.1052L23.3518 74.6483L29.4768 75.5365C29.7178 75.5723 29.9442 75.6742 30.1307 75.831C30.3173 75.9878 30.4566 76.1933 30.5333 76.4246C30.607 76.656 30.6146 76.9033 30.555 77.1388C30.4955 77.3742 30.3713 77.5883 30.1965 77.7568L25.7405 82.0749L26.7818 88.1999C26.8275 88.4379 26.8042 88.684 26.7146 88.9091C26.6251 89.1343 26.4731 89.3292 26.2765 89.4708C26.0778 89.6123 25.8437 89.6957 25.6004 89.712C25.3571 89.7282 25.114 89.6765 24.8983 89.5627L19.4318 86.6687L13.9652 89.5321C13.7774 89.6345 13.5666 89.6872 13.3527 89.6852ZM19.4777 83.8971C19.6846 83.8971 19.8889 83.9442 20.0749 84.0349L23.8265 86.0102L23.1068 81.8452C23.0672 81.637 23.0815 81.4222 23.1486 81.2211C23.2156 81.0201 23.333 80.8396 23.4896 80.6968L26.5521 77.7415L22.3718 77.129C22.1628 77.102 21.9639 77.0235 21.7928 76.9005C21.6218 76.7776 21.4839 76.614 21.3918 76.4246L19.5236 72.6271L17.6555 76.4246C17.5591 76.6108 17.4201 76.7717 17.2499 76.8941C17.0796 77.0165 16.8828 77.097 16.6755 77.129L12.4952 77.7415L15.5577 80.6968C15.7087 80.8436 15.8223 81.0246 15.8889 81.2244C15.9555 81.4242 15.9732 81.6371 15.9405 81.8452L15.2208 86.0102L18.9571 84.0349C19.1061 83.9617 19.2667 83.915 19.4318 83.8971H19.4777Z" fill="#17161A"/>
<path d="M84.5406 89.6852C84.3316 89.6873 84.1256 89.6345 83.9434 89.532L78.4615 86.6686L72.995 89.532C72.7809 89.6429 72.5403 89.6921 72.2999 89.6742C72.0595 89.6563 71.8288 89.572 71.6335 89.4307C71.4383 89.2894 71.286 89.0966 71.1939 88.8739C71.1017 88.6512 71.0732 88.4072 71.1115 88.1692L72.1528 82.0442L67.7275 77.7261C67.5535 77.5567 67.4304 77.342 67.3721 77.1063C67.3138 76.8706 67.3225 76.6233 67.3974 76.3923C67.4723 76.1613 67.6103 75.9559 67.7958 75.7993C67.9813 75.6426 68.2069 75.5409 68.4472 75.5058L74.5722 74.6177L77.2978 69.0745C77.4185 68.8715 77.59 68.7033 77.7954 68.5864C78.0007 68.4696 78.2329 68.4082 78.4692 68.4082C78.7055 68.4082 78.9377 68.4696 79.143 68.5864C79.3484 68.7033 79.5199 68.8715 79.6406 69.0745L82.3662 74.6177L88.4912 75.5058C88.7315 75.5409 88.9571 75.6426 89.1426 75.7993C89.3281 75.9559 89.4661 76.1613 89.541 76.3923C89.6159 76.6233 89.6246 76.8706 89.5663 77.1063C89.508 77.342 89.3849 77.5567 89.2109 77.7261L84.7856 82.0749L85.8268 88.1999C85.8605 88.3877 85.8525 88.5806 85.8033 88.7649C85.7542 88.9493 85.665 89.1206 85.5423 89.2667C85.4196 89.4128 85.2663 89.5301 85.0931 89.6104C84.92 89.6906 84.7314 89.7318 84.5406 89.7311V89.6852ZM71.4331 77.7414L74.4956 80.6967C74.6472 80.8428 74.7601 81.0241 74.8242 81.2246C74.8884 81.425 74.9017 81.6383 74.8631 81.8452L74.1587 86.0102L77.895 84.0349C78.0815 83.9369 78.2891 83.8858 78.4998 83.8858C78.7105 83.8858 78.9181 83.9369 79.1047 84.0349L82.8409 86.0102L82.1365 81.8452C82.0979 81.6383 82.1113 81.425 82.1754 81.2246C82.2396 81.0241 82.3525 80.8428 82.504 80.6967L85.5665 77.7414L81.3862 77.1289C81.1773 77.1019 80.9783 77.0234 80.8073 76.9005C80.6362 76.7775 80.4984 76.614 80.4062 76.4245L78.5228 72.627L76.5628 76.4245C76.4706 76.614 76.3328 76.7775 76.1617 76.9005C75.9907 77.0234 75.7917 77.1019 75.5828 77.1289L71.4331 77.7414Z" fill="#17161A"/>
<path d="M57.3918 51.9553C57.2293 51.9546 57.0682 51.9234 56.9171 51.8634L48.8781 48.6172L40.839 51.8634C40.6695 51.9282 40.4885 51.9577 40.3072 51.95C40.1259 51.9424 39.948 51.8977 39.7845 51.8189C39.6211 51.74 39.4755 51.6286 39.3566 51.4914C39.2378 51.3542 39.1482 51.1942 39.0934 51.0212L36.2759 41.4815C36.2089 41.2508 36.2063 41.0061 36.2683 40.774C36.3304 40.5419 36.4548 40.3312 36.6281 40.1647L38.925 38.0209C39.1668 37.7915 39.4874 37.6636 39.8207 37.6636C40.1541 37.6636 40.4747 37.7915 40.7165 38.0209L48.8781 45.8456L57.0243 38.0209C57.2644 37.788 57.5857 37.6577 57.9201 37.6577C58.2546 37.6577 58.5759 37.788 58.8159 38.0209L61.1128 40.1647C61.2916 40.3274 61.421 40.5373 61.486 40.7702C61.551 41.0032 61.549 41.2497 61.4803 41.4815L58.6475 51.0212C58.5962 51.1955 58.5081 51.3567 58.3893 51.4941C58.2704 51.6314 58.1235 51.7417 57.9584 51.8175C57.7838 51.9095 57.5892 51.9569 57.3918 51.9553ZM51.5425 46.8869L56.565 48.9081L58.7546 41.5122L57.9431 40.7619L51.5425 46.8869ZM39.0015 41.5122L41.1912 48.9081L46.1984 46.8869L39.8131 40.7619L39.0015 41.5122Z" fill="#17161A"/>
<path d="M51.2509 54.2981H46.5346C46.2694 54.2974 46.0105 54.2166 45.7919 54.0663C45.5734 53.9161 45.4053 53.7033 45.3096 53.4559L44.0387 50.0412C43.9773 49.8824 43.9481 49.7131 43.9526 49.5429C43.9572 49.3727 43.9954 49.2052 44.0652 49.0499C44.135 48.8947 44.2349 48.7548 44.3592 48.6385C44.4834 48.5221 44.6295 48.4316 44.789 48.3721C44.9498 48.3109 45.1211 48.2821 45.2931 48.2875C45.4651 48.2929 45.6343 48.3323 45.7909 48.4035C45.9476 48.4747 46.0885 48.5763 46.2057 48.7023C46.3228 48.8283 46.4138 48.9763 46.4734 49.1378L47.4687 51.6949H50.3781L51.3428 49.1378C51.4785 48.8374 51.7232 48.5997 52.0274 48.4727C52.3316 48.3457 52.6726 48.3389 52.9816 48.4535C53.2907 48.5682 53.5447 48.7959 53.6924 49.0905C53.8401 49.3852 53.8705 49.725 53.7775 50.0412L52.5065 53.4559C52.411 53.7095 52.2386 53.927 52.0135 54.078C51.7884 54.229 51.5218 54.3059 51.2509 54.2981Z" fill="#17161A"/>
<path d="M41.6045 65.3538C41.4204 65.3555 41.2379 65.319 41.0686 65.2466C40.7532 65.1029 40.5072 64.8406 40.384 64.5167C40.2607 64.1928 40.2701 63.8333 40.4101 63.5163L45.3407 52.5219C45.4421 52.2896 45.6092 52.0919 45.8214 51.9532C46.0335 51.8144 46.2816 51.7407 46.5351 51.741H51.2514C51.5028 51.7413 51.7488 51.8135 51.9605 51.9492C52.1721 52.0849 52.3405 52.2783 52.4457 52.5066L57.4376 63.4857C57.5776 63.8027 57.587 64.1621 57.4638 64.486C57.3405 64.81 57.0945 65.0722 56.7792 65.216C56.4733 65.3378 56.1326 65.3392 55.8257 65.2199C55.5189 65.1006 55.2686 64.8693 55.1254 64.5728L50.5317 54.3441H47.4692L42.8754 64.5882C42.7686 64.8314 42.5891 65.0356 42.3615 65.1727C42.1339 65.3098 41.8695 65.373 41.6045 65.3538Z" fill="#17161A"/>
<path d="M23.1679 62.3066H22.9688C22.793 62.2848 22.6236 62.2269 22.4712 62.1366C22.3188 62.0462 22.1867 61.9254 22.0832 61.7816C21.9797 61.6379 21.907 61.4743 21.8697 61.3011C21.8324 61.128 21.8312 60.9489 21.8663 60.7753L23.3976 50.7609V50.5772C25.0207 45.1259 35.9844 42.385 37.1788 42.0941C37.5034 42.042 37.8357 42.1147 38.1089 42.2976C38.3821 42.4804 38.576 42.7599 38.6516 43.0798C38.7272 43.3997 38.679 43.7364 38.5165 44.0223C38.3541 44.3081 38.0895 44.5219 37.776 44.6206C33.6722 45.6006 26.8582 48.2344 25.8476 51.2356L24.5001 61.25C24.4416 61.5566 24.2749 61.8319 24.0303 62.0259C23.7858 62.2198 23.4797 62.3194 23.1679 62.3066Z" fill="#17161A"/>
<path d="M74.7401 62.3065C74.4015 62.3106 74.075 62.1811 73.8314 61.9461C73.5877 61.711 73.4466 61.3894 73.4385 61.0509C73.2819 57.7781 72.7893 54.5301 71.9685 51.3581C71.0498 48.2956 64.1591 45.6465 60.0248 44.6665C59.7112 44.5678 59.4466 44.354 59.2842 44.0682C59.1218 43.7823 59.0735 43.4456 59.1492 43.1257C59.2248 42.8058 59.4187 42.5263 59.6919 42.3435C59.9651 42.1606 60.2974 42.0879 60.622 42.14C61.8623 42.4309 72.872 45.2025 74.4032 50.6078C75.3023 53.9946 75.816 57.4722 75.9345 60.9743C75.9427 61.145 75.9164 61.3157 75.8572 61.476C75.798 61.6363 75.7071 61.783 75.5899 61.9074C75.4726 62.0318 75.3316 62.1312 75.175 62.1998C75.0185 62.2684 74.8497 62.3047 74.6788 62.3065H74.7401Z" fill="#17161A"/>
<path d="M66.8392 59.3358H61.6482C61.303 59.3358 60.972 59.1987 60.7279 58.9546C60.4838 58.7105 60.3467 58.3794 60.3467 58.0342C60.3467 57.689 60.4838 57.358 60.7279 57.1139C60.972 56.8698 61.303 56.7327 61.6482 56.7327H66.8392C67.1844 56.7327 67.5154 56.8698 67.7595 57.1139C68.0036 57.358 68.1407 57.689 68.1407 58.0342C68.1407 58.3794 68.0036 58.7105 67.7595 58.9546C67.5154 59.1987 67.1844 59.3358 66.8392 59.3358Z" fill="#17161A"/>
<path d="M48.8009 40.1647C48.3902 40.165 47.9803 40.1292 47.5759 40.0575C45.8399 39.7396 44.2394 38.9074 42.9822 37.6687C40.727 35.7947 38.9964 33.3678 37.9597 30.625C37.256 28.6469 36.7983 26.5898 36.5969 24.5C36.4509 23.1628 36.3895 21.8177 36.4131 20.4728C36.4501 18.4919 36.9761 16.5509 37.9444 14.8225C39.1962 12.5781 41.0961 10.7636 43.3956 9.61621C45.1806 8.69225 47.1754 8.24896 49.1837 8.32996C51.2859 8.38937 53.3352 9.00205 55.125 10.1062C56.8769 11.1818 58.3551 12.6495 59.4431 14.3937C60.5677 16.1697 61.2163 18.2052 61.3266 20.3043C61.3419 20.5338 61.3419 20.764 61.3266 20.9934V21.269C61.3727 24.5984 60.7748 27.9054 59.5656 31.0078C58.2517 34.1645 55.9949 36.8384 53.1037 38.664C51.855 39.5894 50.3543 40.1128 48.8009 40.1647ZM48.8009 10.9331C47.3349 10.9289 45.8898 11.281 44.59 11.959C42.7503 12.8724 41.2332 14.3255 40.2412 16.124C39.4532 17.4692 39.0161 18.991 38.9703 20.5493C38.9493 21.7818 39.0055 23.0143 39.1387 24.2397C39.3216 26.1351 39.7329 28.0014 40.3637 29.7981C41.2706 32.0984 42.7584 34.1243 44.6819 35.6781C45.5639 36.593 46.7 37.2224 47.9434 37.485C48.5941 37.6002 49.262 37.5736 49.9015 37.4071C50.5411 37.2406 51.1371 36.9381 51.6491 36.5203C54.0892 34.9734 55.9929 32.7116 57.1003 30.0431C58.1712 27.2444 58.6911 24.265 58.6316 21.269V20.9475C58.6316 20.779 58.6316 20.6106 58.6316 20.4268C58.531 18.7882 58.003 17.2044 57.1003 15.8331C56.2385 14.4247 55.0518 13.2433 53.6397 12.3878C52.2536 11.5384 50.6707 11.0635 49.0459 11.0097L48.8009 10.9331Z" fill="#17161A"/>
</svg>
