<svg width="81" height="81" viewBox="0 0 81 81" fill="none" xmlns="http://www.w3.org/2000/svg">
<path d="M51.3201 54.0027H51.3161C50.5705 54.003 49.9665 54.6078 49.9668 55.3534C49.9671 56.099 50.5719 56.7031 51.3175 56.7027H51.3202C52.0649 56.7035 52.6686 57.3066 52.6702 58.0514C52.671 58.7964 53.2751 59.4 54.0201 59.4001H54.0215C54.7671 59.3993 55.3709 58.7943 55.3702 58.0487C55.3655 55.8144 53.5542 54.0052 51.3201 54.0027Z" fill="#17161A"/>
<path d="M35.1012 59.4027L37.8012 59.4C38.5469 59.3997 39.1509 58.7949 39.1506 58.0493C39.1502 57.3037 38.5454 56.6996 37.7998 56.7H37.7984L35.0983 56.7026C34.3527 56.703 33.7487 57.3078 33.749 58.0534C33.7493 58.799 34.3542 59.403 35.0998 59.4027H35.1012Z" fill="#17161A"/>
<path d="M35.6315 53.7944L38.1694 54.7153C38.6233 54.8821 39.1316 54.7933 39.5023 54.4827C39.8729 54.1722 40.049 53.687 39.9641 53.2111C39.8791 52.7351 39.5461 52.3408 39.0909 52.1776L36.553 51.2567C35.853 51.0051 35.0814 51.3671 34.8275 52.0664C34.5736 52.7654 34.9332 53.5383 35.6315 53.7944Z" fill="#17161A"/>
<path d="M39.5054 61.646C39.1357 61.3362 38.6288 61.2473 38.1757 61.4126L35.6393 62.3381C35.1862 62.5034 34.8557 62.898 34.7723 63.3729C34.6889 63.848 34.8653 64.3315 35.235 64.6413C35.6048 64.951 36.1117 65.0399 36.5647 64.8746L39.1012 63.9491C39.5543 63.7838 39.8848 63.3892 39.9682 62.9143C40.0515 62.4392 39.8751 61.9557 39.5054 61.646Z" fill="#17161A"/>
<path d="M67.5003 56.6973H67.4988L64.7988 56.7C64.057 56.7055 63.4587 57.3087 63.459 58.0505C63.4593 58.7923 64.0583 59.3949 64.8001 59.3998H64.8013L67.5014 59.3971C68.247 59.3968 68.851 58.792 68.8507 58.0464C68.8504 57.3008 68.2459 56.6969 67.5003 56.6973Z" fill="#17161A"/>
<path d="M64.0024 54.7746C64.1603 54.7743 64.3169 54.7463 64.4652 54.6922L67.001 53.7667C67.4541 53.6014 67.7846 53.2068 67.8679 52.7319C67.9513 52.257 67.7749 51.7734 67.4052 51.4636C67.0355 51.1538 66.5286 51.0649 66.0755 51.2303L63.5397 52.1557C62.9244 52.3804 62.5591 53.0141 62.6731 53.6591C62.787 54.3041 63.3475 54.7745 64.0024 54.7746Z" fill="#17161A"/>
<path d="M67.0089 62.311L64.471 61.3895C63.771 61.1379 62.9994 61.4999 62.7455 62.1992C62.4916 62.8984 62.8512 63.6711 63.5495 63.9274L66.0874 64.8489C66.7871 65.0994 67.5577 64.7372 67.8113 64.0388C68.0649 63.34 67.7063 62.5678 67.0089 62.311Z" fill="#17161A"/>
<path d="M27.8988 5.40989C22.8605 5.65083 18.8994 9.80588 18.8994 14.8499C18.8994 15.5955 19.5037 16.1998 20.2494 16.1998C20.995 16.1998 21.5993 15.5953 21.5993 14.8499C21.5961 12.8157 22.5134 10.8894 24.0943 9.60939C25.6991 8.3164 27.8023 7.81806 29.8167 8.25343C32.3837 8.81046 34.3886 10.8155 34.9458 13.3825C35.3505 15.2169 34.974 17.137 33.9064 18.6827C32.8388 20.2283 31.1764 21.2603 29.3177 21.5313C27.9928 21.7236 27.0073 22.8556 26.9994 24.1943V25.6498C26.9994 26.3954 27.6037 26.9997 28.3494 26.9997C29.095 26.9997 29.6993 26.3954 29.6993 25.6498L29.6999 24.2035C34.6922 23.483 38.2389 18.969 37.7577 13.948C37.2766 8.92722 32.9371 5.16895 27.8988 5.40989Z" fill="#17161A"/>
<path d="M29.3085 30.0915C29.1772 29.9722 29.0266 29.8761 28.8628 29.8074C28.5339 29.6729 28.1655 29.6729 27.8366 29.8074C27.6714 29.8727 27.5203 29.9692 27.3915 30.0915C27.2723 30.2225 27.1761 30.3731 27.1074 30.5365C27.0383 30.699 27.0019 30.8735 27 31.0501C27.0021 31.1406 27.0112 31.2306 27.0271 31.3196C27.0414 31.4043 27.0687 31.4862 27.1074 31.5628C27.137 31.6489 27.1781 31.7308 27.2294 31.8061C27.2833 31.8734 27.3374 31.9406 27.3915 32.0085C27.6504 32.2549 27.9927 32.3946 28.3499 32.4C28.527 32.4046 28.7026 32.3676 28.8628 32.292C29.0263 32.2233 29.177 32.1274 29.3085 32.0085C29.3624 31.9406 29.4165 31.8734 29.47 31.8061C29.5213 31.7308 29.5622 31.649 29.592 31.5628C29.6307 31.4861 29.6581 31.4041 29.6731 31.3196C29.6886 31.2306 29.6977 31.1404 29.7002 31.0501C29.6981 30.8735 29.6614 30.699 29.5921 30.5365C29.5232 30.3733 29.4273 30.2228 29.3085 30.0915Z" fill="#17161A"/>
<path d="M59.4001 32.4V5.39995C59.3966 2.41908 56.981 0.00348047 54 0H5.39995C2.41908 0.00348047 0.00348047 2.41908 0 5.39995V32.4C0.00348047 35.3809 2.41908 37.7966 5.39995 37.7999H6.7499V45.8973C6.74895 46.9898 7.4066 47.9751 8.41593 48.3932C9.42527 48.8114 10.5871 48.5796 11.3588 47.8063C11.3913 47.7745 11.4216 47.741 11.4498 47.7054L19.5398 37.7999H53.9998C56.981 37.7966 59.3966 35.3809 59.4001 32.4ZM18.9001 35.1001C18.8773 35.1001 18.8584 35.1119 18.836 35.113C18.6624 35.1391 18.4916 35.1812 18.3259 35.239C18.2557 35.2776 18.1891 35.3225 18.1269 35.3731C18.0469 35.4255 17.9727 35.4862 17.9057 35.5544C17.8906 35.5713 17.8694 35.5785 17.8546 35.5963L9.45011 45.8862V36.45C9.45011 35.7044 8.84577 35.1001 8.10016 35.1001H5.39995C3.90936 35.0986 2.70148 33.8906 2.69989 32.4V5.39995C2.70132 3.90936 3.90936 2.70148 5.39995 2.69989H54C55.4905 2.70132 56.6984 3.90936 56.7 5.39995V32.4C56.6986 33.8906 55.4905 35.0985 54 35.1001H18.9001Z" fill="#17161A"/>
<path d="M75.6005 43.2002H74.2506V35.1029C74.2504 34.0109 73.5926 33.0264 72.5838 32.6086C71.5749 32.1908 70.4137 32.4218 69.6415 33.1938C69.6091 33.2256 69.5787 33.2592 69.5505 33.2948L61.4605 43.2002H27.0005C24.0197 43.2036 21.6039 45.6192 21.6006 48.6001V75.6001C21.6041 78.581 24.0197 80.9968 27.0005 81.0001H75.6005C78.5814 80.9966 80.9972 78.581 81.0005 75.6001V48.6001C80.997 45.6192 78.5814 43.2035 75.6005 43.2002ZM78.3004 75.6001C78.299 77.0907 77.091 78.2986 75.6004 78.3002H27.0004C25.5098 78.2988 24.3019 77.0907 24.3003 75.6001V48.6001C24.3017 47.1095 25.5098 45.9016 27.0004 45.9001H62.1004C62.2893 45.8989 62.4758 45.8578 62.6477 45.7792C62.6877 45.755 62.7266 45.7289 62.7639 45.7007C62.8883 45.6324 63.0011 45.5447 63.0977 45.4409C63.1118 45.4253 63.1324 45.4201 63.1458 45.4036L71.5504 35.1138V44.5501C71.5504 45.2957 72.1549 45.9001 72.9003 45.9001H75.6004C77.091 45.9015 78.2988 47.1095 78.3004 48.6001V75.6001Z" fill="#17161A"/>
<path d="M52.4367 48.6673C48.2455 48.1579 44.2251 50.4915 42.5886 54.3837C40.9521 58.2758 42.0972 62.7812 45.3934 65.4197C45.7123 65.6708 45.8992 66.054 45.9003 66.4599V67.5001C45.9033 68.4596 46.417 69.3449 47.2486 69.8238L47.2502 71.5515C47.2548 72.8518 47.8813 74.0714 48.9357 74.8322C49.6223 75.3307 50.4491 75.5989 51.2975 75.5982C51.7492 75.5974 52.1979 75.5243 52.6264 75.3813C54.2967 74.7854 55.3959 73.1847 55.3521 71.4117L55.3508 69.8243C56.183 69.3457 56.6972 68.4601 56.7002 67.5001V66.4639C56.7087 66.0431 56.9077 65.6488 57.2414 65.3921C59.8894 63.269 61.1854 59.8819 60.6309 56.5333C59.9259 52.395 56.6003 49.2028 52.4367 48.6673ZM51.7781 72.8183C51.3543 72.9706 50.8827 72.9051 50.5165 72.643C50.1632 72.39 49.9526 71.9831 49.9503 71.5487L49.9488 70.2H52.6516L52.6522 71.4142C52.6801 72.0182 52.3325 72.5767 51.7781 72.8183ZM55.5454 63.2913C54.5753 64.0594 54.0069 65.2266 54.0003 66.4639V67.4955H53.9988L48.6002 67.5001V66.4599C48.6009 65.2331 48.0408 64.0733 47.0795 63.3111C44.8479 61.5197 43.9889 58.5156 44.9359 55.8152C45.8829 53.1149 48.4301 51.3053 51.2917 51.3001C51.569 51.3001 51.8462 51.3163 52.1216 51.3489C55.0892 51.7293 57.46 54.0035 57.9639 56.9526C58.3622 59.3471 57.4377 61.7705 55.5454 63.2913Z" fill="#17161A"/>
</svg>
