<svg width="26" height="18" viewBox="0 0 26 18" fill="none" xmlns="http://www.w3.org/2000/svg">
<g clip-path="url(#clip0_4332_7410)">
<path d="M9.93401 17.5136C17.2105 17.5136 21.1897 11.4831 21.1897 6.2537C21.1897 6.08243 21.1862 5.91195 21.1785 5.74218C21.9528 5.18173 22.621 4.48779 23.1518 3.69291C22.443 4.00816 21.6802 4.22034 20.88 4.316C21.6968 3.82608 22.3238 3.05101 22.6196 2.12714C21.8431 2.58798 20.9935 2.91284 20.1076 3.08773C19.3857 2.3185 18.358 1.8374 17.22 1.8374C15.0353 1.8374 13.2638 3.60967 13.2638 5.79427C13.2638 6.10485 13.2985 6.40685 13.3664 6.69663C10.0785 6.53112 7.16309 4.95637 5.21192 2.56188C4.86049 3.16582 4.67565 3.85221 4.67626 4.55095C4.67626 5.92395 5.37464 7.13599 6.4367 7.8451C5.80848 7.82591 5.19404 7.65616 4.64507 7.35013C4.64448 7.36674 4.64448 7.38293 4.64448 7.40068C4.64448 9.31721 6.00807 10.9174 7.8182 11.28C7.47823 11.3726 7.12742 11.4194 6.77507 11.4192C6.5206 11.4192 6.27261 11.3942 6.03159 11.3479C6.53522 12.9203 7.99561 14.0645 9.72709 14.0965C8.3731 15.1582 6.66749 15.7905 4.81374 15.7905C4.4984 15.7908 4.18331 15.7725 3.87012 15.7357C5.62091 16.8583 7.6998 17.5133 9.93421 17.5133" fill="#1DA1F2"/>
</g>
<defs>
<clipPath id="clip0_4332_7410">
<rect width="26" height="17.5136" fill="white"/>
</clipPath>
</defs>
</svg>
