<svg width="68" height="65" viewBox="0 0 68 65" fill="none" xmlns="http://www.w3.org/2000/svg">
<rect x="22.4141" width="44.8274" height="41.4653" rx="9" fill="#F2FAFF"/>
<path d="M16.4531 54.4531V25.7656C16.4531 21.1057 20.2307 17.3281 24.8906 17.3281H18.5625C13.9026 17.3281 10.125 21.1057 10.125 25.7656V54.4531C10.125 59.1131 13.9026 62.8906 18.5625 62.8906H24.8906C20.2307 62.8906 16.4531 59.1131 16.4531 54.4531Z" fill="#CEE1F2"/>
<path d="M18.5625 19.4375C19.7275 19.4375 20.6719 18.4931 20.6719 17.3281C20.6719 16.1631 19.7275 15.2188 18.5625 15.2188C12.7468 15.2188 8.01562 19.9501 8.01562 25.7656V54.4531C8.01562 60.2687 12.7468 65 18.5625 65H35.4375C41.2532 65 45.9844 60.2687 45.9844 54.4531V25.7656C45.9844 19.9501 41.2532 15.2188 35.4375 15.2188C34.2725 15.2188 33.3281 16.1631 33.3281 17.3281C33.3281 18.4931 34.2725 19.4375 35.4375 19.4375C38.9268 19.4375 41.7656 22.2763 41.7656 25.7656V54.4531C41.7656 57.9425 38.9268 60.7812 35.4375 60.7812H18.5625C15.0732 60.7812 12.2344 57.9425 12.2344 54.4531V25.7656C12.2344 22.2763 15.0732 19.4375 18.5625 19.4375Z" fill="#2C88FF"/>
<path d="M29.1094 21.5469V13.1094C29.1094 11.9444 28.165 11 27 11C25.835 11 24.8906 11.9444 24.8906 13.1094V21.5469C24.8906 22.7119 25.835 23.6562 27 23.6562C28.165 23.6562 29.1094 22.7119 29.1094 21.5469Z" fill="#2C88FF"/>
<path d="M27 44.3281C28.1631 44.3281 29.1094 45.2744 29.1094 46.4375C29.1094 47.6006 28.1631 48.5469 27 48.5469C26.3302 48.5469 25.7147 48.2389 25.3113 47.7021C24.6117 46.7707 23.2892 46.5828 22.3579 47.2826C21.4265 47.9824 21.2387 49.3047 21.9383 50.2361C22.6924 51.2398 23.729 51.9861 24.8905 52.399V54.875C24.8905 56.04 25.8349 56.9844 26.9999 56.9844C28.1649 56.9844 29.1093 56.04 29.1093 54.875V52.4028C31.5644 51.5321 33.328 49.1874 33.328 46.4375C33.328 42.9482 30.4892 40.1094 26.9999 40.1094C25.8368 40.1094 24.8905 39.1631 24.8905 38C24.8905 36.8369 25.8368 35.8906 26.9999 35.8906C27.6697 35.8906 28.2852 36.1986 28.6886 36.7354C29.3882 37.6668 30.7107 37.8547 31.642 37.1549C32.5734 36.4551 32.7612 35.1328 32.0616 34.2014C31.3074 33.1977 30.2709 32.4514 29.1094 32.0385V29.5625C29.1094 28.3975 28.165 27.4531 27 27.4531C25.835 27.4531 24.8906 28.3975 24.8906 29.5625V32.0347C22.4355 32.9054 20.6719 35.2501 20.6719 38C20.6719 41.4893 23.5107 44.3281 27 44.3281Z" fill="black"/>
</svg>
