<svg width="68" height="65" viewBox="0 0 68 65" fill="none" xmlns="http://www.w3.org/2000/svg">
<rect x="22.4141" width="44.8274" height="41.4653" rx="9" fill="#F2FAFF"/>
<g clip-path="url(#clip0_3493_2555)">
<path d="M12.872 36.9541C12.872 33.8311 14.7331 31.1445 17.4058 29.9377C16.4406 29.5018 15.3705 29.2573 14.2427 29.2573C9.99185 29.2573 6.5459 32.7033 6.5459 36.9541C6.5459 41.205 9.99185 44.6509 14.2427 44.6509C15.3705 44.6509 16.4406 44.4063 17.4058 43.9705C14.7331 42.7637 12.872 40.0771 12.872 36.9541Z" fill="#CEE1F2"/>
<path d="M14.243 27.1486C8.83627 27.1486 4.4375 31.5474 4.4375 36.9541C4.97617 49.9624 23.5118 49.9586 24.0485 36.954C24.0485 31.5474 19.6497 27.1486 14.243 27.1486ZM14.243 42.5422C11.1617 42.5422 8.65492 40.0355 8.65492 36.9541C8.96185 29.5407 19.5252 29.5429 19.8311 36.9541C19.8311 40.0355 17.3243 42.5422 14.243 42.5422ZM52.2619 30.7266C49.9143 34.8281 45.5103 37.3755 40.7685 37.3759C40.7644 37.3759 40.7611 37.3759 40.7572 37.3759C38.8383 37.3759 36.8668 36.8792 34.8991 35.8994C33.7981 35.3513 32.2915 35.4375 31.5305 36.3843C31.0326 37.1872 30.0486 37.5528 29.1609 37.2943C28.2564 37.035 27.6333 36.208 27.6333 35.267L27.6339 24.3148C27.4989 14.8461 37.4251 8.29262 46.0797 12.1016C47.1483 12.5648 47.639 13.8064 47.1758 14.875C46.7125 15.9436 45.4708 16.4345 44.4023 15.9711C41.0888 14.5057 36.9906 15.2697 34.454 17.8988C32.7524 19.6167 31.8281 21.8847 31.8511 24.2849C31.8512 24.2916 31.8512 24.2985 31.8512 24.3052L31.8509 31.5677C33.4696 31.1758 35.2134 31.3447 36.7787 32.124C38.1602 32.8117 39.4999 33.1595 40.7664 33.1584C44.002 33.1584 47.0031 31.4241 48.6015 28.6316C49.1799 27.6208 50.4685 27.2704 51.4791 27.8489C52.4901 28.4274 52.8404 29.7159 52.2619 30.7266Z" fill="#2C88FF"/>
<path d="M43.4517 27.6757C42.0096 27.6757 40.6555 27.1073 39.6388 26.0753L36.6679 23.0339C35.8542 22.2007 35.8699 20.8657 36.703 20.0519C37.5363 19.2382 38.8712 19.2539 39.6849 20.087L42.6494 23.1219C42.8608 23.3366 43.148 23.4583 43.4516 23.4583C43.7553 23.4583 44.0425 23.3366 44.2603 23.1155L50.3825 16.9157C51.2007 16.0869 52.5359 16.0785 53.3646 16.8969C54.1932 17.7152 54.2016 19.0503 53.3834 19.879L47.2628 26.0771C46.248 27.1074 44.8939 27.6757 43.4517 27.6757ZM28.4764 62.8912C28.4764 55.6241 22.5522 49.7117 15.2702 49.7117H13.215C5.93311 49.7117 0.00878906 55.6241 0.00878906 62.8912C0.00878906 64.0558 0.95286 64.9999 2.1175 64.9999C3.28214 64.9999 4.22621 64.0558 4.22621 62.8912C4.22621 57.9495 8.2586 53.9292 13.215 53.9292H15.2702C20.2266 53.9292 24.259 57.9495 24.259 62.8912C24.259 64.0558 25.2031 64.9999 26.3677 64.9999C27.5323 64.9999 28.4764 64.0558 28.4764 62.8912Z" fill="black"/>
</g>
<defs>
<clipPath id="clip0_3493_2555">
<rect width="54" height="54" fill="white" transform="translate(0 11)"/>
</clipPath>
</defs>
</svg>
