<svg width="137" height="132" viewBox="0 0 137 132" fill="none" xmlns="http://www.w3.org/2000/svg">
<path d="M35.0793 44.8299C34.7993 44.7499 40.4493 25.3299 40.8693 23.3799C41.0893 22.3499 41.1593 19.8699 42.0193 19.1499C42.5893 18.6799 46.0193 18.8499 46.6593 18.7299C50.0193 18.1499 53.2693 17.0699 56.5393 16.1299C73.1393 11.3799 90.3893 9.57994 107.509 7.91994C115.299 7.15994 123.129 6.98994 130.919 6.17994C130.959 6.17994 133.769 5.80994 133.729 5.77994C134.439 6.29994 134.329 4.83994 133.739 6.04994C133.229 7.10994 129.389 8.26994 128.169 8.73994C124.749 10.0499 121.189 10.9599 117.789 12.2999C109.879 15.4199 101.659 17.4899 93.6093 20.2399C86.2893 22.7399 78.9093 25.1999 71.6193 27.7699C67.4193 29.2499 63.1293 30.3799 58.9193 31.8099C55.3093 33.0299 51.4493 33.7499 47.9193 35.1499C44.9193 36.3399 43.1693 37.9199 40.7493 39.9699C37.8493 42.4199 34.8093 44.5999 32.2193 47.3899C31.9693 47.6599 32.1493 47.8599 32.4893 47.8699C32.5993 47.8699 32.7093 47.8699 32.8193 47.8699C33.3093 47.8799 34.2093 47.1399 33.3293 47.1299C34.7493 47.1499 36.7893 44.1699 37.7493 43.3099C39.2793 41.9499 41.0393 40.8699 42.5693 39.4999C46.7593 35.7699 51.3893 35.0599 56.5293 33.3499C65.2193 30.4599 74.0893 28.0899 82.7093 24.9799C92.5093 21.4399 102.409 18.5299 112.279 15.2499C116.729 13.7699 121.029 11.8899 125.489 10.3999C129.269 9.13994 132.869 7.68994 136.119 5.34994C136.579 5.01994 136.249 4.76994 135.799 4.78994C130.279 5.09994 124.779 6.19994 119.239 6.44994C113.899 6.69994 108.599 7.06994 103.279 7.60994C91.9093 8.75994 80.5393 10.0399 69.3293 12.3199C63.6393 13.4699 58.0893 14.9999 52.5093 16.5999C49.1493 17.5599 45.9693 17.8899 42.5393 18.3799C41.9493 18.4599 41.5093 18.3199 40.9893 18.6499C40.0393 19.2699 40.0393 21.3399 39.8293 22.2399C39.2793 24.6699 38.7393 27.0899 38.1193 29.5099C36.8193 34.5599 33.8893 39.9299 33.6093 45.1199C33.5993 45.2899 33.7093 45.3499 33.8593 45.3899C33.9993 45.4299 34.1393 45.4699 34.2793 45.5099C34.6893 45.6599 35.8093 45.0399 35.0793 44.8299Z" fill="black"/>
<path d="M134.569 5.1201C133.379 5.5601 132.699 6.4801 131.809 7.3601C129.939 9.2101 127.839 10.8501 125.829 12.5401C122.129 15.6601 118.119 18.3301 114.309 21.3101C105.339 28.3501 96.3893 35.4501 86.7393 41.5401C78.0793 47.0101 68.6993 50.8901 60.5993 57.2401C59.9693 57.7301 59.0393 58.8101 58.0893 58.4201C57.2793 58.1001 56.3593 55.2901 55.9393 54.3501C54.9293 52.0501 54.0693 49.6601 53.2693 47.2701C51.8893 43.1201 50.7593 38.4401 47.9393 35.0201C47.6993 34.7301 46.8793 34.9601 46.7193 35.2601C46.6693 35.3601 46.6093 35.4601 46.5593 35.5701C46.2693 36.1201 47.5793 35.9801 47.7793 35.6001C47.8293 35.5001 47.8893 35.4001 47.9393 35.2901C47.5293 35.3701 47.1293 35.4501 46.7193 35.5301C50.1893 39.7401 51.3393 46.1001 53.2193 51.1501C53.9193 53.0301 55.4593 59.3301 58.0993 59.5201C60.4393 59.6901 63.3393 56.1901 65.0093 54.9601C70.1993 51.1601 75.9993 48.6101 81.5893 45.4701C91.3293 40.0101 100.409 33.2901 109.189 26.4101C113.679 22.8901 118.189 19.4701 122.759 16.0601C124.949 14.4301 127.009 12.6301 129.099 10.8701C130.709 9.5101 133.109 6.3601 135.089 5.6201C135.939 5.3401 135.159 4.9001 134.569 5.1201Z" fill="black"/>
<path d="M33.3193 47.7901C38.7193 45.1601 44.9093 44.2601 50.1193 41.2501C50.8793 40.8101 49.7393 40.6201 49.3093 40.8601C44.2293 43.7901 38.0893 44.6701 32.8093 47.2501C31.9893 47.6501 32.7293 48.0801 33.3193 47.7901Z" fill="black"/>
<path d="M33.7101 47.44C34.2601 45.04 34.8101 42.64 35.3701 40.24C35.4801 39.76 34.1701 39.96 34.0601 40.4C33.5101 42.8 32.9601 45.2 32.4001 47.6C32.2901 48.09 33.6101 47.89 33.7101 47.44Z" fill="black"/>
<path d="M135.35 4.52001C130.81 3.70001 126.12 4.37001 121.54 4.46001C116.05 4.57001 110.51 4.15001 105.02 3.95001C93.8395 3.54001 82.6095 2.91001 71.4395 2.15001C60.5195 1.41001 49.5895 0.530014 38.6495 0.250014C34.2195 0.140014 29.6595 -0.279986 25.2495 0.280014C22.4095 0.640014 18.8195 0.850014 16.2495 2.15001C16.0495 2.25001 15.6295 2.53001 15.9895 2.73001C21.3195 5.81001 25.8995 9.57001 30.8595 13.17C32.5995 14.43 34.4095 15.4 36.2695 16.46C37.7195 17.29 38.8095 18.36 40.4495 18.77C40.8695 18.88 41.9895 18.25 41.2495 18.06C39.2695 17.55 35.9595 15.23 34.2195 14.13C31.5295 12.45 29.1695 10.35 26.7095 8.37001C24.8295 6.85001 22.8195 5.55001 20.7595 4.29001C19.6395 3.60001 17.4595 3.12001 18.9995 2.07001C19.3995 1.80001 20.4895 1.85001 20.9995 1.76001C33.2095 -0.399987 46.0495 1.41001 58.3695 2.04001C70.7395 2.68001 83.0995 3.60001 95.4695 4.29001C102 4.66001 108.53 4.80001 115.06 5.06001C121.45 5.31001 128.24 4.09001 134.54 5.22001C134.96 5.30001 136.08 4.65001 135.35 4.52001Z" fill="black"/>
<path d="M41.3496 18.54C40.5296 19.41 40.4296 19.73 40.0996 21.2C39.8096 22.46 39.5196 23.71 39.2296 24.97C38.6296 27.56 38.1196 30.2 37.2996 32.72C35.6096 37.9 32.4496 42.68 31.7596 48.19C31.6996 48.69 32.6196 48.41 32.8196 48.3C33.9496 47.7 34.9996 46.5 36.1596 46.01C36.9996 45.65 36.2296 45.22 35.6396 45.47C34.2796 46.05 33.3296 47.21 32.0096 47.91C32.3596 47.95 32.7196 47.98 33.0696 48.02C33.7496 42.55 36.9296 37.72 38.6096 32.55C39.4296 30.03 39.9396 27.4 40.5396 24.8C41.0196 22.7 41.9396 20.37 41.9996 18.23C41.9996 18.13 41.9796 18.04 41.8696 18C41.7696 17.96 41.6696 17.92 41.5696 17.88C41.2696 17.76 40.7596 17.84 40.5296 18.09C40.4596 18.17 40.3796 18.25 40.3096 18.33C39.7796 18.88 41.0596 18.86 41.3496 18.54Z" fill="black"/>
<path d="M27.9797 55.7799C27.9397 55.6999 27.8897 55.62 27.8497 55.54C27.6497 55.16 26.9197 55.37 26.6697 55.61C22.0397 60.15 17.8097 65.9099 14.6497 71.5599C11.8897 76.4899 9.01968 83.07 9.14968 88.82C9.22968 92.32 11.8597 96.17 15.7397 95.73C19.3897 95.32 21.5197 91.0899 21.5297 87.7699C21.5397 84.5299 19.6097 82.0299 16.2297 82.8099C11.9297 83.7999 10.0397 89.02 8.26968 92.51C5.26968 98.44 3.63968 104.93 2.03968 111.36C1.15968 114.9 0.079684 118.57 -0.000316046 122.24C-0.070316 125.4 1.28968 128.3 1.20968 131.45C1.19968 131.99 2.50968 131.72 2.51968 131.29C2.60968 127.42 1.04968 124 1.47968 120.04C1.94968 115.68 3.27968 111.31 4.42968 107.08C5.71968 102.28 6.99968 97.5499 9.19968 93.0999C10.0497 91.3799 10.9697 89.6899 11.9197 88.0199C12.2997 87.3499 12.6997 86.19 13.3397 85.69C15.3097 85.29 17.2797 84.88 19.2397 84.48C19.6397 85.03 19.8997 85.6199 20.0297 86.2699C20.4497 87.8499 20.1997 89.5999 19.6197 91.0999C18.2297 94.7399 14.2397 95.94 11.7397 92.65C9.03968 89.09 11.1697 83.31 12.4297 79.54C15.3197 70.87 21.2097 62.22 27.7297 55.83C27.3397 55.85 26.9397 55.88 26.5497 55.9C26.5897 55.98 26.6397 56.0599 26.6797 56.1399C26.9097 56.5699 28.1797 56.1399 27.9797 55.7799Z" fill="black"/>
</svg>
