<svg width="78" height="82" viewBox="0 0 78 82" fill="none" xmlns="http://www.w3.org/2000/svg">
<path d="M18.3317 16.2383C20.7128 10.9334 24.5619 6.11395 29.96 3.67533C34.5951 1.58343 40.3862 1.51409 44.4203 4.95821C47.1598 7.30436 48.7549 10.76 50.3269 13.9268C50.7199 14.7127 51.8874 14.0192 51.5059 13.2333C49.9917 10.1822 48.4544 6.91141 45.9692 4.50747C44.0042 2.60049 41.4727 1.3754 38.7564 0.982448C33.0116 0.16187 27.2783 2.73918 23.2095 6.70338C20.6319 9.21134 18.6322 12.2856 17.1642 15.5564C16.8059 16.3423 17.9733 17.0357 18.3317 16.2383Z" fill="#2C88FF"/>
<path d="M50.8936 13.846C55.182 12.7827 59.8287 11.4536 64.2904 12.1817C67.1224 12.644 69.7809 13.9038 71.8962 15.8454C75.8147 19.4398 77.7335 25.1723 75.9766 30.3038C74.8553 33.5745 72.3355 36.0478 69.3533 37.6774C68.5788 38.0935 69.2724 39.2724 70.0468 38.8563C72.925 37.2729 75.4448 34.9383 76.8088 31.9103C78.0109 29.2289 78.2884 26.2587 77.7104 23.3924C76.5083 17.4404 71.7344 12.5516 65.8509 11.1069C60.7765 9.87024 55.4709 11.3149 50.5352 12.5284C49.6799 12.7365 50.0498 14.054 50.8936 13.846Z" fill="#2C88FF"/>
<path d="M68.0818 38.4749C71.6882 43.2481 73.2025 50.275 69.5614 55.4643C67.8969 57.8336 65.3655 59.4632 62.5104 59.9717C59.7362 60.4571 56.8465 59.8792 54.2689 58.8622C52.8009 58.2843 51.4022 57.5215 50.0845 56.6432C48.6165 55.6723 47.0907 54.505 46.7555 52.6789C46.5937 51.8121 45.2875 52.182 45.4378 53.0372C45.7499 54.7477 46.952 56.019 48.2929 57.0477C49.5759 58.0185 50.9745 58.8506 52.431 59.5441C55.2167 60.8616 58.3376 61.7053 61.447 61.4742C64.6026 61.2315 67.5154 59.8561 69.6539 57.51C71.931 55.0136 73.0638 51.7428 73.0175 48.368C72.9597 44.5656 71.538 40.8095 69.2609 37.793C68.7291 37.088 67.5501 37.7699 68.0818 38.4749Z" fill="#2C88FF"/>
<path d="M46.3743 51.165C44.444 55.2447 41.5311 58.7466 37.1618 60.2722C32.3879 61.948 26.0189 62.0983 22.3201 58.1457C20.2279 55.9035 19.1645 52.8986 18.1704 50.0554C17.8814 49.2349 16.5637 49.5816 16.8527 50.4137C17.8121 53.1528 18.8293 55.9382 20.6325 58.2497C22.5397 60.6883 25.256 62.1214 28.3076 62.549C33.2664 63.2425 38.8263 61.9365 42.6523 58.6311C44.7907 56.7819 46.3512 54.3779 47.5533 51.8468C47.9232 51.0609 46.7558 50.3675 46.3743 51.165Z" fill="#2C88FF"/>
<path d="M15.997 50.1476C15.9854 50.2401 15.9623 50.3441 15.9507 50.4365C16.1126 50.2747 16.2628 50.1245 16.4246 49.9627C15.1878 50.2401 14.0435 50.5752 12.7605 50.5405C11.6277 50.5174 10.518 50.3672 9.41991 50.1014C7.25838 49.5928 5.01594 48.6798 3.50171 46.9924C1.76786 45.0623 1.3633 42.2423 1.53668 39.7343C1.68695 37.5847 2.48452 35.6083 3.79068 33.8978C5.27023 31.9562 7.16591 30.3728 8.86508 28.6392C9.11937 28.3734 9.13093 27.9342 8.86508 27.6799C7.50112 26.3046 6.04468 24.7675 5.58233 22.8258C5.13153 20.9304 5.84818 18.9194 7.05032 17.4401C9.57017 14.3427 14.1591 12.898 17.858 14.5969C17.858 14.204 17.858 13.811 17.858 13.4181C17.4881 13.6954 17.3725 13.9266 17.3147 14.3773C17.2107 15.2441 18.5746 15.2441 18.6786 14.3773C18.6324 14.4467 18.5862 14.516 18.5399 14.5969C18.8983 14.3195 19.0601 13.6608 18.5399 13.4181C15.1069 11.8347 11.2693 12.4241 8.21777 14.5738C5.38582 16.5617 3.27053 20.0751 4.38019 23.6002C5.00438 25.588 6.46081 27.1945 7.89412 28.6508C7.89412 28.3272 7.89412 28.0035 7.89412 27.6915C6.20651 29.402 4.35707 30.9854 2.87753 32.8808C1.38642 34.7762 0.461699 36.9259 0.207401 39.3298C-0.0700141 42.0112 0.346109 45.0392 1.97592 47.2698C3.44392 49.2692 5.74415 50.4712 8.09062 51.1647C9.45458 51.5692 10.8879 51.8119 12.3097 51.8928C13.8817 51.9737 15.2687 51.6154 16.7945 51.2802C17.0026 51.234 17.2338 51.026 17.2685 50.8064C17.28 50.7139 17.3031 50.6099 17.3147 50.5174C17.4418 49.6506 16.1357 49.2808 15.997 50.1476Z" fill="#2C88FF"/>
<path d="M18.205 15.3945C20.5861 10.0896 24.4353 5.27016 29.8333 2.83154C34.4685 0.739646 40.2595 0.670302 44.2936 4.11442C47.0331 6.46058 48.6282 9.91625 50.2002 13.083C50.5933 13.8689 51.7607 13.1754 51.3793 12.3895C49.865 9.33838 48.3277 6.06763 45.8425 3.66368C43.8775 1.7567 41.3461 0.531613 38.6297 0.13866C32.8733 -0.693476 27.1516 1.88383 23.0713 5.83648C20.4937 8.36755 18.494 11.4418 17.026 14.7126C16.6676 15.5101 17.8467 16.2035 18.205 15.3945Z" fill="#2C88FF"/>
<path d="M50.767 13.0022C55.0554 11.939 59.7021 10.6099 64.1639 11.338C66.9958 11.8003 69.6544 13.06 71.7697 15.0017C75.6882 18.596 77.607 24.3285 75.85 29.46C74.7288 32.7308 72.2089 35.2041 69.2267 36.8337C68.4522 37.2497 69.1458 38.4286 69.9202 38.0125C72.7984 36.4292 75.3183 34.0946 76.6822 31.0665C77.8844 28.3852 78.1618 25.4149 77.5838 22.5487C76.3817 16.5966 71.6078 11.7078 65.7243 10.2631C60.6499 9.02649 55.3444 10.4712 50.4087 11.6847C49.5533 11.9043 49.9116 13.2218 50.767 13.0022Z" fill="#2C88FF"/>
<path d="M67.9549 37.6309C71.5613 42.4041 73.0755 49.431 69.4344 54.6203C67.7699 56.9896 65.2385 58.6192 62.3835 59.1277C59.6093 59.6131 56.7196 59.0353 54.1419 58.0182C52.6739 57.4403 51.2753 56.6776 49.9576 55.7992C48.4896 54.8284 46.9638 53.6611 46.6286 51.835C46.4667 50.9682 45.1606 51.338 45.3108 52.1933C45.6229 53.9038 46.8251 55.1751 48.1659 56.2037C49.449 57.1745 50.8476 58.0067 52.304 58.7001C55.0897 60.0177 58.2107 60.8613 61.32 60.6302C64.4756 60.3875 67.3885 59.0122 69.5269 56.666C71.804 54.1696 72.9368 50.8988 72.8906 47.5241C72.8328 43.7217 71.411 39.9655 69.1339 36.949C68.6022 36.2556 67.4232 36.9259 67.9549 37.6309Z" fill="#2C88FF"/>
<path d="M45.8655 51.4653C43.9352 55.545 41.0223 59.0469 36.653 60.5725C31.8791 62.2483 25.5101 62.3986 21.8113 58.446C19.7191 56.2038 18.6557 53.1989 17.6616 50.3557C17.3726 49.5352 16.0549 49.8819 16.3439 50.714C17.3033 53.4531 18.3205 56.2385 20.1237 58.55C22.0309 60.9886 24.7473 62.4217 27.7988 62.8493C32.7576 63.5428 38.3175 62.2368 42.1435 58.9314C44.2819 57.0822 45.8424 54.6782 47.0445 52.1471C47.4144 51.3612 46.247 50.6678 45.8655 51.4653Z" fill="#2C88FF"/>
<path d="M15.87 49.3039C15.8585 49.3963 15.8353 49.5003 15.8238 49.5928C15.9856 49.431 16.1359 49.2807 16.2977 49.1189C15.0609 49.3963 13.9165 49.7315 12.6335 49.6968C11.5007 49.6737 10.3911 49.5234 9.29296 49.2576C7.13143 48.7491 4.88898 47.8361 3.37476 46.1487C1.64091 44.2186 1.23635 41.3986 1.40973 38.8906C1.56 36.7409 2.35757 34.7646 3.66373 33.0541C5.14328 31.1124 7.03895 29.5291 8.73812 27.7955C8.99242 27.5296 9.00398 27.0905 8.73812 26.8362C7.37416 25.4609 5.91773 23.9237 5.45537 21.9821C5.00457 20.0867 5.72123 18.0757 6.92336 16.5963C9.44322 13.4989 14.0321 12.0542 17.731 13.7532C17.731 13.3602 17.731 12.9673 17.731 12.5743C17.3611 12.8517 17.2455 13.0828 17.1877 13.5336C17.0837 14.4004 18.4477 14.4004 18.5517 13.5336C18.5055 13.6029 18.4592 13.6723 18.413 13.7532C18.7713 13.4758 18.9331 12.817 18.413 12.5743C14.98 10.9909 11.1424 11.5804 8.09082 13.7301C5.25887 15.7179 3.14358 19.2314 4.25324 22.7564C4.87742 24.7443 6.33386 26.3508 7.76717 27.807C7.76717 27.4834 7.76717 27.1598 7.76717 26.8478C6.07956 28.5583 4.23012 30.1416 2.75057 32.037C1.25946 33.9325 0.334746 36.0821 0.0804482 38.4861C-0.196967 41.1674 0.219156 44.207 1.84897 46.4261C3.31696 48.4255 5.6172 49.6275 7.96367 50.3209C9.32763 50.7254 10.7609 50.9681 12.1827 51.049C13.7547 51.1299 15.1418 50.7717 16.6676 50.4365C16.8756 50.3903 17.1068 50.1822 17.1415 49.9626C17.1531 49.8702 17.1762 49.7662 17.1877 49.6737C17.3149 48.8069 15.9972 48.437 15.87 49.3039Z" fill="#2C88FF"/>
<path d="M46.143 51.9739C46.2585 53.6959 47.3682 55.0366 48.6397 56.0883C49.3101 56.6431 50.0152 57.14 50.7319 57.637C51.3561 58.0762 51.9109 58.446 52.4426 58.9314C52.72 59.1742 53.1361 59.1973 53.402 58.9314C53.6563 58.6772 53.6794 58.2149 53.402 57.9722C52.2808 56.9782 50.9515 56.2154 49.7956 55.2909C49.2408 54.8401 48.6281 54.2969 48.2351 53.7768C48.0271 53.4994 47.8306 53.1874 47.7034 52.8638C47.7265 52.9216 47.6456 52.7135 47.6456 52.6789C47.6225 52.6095 47.5994 52.5402 47.5878 52.4708C47.53 52.2397 47.5185 52.205 47.5069 51.9854C47.4838 51.6156 47.2064 51.3035 46.8249 51.3035C46.4666 51.292 46.1083 51.604 46.143 51.9739Z" fill="#2C88FF"/>
<path d="M45.5304 62.3406C43.9006 62.121 42.5713 62.9993 41.9587 64.4902C41.7044 65.1259 41.6003 65.8194 41.5888 66.5012C41.5772 67.4374 41.4732 68.3967 41.8777 69.275C42.2361 70.0609 42.9874 70.7312 43.8312 70.9162C44.6057 71.078 45.4264 70.9971 46.2239 71.0317C47.0793 71.078 48.004 71.1126 48.8016 70.7544C49.5876 70.4076 50.0962 69.6564 50.3736 68.8705C50.94 67.2178 50.5701 65.253 49.3448 64.0048C48.686 63.3345 47.8884 62.9878 46.9984 62.7566C46.039 62.5255 45.0911 62.2481 44.0855 62.3406C42.3401 62.4908 41.3576 64.3862 40.9761 65.9118C40.5831 67.4836 40.6756 69.4021 42.1205 70.4192C42.9874 71.0317 44.0624 71.0664 45.068 71.2398C46.0737 71.4247 47.1833 71.5518 48.1658 71.182C49.0096 70.8699 49.8766 70.1072 50.3389 69.3444C50.8937 68.4429 50.5817 67.3334 50.5585 66.351C50.547 65.4726 49.183 65.4726 49.1946 66.351C49.1946 66.6977 49.2408 67.056 49.2639 67.4027C49.2871 67.7494 49.3448 68.1655 49.2293 68.5122C49.079 68.963 48.4779 69.4253 48.0618 69.7026C47.4954 70.084 46.8019 70.084 46.143 70.0378C45.4148 69.98 44.6635 69.8413 43.9468 69.7026C43.3342 69.5871 42.7331 69.3675 42.4095 68.8012C42.132 68.3157 42.0974 67.7148 42.132 67.16C42.1667 66.5706 42.3285 65.9696 42.5597 65.4264C42.7793 64.9063 43.0914 64.3284 43.5307 63.9702C44.0393 63.5425 44.8368 63.6581 45.4495 63.7852C45.8078 63.8546 46.1661 63.9702 46.5129 64.0511C46.825 64.132 47.1486 64.1898 47.4492 64.3169C48.7438 64.8601 49.3217 66.2239 49.2408 67.553C49.2061 68.1077 49.0674 68.6971 48.7091 69.1479C48.3277 69.6217 47.7844 69.7026 47.2064 69.7142C46.536 69.7258 45.854 69.6564 45.1836 69.668C44.6403 69.668 44.0508 69.7258 43.6116 69.3675C42.9643 68.8474 42.9065 68.1193 42.9296 67.3449C42.9527 66.6862 42.9296 66.0621 43.0799 65.4495C43.2186 64.9179 43.4382 64.4209 43.8659 64.0742C44.3167 63.7043 44.9293 63.6581 45.5188 63.739C45.8887 63.7852 46.2008 63.3923 46.2008 63.0571C46.2124 62.6179 45.9003 62.3868 45.5304 62.3406Z" fill="#2C88FF"/>
<path d="M36.5023 72.3842C35.2424 73.0199 34.5835 74.3259 34.7222 75.7128C34.78 76.36 35.0228 76.961 35.5082 77.4117C35.9706 77.8393 36.5485 78.1283 37.1265 78.3594C38.3517 78.8448 39.9006 78.8911 40.9988 78.0705C42.0969 77.2384 42.8713 75.655 42.4089 74.2912C41.6345 72.0491 38.6176 71.425 36.6179 72.2224C35.6007 72.6269 34.7569 73.3897 34.4332 74.4646C34.098 75.6087 34.3986 76.8801 35.4504 77.5157C36.0168 77.8625 36.6641 77.9434 37.3114 77.978C37.7622 78.0011 38.2015 78.0474 38.6523 78.0589C39.5886 78.0705 41.2299 77.9318 41.149 76.6143C41.1259 76.2444 40.8485 75.9324 40.467 75.9324C40.1203 75.9324 39.7619 76.2444 39.7851 76.6143C39.7851 76.6489 39.7851 76.672 39.7851 76.7067C39.7851 76.672 39.7966 76.6374 39.7966 76.6027C39.7851 76.6605 39.7851 76.6489 39.8082 76.5911C39.7966 76.5565 39.8313 76.5218 39.7966 76.5911C39.7619 76.672 39.9006 76.4524 39.8197 76.5565C39.9006 76.4524 39.8544 76.5102 39.7851 76.568C39.6926 76.6258 39.7966 76.568 39.8197 76.5565C39.7735 76.568 39.7273 76.5911 39.6695 76.6027C39.6001 76.6258 39.5308 76.6374 39.4614 76.6489C39.2765 76.6836 39.5539 76.6374 39.4383 76.6489C39.4036 76.6489 39.3574 76.6605 39.3227 76.6605C39.1262 76.672 38.9181 76.6836 38.7216 76.6836C38.3633 76.6836 38.005 76.6489 37.6466 76.6258C37.3346 76.6027 37.0225 76.6027 36.7566 76.5449C36.641 76.5218 36.537 76.4871 36.4214 76.4524C36.3752 76.4409 36.3289 76.4178 36.2827 76.4062C36.3636 76.4409 36.2596 76.3947 36.2596 76.3831C36.2249 76.36 36.1787 76.3369 36.144 76.3138C36.1555 76.3253 35.9822 76.1982 36.0515 76.256C36.0515 76.256 35.9128 76.1288 35.8666 76.0711C35.7972 75.9901 35.9128 76.1519 35.855 76.0595C35.8319 76.0133 35.7972 75.967 35.7741 75.9208C35.7625 75.8977 35.7163 75.8052 35.7625 75.9092C35.751 75.8746 35.7279 75.8283 35.7163 75.7821C35.7047 75.759 35.6585 75.5163 35.6701 75.6319C35.6585 75.5163 35.6585 75.3892 35.6585 75.262C35.6816 74.8922 35.7741 74.6264 35.9706 74.3259C36.1209 74.0947 36.3752 73.8636 36.6179 73.7133C37.7738 72.9968 39.577 73.0661 40.5711 73.9445C41.3571 74.6379 41.2993 75.5278 40.7445 76.36C40.2012 77.1806 39.3689 77.4464 38.4442 77.3077C37.8894 77.2268 37.4039 77.0303 36.93 76.7529C36.6873 76.6142 36.5717 76.5449 36.3983 76.3715C36.2711 76.2444 36.1902 76.1173 36.144 75.9555C36.0168 75.4932 36.0399 74.9846 36.2133 74.5223C36.3752 74.1063 36.7335 73.7827 37.1958 73.5515C37.5311 73.3897 37.612 72.9159 37.4386 72.6154C37.2421 72.2918 36.8375 72.2224 36.5023 72.3842Z" fill="#2C88FF"/>
<path d="M29.0707 78.2784C28.4465 78.1628 27.8686 78.3131 27.3715 78.706C26.967 79.0412 26.7011 79.5497 26.6896 80.0814C26.678 81.11 27.6258 81.7572 28.539 81.9305C29.4984 82.1155 30.5618 81.9652 31.1166 81.0753C31.5674 80.3356 31.5906 79.1568 30.9201 78.5442C30.5503 78.209 30.111 77.9779 29.6487 77.793C29.2325 77.6312 28.7702 77.504 28.3309 77.6081C27.9842 77.689 27.7414 78.105 27.857 78.4517C27.9726 78.81 28.3194 79.0181 28.7008 78.9256C28.7933 78.9025 28.7355 78.9603 28.6083 78.9372C28.6315 78.9372 28.6661 78.9372 28.6893 78.9372C28.7124 78.9372 28.7471 78.9372 28.7702 78.9372C28.8973 78.9372 28.5852 78.9025 28.7124 78.9256C28.8511 78.9603 28.9898 78.995 29.1285 79.0412C29.1632 79.0527 29.1979 79.0643 29.2325 79.0874C29.2903 79.1105 29.3712 79.1799 29.221 79.0759C29.2788 79.1105 29.3481 79.1336 29.4059 79.1568C29.5562 79.2261 29.7065 79.307 29.8452 79.3995C29.903 79.4341 30.0417 79.5613 29.8798 79.411C29.9261 79.4572 29.9723 79.4919 30.0185 79.5382C30.0417 79.5613 30.0532 79.5844 30.0763 79.5959C30.1573 79.6768 29.9723 79.4457 30.0301 79.5382C30.0301 79.5497 30.0532 79.5959 30.0648 79.5959C30.0417 79.5844 29.9954 79.4226 30.0532 79.5613C30.0763 79.6306 30.0879 79.7 30.111 79.7693C30.1341 79.908 30.0995 79.5959 30.111 79.7346C30.111 79.7693 30.111 79.8155 30.111 79.8502C30.111 79.908 30.0995 79.9889 30.0995 80.0467C30.0763 79.8964 30.1226 79.9311 30.0995 80.0236C30.0879 80.0698 30.0763 80.1276 30.0648 80.1738C30.0532 80.2085 30.0417 80.2432 30.0301 80.2894C29.9839 80.4281 30.111 80.1507 30.0417 80.2663C30.007 80.3241 29.9839 80.3818 29.9492 80.4281C29.8798 80.5436 30.0648 80.3125 29.9608 80.405C29.9376 80.4281 29.9145 80.4627 29.8798 80.4859C29.7989 80.5552 29.7989 80.4974 29.903 80.4743C29.8683 80.4859 29.8105 80.5321 29.7758 80.5552C29.6602 80.6245 29.8914 80.5205 29.8105 80.5436C29.7874 80.5552 29.7527 80.5668 29.7296 80.5668C29.6602 80.5899 29.5909 80.6014 29.5215 80.613C29.3828 80.6477 29.6949 80.6014 29.5562 80.613C29.5215 80.613 29.4753 80.6245 29.4406 80.6245C29.3597 80.6245 29.2788 80.6245 29.2094 80.6245C29.1285 80.6245 29.0476 80.6014 28.9667 80.6014C29.1516 80.5899 29.0476 80.613 28.9898 80.6014C28.9551 80.5899 28.9089 80.5899 28.8742 80.5783C28.8049 80.5668 28.7471 80.5436 28.6777 80.5321C28.643 80.5205 28.5968 80.509 28.5621 80.4974C28.539 80.4859 28.5159 80.4743 28.4928 80.4743C28.4234 80.4512 28.4465 80.4512 28.5506 80.4974C28.4928 80.4512 28.4118 80.4281 28.3541 80.3934C28.2963 80.3587 28.25 80.3241 28.2038 80.2894C28.3656 80.3818 28.2847 80.3472 28.2385 80.3009C28.2153 80.2778 28.1922 80.2547 28.1691 80.2316C28.1113 80.1738 28.1344 80.1276 28.1922 80.2663C28.1807 80.2316 28.146 80.1969 28.1229 80.1507C28.0882 80.0813 28.1575 80.1276 28.1575 80.2316C28.1575 80.22 28.1229 80.0813 28.1113 80.0698C28.1113 80.1045 28.1229 80.1391 28.1229 80.1738C28.1229 80.1507 28.1229 80.116 28.1229 80.0929C28.1229 80.0698 28.1229 80.0351 28.1229 80.012C28.0998 80.1276 28.0998 80.1507 28.1113 80.0698C28.1229 80.0351 28.1344 79.9889 28.146 79.9542C28.1807 79.8271 28.0766 80.0814 28.1344 79.9658C28.1575 79.9311 28.1691 79.8964 28.1922 79.8618C28.2038 79.8386 28.2269 79.8155 28.2385 79.7924C28.1691 79.8733 28.1691 79.8849 28.2153 79.8386C28.25 79.804 28.2731 79.7809 28.3078 79.7462C28.3309 79.7231 28.3541 79.7115 28.3656 79.6884C28.2847 79.7462 28.2731 79.7577 28.3309 79.7231C28.3656 79.7 28.3887 79.6884 28.4234 79.6653C28.4465 79.6537 28.4581 79.6422 28.4812 79.6306C28.5506 79.5959 28.5274 79.6075 28.435 79.6422C28.435 79.6422 28.5506 79.6075 28.5621 79.5959C28.5852 79.5844 28.6199 79.5844 28.643 79.5728C28.7124 79.5613 28.7008 79.5613 28.5968 79.5728C28.6083 79.5844 28.7124 79.5613 28.7355 79.5613C28.7702 79.5613 28.7933 79.5613 28.828 79.5613C28.7239 79.5497 28.7124 79.5382 28.7817 79.5613C29.1285 79.6191 29.5331 79.4688 29.6255 79.0874C29.614 78.7869 29.4406 78.3477 29.0707 78.2784Z" fill="#2C88FF"/>
</svg>
