<svg width="522" height="136" viewBox="0 0 522 136" fill="none" xmlns="http://www.w3.org/2000/svg">
<path d="M0 0V136H522V0H0ZM33.3327 13.5878H18.8248C17.4802 13.5878 16.4187 12.6697 16.4187 11.5068C16.4187 10.3438 17.4802 9.42574 18.8248 9.42574H33.3327C34.6773 9.42574 35.7389 10.3438 35.7389 11.5068C35.8097 12.6697 34.6773 13.5878 33.3327 13.5878ZM63.7638 13.5878H49.256C47.9113 13.5878 46.8498 12.6697 46.8498 11.5068C46.8498 10.3438 47.9113 9.42574 49.256 9.42574H63.7638C65.1085 9.42574 66.17 10.3438 66.17 11.5068C66.17 12.6697 65.1085 13.5878 63.7638 13.5878ZM96.1765 13.5878H81.6687C80.324 13.5878 79.2625 12.6697 79.2625 11.5068C79.2625 10.3438 80.324 9.42574 81.6687 9.42574H96.1765C97.5211 9.42574 98.5827 10.3438 98.5827 11.5068C98.5827 12.6697 97.5211 13.5878 96.1765 13.5878ZM126.608 13.5878H112.1C110.755 13.5878 109.694 12.6697 109.694 11.5068C109.694 10.3438 110.755 9.42574 112.1 9.42574H126.608C127.952 9.42574 129.014 10.3438 129.014 11.5068C129.014 12.6697 127.952 13.5878 126.608 13.5878ZM159.091 13.5878H144.583C143.239 13.5878 142.177 12.6697 142.177 11.5068C142.177 10.3438 143.239 9.42574 144.583 9.42574H159.091C160.436 9.42574 161.497 10.3438 161.497 11.5068C161.497 12.6697 160.365 13.5878 159.091 13.5878ZM189.451 13.5878H174.944C173.599 13.5878 172.537 12.6697 172.537 11.5068C172.537 10.3438 173.599 9.42574 174.944 9.42574H189.451C190.796 9.42574 191.858 10.3438 191.858 11.5068C191.858 12.6697 190.796 13.5878 189.451 13.5878ZM221.935 13.5878H207.427C206.082 13.5878 205.021 12.6697 205.021 11.5068C205.021 10.3438 206.082 9.42574 207.427 9.42574H221.935C223.28 9.42574 224.341 10.3438 224.341 11.5068C224.341 12.6697 223.209 13.5878 221.935 13.5878ZM252.295 13.5878H237.787C236.443 13.5878 235.381 12.6697 235.381 11.5068C235.381 10.3438 236.443 9.42574 237.787 9.42574H252.295C253.64 9.42574 254.701 10.3438 254.701 11.5068C254.701 12.6697 253.64 13.5878 252.295 13.5878ZM283.646 13.5878H269.139C267.794 13.5878 266.732 12.6697 266.732 11.5068C266.732 10.3438 267.794 9.42574 269.139 9.42574H283.646C284.991 9.42574 286.053 10.3438 286.053 11.5068C286.053 12.6697 284.991 13.5878 283.646 13.5878ZM314.007 13.5878H299.499C298.154 13.5878 297.093 12.6697 297.093 11.5068C297.093 10.3438 298.154 9.42574 299.499 9.42574H314.007C315.351 9.42574 316.413 10.3438 316.413 11.5068C316.484 12.6697 315.351 13.5878 314.007 13.5878ZM346.49 13.5878H331.982C330.638 13.5878 329.576 12.6697 329.576 11.5068C329.576 10.3438 330.638 9.42574 331.982 9.42574H346.49C347.835 9.42574 348.896 10.3438 348.896 11.5068C348.896 12.6697 347.764 13.5878 346.49 13.5878ZM376.851 13.5878H362.343C360.998 13.5878 359.937 12.6697 359.937 11.5068C359.937 10.3438 360.998 9.42574 362.343 9.42574H376.851C378.195 9.42574 379.257 10.3438 379.257 11.5068C379.257 12.6697 378.195 13.5878 376.851 13.5878ZM409.334 13.5878H394.826C393.482 13.5878 392.42 12.6697 392.42 11.5068C392.42 10.3438 393.482 9.42574 394.826 9.42574H409.334C410.679 9.42574 411.74 10.3438 411.74 11.5068C411.74 12.6697 410.679 13.5878 409.334 13.5878ZM439.765 13.5878H425.257C423.913 13.5878 422.851 12.6697 422.851 11.5068C422.851 10.3438 423.913 9.42574 425.257 9.42574H439.765C441.11 9.42574 442.171 10.3438 442.171 11.5068C442.171 12.6697 441.039 13.5878 439.765 13.5878ZM472.178 13.5878H457.599C456.255 13.5878 455.193 12.6697 455.193 11.5068C455.193 10.3438 456.255 9.42574 457.599 9.42574H472.107C473.452 9.42574 474.513 10.3438 474.513 11.5068C474.584 12.6697 473.522 13.5878 472.178 13.5878ZM502.538 13.5878H488.03C486.686 13.5878 485.624 12.6697 485.624 11.5068C485.624 10.3438 486.686 9.42574 488.03 9.42574H502.538C503.883 9.42574 504.944 10.3438 504.944 11.5068C505.015 12.6697 503.883 13.5878 502.538 13.5878Z" fill="#D5E7FF"/>
</svg>
