<svg width="1278" height="199" viewBox="0 0 1278 199" fill="none" xmlns="http://www.w3.org/2000/svg">
<path d="M4.69495 13.3235C2.40258 6.81814 7.22907 0 14.1265 0H1261.84C1269.27 0 1274.1 7.81374 1270.79 14.4621L1227.39 101.514C1225.9 104.503 1226 108.039 1227.65 110.939L1269.45 184.037C1273.26 190.703 1268.44 199 1260.76 199H14.683C7.63188 199 2.79528 191.898 5.37785 185.337L35.6343 108.469C36.5152 106.232 36.5601 103.752 35.7608 101.483L4.69495 13.3235Z" fill="black"/>
<mask id="mask0_3413_1257" style="mask-type:alpha" maskUnits="userSpaceOnUse" x="3" y="0" width="1270" height="199">
<path d="M4.48561 13.2144C2.28419 6.7291 7.10621 0 13.9549 0H1262.02C1269.4 0 1274.24 7.73088 1271.01 14.3729L1227.35 104.175C1225.88 107.189 1226.02 110.736 1227.72 113.623L1269.12 183.926C1273.05 190.592 1268.24 199 1260.51 199H14.9232C7.80778 199 2.96876 191.779 5.67429 185.198L35.5747 112.467C36.4937 110.232 36.572 107.739 35.7951 105.45L4.48561 13.2144Z" fill="black"/>
</mask>
<g mask="url(#mask0_3413_1257)">
<g clip-path="url(#clip0_3413_1257)">
<path d="M1190.01 115.671C1184.8 115.079 1180.34 111.741 1177.17 107.704C1173.62 103.236 1170.99 97.4753 1170.67 91.715C1170.29 85.6856 1172.49 79.6562 1175.45 74.5419C1178.13 69.8583 1181.68 65.6593 1186.09 62.483C1195.27 55.8076 1208.17 54.3541 1217.89 60.7603C1220.42 62.4292 1222.62 64.5287 1224.66 66.7359C1226.7 68.9431 1228.53 71.3118 1230.09 73.8959C1233.15 78.9563 1234.66 84.6627 1234.33 90.5307C1234.01 96.1833 1231.97 101.728 1228.37 106.143C1225.09 110.234 1220.63 113.41 1215.64 115.133C1214.4 115.564 1213.16 115.887 1211.93 116.156C1210.91 116.371 1211.34 117.932 1212.36 117.717C1223.7 115.456 1232.99 106.358 1235.35 94.9989C1236.59 88.9695 1236 82.617 1233.47 76.9644C1230.95 71.258 1226.76 66.0361 1222.08 61.9985C1217.46 57.9071 1211.82 55.4846 1205.59 55.0539C1199.63 54.6771 1193.55 56.1306 1188.29 59.0915C1183.4 61.8909 1179.26 65.8746 1176.04 70.5043C1172.6 75.5109 1169.91 81.4327 1169.16 87.516C1168.35 93.9761 1170.5 100.436 1173.89 105.82C1176.79 110.449 1180.93 114.541 1186.14 116.371C1187.37 116.802 1188.66 117.071 1190.01 117.232C1191.08 117.394 1191.03 115.779 1190.01 115.671Z" fill="#FFB42C"/>
<path d="M1189.69 117.179C1190.49 119.547 1190.97 122.077 1190.92 124.554C1190.87 125.631 1192.43 125.577 1192.53 124.554C1192.53 124.608 1192.59 124.446 1192.59 124.446C1192.75 124.285 1192.86 124.177 1193.02 124.069C1193.5 123.8 1194.04 123.639 1194.52 123.477C1195.76 123.154 1197.05 122.939 1198.39 122.831C1200.11 122.67 1201.72 122.777 1203.44 122.939C1204.68 123.1 1205.97 123.262 1207.15 123.585C1208.17 123.8 1209.3 124.069 1210.16 124.662C1210.32 124.769 1210.32 124.769 1210.48 124.931C1210.37 124.823 1210.48 124.985 1210.53 125.038C1210.48 124.985 1210.53 125.092 1210.53 125.092C1210.53 124.985 1210.48 125.308 1210.53 125.092C1210.53 125.2 1210.48 125.308 1210.48 125.415C1210.48 125.523 1210.48 125.684 1210.48 125.792C1210.48 125.954 1210.42 126.438 1210.59 126.061C1210.75 125.684 1210.59 125.9 1210.42 126.007C1210.32 126.061 1210.26 126.115 1210.16 126.169C1209.94 126.277 1209.73 126.384 1209.51 126.492C1209.03 126.707 1208.6 126.869 1208.11 127.03C1207.15 127.353 1206.18 127.569 1205.16 127.73C1202.8 128.053 1200.38 127.892 1198.01 127.407C1196.78 127.138 1195.6 126.815 1194.41 126.438C1193.45 126.061 1192.53 125.415 1192.37 124.339C1192.21 123.316 1190.65 123.746 1190.81 124.769C1191.14 127.192 1193.82 128.053 1195.86 128.591C1198.28 129.237 1200.81 129.56 1203.28 129.507C1205.59 129.453 1207.9 128.968 1210.05 128.053C1210.91 127.676 1212.09 127.299 1212.09 126.169C1212.09 126.007 1212.09 125.792 1212.04 125.631C1212.04 125.577 1212.04 125.523 1212.04 125.415C1212.04 125.469 1212.04 125.577 1212.04 125.415C1212.09 125.146 1212.09 124.877 1212.04 124.608C1211.71 123.477 1210.42 122.939 1209.46 122.562C1208.11 122.077 1206.66 121.808 1205.21 121.593C1203.12 121.27 1201.02 121.001 1198.93 121.162C1197.21 121.27 1195.49 121.485 1193.82 121.97C1192.53 122.347 1190.92 122.993 1190.81 124.554C1191.35 124.554 1191.89 124.554 1192.43 124.554C1192.48 121.916 1191.94 119.224 1191.14 116.748C1190.92 115.779 1189.36 116.156 1189.69 117.179Z" fill="#FFB42C"/>
<path d="M1212.52 124.715C1212.57 122.185 1212.73 119.655 1212.79 117.179C1212.79 116.156 1211.18 116.156 1211.18 117.179C1211.12 119.709 1211.02 122.239 1210.91 124.715C1210.91 125.738 1212.52 125.738 1212.52 124.715Z" fill="#FFB42C"/>
<path d="M1191.24 126.169C1191.62 127.03 1191.51 128.053 1191.62 128.968C1191.78 129.937 1192.16 130.799 1192.96 131.391C1194.68 132.683 1196.99 133.275 1199.03 133.544C1201.24 133.813 1203.44 133.76 1205.64 133.544C1207.63 133.383 1210.05 133.329 1211.45 131.66C1213.22 129.668 1212.79 126.869 1212.31 124.446C1212.09 123.423 1210.53 123.854 1210.75 124.877C1211.18 127.03 1211.71 130.26 1209.14 131.337C1208.06 131.768 1206.88 131.821 1205.75 131.929C1204.51 132.037 1203.33 132.091 1202.1 132.091C1199.73 132.091 1197.26 131.821 1195.06 130.745C1194.57 130.476 1193.98 130.26 1193.61 129.83C1193.29 129.453 1193.18 128.914 1193.12 128.43C1193.02 127.353 1193.02 126.33 1192.59 125.308C1192.26 124.392 1190.87 125.254 1191.24 126.169Z" fill="#FFB42C"/>
<path d="M1192.8 130.96C1192.32 135.213 1196.24 137.797 1199.52 139.52C1201.29 140.435 1203.12 141.135 1205.11 140.381C1206.88 139.681 1208.28 138.336 1209.46 136.936C1210.91 135.213 1211.98 133.329 1212.2 131.068C1212.31 130.045 1210.69 130.045 1210.59 131.068C1210.37 133.167 1209.08 134.944 1207.74 136.451C1206.5 137.797 1204.73 139.412 1202.74 139.089C1201.72 138.928 1200.75 138.336 1199.84 137.851C1198.93 137.367 1197.96 136.828 1197.1 136.182C1195.43 134.944 1194.14 133.114 1194.41 130.906C1194.57 129.937 1192.96 129.937 1192.8 130.96Z" fill="#FFB42C"/>
<path d="M1202.2 124.446C1201.45 115.24 1200.7 106.035 1199.89 96.8291C1199.79 95.8063 1198.17 95.8063 1198.28 96.8291C1199.09 106.035 1199.84 115.24 1200.59 124.446C1200.65 125.469 1202.26 125.469 1202.2 124.446Z" fill="#FFB42C"/>
<path d="M1198.17 95.1605C1196.51 95.645 1194.79 95.968 1193.02 96.1295C1191.46 96.291 1189.79 96.4525 1188.61 95.2143C1187.7 94.2453 1187.05 92.6841 1187.54 91.3921C1187.91 90.3693 1189.2 89.7233 1190.17 90.4231C1190.76 90.8538 1191.51 90.1539 1191.35 89.5079C1190.76 86.7085 1192.37 83.4247 1195.22 82.6171C1197.96 81.8635 1201.08 83.8553 1201.51 86.6547C1201.61 87.4084 1202.63 87.3546 1202.96 86.87C1204.08 85.3627 1206.29 84.7705 1208.01 85.578C1209.73 86.3855 1210.69 88.4312 1210.26 90.2616C1210.05 91.0691 1211.02 91.5536 1211.61 91.0691C1212.14 90.6384 1212.9 91.1768 1213.22 91.6613C1213.49 92.0381 1214.13 93.2225 1213.76 93.6532C1213.43 94.03 1212.41 94.03 1211.93 94.0838C1211.02 94.1915 1210.1 94.2992 1209.19 94.4068C1205.59 94.7837 1201.99 95.1067 1198.39 95.1605C1197.37 95.1605 1197.37 96.7755 1198.39 96.7755C1203.28 96.7217 1208.17 96.291 1212.95 95.5912C1213.76 95.4835 1214.62 95.2143 1215.1 94.4607C1215.64 93.5455 1215.31 92.4688 1214.94 91.5536C1214.19 89.7771 1212.14 88.5389 1210.42 89.9386C1210.85 90.2078 1211.34 90.4769 1211.77 90.7461C1212.36 88.1621 1211.07 85.255 1208.6 84.1245C1206.07 82.994 1203.12 83.9092 1201.56 86.0625C1202.04 86.1164 1202.53 86.1702 1203.01 86.2779C1202.47 82.5633 1198.28 80.0869 1194.74 81.1098C1191.03 82.1326 1188.99 86.3317 1189.74 89.9924C1190.12 89.6694 1190.55 89.4002 1190.92 89.0772C1189.52 88.0544 1187.54 88.5927 1186.52 89.8848C1185.28 91.3921 1185.6 93.5993 1186.52 95.2143C1187.59 97.0447 1189.36 97.9061 1191.46 97.8522C1193.82 97.7984 1196.24 97.3677 1198.55 96.7755C1199.63 96.4525 1199.2 94.8913 1198.17 95.1605Z" fill="#FFB42C"/>
<path d="M1204.46 140.274C1205.43 147.164 1206.4 154.055 1207.42 160.946C1208.38 167.783 1209.46 174.674 1210.1 181.564C1210.48 185.441 1210.69 189.317 1210.64 193.193C1210.64 194.216 1212.25 194.216 1212.25 193.193C1212.31 186.248 1211.55 179.303 1210.64 172.413C1209.73 165.468 1208.71 158.577 1207.68 151.633C1207.15 147.703 1206.56 143.773 1206.02 139.843C1205.86 138.82 1204.3 139.251 1204.46 140.274Z" fill="#FFB42C"/>
</g>
<g clip-path="url(#clip1_3413_1257)">
<path d="M1216.11 25.6126C1215.01 25.3487 1214.27 26.3308 1213.83 27.2161C1213.35 28.214 1213.02 29.435 1212.76 30.5157C1212.62 31.1102 1212.34 32.0343 1212.54 32.6216C1212.66 32.9591 1213.18 32.8807 1213.43 32.8062C1215.03 32.3074 1219.14 25.4786 1216.39 25.5319C1215.27 25.5586 1214.6 26.879 1214.14 27.7293C1213.41 29.0603 1212.3 31.0915 1212.54 32.6314C1212.59 32.9562 1213.22 32.9094 1213.43 32.816C1214.65 32.2367 1215.21 30.0315 1215.65 28.852C1215.93 28.1004 1216.73 26.3878 1215.52 26.053C1213.21 25.423 1212.25 31.0726 1211.92 32.2113C1211.79 32.6448 1212.94 32.6431 1213.04 32.2766C1213.57 30.5132 1213.97 28.5634 1214.98 26.9792C1215.48 26.187 1214.93 27.5193 1214.86 27.8009C1214.72 28.305 1214.52 28.7768 1214.32 29.2584C1214.09 29.8249 1213.84 30.3797 1213.59 30.9327C1213.43 31.2803 1213.17 32.1884 1212.82 32.3566C1213.11 32.4208 1213.41 32.477 1213.71 32.5412C1213.44 30.8447 1214.86 28.2695 1215.84 26.8739C1215.91 26.7847 1216.1 26.413 1216.23 26.3758C1216.4 26.3163 1216.22 26.4464 1216.22 26.6897C1216.19 27.2844 1215.96 27.9019 1215.71 28.4469C1215.19 29.6513 1214.19 31.9279 1212.83 32.3486C1213.12 32.4128 1213.43 32.469 1213.72 32.5332C1213.38 31.5655 1214.04 30.1002 1214.31 29.1957C1214.49 28.6282 1214.64 28.0356 1214.87 27.4887C1214.93 27.3565 1215.62 26.1731 1215.57 26.164C1215.99 26.2616 1216.85 25.7897 1216.11 25.6126Z" fill="white"/>
<path d="M1180.48 34.9674C1180.44 35.0424 1180.41 35.1273 1180.38 35.2042C1180.75 35.1711 1181.13 35.1479 1181.5 35.1148C1180.34 33.1728 1179.79 30.9471 1178.94 28.8672C1178.61 28.0739 1178.17 26.225 1177.1 26.1294C1176.96 26.1138 1176.33 26.1803 1176.39 26.4657C1177.1 29.86 1179 33.0891 1179.39 36.5255C1179.76 36.4728 1180.14 36.4102 1180.52 36.3574C1179.98 34.9161 1179.67 33.385 1179.11 31.94C1178.54 30.4306 1177.8 28.9923 1177.24 27.4767C1176.87 27.5608 1176.51 27.6368 1176.14 27.7209C1176.8 29.3584 1177.12 31.064 1177.62 32.753C1178.05 34.2254 1178.57 35.6434 1178.87 37.1531C1179.25 37.1003 1179.63 37.0377 1180 36.985C1178.96 34.4038 1177.68 31.9911 1176.53 29.4705C1176.38 29.1275 1175.25 29.2858 1175.43 29.7146C1176.33 31.9252 1177.63 33.9041 1178.46 36.1708C1178.57 36.4869 1179.66 36.3625 1179.58 36.0028C1179.24 34.4644 1178.95 32.9369 1178.55 31.4091C1178.43 30.9187 1177.66 28.8963 1178.15 28.5084C1177.82 28.5389 1177.48 28.5578 1177.15 28.5883C1178.62 29.9684 1180.04 33.0263 1179.9 35.0545C1180.28 35.0233 1180.68 34.9938 1181.06 34.9625C1180.66 32.7228 1180 30.5281 1179.61 28.3197C1179.23 28.3724 1178.85 28.435 1178.48 28.4878C1179.42 30.8469 1180.16 33.4032 1180.66 35.8963C1180.75 36.3088 1181.89 36.1738 1181.82 35.8043C1181.29 33.2565 1180.54 30.6671 1179.58 28.2534C1179.45 27.9454 1178.39 28.0537 1178.45 28.4215C1178.85 30.6299 1179.51 32.8265 1179.9 35.0644C1179.97 35.4733 1181.03 35.3748 1181.06 34.9724C1181.2 32.793 1179.67 29.674 1178.12 28.2284C1177.88 28.0006 1177.35 28.1263 1177.12 28.3082C1176.5 28.804 1177.07 30.2723 1177.22 30.8898C1177.64 32.635 1178.02 34.3729 1178.41 36.1224C1178.79 36.0697 1179.17 36.0071 1179.54 35.9544C1178.73 33.6895 1177.42 31.6989 1176.51 29.4981C1176.14 29.5822 1175.78 29.6583 1175.41 29.7423C1176.56 32.2629 1177.85 34.6757 1178.89 37.2568C1179.01 37.5648 1180.09 37.4583 1180.01 37.0888C1179.67 35.3483 1179.03 33.7144 1178.57 32.0129C1178.16 30.4932 1177.82 28.9763 1177.22 27.5142C1177.08 27.1731 1175.97 27.3234 1176.12 27.7584C1176.66 29.2821 1177.42 30.7123 1177.99 32.2217C1178.54 33.6747 1178.85 35.1861 1179.4 36.6391C1179.51 36.9551 1180.57 36.845 1180.53 36.4711C1180.14 33.0346 1178.24 29.7957 1177.53 26.4113C1177.3 26.5207 1177.06 26.64 1176.82 26.7476C1176.93 26.7577 1178.02 29.6225 1178.18 30.0594C1178.87 31.8554 1179.38 33.717 1180.37 35.3848C1180.54 35.6804 1181.36 35.6073 1181.48 35.2954C1181.52 35.2204 1181.55 35.1355 1181.58 35.0586C1181.77 34.636 1180.63 34.5984 1180.48 34.9674Z" fill="white"/>
<path d="M1154.1 49.2623C1155.13 49.6664 1156.12 50.1849 1157.16 50.5989C1158.16 51.0074 1159.69 51.1176 1160.57 51.7163C1160.79 51.8581 1161.36 51.7083 1160.86 52.318C1160.5 52.751 1158 51.6179 1157.49 51.3412C1156.58 50.8586 1155.28 50.2428 1154.63 49.4013C1154.32 49.516 1154 49.6404 1153.69 49.7568C1154.79 50.2031 1155.83 50.711 1156.9 51.2226C1157.86 51.6846 1159.17 51.8336 1160 52.5056C1160.1 52.3511 1160.21 52.2082 1160.31 52.0537C1158.38 52.4104 1155.59 50.3106 1154.13 49.2382C1153.84 49.378 1153.54 49.5159 1153.25 49.6654C1154.45 50.1808 1155.63 50.7338 1156.84 51.192C1157.39 51.3937 1157.93 51.6052 1158.47 51.797C1158.43 51.7799 1159.69 52.1435 1159.17 52.1395C1158.01 52.1295 1156.79 51.1516 1155.67 50.8743C1155.49 50.83 1154.64 50.9076 1154.85 51.2712C1155.15 51.7845 1155.67 51.9923 1156.18 52.2494C1157.42 52.8839 1158.64 53.4754 1159.94 53.9696C1160.01 53.7998 1160.09 53.6301 1160.16 53.4701C1159.97 53.5063 1159.34 53.249 1159.17 53.1967C1158.25 52.936 1157.4 52.5958 1156.52 52.2305C1155.44 51.778 1154.4 51.28 1153.26 50.999C1153.06 50.9529 1152.08 51.1267 1152.5 51.4596C1153.53 52.2796 1154.9 52.7042 1156.11 53.2018C1156.88 53.5176 1157.66 53.804 1158.47 54.0841C1158.79 54.1949 1159.7 54.3733 1159.98 54.6673C1160.25 54.9515 1161.34 54.7055 1161.08 54.4232C1160.48 53.7849 1159.35 53.6667 1158.57 53.3804C1156.93 52.7834 1154.87 52.1908 1153.49 51.0917C1153.23 51.2485 1152.98 51.3955 1152.73 51.5523C1154.55 52.0093 1156.19 53.0043 1157.97 53.5659C1158.78 53.8165 1159.66 54.2131 1160.51 54.0238C1160.76 53.9671 1161.14 53.6711 1160.73 53.5243C1159.77 53.166 1158.87 52.7559 1157.96 52.3029C1157.35 51.9964 1156.32 51.6844 1155.95 51.0584C1155.68 51.1901 1155.41 51.3236 1155.13 51.4553C1156.28 51.7497 1159.05 53.6535 1160.26 52.6761C1160.79 52.2445 1160.54 51.9148 1160.03 51.6166C1159.35 51.1757 1158.36 51.0043 1157.62 50.7252C1156.41 50.2572 1155.23 49.714 1154.03 49.1986C1153.8 49.0961 1152.71 49.3009 1153.15 49.6258C1155.16 51.0841 1158.04 53.0804 1160.65 52.5957C1160.84 52.5595 1161.23 52.3556 1160.96 52.1439C1160.19 51.5239 1159.12 51.3872 1158.21 51.0066C1156.95 50.4785 1155.73 49.8181 1154.46 49.2981C1154.31 49.2199 1153.24 49.2772 1153.53 49.6455C1154.57 51.0067 1156.89 52.1366 1158.5 52.6361C1159.9 53.0778 1161.6 53.1266 1162.78 52.1635C1162.83 52.1234 1162.88 51.9992 1162.82 51.9373C1162.12 51.1888 1160.89 51.1133 1159.94 50.8176C1158.19 50.2713 1156.59 49.4463 1154.88 48.7857C1154.54 48.6516 1153.49 49.0283 1154.1 49.2623Z" fill="white"/>
<path d="M1145.93 73.6049C1145.17 73.4653 1145.16 73.4518 1144.38 73.4419C1144.27 73.4416 1143.44 73.5621 1143.7 73.8543C1144.42 74.6593 1145.32 75.0067 1146.3 75.4313C1148.25 76.2804 1150.24 77.0938 1152.13 78.1127C1152.46 78.2763 1152.79 78.4595 1153.1 78.6589C1153.34 78.9966 1153.26 79.0939 1152.86 78.9489C1152.28 79.2284 1150.46 78.5478 1149.79 78.3932C1147.8 77.9349 1145.33 77.521 1143.52 76.5166C1143.32 76.6727 1143.11 76.8367 1142.91 76.9927C1144.54 77.1819 1146.14 77.6795 1147.71 78.1225C1149.05 78.5023 1150.75 78.7435 1151.92 79.5593C1152.02 79.4049 1152.13 79.262 1152.23 79.1075C1150.96 79.3817 1148.94 77.7901 1147.87 77.2159C1146.67 76.5789 1145.24 75.9376 1144.19 75.0532C1143.9 75.1929 1143.6 75.3308 1143.31 75.4803C1146.14 76.6634 1149.17 77.3846 1152.1 78.2915C1152.33 78.1194 1152.54 77.9554 1152.77 77.7833C1149.71 77.1077 1147.3 75.2709 1144.44 74.2041C1144.24 74.1267 1143.28 74.1431 1143.5 74.5595C1144.06 75.6691 1145.51 76.1923 1146.58 76.7137C1148.64 77.7142 1151.24 78.4164 1153.03 79.8662C1153.32 80.0914 1154.41 79.8257 1154.01 79.4965C1152.72 78.4567 1150.98 77.8809 1149.49 77.2091C1148.02 76.5428 1145.37 75.861 1144.6 74.3154C1144.28 74.43 1143.97 74.5544 1143.66 74.6709C1146.59 75.7701 1149.1 77.6366 1152.23 78.3249C1152.51 78.3873 1153.5 77.9997 1152.89 77.8167C1149.98 76.9134 1146.91 76.1752 1144.1 75.0055C1143.87 74.9129 1142.78 75.0685 1143.21 75.4327C1144.7 76.6832 1146.73 77.494 1148.44 78.3997C1149.75 79.0881 1151.06 79.9705 1152.57 79.6495C1152.73 79.6177 1153.18 79.3952 1152.88 79.1977C1151.81 78.4509 1150.36 78.1728 1149.12 77.8227C1147.15 77.2777 1145.2 76.6522 1143.16 76.42C1143 76.3991 1142.13 76.6671 1142.55 76.8962C1144.74 78.1027 1147.54 78.5585 1149.95 79.1145C1151.3 79.4255 1153.4 80.0665 1154.7 79.2584C1154.78 79.2121 1154.92 79.0747 1154.83 78.9663C1153.92 77.9444 1152.5 77.4088 1151.28 76.8387C1149.36 75.9244 1146.26 75.2317 1144.8 73.62C1144.57 73.7607 1144.34 73.8917 1144.11 74.0324C1144.53 74.0692 1144.96 74.1177 1145.38 74.1545C1145.79 74.2306 1146.67 73.7408 1145.93 73.6049Z" fill="white"/>
<path d="M1237.94 37.71C1236.55 38.5 1235.47 40.3345 1234.54 41.6077C1233.63 42.8631 1232.43 44.1875 1232.14 45.7413C1232.11 45.879 1232.37 45.9458 1232.44 45.9701C1233.94 46.328 1235.27 44.6702 1236.21 43.7557C1237.68 42.3094 1239.98 39.723 1240.2 37.5778C1240.23 37.348 1239.72 37.3163 1239.6 37.3339C1238.13 37.5405 1236.95 39.5295 1236.12 40.5874C1235.32 41.6096 1232.98 43.9241 1233.06 45.3509C1233.07 45.6389 1233.65 45.6126 1233.81 45.5709C1235.33 45.2106 1236.38 43.7767 1237.21 42.548C1237.95 41.4738 1239.82 39.2664 1239.57 37.8777C1239.51 37.551 1238.89 37.5996 1238.68 37.693C1237.31 38.3158 1236.43 39.5668 1235.5 40.7067C1234.41 42.0412 1233.44 44.0799 1232.08 45.1302C1232.42 45.2035 1232.76 45.2768 1233.1 45.3384C1234.15 44.2909 1234.95 43.0765 1235.66 41.7732C1236.35 40.5075 1237.27 39.0813 1237.46 37.6409C1237.51 37.234 1236.52 37.4373 1236.37 37.5828C1235.33 38.5909 1234.51 39.9449 1233.68 41.1343C1233 42.1075 1231.99 43.08 1231.55 44.1674C1231.38 44.5937 1232.37 44.4825 1232.54 44.3702C1234.48 43.0404 1235.69 40.2134 1236.78 38.2277C1236.98 37.8678 1235.85 37.8319 1235.65 38.1624C1235.01 39.2332 1234.29 40.2798 1233.67 41.3659C1233.4 41.8446 1233.13 42.3037 1233.67 42.6467C1234.87 43.4072 1237.08 40.8161 1237.74 40.2041C1238.12 39.8472 1237.02 39.7677 1236.8 39.9299C1235.42 40.9256 1233.31 42.958 1232.88 44.6769C1232.77 45.0944 1233.55 45.0041 1233.75 44.9402C1235.09 44.5061 1235.81 43.2243 1236.9 42.388C1237.42 41.9957 1236.34 41.8178 1236.04 42.0479C1235.11 42.7602 1234.25 44.1266 1233.13 44.4906C1233.42 44.5745 1233.72 44.6602 1234.01 44.7539C1234.4 43.1986 1236.38 41.2052 1237.65 40.2897C1237.34 40.2022 1237.02 40.1031 1236.71 40.0156C1236.22 40.4643 1235.72 40.8897 1235.21 41.3249C1234.68 41.7762 1234.22 42.403 1234.79 41.4607C1235.43 40.3899 1236.13 39.3379 1236.77 38.2573C1236.4 38.2393 1236.02 38.2098 1235.65 38.1919C1235.09 39.1986 1234.62 40.2198 1233.97 41.1672C1233.37 42.0333 1232.57 43.4419 1231.68 44.0595C1232.01 44.131 1232.33 44.1908 1232.67 44.2623C1233.11 43.1847 1234.39 41.7943 1235.06 40.8603C1235.79 39.855 1236.49 38.693 1237.38 37.8303C1237.02 37.8142 1236.66 37.7883 1236.29 37.7722C1236.12 39.0732 1235.14 40.6003 1234.52 41.7472C1233.85 42.9951 1233.07 44.1542 1232.06 45.1678C1231.68 45.5541 1232.84 45.5757 1233.08 45.376C1235.47 43.5178 1236.37 39.5147 1239.28 38.1703C1238.99 38.1061 1238.68 38.0499 1238.39 37.9857C1238.55 38.9109 1237.39 40.4447 1236.91 41.1913C1236.14 42.4211 1234.99 44.6803 1233.43 45.0432C1233.68 45.1198 1233.93 45.1866 1234.18 45.2633C1234.12 44.0521 1236.06 42.1731 1236.7 41.3357C1237.25 40.6233 1237.82 39.9342 1238.41 39.2603C1238.64 38.9881 1239.31 37.9522 1239.62 37.9082C1239.42 37.8308 1239.23 37.7436 1239.02 37.6643C1238.87 39.0709 1237.55 40.6992 1236.72 41.7964C1235.98 42.7785 1234.64 44.5953 1233.45 45.0683C1233.04 45.4394 1233.08 45.3348 1233.56 44.743C1233.74 44.3991 1233.94 44.0606 1234.16 43.7436C1234.64 42.989 1235.18 42.2649 1235.72 41.5507C1236.53 40.4498 1237.54 38.7341 1238.76 38.0429C1239.35 37.7358 1238.26 37.5248 1237.94 37.71Z" fill="white"/>
</g>
<g filter="url(#filter0_f_3413_1257)">
<g filter="url(#filter1_f_3413_1257)">
<ellipse cx="142" cy="74.1616" rx="46" ry="50.677" fill="#AA8EE5"/>
</g>
<g filter="url(#filter2_f_3413_1257)">
<ellipse cx="113" cy="74.1616" rx="46" ry="50.677" fill="#2C88FF"/>
</g>
</g>
<g filter="url(#filter3_f_3413_1257)">
<g filter="url(#filter4_f_3413_1257)">
<ellipse cx="1215" cy="136.677" rx="46" ry="50.677" fill="#AA8EE5"/>
</g>
<g filter="url(#filter5_f_3413_1257)">
<ellipse cx="1186" cy="136.677" rx="46" ry="50.677" fill="#2C88FF"/>
</g>
</g>
</g>
<defs>
<filter id="filter0_f_3413_1257" x="-35" y="-78.5154" width="325" height="305.354" filterUnits="userSpaceOnUse" color-interpolation-filters="sRGB">
<feFlood flood-opacity="0" result="BackgroundImageFix"/>
<feBlend mode="normal" in="SourceGraphic" in2="BackgroundImageFix" result="shape"/>
<feGaussianBlur stdDeviation="51" result="effect1_foregroundBlur_3413_1257"/>
</filter>
<filter id="filter1_f_3413_1257" x="-104" y="-176.515" width="492" height="501.354" filterUnits="userSpaceOnUse" color-interpolation-filters="sRGB">
<feFlood flood-opacity="0" result="BackgroundImageFix"/>
<feBlend mode="normal" in="SourceGraphic" in2="BackgroundImageFix" result="shape"/>
<feGaussianBlur stdDeviation="100" result="effect1_foregroundBlur_3413_1257"/>
</filter>
<filter id="filter2_f_3413_1257" x="-133" y="-176.515" width="492" height="501.354" filterUnits="userSpaceOnUse" color-interpolation-filters="sRGB">
<feFlood flood-opacity="0" result="BackgroundImageFix"/>
<feBlend mode="normal" in="SourceGraphic" in2="BackgroundImageFix" result="shape"/>
<feGaussianBlur stdDeviation="100" result="effect1_foregroundBlur_3413_1257"/>
</filter>
<filter id="filter3_f_3413_1257" x="1038" y="-16" width="325" height="305.354" filterUnits="userSpaceOnUse" color-interpolation-filters="sRGB">
<feFlood flood-opacity="0" result="BackgroundImageFix"/>
<feBlend mode="normal" in="SourceGraphic" in2="BackgroundImageFix" result="shape"/>
<feGaussianBlur stdDeviation="51" result="effect1_foregroundBlur_3413_1257"/>
</filter>
<filter id="filter4_f_3413_1257" x="969" y="-114" width="492" height="501.354" filterUnits="userSpaceOnUse" color-interpolation-filters="sRGB">
<feFlood flood-opacity="0" result="BackgroundImageFix"/>
<feBlend mode="normal" in="SourceGraphic" in2="BackgroundImageFix" result="shape"/>
<feGaussianBlur stdDeviation="100" result="effect1_foregroundBlur_3413_1257"/>
</filter>
<filter id="filter5_f_3413_1257" x="940" y="-114" width="492" height="501.354" filterUnits="userSpaceOnUse" color-interpolation-filters="sRGB">
<feFlood flood-opacity="0" result="BackgroundImageFix"/>
<feBlend mode="normal" in="SourceGraphic" in2="BackgroundImageFix" result="shape"/>
<feGaussianBlur stdDeviation="100" result="effect1_foregroundBlur_3413_1257"/>
</filter>
<clipPath id="clip0_3413_1257">
<rect width="67" height="139" fill="white" transform="translate(1169 55)"/>
</clipPath>
<clipPath id="clip1_3413_1257">
<rect width="89.06" height="65.06" fill="white" transform="translate(1154 14) rotate(10.4444)"/>
</clipPath>
</defs>
</svg>
