<svg width="150" height="15" viewBox="0 0 150 15" fill="none" xmlns="http://www.w3.org/2000/svg">
<path d="M1.73027 14.1696C1.96095 14.4067 2.19163 14.5253 2.47998 14.6439C2.76833 14.8218 3.11435 14.9403 3.46037 14.9403C3.80639 14.9996 4.21008 14.9403 4.5561 14.8811C4.90212 14.8218 5.19047 14.6439 5.47883 14.5253C5.76718 14.4067 5.99786 14.2882 6.22854 14.1103C6.45922 13.9324 6.74757 13.7546 6.97825 13.5174C7.2666 13.2803 7.43961 12.9838 7.67029 12.6874C8.01631 12.1538 8.30466 11.5016 8.36233 10.8494C8.36233 10.553 8.36233 10.1973 8.36233 9.90082C8.30466 9.54509 8.24699 9.13007 8.13165 8.77434C7.90097 8.18145 7.61262 7.58856 7.20893 7.11426C7.03592 6.8771 6.86291 6.69924 6.63223 6.46208C6.28621 6.16564 5.99786 5.98777 5.59416 5.80991C5.30581 5.69133 5.01746 5.63204 4.72911 5.57275C4.67144 5.57275 4.61377 5.57275 4.5561 5.57275C4.26775 5.57275 4.03707 5.63204 3.80639 5.69133C3.28736 5.80991 2.76833 6.10635 2.30697 6.34351C1.73027 6.63995 1.32658 6.8771 0.922885 7.11426C0.692205 7.29212 0.461524 7.46999 0.230844 7.64785C0.115504 7.76643 0.0578335 7.88501 0.000163332 8.00358C-0.0575068 8.30003 0.000163328 8.53718 0.115504 8.71505C0.230844 8.89291 0.403854 9.07078 0.576865 9.13007C0.461524 9.36722 0.346184 9.66366 0.230844 9.90082C0.173174 10.0787 0.173174 10.2565 0.173174 10.4344C0.173174 10.6123 0.173174 10.7309 0.173174 10.9087C0.173174 11.2645 0.230844 11.5609 0.288514 11.9166C0.346184 12.2131 0.519194 12.5095 0.634535 12.7467C0.807545 13.0431 0.980555 13.2803 1.15357 13.5767C1.32658 13.7546 1.55726 13.9917 1.73027 14.1696ZM1.84561 10.4937C1.84561 10.3751 1.90328 10.2565 1.96095 10.138C2.07629 9.96011 2.13396 9.78224 2.30697 9.60438C2.42231 9.4858 2.53765 9.36722 2.65299 9.24864C2.99901 9.01149 3.28736 8.77434 3.63338 8.59647C3.9794 8.35932 4.15241 7.9443 3.9794 7.58856C4.09474 7.58856 4.21008 7.52928 4.26775 7.52928C4.32542 7.52928 4.38309 7.52928 4.44076 7.52928C4.5561 7.58856 4.67144 7.58856 4.84445 7.64785C5.01746 7.70714 5.19047 7.82572 5.36348 7.9443C5.5365 8.12216 5.70951 8.24074 5.82485 8.4186C6.05553 8.71505 6.22854 9.07078 6.40155 9.42651C6.51689 9.66366 6.57456 9.96011 6.57456 10.1973C6.57456 10.4344 6.57456 10.6716 6.57456 10.9087C6.51689 11.0273 6.51689 11.2052 6.45922 11.3237C6.34388 11.5609 6.22854 11.7388 6.1132 11.9759C5.94019 12.1538 5.76718 12.3316 5.59416 12.5095C5.30581 12.7467 4.95979 12.9245 4.61377 13.1024C4.38309 13.1617 4.15241 13.2803 3.92173 13.3396C3.80639 13.3396 3.69105 13.3396 3.57571 13.3396C3.46037 13.3396 3.34503 13.2803 3.17202 13.221C3.05668 13.1617 2.99901 13.1024 2.88367 13.0431C2.76833 12.9245 2.65299 12.806 2.53765 12.6874C2.30697 12.3909 2.07629 12.0352 1.90328 11.6795C1.84561 11.5016 1.78794 11.3237 1.78794 11.2052C1.78794 10.9087 1.78794 10.6716 1.84561 10.4937Z" fill="black"/>
<path d="M13.4946 11.2056C13.3215 11.4427 13.3215 11.7984 13.3792 12.0356C13.4369 12.332 13.6099 12.5692 13.8982 12.6878C14.1866 12.8656 14.4173 12.8656 14.7056 12.8064C16.5511 12.4506 18.3965 12.0949 20.242 11.7985C20.4726 11.7392 20.761 11.502 20.8763 11.3241C20.9917 11.087 21.0493 10.7905 20.9917 10.4941C20.934 10.1977 20.761 9.96051 20.5303 9.84193C20.4726 9.78264 20.3573 9.78264 20.2996 9.72335C20.1843 9.72335 20.1266 9.66406 20.0113 9.66406C19.8959 9.66406 19.8383 9.66406 19.7229 9.72335C17.8775 9.96051 16.032 10.3162 14.1866 10.672C13.8982 10.7905 13.6099 10.9684 13.4946 11.2056Z" fill="black"/>
<path d="M33.1604 6.1063C32.9298 6.16558 32.6991 6.28416 32.4684 6.40274C32.2377 6.52131 32.007 6.63989 31.834 6.81776C31.3727 7.1142 31.0266 7.52922 30.6806 7.94424C30.5076 8.12211 30.3923 8.35926 30.2769 8.53713C30.1616 8.71499 30.0463 8.95215 29.9886 9.1893C29.8156 9.66361 29.7579 10.2565 29.8156 10.7901C29.8732 11.3237 30.1039 11.7387 30.4499 12.1537C30.796 12.5687 31.142 12.9245 31.6033 13.1616C32.007 13.3988 32.5261 13.5767 32.9874 13.6952C33.5641 13.8138 34.1408 13.8138 34.7175 13.8138C35.8133 13.8138 36.9667 13.5767 38.0047 13.1023C38.1777 12.9838 38.4084 12.9245 38.5814 12.8059C38.8121 12.628 38.9851 12.4502 39.1581 12.2723C39.3311 12.0944 39.3888 11.8573 39.5041 11.6201C39.6195 11.3237 39.6195 11.0272 39.6195 10.7308C39.6195 10.1972 39.3311 9.66361 39.0428 9.1893C38.8698 8.95215 38.7544 8.71499 38.5814 8.47784C38.4084 8.24068 38.1777 8.06282 37.9471 7.82566C37.601 7.46993 37.255 7.1142 36.8513 6.81776C36.4476 6.46203 35.9863 6.16558 35.4672 5.98772C35.2366 5.92843 35.0059 5.86914 34.7752 5.86914C34.7175 5.86914 34.6599 5.86914 34.6022 5.86914C34.4292 5.86914 34.3138 5.92843 34.1408 5.92843C33.9678 5.98772 33.8525 6.04701 33.7371 6.1063C33.5065 6.04701 33.3334 6.04701 33.1604 6.1063ZM33.9678 7.82566C34.1408 7.70709 34.2562 7.58851 34.4292 7.52922C34.4869 7.52922 34.5445 7.46993 34.6022 7.46993C34.6022 7.46993 34.6022 7.46993 34.6599 7.46993C34.7175 7.46993 34.7752 7.46993 34.7752 7.52922C35.1212 7.70709 35.4096 7.88495 35.6979 8.06282C35.9863 8.29997 36.217 8.53713 36.4476 8.71499C36.736 8.95215 37.0243 9.24859 37.255 9.54503C37.428 9.78218 37.601 10.0786 37.774 10.3158C37.774 10.3751 37.8317 10.4344 37.8317 10.5529C37.8317 10.6122 37.8317 10.6715 37.8317 10.7901C37.8317 10.9087 37.774 11.0272 37.774 11.0865C37.774 11.1458 37.7164 11.1458 37.7164 11.2051L37.6587 11.2644C37.428 11.4423 37.1973 11.5608 36.9667 11.6794C36.39 11.9166 35.8133 12.0351 35.1789 12.1537C34.6022 12.213 34.0255 12.2723 33.4488 12.213C33.0451 12.1537 32.6991 12.0351 32.3531 11.9166C32.18 11.798 31.9494 11.7387 31.7764 11.6201C31.6033 11.5016 31.4303 11.3237 31.315 11.1458C31.1997 11.0272 31.142 10.9087 31.0843 10.7308C31.0266 10.6122 31.0266 10.5529 31.0266 10.4344C31.0266 10.2565 31.0266 10.0786 31.0266 9.90076C31.0843 9.66361 31.142 9.48574 31.1997 9.30788C31.315 9.13001 31.4303 8.89286 31.5457 8.71499C31.7764 8.41855 32.007 8.18139 32.2954 7.94424C32.3531 8.06282 32.4107 8.18139 32.4684 8.24068C32.7567 8.53713 33.2758 8.53713 33.6218 8.24068C33.7371 8.06282 33.8525 7.94424 33.9678 7.82566Z" fill="black"/>
<path d="M47.3477 10.7901C47.0594 10.8494 46.8287 11.0865 46.6557 11.3237C46.4827 11.6201 46.4827 11.9166 46.5403 12.213C46.598 12.5094 46.8287 12.7466 47.0594 12.9245C47.3477 13.1023 47.6361 13.1023 47.9244 13.043C49.9429 12.628 52.019 12.2723 54.0375 11.8573C55.8252 11.5015 57.613 11.0865 59.4008 10.8494C59.5738 10.7901 59.7468 10.6715 59.9198 10.5529C60.1505 10.3158 60.2658 10.0193 60.2658 9.72288C60.2658 9.42644 60.1505 9.12999 59.9198 8.89284C59.7468 8.71498 59.4585 8.53711 59.2278 8.53711H59.1701C57.3247 8.77426 55.4792 9.13 53.6338 9.54501C51.5 9.96003 49.4239 10.3751 47.3477 10.7901Z" fill="black"/>
<path d="M79.9306 8.00377C79.6999 7.64804 79.4116 7.3516 79.1232 6.99587C78.8349 6.64013 78.4889 6.34369 78.1428 6.10654C77.8545 5.86938 77.5085 5.69152 77.1624 5.51365C76.9318 5.39508 76.7011 5.33579 76.4704 5.21721C76.2397 5.15792 76.009 5.15792 75.7207 5.09863C75.3747 5.09863 74.971 5.09863 74.6249 5.21721C74.5673 5.21721 74.5673 5.15792 74.5096 5.15792C74.3943 5.09863 74.2213 5.09863 74.1059 5.09863H74.0482C73.8752 5.09863 73.6446 5.15792 73.4715 5.21721C73.2409 5.2765 73.0679 5.39508 72.8948 5.51365C72.4912 5.8101 72.1451 6.2844 71.7991 6.69942C71.5108 7.11444 71.2801 7.52946 71.0494 8.00377C70.8187 8.53737 70.6457 9.07096 70.588 9.66385C70.5304 10.1974 70.588 10.731 70.761 11.2054C70.8764 11.7389 71.1647 12.2725 71.4531 12.6876C71.6261 12.9247 71.7414 13.1026 71.9721 13.2805C72.1451 13.4583 72.3758 13.6362 72.5488 13.814C72.7218 13.9326 72.9525 14.0512 73.1255 14.1698C73.4139 14.2884 73.7022 14.4069 73.9906 14.4662C74.4519 14.5848 74.971 14.6441 75.49 14.7034C76.009 14.7627 76.5857 14.6441 77.1048 14.5255C77.6238 14.4069 78.0852 14.2291 78.4889 14.0512C78.9502 13.814 79.4116 13.5176 79.8153 13.1619C80.1613 12.8061 80.392 12.3318 80.565 11.8575C80.6226 11.6204 80.6803 11.3239 80.738 11.0868C80.7957 10.8496 80.7957 10.5532 80.738 10.316C80.6803 9.901 80.6226 9.48598 80.4496 9.13025C80.3343 8.71523 80.1613 8.30021 79.9306 8.00377ZM79.1809 11.0275C79.1232 11.2054 79.1232 11.4425 79.0079 11.6204C78.9502 11.7389 78.8925 11.7982 78.8349 11.9168C78.7195 12.0354 78.6042 12.154 78.4889 12.2725C78.2005 12.5097 77.9121 12.6876 77.5661 12.8061C77.1624 12.984 76.7011 13.1026 76.2974 13.1619C75.836 13.2212 75.3747 13.2212 74.9133 13.1619C74.5096 13.1026 74.1636 12.984 73.8176 12.8654C73.5869 12.7469 73.4139 12.6283 73.2409 12.5097C73.0102 12.3318 72.8372 12.0947 72.6642 11.9168C72.4911 11.6797 72.3181 11.3832 72.2028 11.1461C72.0875 10.8496 72.0298 10.5532 71.9721 10.2567C71.9721 10.0196 71.9721 9.84172 71.9721 9.60456C72.0298 9.18954 72.1451 8.77452 72.3181 8.3595C72.4911 7.94448 72.7218 7.58875 73.0102 7.17373C73.0679 7.11444 73.1255 6.99587 73.1832 6.93658C73.2409 6.99587 73.2985 7.05515 73.4139 7.11444C73.5869 7.23302 73.8752 7.29231 74.0482 7.17373C74.1059 7.17373 74.1636 7.11444 74.1636 7.11444C74.1636 7.3516 74.3366 7.58875 74.5673 7.64804C74.8556 7.70733 75.2016 7.52946 75.2593 7.23302C75.2593 7.11444 75.317 6.93658 75.317 6.818C75.49 6.818 75.7207 6.818 75.8937 6.818C76.0667 6.87729 76.182 6.87729 76.355 6.93658C76.7011 7.11444 77.0471 7.29231 77.3355 7.52946C77.7391 7.88519 78.1428 8.24092 78.4889 8.71523C78.7195 9.01168 78.8925 9.36741 79.0079 9.66385C79.0656 9.84172 79.1232 10.0789 79.1809 10.2567C79.1809 10.6125 79.1809 10.7903 79.1809 11.0275Z" fill="black"/>
<path d="M94.06 8.00391C92.9643 8.18177 91.8686 8.5375 90.7728 8.89323C89.6194 9.24897 88.466 9.66399 87.3126 10.079C86.9666 10.1976 86.6206 10.4347 86.4476 10.7905C86.2746 11.1462 86.2169 11.5612 86.2746 11.9762C86.3899 12.332 86.6206 12.6877 86.9666 12.8656C87.3126 13.0434 87.7163 13.162 88.12 13.0434C89.2157 12.6284 90.3691 12.2727 91.4649 11.8577C92.5606 11.4426 93.6563 11.0276 94.7521 10.7312C95.4441 10.494 95.8478 9.78256 95.6748 9.0711C95.5594 8.71537 95.3864 8.41893 95.0404 8.24106C94.8097 8.12248 94.6367 8.0632 94.406 8.0632C94.2907 8.00391 94.1754 8.00391 94.06 8.00391Z" fill="black"/>
<path d="M106.517 4.80206C105.998 5.21707 105.594 5.69138 105.306 6.28427C105.018 6.81787 104.845 7.41075 104.845 8.00364C104.845 8.30008 104.902 8.59652 104.902 8.89296C104.96 9.24869 105.075 9.54514 105.248 9.90087C105.364 10.1973 105.594 10.4345 105.767 10.6716C105.94 10.9088 106.171 11.1459 106.402 11.3238C106.632 11.5017 106.863 11.6795 107.152 11.8574C107.44 12.0353 107.786 12.1538 108.132 12.2724C109.401 12.7467 110.842 12.6874 112.169 12.5096C112.457 12.4503 112.746 12.391 113.092 12.3317C113.38 12.2724 113.668 12.1538 113.957 11.976C114.245 11.8574 114.533 11.6795 114.764 11.5017C115.052 11.2645 115.225 10.9088 115.398 10.553C115.629 10.0194 115.687 9.36727 115.629 8.77439C115.571 8.00364 115.341 7.35146 115.052 6.64C114.822 6.04711 114.476 5.51352 114.13 5.03921C113.899 4.74277 113.726 4.44632 113.495 4.20917C113.265 3.91273 113.034 3.61628 112.803 3.37913C112.63 3.20126 112.457 3.0234 112.227 2.84553C112.111 2.72696 111.996 2.66767 111.88 2.60838C111.765 2.4898 111.534 2.43051 111.419 2.37122C111.131 2.25265 110.9 2.25265 110.612 2.19336H110.554C110.323 2.19336 110.093 2.25265 109.92 2.31194C109.401 2.43051 109.112 3.0234 109.285 3.49771C109.285 3.557 109.343 3.67557 109.401 3.73486C108.997 3.73486 108.651 3.85344 108.305 3.91273C107.555 4.09059 106.979 4.38704 106.517 4.80206ZM109.112 5.21707C109.285 5.21707 109.401 5.21707 109.574 5.21707C109.804 5.27636 109.977 5.33565 110.208 5.39494C110.323 5.45423 110.381 5.51352 110.496 5.57281L110.554 5.63209C110.727 5.75067 110.842 5.86925 111.073 5.86925C111.246 5.86925 111.477 5.80996 111.592 5.63209C111.707 5.51352 111.765 5.39494 111.765 5.21707C111.996 5.45423 112.169 5.69138 112.342 5.98783C112.746 6.52142 113.092 7.11431 113.322 7.70719C113.495 8.12221 113.611 8.53723 113.668 8.95225C113.668 9.13012 113.668 9.30798 113.668 9.54514C113.611 9.723 113.611 9.84158 113.553 9.96016C113.495 10.0194 113.495 10.0787 113.438 10.138C113.265 10.2566 113.092 10.3752 112.919 10.4345C112.457 10.6123 111.938 10.7309 111.477 10.7902C110.785 10.8495 110.15 10.9088 109.458 10.7902C108.997 10.7309 108.536 10.6123 108.132 10.4345C107.901 10.3159 107.671 10.1973 107.44 10.0194C107.209 9.84158 107.036 9.66371 106.863 9.42656C106.748 9.30798 106.69 9.13012 106.632 9.01154C106.575 8.77439 106.517 8.53723 106.459 8.30008C106.459 8.12221 106.459 7.88506 106.459 7.70719C106.517 7.52933 106.517 7.35146 106.575 7.23288C106.69 6.99573 106.863 6.75858 106.979 6.52142C107.152 6.34356 107.325 6.1064 107.498 5.98783C107.728 5.80996 107.959 5.69138 108.19 5.57281C108.478 5.39494 108.766 5.27636 109.112 5.21707Z" fill="black"/>
<path d="M122.318 7.11426C121.569 7.29212 121.107 8.18145 121.338 8.9522C121.453 9.30793 121.684 9.66366 122.03 9.84153C122.376 10.0787 122.78 10.0787 123.126 10.0194C124.279 9.78224 125.433 9.4858 126.586 9.24864C127.739 9.01149 128.893 8.65576 130.104 8.47789C130.508 8.4186 130.969 8.35932 131.373 8.4186C131.43 8.4186 131.546 8.4186 131.603 8.47789C131.834 8.47789 132.065 8.4186 132.295 8.30003C132.584 8.12216 132.814 7.82572 132.93 7.46999C133.103 6.75853 132.699 5.98777 132.007 5.75062C131.546 5.63204 131.084 5.57275 130.681 5.57275C130.508 5.57275 130.392 5.57275 130.219 5.57275C129.47 5.57275 128.72 5.75062 127.97 5.92849C127.509 6.04706 126.99 6.10635 126.528 6.22493C125.029 6.52137 123.702 6.81781 122.318 7.11426Z" fill="black"/>
<path d="M139.966 5.45434C139.851 5.69149 139.851 5.98794 139.851 6.22509C139.851 6.40296 139.908 6.52153 139.908 6.6994C139.966 6.87726 140.024 6.99584 140.081 7.11442C140.197 7.35157 140.312 7.58873 140.485 7.82588C140.543 7.94446 140.6 8.00375 140.716 8.12232C140.831 8.30019 141.004 8.35948 141.177 8.53734C141.408 8.71521 141.638 8.7745 141.869 8.89307C142.157 9.01165 142.388 9.07094 142.676 9.13023C143.253 9.24881 143.887 9.30809 144.464 9.30809C145.041 9.30809 145.56 9.18952 146.137 9.07094C146.713 8.89307 147.29 8.65592 147.809 8.30019C148.328 7.94446 148.789 7.47015 149.193 6.93655C149.539 6.46224 149.77 5.92865 149.885 5.33576C150.058 4.68359 150.001 4.03141 149.885 3.37924C149.77 2.78636 149.539 2.19347 149.193 1.71916C148.847 1.18556 148.386 0.770545 147.867 0.53339C147.636 0.414813 147.348 0.296236 147.059 0.236948C146.713 0.118371 146.31 0.059082 145.964 0.059082C145.733 0.059082 145.56 0.118371 145.387 0.236948C145.099 0.414813 144.926 0.651967 144.868 0.94841C144.81 1.12628 144.81 1.36343 144.868 1.5413C143.945 1.89703 143.022 2.19347 142.215 2.78636C141.235 3.37924 140.427 4.32786 139.966 5.45434ZM143.138 4.74288C143.484 4.50572 143.83 4.26857 144.234 4.0907C144.753 3.85355 145.329 3.67568 145.848 3.43853C146.137 3.31995 146.367 3.20138 146.483 2.90493C146.54 2.78636 146.598 2.66778 146.598 2.5492C146.656 2.5492 146.713 2.60849 146.713 2.60849C146.771 2.66778 146.886 2.66778 146.944 2.72707C147.002 2.78636 147.059 2.84564 147.175 2.96422C147.29 3.14209 147.348 3.26066 147.463 3.43853C147.578 3.73497 147.636 3.97213 147.694 4.26857C147.694 4.38715 147.694 4.50572 147.694 4.68359C147.636 4.86145 147.578 5.03932 147.521 5.21719C147.463 5.39505 147.348 5.51363 147.29 5.69149C147.117 5.86936 146.944 6.04722 146.771 6.22509C146.54 6.34367 146.367 6.52153 146.137 6.58082C145.733 6.75869 145.329 6.81798 144.926 6.93655C144.522 6.99584 144.118 6.99584 143.657 6.93655C143.311 6.87726 142.965 6.81798 142.619 6.6994C142.503 6.64011 142.446 6.58082 142.33 6.52153C142.273 6.46224 142.215 6.40296 142.157 6.34367C142.1 6.28438 142.1 6.22509 142.042 6.1658C142.157 5.86936 142.33 5.63221 142.503 5.39505C142.676 5.1579 142.907 4.92074 143.138 4.74288Z" fill="black"/>
</svg>
