<svg width="59" height="76" viewBox="0 0 59 76" fill="none" xmlns="http://www.w3.org/2000/svg">
<path d="M9.0168 1.91751C4.7105 8.11256 4.52647 14.7501 4.45286 22.3096C4.37925 28.7996 5.99871 35.2159 7.32373 41.5585C8.61194 47.9379 7.21331 73.4556 1.10352 75.6681C16.194 75.2994 30.4011 75.4837 45.2339 75.2994C52.5951 75.1887 58.5945 69.1412 58.4472 61.803C58.4472 61.7661 58.4472 61.6924 58.4472 61.6555C58.3 56.7511 56.8646 52.031 55.7236 47.2741C52.227 32.5978 55.834 17.2208 58.1528 2.32314C44.645 0.147499 22.4878 -0.590007 9.0168 1.91751Z" fill="white"/>
<path d="M8.53875 1.88045C6.66165 4.57235 5.44705 7.59613 4.78454 10.8043C4.12203 14.0493 4.01162 17.3312 3.97481 20.65C3.938 22.4937 3.938 24.3375 4.08523 26.1813C4.23245 28.1357 4.49009 30.0532 4.82135 31.9707C5.1526 33.8882 5.55747 35.8057 5.96233 37.7233C6.29359 39.1983 6.66165 40.7102 6.88248 42.1852C7.14013 43.6602 7.17693 45.1721 7.21374 46.6839C7.25054 48.749 7.21374 50.814 7.10332 52.879C6.88248 57.4147 6.40401 61.9872 5.41024 66.4122C5.00538 68.256 4.49009 70.1366 3.71717 71.8698C3.20189 73.0129 2.50257 74.4142 1.472 75.1148C1.21436 75.2992 1.17756 75.2992 0.883108 75.4098C0.551854 75.5204 0.441436 75.9998 0.883108 75.9629C9.79016 75.7417 18.734 75.7417 27.6779 75.7048C32.0946 75.7048 36.5113 75.6679 40.928 75.6311C42.9155 75.6311 44.9399 75.7417 46.9274 75.4467C48.4732 75.2254 49.9823 74.7461 51.3809 74.0454C54.0678 72.681 56.3129 70.4685 57.6379 67.7398C58.3004 66.3385 58.7421 64.8635 58.9261 63.3516C59.147 61.4341 58.9261 59.4797 58.6317 57.599C57.9692 53.2109 56.5706 49.0071 55.7608 44.6558C54.9511 40.3783 54.7303 36.027 54.8407 31.6757C55.0983 22.8256 56.7546 14.0862 58.1532 5.38361C58.3372 4.31423 58.4845 3.24484 58.6685 2.13858C58.7053 1.99108 58.5949 1.91733 58.4477 1.88045C52.2275 0.884822 45.8968 0.368567 39.603 0.073565C32.7939 -0.110812 25.948 -0.110812 19.1021 0.405443C15.7527 0.626695 12.4034 0.995448 9.09084 1.62233C8.90681 1.6592 8.50195 1.76983 8.50195 1.99108C8.46514 2.21233 8.79639 2.28608 8.98042 2.24921C15.0902 1.10607 21.3472 0.774196 27.5306 0.700445C34.3397 0.589819 41.1489 0.847946 47.9212 1.43795C51.2337 1.73295 54.5462 2.10171 57.8588 2.61796C57.7852 2.54421 57.7116 2.47046 57.6379 2.35983C56.3129 10.9518 54.583 19.5069 53.9941 28.1725C53.6997 32.3763 53.6997 36.617 54.1414 40.8208C54.3622 42.9595 54.7303 45.0983 55.2087 47.2002C55.6872 49.2652 56.2393 51.3302 56.7178 53.3953C57.1963 55.534 57.6379 57.6728 57.822 59.8116C57.9692 61.5447 58.006 63.3147 57.6011 65.011C56.9386 67.9241 55.2087 70.5791 52.8164 72.386C51.6386 73.271 50.3135 73.9717 48.8781 74.3773C47.2218 74.8567 45.5656 74.8936 43.8725 74.9304C39.4926 74.9673 35.1495 75.0042 30.7696 75.0042C22.0465 75.0411 13.3235 75.0411 4.63732 75.1886C3.53314 75.2254 2.42896 75.2254 1.36159 75.2623C1.36159 75.4467 1.36159 75.6311 1.36159 75.8154C2.57618 75.3729 3.45953 74.2667 4.08523 73.1604C4.96857 71.6485 5.52066 69.9523 5.99914 68.2929C7.21374 63.9416 7.76583 59.4059 8.09708 54.9071C8.39153 50.9984 8.53875 46.979 8.17069 43.0702C7.91305 40.4889 7.21374 37.9445 6.69845 35.4001C5.92553 31.5651 5.22621 27.6563 5.1158 23.7475C5.04218 21.9037 5.1158 20.06 5.1526 18.2531C5.18941 16.5937 5.29983 14.9712 5.48386 13.3118C5.85192 10.0668 6.69845 6.8955 8.2443 4.01922C8.64917 3.28172 9.09084 2.54421 9.60613 1.84358C9.75335 1.62233 9.49571 1.5117 9.31168 1.5117C8.98042 1.58545 8.68598 1.69608 8.53875 1.88045Z" fill="#222221"/>
<path d="M11.0049 23.231C11.0049 23.231 11.1521 23.3048 11.4097 23.3416C11.557 23.3785 11.7042 23.3785 11.8882 23.3785C12.0723 23.3785 12.2931 23.3048 12.5507 23.2679C12.8084 23.231 13.066 23.231 13.3605 23.231C13.6549 23.231 13.9862 23.231 14.3174 23.231C14.5015 23.231 14.6487 23.231 14.8327 23.231C15.0167 23.231 15.2008 23.231 15.3848 23.2679C15.5688 23.3048 15.7897 23.3785 15.9737 23.3416C16.1577 23.1941 16.3786 23.231 16.5994 23.231C16.8202 23.231 17.0411 23.231 17.2619 23.3048C17.4827 23.3416 17.7036 23.3048 17.9244 23.3048C18.3661 23.2679 18.8446 23.2679 19.323 23.2679C20.28 23.2679 21.3106 23.2679 22.3779 23.2679C23.4453 23.2679 24.5127 23.2679 25.6169 23.2679C26.721 23.2679 27.862 23.2679 28.9662 23.3048C29.5183 23.3048 30.1072 23.3048 30.6593 23.3048C30.8065 23.3048 30.9537 23.3048 31.0641 23.3048C31.2114 23.3048 31.3586 23.3416 31.469 23.3785C31.7635 23.4523 32.0211 23.4523 32.3155 23.4523C33.4197 23.3785 34.5239 23.1573 35.5545 23.4154C36.0698 23.3785 36.585 23.3048 37.1003 23.1941C37.358 23.1573 37.6156 23.1204 37.8364 23.1204C37.9469 23.1204 38.0941 23.0835 38.2045 23.1204C38.3149 23.1204 38.4621 23.1573 38.5726 23.1941C38.683 23.231 38.8302 23.2679 38.9406 23.3048C39.051 23.3416 39.1615 23.3416 39.3087 23.3416C39.5295 23.3416 39.7872 23.3785 40.008 23.3785C40.4497 23.3785 40.8913 23.3785 41.333 23.3416C41.7379 23.3416 42.1427 23.0835 42.5476 23.1941C42.9157 23.4891 43.2837 23.4154 43.6518 23.4154C43.983 23.3785 44.3143 23.3416 44.6087 23.3785C44.9032 23.3785 45.1608 23.3785 45.4185 23.3785C46.4122 23.3785 46.9643 23.3785 46.9643 23.3785V23.5998C46.9643 23.5998 46.4122 23.5998 45.4185 23.5998C45.1608 23.5998 44.9032 23.5998 44.6087 23.5998C44.3143 23.6366 43.983 23.5629 43.6518 23.5629C43.3205 23.5629 42.9525 23.4891 42.5476 23.7841C42.1796 23.8948 41.7747 23.6366 41.333 23.6366C40.9281 23.5998 40.4865 23.5998 40.008 23.5998C39.7872 23.5998 39.5663 23.5998 39.3087 23.6366C39.1983 23.6366 39.0878 23.6366 38.9406 23.6735C38.8302 23.7104 38.7198 23.7473 38.5726 23.7841C38.4621 23.821 38.3149 23.8579 38.2045 23.8579C38.0941 23.8579 37.9469 23.8579 37.8364 23.8579C37.5788 23.8579 37.3212 23.821 37.1003 23.7841C36.585 23.7104 36.0698 23.5998 35.5545 23.5629C34.4871 23.821 33.4197 23.5998 32.3155 23.526C32.0211 23.526 31.7635 23.526 31.469 23.5998C31.3218 23.6366 31.1746 23.6735 31.0641 23.6735C30.9169 23.6735 30.7697 23.6735 30.6593 23.6735C30.1072 23.6735 29.5551 23.6735 28.9662 23.6735C27.8252 23.6735 26.721 23.6735 25.6169 23.7104C24.5127 23.7104 23.4085 23.7104 22.3779 23.7104C21.3106 23.7104 20.3168 23.7104 19.323 23.7104C18.8446 23.7104 18.3661 23.7104 17.9244 23.6735C17.7036 23.6735 17.4827 23.6366 17.2619 23.6735C17.0411 23.7473 16.8202 23.7473 16.5994 23.7473C16.3786 23.7473 16.1945 23.7841 15.9737 23.6366C15.7897 23.5998 15.5688 23.6735 15.3848 23.7104C15.2008 23.7473 15.0167 23.7473 14.8327 23.7473C14.6487 23.7473 14.4646 23.7473 14.3174 23.7473C13.9862 23.7473 13.6549 23.7473 13.3605 23.7473C13.066 23.7473 12.8084 23.7473 12.5507 23.7104C12.2931 23.6735 12.0723 23.5998 11.8882 23.5998C11.7042 23.5998 11.5202 23.5998 11.4097 23.6366C11.1521 23.6735 11.0049 23.7473 11.0049 23.7473V23.231Z" fill="#222221"/>
<path d="M11.7041 31.1226C11.7041 31.1226 11.8513 31.1964 12.109 31.2332C12.2562 31.2701 12.4034 31.2701 12.5874 31.2701C12.7715 31.2701 12.9923 31.1964 13.2131 31.1595C13.4708 31.1226 13.7284 31.1226 14.0229 31.1226C14.3173 31.1226 14.6118 31.1226 14.9798 31.1226C15.1639 31.1226 15.3111 31.1226 15.4951 31.1226C15.6791 31.1226 15.8632 31.1226 16.0472 31.1595C16.2312 31.1964 16.4153 31.2701 16.6361 31.2332C16.8201 31.0857 17.041 31.1226 17.225 31.1226C17.4458 31.1226 17.6299 31.1226 17.8507 31.1964C18.0715 31.2332 18.2924 31.1964 18.5132 31.1964C18.9549 31.1595 19.4334 31.1595 19.875 31.1595C20.832 31.1595 21.8257 31.1595 22.8563 31.1595C23.8869 31.1595 24.9543 31.1595 26.0216 31.1595C27.089 31.1595 28.1932 31.1595 29.2974 31.1964C29.8495 31.1964 30.4015 31.1964 30.9536 31.1964C31.1009 31.1964 31.2113 31.1964 31.3585 31.1964C31.5057 31.1964 31.6161 31.2332 31.7634 31.2701C32.021 31.3439 32.3155 31.3439 32.5731 31.3439C33.6405 31.2701 34.7078 31.0489 35.7384 31.307C36.2537 31.2701 36.769 31.1964 37.2475 31.0857C37.5051 31.0489 37.7259 31.012 37.9836 31.012C38.094 31.012 38.2412 30.9751 38.3516 31.012C38.462 31.012 38.5725 31.0489 38.7197 31.0857C38.8301 31.1226 38.9405 31.1595 39.0878 31.1964C39.1982 31.2332 39.3086 31.2332 39.419 31.2332C39.6398 31.2332 39.8607 31.2701 40.0815 31.2701C40.5232 31.2701 40.9649 31.2701 41.3697 31.2332C41.7746 31.2332 42.1795 30.9751 42.5475 31.0857C42.9156 31.3807 43.2836 31.307 43.6149 31.307C43.9461 31.2701 44.2774 31.2332 44.5718 31.2701C44.8663 31.2701 45.1239 31.2701 45.3816 31.2701C46.3385 31.2701 46.8906 31.2701 46.8906 31.2701V31.5651C46.8906 31.5651 46.3385 31.5651 45.3816 31.5651C45.1239 31.5651 44.8663 31.5651 44.5718 31.5651C44.2774 31.602 43.9829 31.5282 43.6149 31.5282C43.2836 31.5282 42.9156 31.4545 42.5475 31.7495C42.1795 31.8601 41.7746 31.602 41.3697 31.602C40.9649 31.5651 40.5232 31.5651 40.0815 31.5651C39.8607 31.5651 39.6398 31.5651 39.419 31.602C39.3086 31.602 39.1982 31.602 39.0878 31.6389C38.9773 31.6757 38.8669 31.7126 38.7197 31.7495C38.6093 31.7864 38.4989 31.8232 38.3516 31.8232C38.2412 31.8232 38.094 31.8232 37.9836 31.8232C37.7259 31.8232 37.5051 31.7864 37.2475 31.7495C36.769 31.6757 36.2537 31.5651 35.7384 31.5282C34.7078 31.7864 33.6405 31.5651 32.5731 31.4914C32.3155 31.4914 32.021 31.4914 31.7634 31.5651C31.6161 31.602 31.5057 31.6389 31.3585 31.6389C31.2113 31.6389 31.1009 31.6389 30.9536 31.6389C30.4015 31.6389 29.8495 31.6389 29.2974 31.6389C28.1932 31.6389 27.089 31.6389 26.0216 31.6757C24.9543 31.6757 23.8869 31.6757 22.8563 31.6757C21.8257 31.6757 20.832 31.6757 19.875 31.6757C19.3966 31.6757 18.9549 31.6757 18.5132 31.6389C18.2924 31.6389 18.0715 31.602 17.8507 31.6389C17.6299 31.7126 17.409 31.7126 17.225 31.7126C17.0042 31.7126 16.8201 31.7495 16.6361 31.602C16.4521 31.5651 16.2312 31.6389 16.0472 31.6757C15.8632 31.7126 15.6791 31.7126 15.4951 31.7126C15.3111 31.7126 15.1271 31.7126 14.9798 31.7126C14.6486 31.7126 14.3173 31.7126 14.0229 31.7126C13.7284 31.7126 13.4708 31.7126 13.2131 31.6757C12.9555 31.6389 12.7715 31.5651 12.5874 31.5651C12.4034 31.5651 12.2562 31.5651 12.109 31.602C11.8513 31.6389 11.7041 31.7126 11.7041 31.7126V31.1226Z" fill="#222221"/>
<path d="M12.4404 39.7515C12.4404 39.7515 12.5877 39.8253 12.8453 39.8622C12.9925 39.899 13.1397 39.899 13.3238 39.899C13.5078 39.899 13.7286 39.8253 13.9495 39.7884C14.2071 39.7515 14.4648 39.7515 14.7592 39.7515C15.0537 39.7515 15.3481 39.7515 15.7162 39.7515C15.9002 39.7515 16.0474 39.7515 16.2314 39.7515C16.4155 39.7515 16.5995 39.7515 16.7835 39.7884C16.9676 39.8253 17.1516 39.899 17.3724 39.8622C17.5565 39.7147 17.7773 39.7515 17.9613 39.7515C18.1822 39.7515 18.3662 39.7515 18.587 39.8253C18.8079 39.8622 19.0287 39.8253 19.2495 39.8253C19.6912 39.7884 20.1697 39.7884 20.6114 39.7884C21.5683 39.7884 22.5621 39.7884 23.5926 39.7884C24.6232 39.7884 25.6906 39.7884 26.758 39.7884C27.8253 39.7884 28.9295 39.7884 30.0337 39.8253C30.5858 39.8253 31.1379 39.8253 31.69 39.8253C31.8372 39.8253 31.9476 39.8253 32.0948 39.8253C32.242 39.8253 32.3525 39.8622 32.4997 39.899C32.7573 39.9728 33.0518 39.9728 33.3094 39.9728C34.3768 39.899 35.4442 39.6778 36.4747 39.9359C36.99 39.899 37.5053 39.8253 37.9838 39.7147C38.2414 39.6778 38.4623 39.6409 38.7199 39.6409C38.8303 39.6409 38.9775 39.604 39.088 39.6409C39.1984 39.6409 39.3088 39.6778 39.456 39.7147C39.5664 39.7515 39.6769 39.7884 39.8241 39.8253C39.9345 39.8622 40.0449 39.8622 40.1553 39.8622C40.3762 39.8622 40.597 39.899 40.8178 39.899C41.2595 39.899 41.7012 39.899 42.1061 39.8622C42.5109 39.8622 42.9158 39.604 43.2838 39.7147C43.6519 40.0097 44.02 39.9359 44.3512 39.9359C44.6825 39.899 45.0137 39.8622 45.3082 39.899C45.6026 39.899 45.8603 39.899 46.1179 39.899C47.0749 39.899 47.6269 39.899 47.6269 39.899V40.194C47.6269 40.194 47.0749 40.194 46.1179 40.194C45.8603 40.194 45.6026 40.194 45.3082 40.194C45.0137 40.2309 44.7193 40.1572 44.3512 40.1572C44.02 40.1572 43.6519 40.0834 43.2838 40.3784C42.9158 40.489 42.5109 40.2309 42.1061 40.2309C41.7012 40.194 41.2595 40.194 40.8178 40.194C40.597 40.194 40.3762 40.194 40.1553 40.2309C40.0449 40.2309 39.9345 40.2309 39.8241 40.2678C39.7137 40.3047 39.6032 40.3415 39.456 40.3784C39.3456 40.4153 39.2352 40.4522 39.088 40.4522C38.9775 40.4522 38.8303 40.4522 38.7199 40.4522C38.4623 40.4522 38.2414 40.4153 37.9838 40.3784C37.5053 40.3047 36.99 40.194 36.4747 40.1572C35.4442 40.4153 34.3768 40.194 33.3094 40.1203C33.0518 40.1203 32.7573 40.1203 32.4997 40.194C32.3525 40.2309 32.242 40.2678 32.0948 40.2678C31.9476 40.2678 31.8372 40.2678 31.69 40.2678C31.1379 40.2678 30.5858 40.2678 30.0337 40.2678C28.9295 40.2678 27.8253 40.2678 26.758 40.3047C25.6906 40.3047 24.6232 40.3047 23.5926 40.3047C22.5621 40.3047 21.5683 40.3047 20.6114 40.3047C20.1329 40.3047 19.6912 40.3047 19.2495 40.2678C19.0287 40.2678 18.8079 40.2309 18.587 40.2678C18.3662 40.3415 18.1454 40.3415 17.9613 40.3415C17.7405 40.3415 17.5565 40.3784 17.3724 40.2309C17.1884 40.194 16.9676 40.2678 16.7835 40.3047C16.5995 40.3415 16.4155 40.3415 16.2314 40.3415C16.0474 40.3415 15.8634 40.3415 15.7162 40.3415C15.3849 40.3415 15.0537 40.3415 14.7592 40.3415C14.4648 40.3415 14.2071 40.3415 13.9495 40.3047C13.6918 40.2678 13.5078 40.194 13.3238 40.194C13.1397 40.194 12.9925 40.194 12.8453 40.2309C12.5877 40.2678 12.4404 40.3415 12.4404 40.3415V39.7515Z" fill="#222221"/>
<path d="M38.9769 75.1146C42.8047 73.4921 45.97 70.542 47.8472 66.8176C47.5895 66.9283 47.2951 67.002 47.0374 67.1126C50.4236 68.477 54.3618 68.2558 57.6007 66.5226C58.2264 66.1908 57.6744 65.6745 57.1591 65.9326C54.2146 67.4814 50.7548 67.6658 47.6631 66.412C47.4055 66.3014 46.9638 66.4489 46.8534 66.707C45.0867 70.2102 42.1422 72.9758 38.5352 74.5246C38.3512 74.5983 38.1304 74.8196 38.2776 75.0408C38.388 75.2621 38.7561 75.1883 38.9769 75.1146Z" fill="#222221"/>
</svg>
