<svg width="68" height="65" viewBox="0 0 68 65" fill="none" xmlns="http://www.w3.org/2000/svg">
<rect x="22.4141" width="44.8274" height="41.4653" rx="9" fill="#F2FAFF"/>
<path d="M14.3438 54.4531V21.5469C14.3438 16.8869 18.1213 13.1094 22.7812 13.1094H16.4531C11.7932 13.1094 8.01562 16.8869 8.01562 21.5469V54.4531C8.01562 59.1131 11.7932 62.8906 16.4531 62.8906H22.7812C18.1213 62.8906 14.3438 59.1131 14.3438 54.4531Z" fill="#CEE1F2"/>
<path d="M37.5469 23.2344H35.4375V21.125C35.4375 19.96 34.4931 19.0156 33.3281 19.0156C32.1631 19.0156 31.2188 19.96 31.2188 21.125V25.3438C31.2188 26.5088 32.1631 27.4531 33.3281 27.4531H37.5469C38.7119 27.4531 39.6562 26.5088 39.6562 25.3438C39.6562 24.1787 38.7119 23.2344 37.5469 23.2344Z" fill="black"/>
<path d="M37.5469 65C43.3625 65 48.0938 60.2687 48.0938 54.4531V21.5469C48.0938 15.7313 43.3625 11 37.5469 11H16.4531C10.6376 11 5.90625 15.7313 5.90625 21.5469V54.4531C5.90625 60.2687 10.6376 65 16.4531 65H37.5469ZM10.125 54.4531V21.5469C10.125 18.0575 12.9638 15.2188 16.4531 15.2188H37.5469C41.0362 15.2188 43.875 18.0575 43.875 21.5469V54.4531C43.875 57.9425 41.0362 60.7812 37.5469 60.7812H16.4531C12.9638 60.7812 10.125 57.9425 10.125 54.4531Z" fill="#2C88FF"/>
<path d="M24.8906 35.8906H37.5469C38.7119 35.8906 39.6562 34.9463 39.6562 33.7812C39.6562 32.6162 38.7119 31.6719 37.5469 31.6719H24.8906C23.7256 31.6719 22.7812 32.6162 22.7812 33.7812C22.7812 34.9463 23.7256 35.8906 24.8906 35.8906Z" fill="#2C88FF"/>
<path d="M24.8906 44.3281H37.5469C38.7119 44.3281 39.6562 43.3838 39.6562 42.2188C39.6562 41.0537 38.7119 40.1094 37.5469 40.1094H24.8906C23.7256 40.1094 22.7812 41.0537 22.7812 42.2188C22.7812 43.3838 23.7256 44.3281 24.8906 44.3281Z" fill="#2C88FF"/>
<path d="M24.8906 52.7656H37.5469C38.7119 52.7656 39.6562 51.8213 39.6562 50.6562C39.6562 49.4912 38.7119 48.5469 37.5469 48.5469H24.8906C23.7256 48.5469 22.7812 49.4912 22.7812 50.6562C22.7812 51.8213 23.7256 52.7656 24.8906 52.7656Z" fill="#2C88FF"/>
<path d="M16.4531 35.8906C17.6181 35.8906 18.5625 34.9462 18.5625 33.7812C18.5625 32.6163 17.6181 31.6719 16.4531 31.6719C15.2881 31.6719 14.3438 32.6163 14.3438 33.7812C14.3438 34.9462 15.2881 35.8906 16.4531 35.8906Z" fill="black"/>
<path d="M16.4531 44.3281C17.6181 44.3281 18.5625 43.3837 18.5625 42.2188C18.5625 41.0538 17.6181 40.1094 16.4531 40.1094C15.2881 40.1094 14.3438 41.0538 14.3438 42.2188C14.3438 43.3837 15.2881 44.3281 16.4531 44.3281Z" fill="black"/>
<path d="M16.4531 52.7656C17.6181 52.7656 18.5625 51.8212 18.5625 50.6562C18.5625 49.4913 17.6181 48.5469 16.4531 48.5469C15.2881 48.5469 14.3438 49.4913 14.3438 50.6562C14.3438 51.8212 15.2881 52.7656 16.4531 52.7656Z" fill="black"/>
</svg>
