<svg width="53" height="64" viewBox="0 0 53 64" fill="none" xmlns="http://www.w3.org/2000/svg">
<g clip-path="url(#clip0_3488_2578)">
<path d="M15.6908 44.6848C16.1752 46.251 16.7721 47.9714 18.2204 48.7901C19.6917 49.6167 21.7852 49.0649 22.6788 47.6127C23.5569 46.168 23.091 44.0817 21.6754 43.1715C19.8027 41.9886 17.6182 43.5879 15.6908 44.6848Z" fill="white"/>
<path d="M15.4865 44.8586C15.9634 46.4094 16.5661 48.2217 18.1153 49.0109C19.3822 49.6517 20.9313 49.3237 22.0288 48.4552C23.1501 47.5564 23.5886 46.1148 23.1692 44.7636C22.7645 43.4431 21.5737 42.4817 20.1523 42.5968C19.3798 42.6652 18.6566 42.956 17.963 43.3084C17.2071 43.6907 16.4882 44.1499 15.7626 44.5555C15.6847 44.5929 15.5126 44.7135 15.5184 44.8054C15.5087 44.9048 15.6021 44.8599 15.657 44.8145C16.8121 44.1456 17.9704 43.3237 19.28 43.0161C19.8688 42.8846 20.5012 42.8836 21.0673 43.1038C21.6638 43.3473 22.1628 43.827 22.4832 44.3737C23.1082 45.4746 23.1374 47.0513 22.2458 48.029C21.3936 48.9689 19.8387 49.205 18.6999 48.711C17.0335 47.997 16.4102 46.0621 15.9184 44.4806C15.8725 44.4648 15.4355 44.7127 15.4865 44.8586Z" fill="#79B177"/>
<path d="M39.1087 42.5362C37.5686 42.8031 35.911 42.7856 34.5849 42.0217C33.435 42.0632 32.3908 42.9628 31.6936 43.866C31.0201 44.739 30.2104 45.488 29.3399 46.1905C31.5602 49.2136 34.4305 51.7538 37.7086 53.5866C38.5324 49.9145 39.0863 46.2396 39.1087 42.5362Z" fill="white" stroke="#79B177" stroke-miterlimit="10"/>
<path d="M44.0563 41.5402C42.4497 41.6687 40.8885 42.2109 39.3016 42.5002C39.2475 42.5073 39.1778 42.5219 39.1237 42.529C39.1013 46.2324 38.5318 49.9148 37.7162 53.564C34.438 51.7312 31.5677 49.191 29.3474 46.1679C27.2852 47.8221 24.9356 49.1977 23.4717 51.3784C22.1438 53.3234 22.4816 55.263 23.0059 57.5106C23.5023 59.6202 25.7374 60.7993 27.7955 60.094C36.0911 57.2047 43.0807 54.072 49.5505 49.2198C51.4694 47.7861 51.5434 44.9479 49.7156 43.4594C48.0314 42.1101 46.3888 41.3659 44.0563 41.5402Z" fill="#79B177"/>
<path d="M29.1807 40.0364C29.1807 40.0364 30.1851 43.6818 30.9019 45.5718C33.1602 46.0012 35.2379 45.0971 36.5798 43.2212C35.2735 41.501 34.3527 39.7848 33.0307 38.0721C31.9515 39.1779 30.7261 40.2593 29.1807 40.0364Z" fill="white"/>
<path d="M28.9778 40.1722C29.3011 41.3234 29.64 42.4672 30.0018 43.6188C30.1243 44.0333 30.2551 44.425 30.3932 44.832C30.459 45.0087 30.5091 45.1929 30.5749 45.3696C30.6119 45.4465 30.6259 45.5155 30.6629 45.5924C30.6776 45.6232 30.6916 45.6922 30.7064 45.723C30.7442 45.7616 30.8984 45.7632 30.9443 45.779C31.9746 45.9276 33.0334 45.8164 33.9902 45.4132C35.1258 44.9431 36.0528 44.1188 36.7672 43.1315C36.7754 43.1086 36.8073 43.0554 36.7843 43.0475C35.5232 41.3813 34.4964 39.5646 33.2353 37.8984C33.1827 37.829 32.9549 38.0332 32.9237 38.0481C31.9624 39.0405 30.8388 40.054 29.3467 39.8623C29.2466 39.8536 29.1286 39.9671 29.0655 40.0353C29.0417 40.0657 28.9073 40.225 28.9844 40.2258C30.6611 40.4424 32.0438 39.2097 33.1157 38.0884C33.0066 38.1408 32.9132 38.1858 32.8041 38.2382C34.0653 39.9044 35.092 41.7211 36.3532 43.3873C36.3614 43.3644 36.3622 43.3262 36.3704 43.3033C35.7674 44.1234 34.9904 44.781 34.0343 45.1458C33.5833 45.3248 33.0954 45.4267 32.6009 45.4751C32.3458 45.503 32.0989 45.5081 31.8603 45.4902C31.7446 45.489 31.6216 45.4724 31.4985 45.4558C31.3984 45.4471 31.1286 45.4443 31.0687 45.3595C30.9783 45.2514 30.9519 45.0368 30.9083 44.9063C30.8426 44.7296 30.785 44.53 30.7193 44.3533C30.5885 43.9617 30.4578 43.5701 30.3426 43.1709C30.1181 42.4646 29.9018 41.7353 29.6929 41.0214C29.5852 40.6377 29.4848 40.2693 29.377 39.8856C29.3564 39.7629 28.9417 40.057 28.9778 40.1722Z" fill="#79B177"/>
<path d="M34.0559 31.0278C33.626 33.9235 31.5519 36.1514 28.9778 36.8206C26.4194 37.4824 23.4676 36.6478 21.1073 34.8093C15.0126 30.0696 20.7025 25.2704 24.2953 22.6911C28.8193 19.456 34.9386 25.2444 34.0559 31.0278Z" fill="#79B177"/>
<path d="M31.5813 25.3622C32.9518 27.3356 34.3371 29.3398 35.1772 31.6061C36.0099 33.857 36.2187 36.4456 35.2551 38.6699C34.2916 40.8942 31.9505 42.6066 29.5258 42.3898C27.1783 42.1737 25.3428 40.3102 24.01 38.3754C22.1985 35.724 20.9108 32.726 20.2201 29.5737C24.2341 30.5036 28.4371 28.9945 30.8959 25.6917C30.8465 25.4692 31.6077 25.5767 31.5813 25.3622Z" fill="white"/>
<path d="M31.3701 25.5205C32.9426 27.7945 34.5603 30.1225 35.2835 32.8237C35.8553 35.0106 35.8418 37.5357 34.5672 39.5119C33.3958 41.3437 31.2192 42.5605 29.0387 42.0937C26.8812 41.6348 25.2837 39.8273 24.1167 38.0779C22.5606 35.7582 21.4028 33.1902 20.6796 30.4889C20.5941 30.1513 20.5011 29.7984 20.4311 29.4533C20.3131 29.5668 20.2106 29.6729 20.0926 29.7864C23.7768 30.6287 27.7111 29.4381 30.29 26.6646C30.4637 26.4675 30.6375 26.2703 30.8112 26.0732C30.898 25.9746 30.9849 25.8761 31.0488 25.7696C31.0652 25.7239 31.1283 25.6557 31.1061 25.6095C30.9569 25.738 30.925 25.7913 30.9873 25.7613C31.0029 25.7538 31.0029 25.7538 31.0184 25.7463C31.157 25.7555 31.3588 25.6964 31.4834 25.6365C31.6466 25.577 31.8039 25.4256 31.7767 25.2493C31.7593 24.9736 31.3075 25.1908 31.3183 25.4128C31.4831 25.2768 31.4995 25.2311 31.4216 25.2685C31.406 25.276 31.3904 25.2835 31.3674 25.2756C31.3289 25.2752 31.2822 25.2976 31.2436 25.2972C31.1583 25.3193 31.0657 25.326 30.9804 25.348C30.8172 25.4075 30.6213 25.5585 30.6329 25.7423C30.6493 25.6965 30.6739 25.6279 30.6902 25.5822C28.8583 28.0346 25.9667 29.5192 22.9033 29.6094C22.0314 29.6308 21.1464 29.545 20.3022 29.3448C20.1333 29.3124 19.9284 29.5245 19.9638 29.6779C20.5837 32.5234 21.7072 35.2595 23.2602 37.7322C24.4625 39.635 26.0176 41.6333 28.2548 42.3379C30.4995 43.058 32.8485 42.0803 34.3497 40.336C35.9533 38.4858 36.3138 35.9643 35.9378 33.6264C35.4787 30.8362 33.9716 28.3792 32.3843 26.0745C32.1749 25.7585 31.9499 25.4501 31.7405 25.1341C31.6354 24.9953 31.2428 25.3355 31.3701 25.5205Z" fill="#79B177"/>
<path d="M24.0333 33.1567C24.1788 33.5791 24.371 33.9791 24.61 34.3566C24.7217 34.549 24.8646 34.7266 25.0238 34.8583C25.206 34.998 25.4201 35.0844 25.6448 35.0332C26.0393 34.9762 26.2949 34.5503 26.3027 34.1678C26.3106 33.7853 26.1487 33.4086 25.9787 33.0548C25.8234 32.7318 25.6607 32.3933 25.3645 32.176C24.6283 31.6019 23.7496 32.3273 24.0333 33.1567Z" fill="#79B177"/>
<path d="M30.1123 30.4048C30.2259 30.8804 30.4321 31.3494 30.6933 31.773C30.8428 32.0042 31.0234 32.2203 31.2515 32.3758C31.4879 32.5084 31.8029 32.5653 32.0447 32.4301C32.3489 32.2649 32.4798 31.899 32.4483 31.5543C32.4169 31.2096 32.2378 30.9169 32.0744 30.6168C31.8658 30.2626 31.6653 29.8855 31.3313 29.6295C30.5344 29.0089 29.8844 29.4918 30.1123 30.4048Z" fill="#79B177"/>
<path d="M32.7082 36.1636C32.7593 37.4268 31.8696 38.6877 30.6437 39.0497C29.4178 39.4118 27.9796 38.8533 27.3545 37.7524C29.1797 37.1212 30.8756 36.7794 32.7082 36.1636Z" fill="#79B177"/>
<path d="M33.9081 45.6423C33.524 46.3193 33.3295 47.1513 33.5917 47.8964C33.8466 48.626 34.6369 49.193 35.4037 49.0327C36.2868 48.8354 36.7649 47.7155 36.4198 46.8778C36.082 46.0555 35.1203 45.5709 34.2173 45.6073" fill="#79B177"/>
<path d="M36.6104 55.6111C35.4028 53.2185 34.7248 50.5713 34.6569 47.877C35.1554 47.6374 35.7983 47.4987 36.2968 47.2591C38.0798 49.0532 39.6839 50.9143 41.4898 52.7164C39.7362 53.6162 38.3485 54.7188 36.6104 55.6111Z" fill="#79B177"/>
<path d="M33.9912 45.3749C33.9404 46.3462 33.9051 47.3101 33.8542 48.2814C32.1678 48.1641 30.4663 47.6564 29.5154 46.2767L30.4389 45.2457C30.4389 45.2457 32.9455 46.3511 33.9511 45.451" fill="white"/>
<path d="M33.9912 45.3749C33.9404 46.3462 33.9051 47.3101 33.8542 48.2814C32.1678 48.1641 30.4663 47.6564 29.5154 46.2767L30.4389 45.2457C30.4389 45.2457 32.9455 46.3511 33.9511 45.451" stroke="#79B177" stroke-miterlimit="10"/>
<path d="M38.1052 42.5639C38.6028 44.2374 37.7414 45.996 36.2568 46.9369C35.5035 46.4468 34.7427 45.9414 33.9738 45.4589C33.9738 45.4589 36.6418 44.3468 36.6921 42.6562L38.1052 42.5639Z" fill="white" stroke="#79B177" stroke-miterlimit="10"/>
<path d="M19.7716 43.8787C18.9939 42.6997 18.2236 41.5361 17.4459 40.3571C17.2144 39.995 16.9524 39.6096 16.9151 39.1731C16.8779 38.7365 17.1194 38.2416 17.5606 38.1621C17.9788 38.0747 18.3654 38.4002 18.6675 38.7094C19.6633 39.7836 20.4542 41.0698 20.9811 42.4451" fill="white"/>
<path d="M19.9754 43.7048C19.527 43.0114 19.063 42.3254 18.6146 41.632C18.3904 41.2853 18.1433 40.9307 17.9191 40.584C17.7023 40.2526 17.4543 39.9363 17.2998 39.575C17.1675 39.2599 17.0909 38.8611 17.3055 38.5496C17.4964 38.2685 17.8492 38.3641 18.0847 38.5349C18.3588 38.7061 18.5846 38.9763 18.7874 39.2387C19.0509 39.5475 19.2989 39.8639 19.5157 40.1952C20.0322 40.9506 20.4552 41.7509 20.7692 42.6036C20.8646 42.8418 21.2868 42.5631 21.2062 42.3557C20.8692 41.4951 20.4544 40.6719 19.9304 39.9011C19.6759 39.5312 19.4057 39.1686 19.1044 38.8211C18.8557 38.543 18.5996 38.2495 18.2713 38.0854C17.569 37.7413 16.8485 38.277 16.7334 38.9951C16.6632 39.4076 16.8169 39.8071 17.0025 40.1534C17.2407 40.5692 17.5183 40.947 17.7647 41.3399C18.3781 42.257 18.9686 43.1662 19.582 44.0833C19.6945 44.2375 20.0945 43.9127 19.9754 43.7048Z" fill="#79B177"/>
<path d="M16.8428 43.0134C15.933 43.7537 14.8487 44.7294 15.4294 45.738C15.9945 46.754 17.4351 47.1977 18.4492 46.6345C19.1748 46.2289 19.6236 45.4072 19.7024 44.5739C19.8868 42.3644 18.7255 41.4645 16.8428 43.0134Z" fill="white"/>
<path d="M16.7828 42.9285C16.3672 43.2608 15.9509 43.6314 15.6108 44.041C15.3183 44.39 15.0702 44.8312 15.0681 45.3056C15.0808 45.8108 15.4339 46.266 15.8212 46.5532C16.2693 46.887 16.8133 47.061 17.3611 47.0439C18.557 47.0182 19.542 45.9955 19.8117 44.8811C19.9303 44.3697 19.9421 43.7959 19.8523 43.2899C19.7905 42.9219 19.6515 42.5532 19.3635 42.3129C18.5911 41.6237 17.418 42.4148 16.7828 42.9285C16.7435 42.9663 16.5943 43.0949 16.6469 43.1643C16.6994 43.2337 16.8642 43.0977 16.9109 43.0752C17.4207 42.6597 18.2487 42.1481 18.888 42.5604C19.4739 42.9415 19.5328 43.8222 19.512 44.4571C19.4759 45.4592 18.9757 46.5329 17.8546 46.6741C16.95 46.787 15.766 46.2389 15.5151 45.318C15.2568 44.3817 16.2675 43.6118 16.9027 43.0981C16.942 43.0603 17.0912 42.9317 17.0387 42.8623C16.9787 42.7775 16.8066 42.8981 16.7828 42.9285Z" fill="#79B177"/>
<path d="M20.7339 42.0524C20.049 41.9839 19.5254 42.6901 19.06 43.1979C18.7125 43.5921 18.3471 44.1086 18.5452 44.6004C18.7211 45.0461 19.2962 45.2052 19.7538 45.08C20.2113 44.9547 20.5957 44.6374 20.9572 44.3121C20.3644 44.6349 20.1878 48.3368 22.7217 46.6264C23.2619 46.2342 25.0116 42.5336 20.7339 42.0524Z" fill="white"/>
<path d="M20.8535 41.8621C20.176 41.8091 19.6564 42.324 19.2385 42.771C18.8517 43.2031 18.3796 43.6573 18.2825 44.2532C18.1854 44.849 18.6393 45.2747 19.2168 45.319C19.9403 45.3879 20.5443 44.8892 21.0549 44.4354C21.2279 44.2765 21.1793 44.0159 20.9063 44.166C20.3988 44.4668 20.3437 45.2697 20.3638 45.7902C20.3823 46.3873 20.5978 47.1548 21.2738 47.2844C21.6963 47.3653 22.1398 47.171 22.4989 46.9606C22.8112 46.7725 23.0235 46.5758 23.2226 46.2718C23.6297 45.6027 23.8635 44.7328 23.7333 43.9433C23.5 42.5405 22.1077 41.9978 20.8535 41.8621C20.669 41.8372 20.3601 42.2319 20.6062 42.2651C21.6217 42.3829 22.8096 42.7398 23.1812 43.7921C23.4294 44.4681 23.2824 45.2394 22.9992 45.8869C22.9018 46.1231 22.7822 46.3131 22.6322 46.4799C22.656 46.4495 22.6634 46.4649 22.6322 46.4799C22.6715 46.442 22.6322 46.4799 22.5855 46.5023C22.4838 46.5701 22.3822 46.6379 22.2575 46.6978C22.1018 46.7727 21.923 46.8397 21.7451 46.8684C21.1423 46.931 20.8917 46.3697 20.8018 45.8637C20.7466 45.5494 20.7611 45.2205 20.8216 44.9074C20.8395 44.7852 20.8804 44.6708 20.9213 44.5564C20.9295 44.5336 20.9533 44.5032 20.9852 44.45L20.9697 44.4575C20.9253 44.3652 20.8809 44.2729 20.821 44.1881C20.4284 44.5283 19.9801 44.9521 19.4182 44.9003C18.9794 44.865 18.601 44.5167 18.6875 44.0585C18.7577 43.646 19.1192 43.3208 19.3798 43.0251C19.6879 42.6686 20.0599 42.2058 20.5832 42.2572C20.8063 42.2825 21.1078 41.8725 20.8535 41.8621Z" fill="#79B177"/>
<path d="M19.2503 50.0561L23.4204 58.3721L28.58 57.975L24.2161 47.4607C24.1932 47.4528 21.6177 50.433 19.2503 50.0561Z" fill="#79B177"/>
<path d="M21.1953 19.3527L21.0252 18.9989C20.6917 18.3449 19.9901 17.9626 19.2642 18.0085C18.2686 18.0516 17.2274 17.6809 16.4772 17.0379C15.439 16.1546 15.3736 14.4628 15.763 13.1583C16.1523 11.8539 17.3613 10.8183 18.7226 10.6184C19.6895 10.4755 20.8658 10.6486 21.7446 11.0405C22.6996 11.4714 23.0662 12.3935 23.4631 13.3389C23.8674 14.2997 23.6043 15.4678 22.925 16.2488C22.4825 16.7645 22.3141 17.4514 22.5557 18.0738C22.6067 18.2197 22.7546 18.5274 22.8211 18.6658C21.9971 18.9862 22.0275 19.0095 21.1953 19.3527Z" fill="#79B177"/>
<path d="M21.4139 19.2094C21.3178 19.0095 21.2372 18.802 21.11 18.617C20.9006 18.3011 20.5665 18.045 20.2145 17.9112C19.8322 17.7541 19.4533 17.8037 19.053 17.7689C18.6216 17.749 18.1917 17.6527 17.7864 17.4877C16.9832 17.1732 16.2848 16.6378 15.9782 15.8005C15.6863 14.9939 15.7053 14.0758 15.9228 13.2517C16.1239 12.4733 16.5777 11.7817 17.2581 11.3221C17.9934 10.8171 18.8602 10.6656 19.7535 10.7285C20.6237 10.7836 21.6369 11.0162 22.264 11.6427C22.5661 11.9519 22.7821 12.3215 22.9514 12.7136C23.1362 13.0981 23.3285 13.4981 23.3969 13.9197C23.4801 14.372 23.4321 14.8306 23.2766 15.2652C23.2104 15.4864 23.0982 15.6918 22.963 15.8894C22.836 16.064 22.6861 16.2308 22.5665 16.4209C22.3355 16.7781 22.203 17.2205 22.2328 17.6417C22.2553 18.0475 22.4254 18.4013 22.5954 18.7551C22.6749 18.6411 22.7462 18.5501 22.8257 18.4361C22.2812 18.66 21.7516 18.9146 21.2072 19.1384C21.1137 19.1833 20.9727 19.289 20.9703 19.4037C20.968 19.5185 21.091 19.5351 21.1763 19.513C21.7207 19.2892 22.2504 19.0346 22.7948 18.8108C22.8727 18.7733 23.0842 18.6149 23.025 18.4918C22.8468 18.1609 22.6693 17.7917 22.6616 17.4166C22.6547 17.0034 22.8094 16.6071 23.0782 16.2885C23.6239 15.6285 23.934 14.7977 23.8669 13.9399C23.8296 13.5033 23.6678 13.1267 23.4911 12.7192C23.3144 12.3118 23.1148 11.8965 22.829 11.5415C22.2428 10.8007 21.3158 10.5078 20.4085 10.3758C19.5013 10.2438 18.5441 10.2873 17.703 10.6916C16.9241 11.066 16.2479 11.694 15.8237 12.4472C15.0539 13.8777 14.9991 16.1575 16.3574 17.2278C17.1691 17.8791 18.1503 18.165 19.1764 18.1452C19.6545 18.1425 20.137 18.3083 20.4768 18.6563C20.696 18.8728 20.8291 19.1497 20.9622 19.4266C21.0879 19.6881 21.5026 19.394 21.4139 19.2094Z" fill="white"/>
<path d="M19.8242 15.9023C19.4716 15.0492 18.6525 14.3825 17.7305 14.2197C17.9924 14.6051 18.3642 14.8998 18.8163 15.0423C19.2913 15.1927 19.8318 15.1601 20.231 14.8736C20.6302 14.587 20.8725 14.0539 20.7048 13.5853C20.6243 13.3779 20.4281 13.1692 20.2034 13.2204C19.9475 13.2866 19.8863 13.6379 19.9119 13.8907C20.0052 14.6033 20.4076 15.281 20.9772 15.7079" fill="#79B177"/>
<path d="M19.8242 15.9023C19.4716 15.0492 18.6525 14.3825 17.7305 14.2197C17.9924 14.6051 18.3642 14.8998 18.8163 15.0423C19.2913 15.1927 19.8318 15.1601 20.231 14.8736C20.6302 14.587 20.8725 14.0539 20.7048 13.5853C20.6243 13.3779 20.4281 13.1692 20.2034 13.2204C19.9475 13.2866 19.8863 13.6379 19.9119 13.8907C20.0052 14.6033 20.4076 15.281 20.9772 15.7079" stroke="white" stroke-miterlimit="10"/>
<path d="M21.417 20.1738C22.1199 20.12 22.7971 19.8134 23.2855 19.3135L21.417 20.1738Z" fill="#79B177"/>
<path d="M21.4858 20.5954C22.2583 20.527 23.0135 20.183 23.5568 19.6377C23.7142 19.4863 23.7738 19.2115 23.5924 19.0336C23.4414 18.8789 23.1493 18.8299 22.9838 19.0042C22.8658 19.1177 22.7322 19.2388 22.5994 19.3215C22.5838 19.329 22.5526 19.344 22.5445 19.3669C22.5912 19.3444 22.5912 19.3444 22.5445 19.3669C22.5133 19.3818 22.4822 19.3968 22.4584 19.4272C22.3805 19.4646 22.3026 19.5021 22.2247 19.5395C22.1468 19.5769 22.069 19.6144 21.9837 19.6364C21.8672 19.6735 22.069 19.6144 21.9525 19.6514C21.9058 19.6739 21.8517 19.681 21.8205 19.6959C21.6499 19.7401 21.4876 19.7613 21.3252 19.7826C21.1013 19.7955 20.926 20.0691 20.968 20.2762C21.0485 20.4836 21.2463 20.6158 21.4858 20.5954Z" fill="white"/>
<path d="M22.1593 21.1992C22.6998 21.1667 23.222 20.8967 23.5621 20.487L22.1593 21.1992Z" fill="#79B177"/>
<path d="M22.2277 21.6207C22.892 21.5664 23.4929 21.2208 23.9043 20.72C23.96 20.6365 23.9935 20.5067 23.9647 20.4069C23.9515 20.2997 23.8767 20.1841 23.7775 20.1371C23.5641 20.0125 23.3394 20.0637 23.1813 20.2533C23.1657 20.2608 23.1575 20.2837 23.1419 20.2911C23.1895 20.2304 23.1895 20.2304 23.1657 20.2608C23.1419 20.2911 23.1264 20.2986 23.1026 20.329C23.0477 20.3743 23.0083 20.4122 22.9534 20.4575C22.9379 20.465 22.9141 20.4954 22.8829 20.5103C22.8674 20.5178 22.8518 20.5253 22.8436 20.5482C22.8985 20.5028 22.9141 20.4954 22.8748 20.5332C22.8124 20.5632 22.7731 20.601 22.7108 20.631C22.6485 20.6609 22.6017 20.6834 22.5394 20.7133C22.5083 20.7283 22.4697 20.7279 22.4386 20.7429C22.4542 20.7354 22.4697 20.7279 22.5009 20.7129C22.4853 20.7204 22.4697 20.7279 22.4468 20.72C22.3147 20.7645 22.1835 20.7708 22.0597 20.7924C21.9514 20.8066 21.8416 20.8973 21.7859 20.9809C21.7302 21.0645 21.6967 21.1942 21.7255 21.294C21.7542 21.3938 21.8134 21.5168 21.9127 21.5638C22.012 21.6107 22.112 21.6194 22.2277 21.6207Z" fill="white"/>
<path d="M17.8415 9.58345C17.3437 8.66758 16.8689 7.75961 16.3711 6.84375L17.8415 9.58345Z" fill="#79B177"/>
<path d="M17.6856 9.65849L16.3866 6.83642L17.9898 9.49334L17.6856 9.65849Z" fill="white"/>
<path d="M20.0812 9.4155C20.2937 8.4612 20.5218 7.49942 20.7342 6.54512L20.0812 9.4155Z" fill="#79B177"/>
<path d="M19.9123 9.3835L20.7417 6.5609L20.2577 9.46366L19.9123 9.3835Z" fill="white"/>
<path d="M23.2471 10.6964C23.9848 10.0766 24.7224 9.45693 25.4445 8.8447L23.2471 10.6964Z" fill="#79B177"/>
<path d="M23.1493 10.5731L25.46 8.83737L23.3677 10.8279L23.1493 10.5731Z" fill="white"/>
<path d="M24.4717 13.0054C25.2384 12.8451 26.0208 12.6773 26.7875 12.5171L24.4717 13.0054Z" fill="#79B177"/>
<path d="M24.4519 12.8444L26.8031 12.5095L24.5145 13.1741L24.4519 12.8444Z" fill="white"/>
<path d="M24.1748 15.8184C24.7187 15.9924 25.2397 16.1586 25.7836 16.3327L24.1748 15.8184Z" fill="#79B177"/>
<path d="M24.2318 15.658L25.7833 16.3325L24.1402 15.9861L24.2318 15.658Z" fill="white"/>
<path d="M16.2248 18.7879C15.757 19.4105 15.2891 20.0331 14.8213 20.6556L16.2248 18.7879Z" fill="#79B177"/>
<path d="M16.3694 18.8887L14.8215 20.6554L16.0805 18.6867L16.3694 18.8887Z" fill="white"/>
<path d="M14.7624 16.3847C13.8037 16.5046 12.4229 16.9033 12.4229 16.9033L14.7624 16.3847Z" fill="#79B177"/>
<path d="M14.7901 16.5612C14.7901 16.5612 14.6359 16.5596 14.4194 16.5879C14.2029 16.6162 13.9093 16.6437 13.6075 16.6941C13.0195 16.7874 12.4307 16.9189 12.4307 16.9189C12.4307 16.9189 12.9981 16.703 13.5721 16.5407C13.8591 16.4596 14.1461 16.3784 14.3708 16.3272C14.5955 16.276 14.7349 16.2469 14.7349 16.2469L14.7901 16.5612Z" fill="white"/>
<path d="M14.1935 12.9659C13.5487 12.8214 12.8958 12.6997 12.251 12.5552L14.1935 12.9659Z" fill="#79B177"/>
<path d="M14.1592 13.1339L12.251 12.5552L14.2278 12.7979L14.1592 13.1339Z" fill="white"/>
<path d="M15.7432 10.7632C14.9357 10.2803 14.1438 9.78983 13.3438 9.32227L15.7432 10.7632Z" fill="#79B177"/>
<path d="M15.6551 10.8998L13.3359 9.30664L15.8386 10.6033L15.6551 10.8998Z" fill="white"/>
</g>
<defs>
<clipPath id="clip0_3488_2578">
<rect width="32.4764" height="53.711" fill="white" transform="translate(0.185547 14.624) rotate(-25.6736)"/>
</clipPath>
</defs>
</svg>
