<svg width="68" height="65" viewBox="0 0 68 65" fill="none" xmlns="http://www.w3.org/2000/svg">
<rect x="22.4141" width="44.8274" height="41.4653" rx="9" fill="#F2FAFF"/>
<g clip-path="url(#clip0_3493_2536)">
<path d="M8.40968 38.1011C8.40968 32.9004 11.1411 26.7553 14.2927 27.3856C13.0676 26.316 10.3195 21.9244 9.13886 20.8047C4.78784 25.2717 2.10645 31.3728 2.10645 38.1011C2.10645 51.7937 13.2065 62.8938 26.8992 62.8938C27.9668 62.8938 29.0187 62.8262 30.0508 62.6952C17.8462 61.147 8.40968 50.7261 8.40968 38.1011Z" fill="#EAF3FF"/>
<path d="M45.9156 19.0845C29.0185 2.22134 0.0276135 14.2305 0.00513197 38.1015C-0.293011 52.5564 12.4427 65.2944 26.8991 64.9948C50.771 64.9711 62.7788 35.9797 45.9156 19.0845ZM4.20719 38.1012C4.20719 32.6001 6.17548 27.5504 9.44413 23.6179L12.8067 26.9804C13.6272 27.801 14.9576 27.801 15.778 26.9804C16.5986 26.1599 16.5986 24.8296 15.778 24.0091L12.4155 20.6465C34.1273 3.68495 61.3084 30.8945 44.3536 52.5846L35.8433 44.0744C33.7936 42.1816 30.98 44.9983 32.872 47.0457L41.3822 55.556C26.8995 67.7799 4.12304 57.223 4.20719 38.1012Z" fill="#2C88FF"/>
<path d="M26.8983 53.229C25.4479 53.229 24.272 52.0531 24.272 50.6026C24.4104 47.1188 29.3869 47.1198 29.5247 50.6026C29.5247 52.0532 28.3488 53.229 26.8983 53.229ZM28.9994 42.8287C28.9994 40.9247 29.9721 39.1302 31.6016 38.0285C34.0493 36.3735 35.4295 33.622 35.2937 30.6683C35.1977 28.5821 34.325 26.6133 32.8364 25.1246C31.3478 23.636 29.379 22.7633 27.2927 22.6673C24.9724 22.5612 22.7707 23.3834 21.0945 24.9842C19.4177 26.5857 18.4941 28.7444 18.4941 31.0626C18.6047 33.8495 22.586 33.8491 22.6963 31.0626C22.6963 29.9035 23.1581 28.8241 23.9968 28.0231C24.8347 27.2228 25.9358 26.811 27.0996 26.8652C31.1133 27.0863 32.582 32.2856 29.2479 34.5475C26.4611 36.4317 24.7974 39.5275 24.7974 42.8287C24.7974 43.9891 25.738 44.9297 26.8985 44.9297C28.0589 44.9297 28.9994 43.9891 28.9994 42.8287Z" fill="black"/>
</g>
<defs>
<clipPath id="clip0_3493_2536">
<rect width="53.7929" height="53.7929" fill="white" transform="translate(0 11.207)"/>
</clipPath>
</defs>
</svg>
