<svg width="68" height="65" viewBox="0 0 68 65" fill="none" xmlns="http://www.w3.org/2000/svg">
<rect x="22.4141" width="44.8274" height="41.4653" rx="9" fill="#F2FAFF"/>
<path d="M8.4375 58.6719V25.7656C8.4375 24.5843 8.90146 23.5296 9.66083 22.7702L13.7108 18.7202C13.6669 18.6762 13.6114 18.6209 13.5422 18.5515C12.7829 17.7921 11.7282 17.3281 10.5469 17.3281C9.36552 17.3281 8.31083 17.7921 7.55146 18.5515L3.33271 22.7702C2.57333 23.5296 2.10938 24.5843 2.10938 25.7656V58.6719C2.10938 60.9922 4.00781 62.8906 6.32812 62.8906H12.6562C10.3359 62.8906 8.4375 60.9922 8.4375 58.6719Z" fill="#CEE1F2"/>
<path d="M27 44.3281C23.5107 44.3281 20.6719 47.1669 20.6719 50.6562V54.875C20.6719 56.04 21.6162 56.9844 22.7812 56.9844C23.9463 56.9844 24.8906 56.04 24.8906 54.875V50.6562C24.8906 49.4931 25.8369 48.5469 27 48.5469C28.1631 48.5469 29.1094 49.4931 29.1094 50.6562V54.875C29.1094 56.04 30.0537 56.9844 31.2188 56.9844C32.3838 56.9844 33.3281 56.04 33.3281 54.875V50.6562C33.3281 47.1669 30.4893 44.3281 27 44.3281Z" fill="black"/>
<path d="M47.9401 17.0599C47.2619 16.3818 46.451 15.8785 45.5625 15.5708V13.1094C45.5625 11.9444 44.6181 11 43.4531 11C42.2881 11 41.3438 11.9444 41.3438 13.1094V15.5708C40.4553 15.8785 39.6443 16.3818 38.9662 17.0599L34.7474 21.2787C33.5602 22.4659 32.9062 24.0595 32.9062 25.7656V34.2031C32.9062 35.3662 31.96 36.3125 30.7969 36.3125H23.2031C22.04 36.3125 21.0938 35.3662 21.0938 34.2031V25.7656C21.0938 24.0595 20.4398 22.4659 19.2525 21.2787L15.0337 17.0599C14.3556 16.3818 13.5446 15.8785 12.6561 15.5708V13.1094C12.6561 11.9444 11.7118 11 10.5468 11C9.38176 11 8.4375 11.9444 8.4375 13.1094V15.5708C7.54903 15.8785 6.73808 16.3818 6.05992 17.0599L1.84117 21.2787C0.653906 22.4659 0 24.0595 0 25.7656V58.6719C0 62.1612 2.8388 65 6.32812 65H47.6719C51.1612 65 54 62.1612 54 58.6719V25.7656C54 24.0595 53.3461 22.4659 52.1587 21.2787L47.9401 17.0599ZM49.7812 58.6719C49.7812 59.835 48.835 60.7812 47.6719 60.7812H6.32812C5.16502 60.7812 4.21875 59.835 4.21875 58.6719V25.7656C4.21875 25.1863 4.4338 24.6522 4.82425 24.2617L9.043 20.043C9.43344 19.6526 9.96754 19.4375 10.5469 19.4375C11.1262 19.4375 11.6603 19.6526 12.0492 20.0415L16.2695 24.2617C16.66 24.6522 16.875 25.1863 16.875 25.7656V34.2031C16.875 37.6925 19.7138 40.5312 23.2031 40.5312H30.7969C34.2862 40.5312 37.125 37.6925 37.125 34.2031V25.7656C37.125 25.1863 37.34 24.6522 37.7305 24.2617L41.9492 20.043C42.3397 19.6526 42.8738 19.4375 43.4531 19.4375C44.0325 19.4375 44.5666 19.6526 44.9554 20.0415L49.1758 24.2617C49.5662 24.6522 49.7812 25.1863 49.7812 25.7656V58.6719Z" fill="#2C88FF"/>
<path d="M10.5469 23.6562C9.38187 23.6562 8.4375 24.6006 8.4375 25.7656V29.9844C8.4375 31.1494 9.38187 32.0938 10.5469 32.0938C11.7119 32.0938 12.6562 31.1494 12.6562 29.9844V25.7656C12.6562 24.6006 11.7119 23.6562 10.5469 23.6562Z" fill="#2C88FF"/>
<path d="M10.5469 36.3125C9.38187 36.3125 8.4375 37.2569 8.4375 38.4219V42.6406C8.4375 43.8056 9.38187 44.75 10.5469 44.75C11.7119 44.75 12.6562 43.8056 12.6562 42.6406V38.4219C12.6562 37.2569 11.7119 36.3125 10.5469 36.3125Z" fill="#2C88FF"/>
<path d="M43.4531 23.6562C42.2881 23.6562 41.3438 24.6006 41.3438 25.7656V29.9844C41.3438 31.1494 42.2881 32.0938 43.4531 32.0938C44.6181 32.0938 45.5625 31.1494 45.5625 29.9844V25.7656C45.5625 24.6006 44.6181 23.6562 43.4531 23.6562Z" fill="#2C88FF"/>
<path d="M43.4531 36.3125C42.2881 36.3125 41.3438 37.2569 41.3438 38.4219V42.6406C41.3438 43.8056 42.2881 44.75 43.4531 44.75C44.6181 44.75 45.5625 43.8056 45.5625 42.6406V38.4219C45.5625 37.2569 44.6181 36.3125 43.4531 36.3125Z" fill="#2C88FF"/>
<path d="M10.5469 48.5469C9.38187 48.5469 8.4375 49.4912 8.4375 50.6562V54.875C8.4375 56.04 9.38187 56.9844 10.5469 56.9844C11.7119 56.9844 12.6562 56.04 12.6562 54.875V50.6562C12.6562 49.4912 11.7119 48.5469 10.5469 48.5469Z" fill="#2C88FF"/>
<path d="M43.4531 48.5469C42.2881 48.5469 41.3438 49.4912 41.3438 50.6562V54.875C41.3438 56.04 42.2881 56.9844 43.4531 56.9844C44.6181 56.9844 45.5625 56.04 45.5625 54.875V50.6562C45.5625 49.4912 44.6181 48.5469 43.4531 48.5469Z" fill="#2C88FF"/>
</svg>
