<svg width="58" height="58" viewBox="0 0 58 58" fill="none" xmlns="http://www.w3.org/2000/svg">
<path d="M44.107 25.5835C43.1027 17.3335 42.3494 9.0835 42.0146 0.833496" stroke="black" stroke-width="2" stroke-miterlimit="10" stroke-linecap="round" stroke-linejoin="round"/>
<path d="M31.0508 14.6667C39.1691 14.25 47.2874 13.8333 55.4058 13.5" stroke="black" stroke-width="2" stroke-miterlimit="10" stroke-linecap="round" stroke-linejoin="round"/>
<path d="M48.8775 18.8337C44.6091 15.5003 40.3407 12.167 36.0723 8.91699" stroke="black" stroke-width="2" stroke-miterlimit="10" stroke-linecap="round" stroke-linejoin="round"/>
<path d="M38.416 19.6667C41.8475 15.5833 45.1115 11.25 48.0408 6.75" stroke="black" stroke-width="2" stroke-miterlimit="10" stroke-linecap="round" stroke-linejoin="round"/>
<path d="M46.9521 47.8333C49.8814 43.6667 52.9781 39.6667 56.3259 35.75" stroke="black" stroke-width="2" stroke-miterlimit="10" stroke-linecap="round" stroke-linejoin="round"/>
<path d="M45.6133 37.4165C49.4632 40.5832 53.3131 43.7498 57.1631 46.9165" stroke="black" stroke-width="2" stroke-miterlimit="10" stroke-linecap="round" stroke-linejoin="round"/>
<path d="M51.8907 46.75C51.3048 43.5 50.8027 40.25 50.2168 37" stroke="black" stroke-width="2" stroke-miterlimit="10" stroke-linecap="round" stroke-linejoin="round"/>
<path d="M46.8691 42.7498C50.1332 42.3332 53.3973 41.6665 56.5777 40.9165" stroke="black" stroke-width="2" stroke-miterlimit="10" stroke-linecap="round" stroke-linejoin="round"/>
<path d="M12.8047 57.1668C15.734 45.4168 19.2491 33.8335 23.0991 22.3335" stroke="black" stroke-width="2" stroke-miterlimit="10" stroke-linecap="round" stroke-linejoin="round"/>
<path d="M0.836914 35.3335C12.1356 39.0835 23.4343 42.8335 34.733 46.5835" stroke="black" stroke-width="2" stroke-miterlimit="10" stroke-linecap="round" stroke-linejoin="round"/>
<path d="M22.8485 50.5003C18.8312 43.7503 14.7302 36.917 10.7129 30.167" stroke="black" stroke-width="2" stroke-miterlimit="10" stroke-linecap="round" stroke-linejoin="round"/>
<path d="M8.11816 46.0002C15.0648 42.2502 21.7603 38.0835 28.121 33.5835" stroke="black" stroke-width="2" stroke-miterlimit="10" stroke-linecap="round" stroke-linejoin="round"/>
</svg>
