<svg width="68" height="65" viewBox="0 0 68 65" fill="none" xmlns="http://www.w3.org/2000/svg">
<rect x="22.4141" width="44.8274" height="41.4653" rx="9" fill="#F2FAFF"/>
<path d="M8.4375 41.7969C8.4375 38.4848 10.3468 35.6201 13.1239 34.2391C12.411 33.688 11.5176 33.3594 10.5469 33.3594C5.88695 33.3594 2.10938 37.1369 2.10938 41.7969C2.10938 46.4568 5.88695 50.2344 10.5469 50.2344C11.5176 50.2344 12.411 49.9057 13.1239 49.3547C10.3468 47.9737 8.4375 45.1089 8.4375 41.7969Z" fill="#CEE1F2"/>
<path d="M43.4531 31.25C39.9638 31.25 37.125 34.0888 37.125 37.5781V54.4531C37.125 55.6162 36.1787 56.5625 35.0156 56.5625H32.5434C31.6727 54.1074 29.328 52.3438 26.5781 52.3438C23.0888 52.3438 20.25 55.1825 20.25 58.6719C20.25 62.1612 23.0888 65 26.5781 65C29.328 65 31.6726 63.2364 32.5434 60.7812H35.0156C38.505 60.7812 41.3438 57.9425 41.3438 54.4531V51.9809C42.004 52.2151 42.7137 52.3438 43.4531 52.3438C49.2687 52.3438 54 47.6124 54 41.7969C54 35.9813 49.2687 31.25 43.4531 31.25ZM26.5781 60.7812C25.415 60.7812 24.4688 59.835 24.4688 58.6719C24.4688 57.5088 25.415 56.5625 26.5781 56.5625C27.7412 56.5625 28.6875 57.5088 28.6875 58.6719C28.6875 59.835 27.7412 60.7812 26.5781 60.7812ZM43.4531 48.125C42.29 48.125 41.3438 47.1787 41.3438 46.0156V37.5781C41.3438 36.415 42.29 35.4688 43.4531 35.4688C46.9425 35.4688 49.7812 38.3075 49.7812 41.7969C49.7812 45.2862 46.9425 48.125 43.4531 48.125Z" fill="#2C88FF"/>
<path d="M10.5469 52.3438C14.0362 52.3438 16.875 49.505 16.875 46.0156V37.5781C16.875 34.0888 14.0362 31.25 10.5469 31.25C4.73133 31.25 0 35.9813 0 41.7969C0 47.6124 4.73133 52.3438 10.5469 52.3438ZM10.5469 35.4688C11.71 35.4688 12.6562 36.415 12.6562 37.5781V46.0156C12.6562 47.1787 11.71 48.125 10.5469 48.125C7.05755 48.125 4.21875 45.2862 4.21875 41.7969C4.21875 38.3075 7.05755 35.4688 10.5469 35.4688Z" fill="#2C88FF"/>
<path d="M10.5469 27.875C11.7119 27.875 12.6562 26.9306 12.6562 25.7656C12.6562 19.9501 17.3876 15.2188 23.2031 15.2188H30.7969C36.6124 15.2188 41.3438 19.9501 41.3438 25.7656C41.3438 26.9306 42.2881 27.875 43.4531 27.875C44.6181 27.875 45.5625 26.9306 45.5625 25.7656C45.5625 17.6239 38.9386 11 30.7969 11H23.2031C15.0614 11 8.4375 17.6239 8.4375 25.7656C8.4375 26.9306 9.38187 27.875 10.5469 27.875Z" fill="black"/>
</svg>
