<svg width="32" height="32" viewBox="0 0 32 32" fill="none" xmlns="http://www.w3.org/2000/svg">
<path d="M26 29.5H23.5C22.8108 29.5 22.25 28.9392 22.25 28.25V25.75C22.25 25.0596 21.6904 24.5 21 24.5C20.3096 24.5 19.75 25.0596 19.75 25.75V28.25C19.75 30.3177 21.4323 32 23.5 32H26C26.6904 32 27.25 31.4404 27.25 30.75C27.25 30.0596 26.6903 29.5 26 29.5Z" fill="#2C88FF"/>
<path d="M8.68831 10.1002C9.28037 9.98125 9.70269 9.45606 9.69187 8.85231C9.63612 5.71137 11.8844 3.20163 14.7329 2.62619C14.3306 2.54306 13.9179 2.5 13.4999 2.5C13.2858 2.5 12.4566 2.5 12.2499 2.5C8.78631 2.5 5.96456 5.26919 5.92994 8.68619C5.93537 8.73013 5.94075 8.78688 5.94187 8.85225C5.95269 9.45606 5.53037 9.98119 4.93831 10.1001C2.40869 10.6084 0.860936 13.0982 1.33806 15.8918C1.75125 18.3107 3.76787 20 6.24206 20H9.99206C7.51787 20 5.50125 18.3107 5.08806 15.8919C4.61087 13.0983 6.15869 10.6084 8.68831 10.1002Z" fill="#CEE1F2"/>
<path d="M27.1858 7.91138C26.7754 4.86031 24.158 2.5 21.0005 2.5C20.5807 2.5 20.1531 2.54819 19.7223 2.64381C18.075 0.954187 15.8502 0 13.5005 0C8.92009 0 5.14397 3.48163 4.71978 7.91713C1.41734 9.07938 -0.524281 12.5153 0.124344 16.3128C0.744907 19.9454 3.80747 22.5 7.49266 22.5H24.4807C28.1813 22.5 31.2615 19.9318 31.8797 16.3128C32.2204 14.3181 31.8313 12.3366 30.7841 10.7332C29.916 9.40406 28.6605 8.42556 27.1858 7.91138ZM29.4153 15.8919C29.0022 18.3107 26.973 20 24.4807 20H7.49266C5.01847 20 3.00184 18.3107 2.58866 15.8919C2.11147 13.0983 3.65922 10.6084 6.18891 10.1002C6.78097 9.98125 7.20328 9.45606 7.19247 8.85231C7.19128 8.787 7.18597 8.73019 7.18053 8.68625C7.21516 5.26919 10.0369 2.5 13.5005 2.5C15.3705 2.5 17.1344 3.35588 18.3398 4.84825C18.6746 5.26269 19.2352 5.41944 19.7364 5.23863C20.1815 5.07806 20.595 5 21.0005 5C23.0431 5 24.7087 6.649 24.7413 8.68863C24.7365 8.72856 24.7313 8.78162 24.7297 8.84225C24.714 9.44969 25.1373 9.98044 25.7331 10.1001C28.3079 10.6174 29.891 13.1074 29.4153 15.8919Z" fill="#2C88FF"/>
<path d="M11 24.5C10.3096 24.5 9.75 25.0596 9.75 25.75V28.25C9.75 28.9392 9.18925 29.5 8.5 29.5H6C5.30963 29.5 4.75 30.0596 4.75 30.75C4.75 31.4404 5.30963 32 6 32H8.5C10.5677 32 12.25 30.3177 12.25 28.25V25.75C12.25 25.0596 11.6903 24.5 11 24.5Z" fill="#2C88FF"/>
<path d="M16 24.5C15.3096 24.5 14.75 25.0596 14.75 25.75V30.75C14.75 31.4404 15.3096 32 16 32C16.6904 32 17.25 31.4404 17.25 30.75V25.75C17.25 25.0596 16.6903 24.5 16 24.5Z" fill="#2FF7A3"/>
</svg>
