<svg width="77" height="59" viewBox="0 0 77 59" fill="none" xmlns="http://www.w3.org/2000/svg">
<path d="M1.61394 51.1818C1.55688 51.3377 1.65288 51.4635 1.77269 51.5134C2.94335 54.0856 4.91737 56.1721 7.49327 57.3379C7.5399 57.451 7.65971 57.5008 7.78448 57.4825C8.26371 57.6819 8.76344 57.8509 9.27426 57.9932C9.73183 58.1133 10.1888 58.1786 10.653 58.2078C10.7268 58.3869 11.0224 58.4084 11.1377 58.2064C14.2765 58.1696 17.5344 56.3083 20.2557 55.0982C25.7022 52.6874 31.3239 50.1934 36.3608 47.003C36.485 46.9298 36.5471 46.7057 36.4699 46.5721C35.19 44.056 34.0604 41.4228 32.6147 38.9861C32.5415 38.8619 32.4183 38.8575 32.313 38.923C32.2464 38.8953 32.1688 38.8943 32.084 38.9292C31.5993 39.118 31.1186 39.3162 30.634 39.5049C30.4909 39.3985 30.2413 39.4352 30.1965 39.6742C30.1965 39.6742 30.1965 39.6742 30.2004 39.6837C29.1275 40.1039 28.0546 40.5242 26.9989 40.9594C27.506 34.9937 28.0093 29.0186 28.4937 23.0512C33.0693 26.5797 37.7939 29.8813 42.5745 33.1046C41.5044 33.612 40.4304 34.1099 39.4258 34.7225C39.2772 34.8169 39.2617 34.9666 39.335 35.0908C39.2524 35.1579 39.1853 35.2628 39.2547 35.3775C39.722 36.2436 40.1893 37.1096 40.666 37.9718C40.6129 38.1371 40.7261 38.2779 40.8514 38.3144C41.776 39.9955 42.7006 41.6765 43.6158 43.3615C43.7202 43.5611 43.9526 43.6969 44.1882 43.5997C49.6553 41.1584 55.0795 38.6135 60.5232 36.1156C65.021 34.0519 70.744 32.3653 74.2424 28.7064C76.4297 26.4151 77.7026 22.8687 75.9301 19.9602C74.4873 17.6105 71.76 16.4521 69.1864 16.9506C70.314 12.0084 68.0946 6.57121 63.5045 4.18461C59.3904 2.04293 54.2504 2.81648 50.8439 5.84197C50.0291 4.15975 48.5517 2.84993 46.8078 1.93673C46.7888 1.75706 46.5625 1.66288 46.4101 1.74779C44.218 0.710556 41.6762 0.269629 39.524 0.506222C34.2986 1.0724 29.6246 4.74172 28.1094 9.73346C22.0642 7.42844 14.2506 10.7048 10.5498 15.6381C6.88058 20.5143 6.15545 27.7167 9.13351 33.0948C3.02506 34.6757 -0.455753 41.8011 0.782039 48.4149C0.770959 48.4415 0.754339 48.4815 0.743259 48.5081C0.682318 48.6545 0.755572 48.7787 0.865953 48.8325C0.899849 48.9949 0.920435 49.1519 0.963757 49.3105C1.13151 49.9581 1.35581 50.5825 1.61394 51.1818ZM35.5349 46.6047C35.4568 46.7361 35.1441 46.8871 34.833 47.0153C34.957 46.5672 35.085 46.1285 35.209 45.6803C35.2328 45.6043 35.2189 45.5439 35.1956 45.4873C35.4315 45.9525 35.6391 46.4294 35.5349 46.6047ZM34.6995 44.5781C34.7944 44.7815 34.9853 45.1109 35.1706 45.4535C35.0552 45.2806 34.784 45.238 34.7165 45.4753C34.5448 46.0755 34.3826 46.6717 34.2148 47.2812C34.2054 47.2851 34.1959 47.289 34.1865 47.2929C33.825 47.486 33.4502 47.6736 33.0887 47.8668C33.4619 46.4447 33.8445 45.0187 34.2177 43.5967C34.3764 43.9282 34.5407 44.2465 34.6995 44.5781ZM33.8636 42.8715C33.3918 44.6429 32.9239 46.4239 32.4522 48.1953C31.8817 48.4967 31.3073 48.7887 30.7423 49.0767C31.3061 45.977 31.866 42.8679 32.4165 39.7626C32.8517 40.8183 33.3529 41.8468 33.8636 42.8715ZM30.6399 40.2414C31.0546 40.0704 31.4599 39.9033 31.8747 39.7323C31.2932 42.9496 30.7117 46.1669 30.1302 49.3842C29.456 49.7283 28.7817 50.0724 28.1036 50.4071L28.0942 50.411C29.1554 47.0732 30.0097 43.6883 30.6399 40.2414ZM30.046 40.4862C29.3953 43.9636 28.5299 47.3751 27.435 50.7379C26.9848 50.9566 26.5251 51.1792 26.0788 51.4073C27.0511 47.9076 28.018 44.4211 28.9903 40.9214C29.3391 40.7776 29.6973 40.63 30.046 40.4862ZM39.7704 35.2642C40.5117 35.0027 41.2259 34.6752 41.9362 34.3383C41.5905 35.3189 41.2504 36.2862 40.9048 37.2668C40.534 36.5815 40.1578 35.9096 39.7704 35.2642ZM51.1026 6.49625C51.4668 6.20273 51.856 5.94303 52.2491 5.69275C51.9482 6.24689 51.6434 6.79161 51.3425 7.34575C51.2864 7.04908 51.2059 6.77349 51.1026 6.49625ZM3.8601 44.9404C3.25465 46.6015 2.66252 48.2683 2.0665 49.9256C1.85327 49.2746 1.6966 48.6003 1.58152 47.9199C2.86021 44.9225 4.13501 41.9156 5.41369 38.9182C5.54666 38.5987 5.05411 38.3937 4.92115 38.7132C3.75881 41.4311 2.60589 44.1451 1.44354 46.8629C1.26301 44.82 1.51557 42.7308 2.16972 40.84C3.51127 36.9786 6.24988 34.7137 9.67681 33.9847C9.80496 34.1083 10.0013 34.0494 10.0888 33.9141C11.4873 33.6683 12.9963 33.6638 14.5703 33.8972C15.0406 33.968 15.1035 33.2914 14.6726 33.1823C13.5372 32.8894 12.4569 32.7834 11.4177 32.8038C12.0154 31.3112 12.6132 29.8186 13.2148 28.3355C13.3478 28.016 12.8552 27.811 12.7223 28.1305C12.1079 29.663 11.488 31.2088 10.8736 32.7414C10.8625 32.768 10.8648 32.8002 10.8537 32.8268C10.4904 32.8552 10.1444 32.8986 9.79672 32.9648C9.75398 32.8611 9.70735 32.748 9.67403 32.6404C10.2351 30.8983 10.8055 29.1522 11.3627 27.4007C11.469 27.0701 10.9765 26.8651 10.8702 27.1957C10.3639 28.7498 9.86715 30.3 9.36092 31.8541C9.0078 30.8638 8.72844 29.8652 8.54168 28.8504C9.2136 27.0295 9.88942 25.218 10.5613 23.397C10.681 23.072 10.1885 22.867 10.0688 23.1921C9.50545 24.7146 8.93655 26.2504 8.37319 27.7729C7.84799 23.7437 8.66425 19.6246 11.2543 16.1968C12.2609 14.8665 13.5059 13.7136 14.8953 12.7769C14.2702 14.0161 13.6508 15.2419 13.0257 16.4811C12.8661 16.7895 13.3681 16.9906 13.5183 16.6861C14.2713 15.1956 15.0149 13.7091 15.7718 12.2281C16.4737 11.8174 17.2028 11.4727 17.9608 11.1713C17.2004 12.3229 16.4495 13.4706 15.6891 14.6222C15.499 14.9101 15.9189 15.2332 16.109 14.9453C17.0035 13.584 17.9075 12.2189 18.802 10.8576C19.2284 10.7149 19.6476 10.6082 20.0707 10.511C18.9595 12.3366 17.839 14.166 16.7278 15.9915C16.551 16.285 16.971 16.6081 17.1478 16.3147C18.326 14.3843 19.5042 12.4539 20.6862 10.5329C20.7217 10.4852 20.7211 10.4303 20.7245 10.3848C21.3217 10.282 21.9172 10.2019 22.5095 10.1673C21.4754 11.939 20.4452 13.7201 19.4112 15.4919C19.2438 15.7814 19.6676 16.114 19.8311 15.815C20.9284 13.929 22.0311 12.0297 23.1284 10.1437C23.6186 10.1291 24.1166 10.1333 24.613 10.1603C24.0777 11.2963 23.5425 12.4322 23.0073 13.5682C22.861 13.8822 23.3535 14.0871 23.4998 13.7732C24.0572 12.584 24.624 11.3909 25.1775 10.1922C25.5963 10.2181 26.0094 10.2573 26.4359 10.302C25.9805 11.4713 25.5158 12.6444 25.0643 13.823C24.9407 14.1386 25.4372 14.353 25.5568 14.028C26.0343 12.8055 26.5119 11.5831 26.9894 10.3606C27.2928 10.4009 27.5922 10.4319 27.9089 10.4778C27.7893 10.9902 27.687 11.5177 27.634 12.0579C27.6047 12.3346 28.0417 12.4853 28.1315 12.1946C29.0413 9.05151 30.7138 6.2336 33.1187 4.28274C32.8832 4.75477 32.6438 5.21738 32.4083 5.68942C32.2487 5.99782 32.7507 6.19892 32.9009 5.8944C33.2904 5.12727 33.6761 4.35071 34.0656 3.58358C34.7575 3.12189 35.5127 2.73338 36.3122 2.42582C35.3641 4.08493 34.4198 5.75346 33.4716 7.41257C33.2987 7.71543 33.8007 7.91653 33.9641 7.61755C35.0015 5.80035 36.035 3.97373 37.0724 2.15653C37.5498 2.00383 38.035 1.86997 38.5452 1.76994C38.6056 1.75605 38.6794 1.7477 38.7437 1.74323C38.25 2.68565 37.7524 3.61864 37.2548 4.55163C37.0952 4.86004 37.5877 5.06502 37.7473 4.75662C38.2987 3.71324 38.8406 2.67376 39.3958 1.63981C39.7929 1.58641 40.1922 1.56516 40.5953 1.55335C40.2673 2.22895 39.9354 2.89513 39.6074 3.57073C39.4572 3.87525 39.9498 4.08023 40.0999 3.77571C40.4651 3.02966 40.8302 2.28362 41.1993 1.547C41.6651 1.55346 42.1143 1.59985 42.5674 1.65567C42.0061 2.64803 41.4541 3.6365 40.8889 4.61943C40.716 4.9223 41.218 5.1234 41.3814 4.82442C41.9539 3.80544 42.5302 2.79588 43.1026 1.7769C43.1082 1.76359 43.1137 1.75028 43.1098 1.74085C43.4531 1.79783 43.7854 1.88143 44.112 1.97834C43.7236 2.66783 43.3351 3.35732 42.9522 4.0335C42.7793 4.33637 43.2813 4.53746 43.4447 4.23848C43.8387 3.53568 44.2327 2.83288 44.6362 2.12619C45.0827 2.27297 45.5086 2.45025 45.9235 2.65416C45.5961 3.38466 45.2687 4.11516 44.9412 4.84566C44.7949 5.15961 45.2969 5.36071 45.4337 5.05065C45.7557 4.33346 46.0681 3.62015 46.39 2.90296C46.8643 3.17062 47.3086 3.47267 47.7269 3.81855C47.3702 4.82579 47.0002 5.82749 46.6435 6.83474C46.5238 7.15976 47.0163 7.36475 47.136 7.03972C47.4744 6.09515 47.8184 5.13727 48.1569 4.1927C48.9025 4.87783 49.5378 5.69666 50.0362 6.63811C49.9564 6.79231 50.0702 6.98803 50.2355 7.0412C50.493 7.58567 50.7073 8.15901 50.8634 8.77839C50.9678 9.16544 51.4974 9.11253 51.4912 8.69606C51.4894 8.53135 51.4783 8.37053 51.4577 8.2136C51.911 7.3871 52.3643 6.56061 52.8176 5.73411C52.8918 5.59322 52.8224 5.47845 52.7082 5.41528C53.5947 4.91746 54.5412 4.53829 55.5155 4.28001C54.8942 5.34116 54.2691 6.39288 53.6479 7.45403C53.4711 7.74747 53.9044 8.07615 54.0678 7.77717C54.7877 6.55404 55.4982 5.3348 56.2219 4.12111C56.8663 3.99883 57.5168 3.91815 58.1756 3.91122C57.3488 5.41001 56.5275 6.89548 55.7008 8.39427C55.5373 8.69325 56.0298 8.89823 56.1933 8.59925C57.0517 7.04333 57.91 5.48741 58.7778 3.9276C59.1832 3.94795 59.5831 3.98161 59.9946 4.04356C59.3933 5.01929 58.8014 5.99114 58.2002 6.96688C58.0234 7.26032 58.4433 7.58345 58.6201 7.29002C59.2679 6.23995 59.9064 5.19377 60.5542 4.1437C60.8559 4.20679 61.156 4.29262 61.4599 4.38788C61.0343 5.14782 60.6087 5.90776 60.1698 6.66215C59.9969 6.96502 60.4989 7.16611 60.6624 6.86713C61.0935 6.09388 61.5285 5.33006 61.9597 4.55681C62.2486 4.66927 62.5282 4.78561 62.8061 4.92469C63.0574 5.05269 63.2992 5.18458 63.5355 5.32978C62.6981 6.72265 61.8608 8.11552 61.0234 9.50839C60.8466 9.80183 61.2666 10.125 61.4528 9.82764C62.2957 8.42146 63.1386 7.01527 63.9854 5.61852C64.2428 5.78811 64.4852 5.97489 64.7221 6.17499C63.85 8.04536 62.7455 9.77996 61.4007 11.3599C61.1801 11.6273 61.6001 11.9505 61.8207 11.6831C63.1599 10.1164 64.255 8.3857 65.1348 6.53418C65.5154 6.8956 65.8716 7.27811 66.1979 7.695C65.1598 9.26986 64.1257 10.8541 63.097 12.4251C62.9069 12.713 63.3363 13.0323 63.5264 12.7444C64.529 11.2172 65.5371 9.67675 66.5397 8.14961C66.8954 8.66465 67.2039 9.19913 67.4731 9.77188C66.6607 11.1986 65.8522 12.6347 65.0304 14.0653C64.8575 14.3681 65.3595 14.5692 65.5229 14.2702C66.2572 12.975 66.9915 11.6798 67.7351 10.3807C67.92 10.8559 68.0899 11.3483 68.2049 11.8412C68.19 11.8584 68.1805 11.8623 68.1656 11.8795C66.9563 13.7345 65.7509 15.5989 64.5416 17.4539C64.3515 17.7418 64.7847 18.0704 64.971 17.7731C66.1076 16.0363 67.231 14.2939 68.3677 12.5571C68.4661 13.09 68.519 13.6196 68.5342 14.1647C68.4699 14.1692 68.4039 14.1964 68.3573 14.2707C67.4124 15.6969 66.4541 17.1176 65.5092 18.5437C65.3191 18.8316 65.7391 19.1548 65.9291 18.8669C66.796 17.5722 67.6683 16.2641 68.5351 14.9694C68.5104 15.6854 68.427 16.3925 68.2659 17.0985C68.2587 17.1345 68.2609 17.1667 68.2632 17.1989C68.0142 17.2905 67.7653 17.3821 67.5279 17.502C67.2285 17.6585 67.4095 18.1242 67.73 17.9921C68.7519 17.5819 69.7601 17.4861 70.7062 17.6143C70.0839 18.7531 69.4616 19.8919 68.8449 21.0174C68.6814 21.3164 69.1739 21.5213 69.3374 21.2224C69.9802 20.0531 70.6191 18.8743 71.2714 17.7012C71.577 17.7737 71.8621 17.8767 72.1416 17.9931C71.5747 18.9987 71.0039 19.995 70.4276 21.0045C70.2547 21.3074 70.7567 21.5085 70.9201 21.2095C71.4815 20.2171 72.0523 19.2209 72.6136 18.2285C75.1231 19.554 76.574 22.6723 75.19 25.7352C74.7589 26.6959 74.1504 27.5202 73.4292 28.2587C73.9735 26.369 74.5179 24.4794 75.0661 22.5992C75.163 22.2725 74.6705 22.0675 74.5736 22.3942C73.9888 24.3998 73.4173 26.4109 72.8325 28.4164C72.7904 28.5551 72.8598 28.6698 72.9513 28.7314C72.3099 29.3156 71.5864 29.8344 70.8247 30.3139C71.795 27.1569 72.7652 23.9999 73.7355 20.8429C73.8324 20.5162 73.3399 20.3112 73.243 20.6379C72.2123 23.9962 71.1817 27.3546 70.151 30.7129L70.1549 30.7223C69.3588 31.1719 68.5376 31.5876 67.7009 31.9656C68.2913 29.9467 68.8855 27.9373 69.4852 25.9145C69.5821 25.5878 69.0896 25.3828 68.9927 25.7095C68.3857 27.7683 67.7843 29.8138 67.1774 31.8726C67.1408 31.998 67.1836 32.1017 67.2657 32.1671C66.4722 32.5162 65.6843 32.8521 64.9153 33.1801C65.8138 30.7585 66.7123 28.3369 67.6108 25.9153C67.7304 25.5903 67.2379 25.3853 67.1182 25.7103C66.1571 28.3011 65.1961 30.8919 64.2405 33.4694C63.8014 33.6614 63.3622 33.8535 62.9419 34.0378C62.7385 34.1327 62.5444 34.2237 62.3409 34.3186C63.2654 31.8532 64.19 29.3878 65.1145 26.9223C65.2342 26.5973 64.7416 26.3923 64.622 26.7173C63.6349 29.3519 62.6422 31.9999 61.655 34.6345C61.0446 34.9192 60.4302 35.1945 59.8292 35.4754C60.8563 32.8574 61.8967 30.245 62.9237 27.627C63.0473 27.3114 62.5508 27.097 62.4312 27.422C61.3543 30.1598 60.2679 32.9015 59.191 35.6393C59.1688 35.6925 59.1749 35.7341 59.181 35.7757C58.2634 36.1981 57.3363 36.6244 56.4187 37.0468C57.3251 34.8315 58.2314 32.6162 59.1283 30.4047C59.2613 30.0852 58.7687 29.8803 58.6358 30.1998C57.6574 32.5881 56.6829 34.9859 55.7046 37.3743C54.7869 37.7967 53.8693 38.2191 52.9517 38.6415C54.2991 35.5165 55.6465 32.3915 56.9939 29.2665C57.1268 28.9471 56.6343 28.7421 56.5013 29.0616C55.0725 32.3635 53.6475 35.6749 52.232 38.9823C51.5744 39.2865 50.9074 39.5946 50.2459 39.8893C51.4575 36.9968 52.6692 34.1042 53.8808 31.2116C54.0137 30.8921 53.5212 30.6871 53.3882 31.0066C52.0952 34.0761 50.8154 37.1512 49.5223 40.2207C48.974 40.4688 48.4295 40.7264 47.8811 40.9745C49.1078 38.2522 50.3345 35.5299 51.5745 32.8131C51.7207 32.4991 51.2188 32.298 51.0819 32.6081C49.7738 35.5073 48.4562 38.4105 47.1481 41.3098C46.841 41.4474 46.5471 41.5906 46.2399 41.7283C45.7198 41.9648 45.3395 42.1657 44.994 42.264C46.184 39.2921 47.3607 36.3147 48.5506 33.3428C48.6836 33.0233 48.1816 32.8222 48.0581 33.1378C46.8443 36.1857 45.6211 39.2374 44.4073 42.2853C44.1832 42.2233 43.9619 42.0609 43.7167 41.787C44.3231 39.8608 44.9296 37.9345 45.5266 36.0121C45.6235 35.6854 45.1404 35.4766 45.034 35.8071C44.4625 37.6308 43.8909 39.4545 43.3194 41.2781C42.9948 40.8385 42.6851 40.3816 42.3943 39.917C42.5136 39.912 42.6189 39.8465 42.6477 39.7023C43.0126 37.1367 43.8124 34.6896 45.0171 32.3954C45.1767 32.087 44.6841 31.8821 44.5245 32.1905C43.3199 34.4847 42.5295 36.9279 42.1418 39.4918C41.841 38.9762 41.5403 38.4605 41.245 37.9316C41.6549 36.7591 42.0742 35.5827 42.4841 34.4101C42.5245 34.2942 42.4857 34.2 42.4263 34.1362C42.8011 33.9486 43.1892 33.7665 43.564 33.5789C43.8296 33.4474 43.9315 33.0525 43.6569 32.8679C43.3041 32.6274 42.9552 32.3963 42.6024 32.1558C43.6025 30.0341 44.5932 27.9164 45.5972 25.8042C45.7434 25.4902 45.2509 25.2852 45.1046 25.5992C44.1211 27.6809 43.1415 29.772 42.1581 31.8537C41.7919 31.6076 41.4258 31.3616 41.0691 31.1116C41.975 29.0288 42.8847 26.9555 43.7905 24.8727C43.9235 24.5532 43.431 24.3482 43.298 24.6677C42.4088 26.7106 41.5101 28.7573 40.6248 30.8096C40.1022 30.4515 39.5664 30.088 39.0399 29.7205C40.1987 26.2983 41.3518 22.8895 42.5106 19.4673C42.6208 19.1462 42.1244 18.9318 42.018 19.2623C40.8759 22.6445 39.7299 26.0174 38.5878 29.3996C38.1529 29.0936 37.7086 28.7916 37.2737 28.4857C38.0939 26.0081 38.9237 23.5266 39.7439 21.049C39.8542 20.7278 39.3577 20.5134 39.2514 20.844C38.4383 23.2855 37.6252 25.7271 36.8121 28.1686C36.4211 27.8887 36.0205 27.6127 35.6295 27.3328C36.2519 25.1243 36.8743 22.9157 37.5061 20.7033C37.603 20.3766 37.1066 20.1622 37.0136 20.4983C36.3945 22.6614 35.7887 24.83 35.1696 26.9931C34.7347 26.6871 34.3053 26.3679 33.8759 26.0486C34.2718 24.4408 34.6621 22.8462 35.0579 21.2384C35.1415 20.9062 34.603 20.8304 34.5288 21.1587C34.1529 22.6812 33.7825 24.1903 33.416 25.7089C33.0727 25.4645 32.7293 25.22 32.3914 24.9623C32.6539 23.9939 32.9164 23.0255 33.1921 22.0627C33.2796 21.7399 32.7926 21.5216 32.6996 21.8577C32.4499 22.7767 32.1946 23.7091 31.9449 24.6281C30.7655 23.7468 29.5822 22.8561 28.4234 21.9444C28.1809 21.7576 27.7906 21.9075 27.7635 22.2164C27.2366 28.6424 26.7513 35.0622 26.2565 41.486C26.2367 41.7589 26.4946 41.9834 26.7586 41.8745C27.3053 41.6492 27.852 41.4238 28.3987 41.1984C27.4208 44.7114 26.4429 48.2245 25.465 51.7375C25.0431 51.9445 24.6173 52.1422 24.1953 52.3492C24.8998 50.206 25.6043 48.0629 26.3089 45.9198C26.4191 45.5986 25.9226 45.3842 25.8163 45.7148C25.0531 48.0365 24.2954 50.3449 23.5322 52.6667C23.0537 52.897 22.5807 53.1141 22.1022 53.3444C22.9479 50.5806 23.7936 47.8169 24.6298 45.057C24.7267 44.7303 24.2342 44.5253 24.1373 44.852C23.2423 47.7905 22.3435 50.7195 21.4446 53.6486C20.9811 53.8617 20.5098 54.056 20.033 54.2636C21.0803 51.0528 22.1143 47.8364 23.1617 44.6256C23.268 44.295 22.7755 44.09 22.6691 44.4206C21.5963 47.7302 20.5274 51.0491 19.4452 54.3626C19.4269 54.4253 19.4275 54.4802 19.4469 54.5273C18.6817 54.8648 17.9182 55.1796 17.1414 55.4888C18.5376 51.0644 19.9283 46.6533 21.3245 42.229C21.4309 41.8984 20.9383 41.6934 20.832 42.024C19.3881 46.6003 17.9498 51.1634 16.506 55.7397C16.1533 55.8741 15.814 56.0139 15.4614 56.1483C16.1619 53.8083 16.8625 51.4683 17.563 49.1283C17.6599 48.8016 17.1674 48.5966 17.0705 48.9233C16.3223 51.4153 15.5741 53.9072 14.8259 56.3992C14.7694 56.4225 14.7222 56.442 14.6751 56.4614C14.3186 56.5863 13.9659 56.7207 13.6188 56.8417C14.3602 54.0658 15.1016 51.2899 15.8336 48.5178C15.9172 48.1856 15.392 48.1154 15.3045 48.4382C14.5432 51.2995 13.7763 54.1742 13.015 57.0355C12.4865 57.1982 11.9426 57.3232 11.3958 57.3612C12.1709 54.3728 12.9555 51.3806 13.7306 48.3923C13.8142 48.0601 13.289 47.9899 13.2054 48.3221C12.4192 51.337 11.633 54.352 10.8506 57.3764C10.6366 57.3654 10.4186 57.345 10.1929 57.3057C10.1114 57.2952 10.0315 57.2619 9.95939 57.2475C10.6698 54.5837 11.3708 51.9237 12.0812 49.2598C12.1648 48.9275 11.6395 48.8573 11.5521 49.1801C10.8472 51.8307 10.1479 54.468 9.44304 57.1185C8.98324 56.9662 8.56891 56.8172 8.16013 56.6549C8.88649 53.7087 9.61285 50.7626 10.3392 47.8164C10.4228 47.4842 9.89372 47.4045 9.81011 47.7368C9.09649 50.6336 8.37344 53.5343 7.65981 56.4311C7.33256 56.2793 7.00695 56.1047 6.7002 55.9224C7.50585 52.9546 8.30597 50 9.11162 47.0322C9.20465 46.6961 8.67002 46.6298 8.58641 46.962C7.80069 49.8444 7.02439 52.7229 6.24255 55.6148C5.85535 55.3443 5.47369 55.0605 5.13139 54.7385C6.36297 50.5033 7.59456 46.2681 8.82614 42.0329C8.92306 41.7062 8.43051 41.5012 8.3336 41.8279C7.12583 45.9871 5.90863 50.1502 4.69532 54.3227C4.43124 54.0567 4.186 53.7828 3.95574 53.4917C3.81369 53.3077 3.68107 53.1197 3.54845 52.9318C4.75819 49.4996 5.97181 46.0769 7.19098 42.6408C7.31063 42.3158 6.80866 42.1147 6.69844 42.4359C5.52525 45.7427 4.35594 49.0589 3.19218 52.3619C2.87419 51.8313 2.5939 51.2851 2.36629 50.7063C3.03598 48.8532 3.7018 46.9907 4.37149 45.1376C4.47229 44.8203 3.97586 44.6059 3.8601 44.9404Z" fill="#7FB1DF"/>
</svg>
