<svg width="51" height="47" viewBox="0 0 51 47" fill="none" xmlns="http://www.w3.org/2000/svg">
<path d="M50.2815 42.812C50.5342 42.5994 50.8991 42.1838 50.9826 41.4941C51.0772 40.8256 50.7937 39.9007 49.965 39.3466C49.5628 39.073 49.0212 38.9017 48.478 38.9533C48.2269 38.9764 47.9874 39.0381 47.7561 39.1237C47.6933 38.7543 47.2906 37.9116 46.3395 36.8331C45.7282 36.1528 44.6873 35.4943 43.457 35.2438C42.2265 34.9713 40.9038 35.0602 39.6172 35.1692C38.3624 35.2607 37.0558 35.4384 36.3623 35.1735C35.7093 34.9608 35.2796 34.0233 34.9407 33.2705C34.5336 32.362 34.1812 31.6723 33.9174 31.2734C33.9223 31.2728 33.9277 31.2731 33.9325 31.2726C36.2556 31.0752 38.3786 30.654 40.2451 30.0252C40.5897 29.887 40.7248 29.7691 40.9281 29.6413C41.1075 29.5119 41.2846 29.3844 41.4592 29.2582C41.7989 29.0002 42.1192 28.7395 42.4222 28.4746C43.0254 27.9398 43.5727 27.4152 44.0111 26.7934C44.2433 26.4648 44.5292 25.9034 44.3457 25.494C44.18 25.0676 43.6054 24.9533 43.2935 24.8644C42.9895 24.7951 42.7014 24.7608 42.4278 24.7423C42.5011 24.2563 42.5754 23.322 42.6487 21.9802C42.7489 19.9562 42.8938 16.977 42.9451 13.3733C42.9665 11.5877 43.1724 9.61307 43.1922 7.43281C43.1933 6.34282 43.147 5.20208 42.9635 4.02886C42.8673 3.44091 42.7414 2.7853 42.3573 2.13614C41.9695 1.45905 41.2597 1.0005 40.6205 0.766392C39.3059 0.280458 38.001 0.236697 36.7185 0.185151C36.0793 0.163942 35.4374 0.16072 34.8444 0.114274C31.7656 -0.146826 28.3265 0.127176 24.6894 0.0847424C19.1271 0.0705136 13.77 0.00554355 8.9042 0.512418C8.60501 0.542219 8.26392 0.572556 7.88986 0.67726C7.52282 0.773641 7.092 0.999157 6.80524 1.31944C6.23118 1.96431 6.10144 2.67549 5.99468 3.26909C5.80684 4.51157 5.88117 5.61687 5.8663 6.67948C5.88306 8.81652 5.89874 10.8072 5.91333 12.6245C5.9709 16.2612 6.10225 19.2056 6.25874 21.2358C6.36334 22.5996 6.47145 23.5398 6.56389 24.0163L5.96631 24.0136C5.62792 24.0222 5.29791 24.0775 5.02953 24.2026C4.75223 24.3224 4.55763 24.5143 4.33952 24.7074C4.25816 24.7495 4.28222 24.819 4.29168 24.8851L4.31681 25.0819C4.34276 25.2164 4.32952 25.3375 4.3879 25.4835C4.5333 25.774 4.67871 26.1147 4.8252 26.3662C4.92304 26.5271 5.01412 26.6946 5.12196 26.8482C5.32846 27.1631 5.54954 27.4675 5.78928 27.7569C6.74497 28.9135 7.89797 29.9345 9.32935 30.6537C10.5223 31.253 11.7986 31.4009 12.9746 31.4487C12.8078 31.8458 12.6035 32.3381 12.3421 32.8893C11.9959 33.5838 11.4802 34.4303 10.744 34.7085C10.4056 34.8459 9.9226 34.8698 9.3961 34.8078C8.86798 34.7418 8.28635 34.5855 7.64742 34.4271C6.40307 34.0923 4.81845 33.8824 3.56383 34.534C2.32948 35.1627 1.69298 36.141 1.25216 36.9032C0.415386 38.4834 0.236464 39.5337 0.40944 39.6207C0.621877 39.7305 1.19324 38.8 2.1838 37.5156C2.68543 36.8954 3.33625 36.1853 4.16681 35.85C4.99223 35.4959 6.02928 35.6261 7.26687 35.9501C8.49068 36.2428 9.93206 36.6672 11.3545 36.021C12.0253 35.6938 12.4727 35.1727 12.771 34.6902C13.071 34.2002 13.2494 33.7242 13.3832 33.2917C13.5894 32.5502 13.6819 31.9394 13.7105 31.4691C14.1267 31.4765 13.5341 31.4764 17.9044 31.4653C17.368 33.3818 17.2064 36.6575 15.1632 38.9613C14.79 39.3767 14.3773 39.7176 13.9365 39.9719C13.4902 40.2312 12.9581 40.4395 12.4272 40.7075C11.8999 40.9657 11.3602 41.3258 10.9734 41.7516C10.5848 42.1725 10.3134 42.6244 10.1299 43.0544C9.76422 43.9205 9.74179 44.6849 9.81341 45.1813C9.88963 45.6836 10.0453 45.9292 10.1467 45.915C10.3886 45.8992 10.3264 44.825 11.1232 43.5624C11.5394 42.928 12.1024 42.3752 13.0432 42.0176C13.5127 41.8181 14.0786 41.6364 14.687 41.3164C16.0887 40.5751 17.4604 39.0426 18.1522 36.5827C18.4625 35.4524 18.5544 34.4225 18.5825 33.5718C18.6014 32.6501 18.5574 31.9357 18.4811 31.4637C20.0993 31.4543 21.6712 31.4457 23.2137 31.4369C23.0648 32.4391 23.0337 34.1935 23.098 36.1987C23.2021 39.2811 23.4896 41.7907 23.9296 41.8023C24.3618 41.8144 24.7826 39.2813 24.6769 36.1475C24.6129 34.1525 24.3515 32.4216 24.0594 31.432C24.3491 31.4305 26.1485 31.4207 26.674 31.417C26.7373 31.4387 26.7981 31.4691 26.8662 31.4694C26.9302 31.4696 26.9873 31.4358 27.0467 31.4138C27.5424 31.4092 28.0173 31.4049 28.5022 31.4006C28.3909 32.8499 28.5178 34.6165 28.7205 36.0739C28.8065 36.6366 28.8692 37.2866 29.1922 38.0109C29.5243 38.7468 30.1368 39.3205 30.7225 39.7278C31.3238 40.1445 31.8309 40.4419 32.3184 40.7961C32.8025 41.1432 33.2495 41.5 33.6555 41.8584C34.472 42.5733 35.0961 43.3143 35.5572 43.9834C36.4704 45.3303 36.6918 46.3881 36.9385 46.3524C37.1199 46.3515 37.3113 45.1571 36.5342 43.4451C35.8114 41.8954 34.5926 40.6007 33.2436 39.5638C32.7322 39.1651 32.1298 38.7914 31.6425 38.452C31.1465 38.1038 30.7911 37.754 30.5906 37.3521C30.3822 36.9427 30.273 36.3859 30.1549 35.828C29.9376 34.7205 29.7419 33.7232 29.5773 32.885C29.4687 32.3056 29.3724 31.8068 29.283 31.3934C30.8601 31.379 32.3608 31.3694 33.4323 31.2981C33.4531 31.7555 33.6147 32.5746 33.8979 33.6687C33.9993 34.0856 34.1415 34.5377 34.3869 35.0521C34.6193 35.5448 35.0636 36.1727 35.7728 36.4954C36.4591 36.8146 37.1845 36.845 37.8132 36.8391C38.458 36.8369 39.1067 36.7875 39.7518 36.7327C41.0392 36.6208 42.2073 36.5158 43.1933 36.6659C44.1827 36.8042 44.9701 37.1752 45.5887 37.6547C46.5025 38.3873 47.1409 39.0384 47.4869 39.2593C47.3182 39.3436 47.1474 39.4231 46.9928 39.5447C46.5631 39.8996 46.2047 40.4197 46.132 40.9614C46.0455 41.4901 46.1049 42.0007 46.2887 42.4136C46.6106 43.2566 47.3233 43.8268 48.0415 43.9732C48.7942 44.124 49.3196 43.7466 49.5485 43.5154C49.7604 43.2311 49.8137 43.052 49.7372 42.9761C49.6607 42.9001 49.4618 42.9218 49.2172 43.001C48.9528 43.0332 48.638 43.0816 48.3593 42.9095C48.0901 42.7521 47.7685 42.4085 47.6628 41.9368C47.5417 41.4627 47.635 41.0363 47.9836 40.7668C48.3904 40.4615 48.8545 40.3861 49.2007 40.5773C49.568 40.7502 49.8096 41.129 49.8656 41.4839C49.9969 42.2281 49.5537 42.8233 49.7372 42.9761C49.8115 43.0523 49.9985 43.0085 50.2815 42.812ZM31.2676 30.032C31.2673 30.0287 31.2682 30.0261 31.2682 30.0231C31.2382 29.4582 30.9282 28.9677 30.4919 28.9272C30.0789 28.888 29.7027 29.3715 29.6992 30.0148C28.9873 30.0075 28.2573 30.0003 27.5211 29.9928C27.3748 29.477 27.0029 29.1369 26.6386 29.212C26.3216 29.277 26.1032 29.5879 26.0337 29.9799C25.7507 29.9777 25.4553 29.9758 25.1691 29.974C25.1686 29.9632 25.1732 29.9536 25.1721 29.9428C25.1261 29.495 24.7369 29.1677 24.3032 29.2118C23.9156 29.2512 23.6388 29.5769 23.6131 29.964C23.3642 29.9624 23.1264 29.9608 22.8756 29.9592C22.8799 29.8993 22.8961 29.8462 22.8945 29.7834C22.878 29.1017 22.511 28.5849 22.0769 28.6287C21.6428 28.6724 21.3007 29.2061 21.315 29.8204C21.3161 29.8658 21.3317 29.905 21.3363 29.9493C20.8517 29.946 20.362 29.9428 19.8704 29.9396C19.8869 29.8773 19.9063 29.8148 19.9085 29.7519C19.9128 29.3866 19.6701 28.993 19.2547 28.8531C18.8449 28.7119 18.3449 29.0888 18.329 29.7136C18.3271 29.7936 18.3533 29.8577 18.3663 29.9299C18.0492 29.9289 17.7182 29.9275 17.3982 29.9264C17.3976 29.9106 17.4025 29.895 17.4009 29.8789C17.3525 29.4343 17.0344 29.0378 16.5984 28.9951C16.1962 28.9546 15.8362 29.3664 15.8381 29.9213C15.6473 29.9205 15.4592 29.92 15.2676 29.9192C15.3292 29.7103 15.3724 29.4832 15.3673 29.2322C15.3514 28.4635 14.9835 27.824 14.5476 27.8039C14.1119 27.784 13.7708 28.438 13.7878 29.2647C13.7927 29.4996 13.8284 29.7162 13.8835 29.9098C13.311 29.8988 12.7545 29.8746 12.2172 29.8193C12.2289 29.6035 12.2045 29.3699 12.1337 29.1388C11.9575 28.5983 11.5926 28.1403 11.1532 28.1478C10.7483 28.1505 10.4296 28.7465 10.5932 29.4636C10.4023 29.3957 10.2075 29.338 10.0269 29.2456C8.87258 28.6697 7.83526 27.7714 7.00903 26.7724C6.80038 26.523 6.60983 26.2621 6.43388 25.9968L6.16496 25.5667C6.16036 25.5627 6.16009 25.5576 6.16577 25.5557L6.17361 25.553C8.23534 25.5516 11.9272 25.549 14.4205 25.5469C15.7287 25.5879 16.9863 25.4 18.0498 25.4634C19.1501 25.4443 19.4763 26.0771 20.5588 27.0189C21.1226 27.4844 21.9842 27.5832 22.4991 27.551C23.9866 27.5448 25.5734 27.728 27.1232 27.5373C27.75 27.4863 28.3432 27.0248 28.6197 26.6371C28.9232 26.2492 29.1292 25.9584 29.3984 25.7748C29.9187 25.4142 30.7446 25.3302 31.4476 25.3044C32.9493 25.273 34.2425 25.2459 35.2999 25.2239C39.5665 25.098 39.8141 24.8793 35.309 24.6131C34.2461 24.5525 32.965 24.4818 31.4411 24.4271C30.6646 24.4367 29.7873 24.3954 28.8397 24.945C28.3862 25.2269 28.0676 25.658 27.8046 25.9603C27.5297 26.2723 27.3256 26.4036 26.99 26.4355C25.5963 26.5551 23.9818 26.3285 22.5131 26.2938C21.9658 26.2892 21.6723 26.2339 21.3536 25.9847C21.0366 25.7445 20.6804 25.2365 20.1347 24.8134C19.852 24.6053 19.5966 24.4196 19.1812 24.2759C18.8114 24.1562 18.4749 24.113 18.1492 24.0872C16.84 23.994 15.6597 24.1642 14.4624 24.1014C12.0107 24.0751 9.43664 24.0472 6.77362 24.0185C6.82335 23.5403 6.85065 22.5923 6.87362 21.218C7.06258 10.8659 6.99195 14.1957 7.17633 6.69398C7.21525 5.62546 7.18282 4.50889 7.36417 3.50051C7.45336 2.98826 7.6112 2.51871 7.84364 2.28755C8.02851 2.07439 8.42311 1.99358 9.04096 1.95196C13.8078 1.53368 19.0987 1.63893 24.6888 1.65396C27.4843 1.68618 30.2465 1.51946 32.816 1.54765C33.4612 1.55758 34.0971 1.58255 34.7223 1.62926C36.3474 1.73847 38.5558 1.56135 40.0973 2.11573C40.5835 2.29507 40.9316 2.52488 41.1413 2.87282C41.3692 3.23123 41.5005 3.72737 41.5932 4.25518C42.1371 7.30378 41.7509 10.4776 41.8281 13.3776C41.9205 17.0358 41.9446 19.9347 42.0338 21.9724C42.0851 23.3097 42.1441 24.2448 42.2092 24.7345C42.0024 24.727 41.7962 24.7211 41.6097 24.7227C39.6597 24.778 38.598 24.8652 38.5945 24.9672C38.5907 25.0719 39.6629 25.1823 41.5913 25.3071C42.0657 25.3463 42.5884 25.3973 43.1062 25.5571C43.2611 25.6051 43.2879 25.6212 43.3727 25.6594C43.4422 25.691 43.5189 25.7343 43.5384 25.817C43.5798 25.9797 43.4247 26.1667 43.323 26.3007C42.9387 26.7848 42.3927 27.2662 41.8011 27.7384C41.5984 27.899 41.3773 28.0555 41.1597 28.2128C41.1478 28.1567 41.1462 28.1014 41.1286 28.0453C40.9527 27.4989 40.5283 27.0938 40.0956 27.1625C39.6667 27.2297 39.4086 27.8487 39.6221 28.518C39.6845 28.7154 39.7829 28.8748 39.894 29.0123C39.3218 29.1793 38.711 29.3208 38.0832 29.4499C38.0959 29.3377 38.0951 29.2327 38.0653 29.1514C37.9634 28.9264 37.625 28.6963 37.188 28.6504C36.7656 28.5983 36.3753 29.1079 36.5969 29.7111C35.9304 29.8094 35.2412 29.8851 34.5328 29.9409C34.5644 29.8408 34.5958 29.7396 34.6044 29.6292C34.6493 29.0472 34.3342 28.517 33.9039 28.4453C33.4736 28.3739 33.0806 28.8496 33.0293 29.5087C33.0149 29.6931 33.0352 29.8623 33.0728 30.0177C32.486 30.033 31.8847 30.0405 31.2676 30.032Z" fill="#42D37B"/>
</svg>
