<svg width="109" height="32" viewBox="0 0 109 32" fill="none" xmlns="http://www.w3.org/2000/svg">
<path d="M22.5238 5.23411C23.0123 4.6425 23.3263 4.0238 23.3263 3.36898C23.3263 2.27157 22.4497 1.5761 21.3769 1.5761C20.3782 1.5761 19.5496 2.24448 19.3926 3.36898L17.9316 3.00318C18.2107 1.16063 19.663 0 21.3681 0C23.2826 0 24.8047 1.3503 24.8047 3.35543C24.8047 4.45283 24.3162 5.45088 23.6097 6.29538C22.1967 7.99793 22.1619 8.06116 20.6355 9.92628H24.8395V11.4888H18.0625V10.8205L22.5238 5.23411Z" fill="white"/>
<path d="M18.0896 19.1482L18.1027 13.4444H30.052C30.1741 14.2392 30.2351 15.0612 30.2351 15.8786C30.2351 24.5087 23.4494 31.5312 15.1198 31.5312C6.78579 31.5448 0 24.5223 0 15.8921C0 7.26194 6.78579 0.23948 15.1154 0.23948V5.76261C9.72077 5.76261 5.33356 10.3058 5.33356 15.8921C5.33356 21.4785 9.72077 26.0216 15.1154 26.0216C19.4023 26.0216 23.0699 23.1449 24.387 19.1482H18.0896ZM41.4169 15.2102C41.4169 11.087 41.6611 9.40707 42.3196 8.39999C43.1482 7.14001 44.7443 6.44454 46.8289 6.44454C48.6693 6.44454 50.2044 7.00001 51.0199 7.99806C51.6392 8.70256 51.8965 9.68706 51.8965 11.2406V12.1754H48.521C48.473 10.4096 48.4251 10.0935 48.1808 9.71416C47.9148 9.28513 47.4002 9.01869 46.7809 9.01869C46.1093 9.01869 45.5642 9.32126 45.3331 9.77738C44.9929 10.4819 44.8926 11.7825 44.8926 15.1876C44.8926 18.0011 45.0147 19.6404 45.2328 20.3359C45.429 20.914 45.9872 21.2436 46.733 21.2436C48.05 21.2436 48.412 20.5482 48.5254 17.9514H51.8877C51.8616 20.1462 51.7395 21.0404 51.2903 21.8985C50.671 23.1359 49.0356 23.8268 46.685 23.8268C43.9463 23.8268 42.2891 22.7791 41.7396 20.7604C41.5259 19.943 41.4169 17.9605 41.4169 15.2102ZM53.8328 6.71098H59.0573C61.5649 6.71098 62.0184 6.81034 62.895 7.54194C63.6756 8.21031 64.0638 9.30772 64.0638 10.9335C64.0638 12.2973 63.7978 13.3451 63.2831 14.0496C62.8427 14.6683 62.3106 14.9347 61.1637 15.1966C63.3442 15.4721 64.0987 16.5334 64.1248 19.374C64.1248 19.8301 64.1728 20.7604 64.2208 21.9211C64.2687 22.7294 64.2949 22.8785 64.4868 23.5875H60.8933C60.745 22.4901 60.745 22.463 60.745 20.3946C60.745 18.3624 60.5967 17.3553 60.2086 16.8992C59.9426 16.5966 59.6504 16.5199 58.7826 16.5199H57.1515V23.5965H53.824L53.8328 6.71098ZM58.5209 14.027C60.0429 14.027 60.5924 13.3586 60.5924 11.5928C60.5924 10.658 60.3482 9.90383 59.9469 9.53803C59.6548 9.28513 59.4367 9.23546 58.6081 9.23546H57.1341V14.027H58.5209ZM66.1832 15.1244C66.1832 11.1864 66.3533 9.82706 67.0118 8.63934C67.7925 7.18969 69.4104 6.44454 71.7131 6.44454C74.2599 6.44454 75.9869 7.42904 76.6585 9.28062C76.9986 10.1883 77.1469 11.9677 77.1469 15.2102C77.1469 18.7553 76.9768 20.4308 76.5015 21.3927C75.7209 22.9959 74.0549 23.8539 71.7392 23.8539C69.4235 23.8539 67.8274 23.1223 67.0249 21.6591C66.3664 20.4849 66.1832 19.085 66.1832 15.1244ZM71.6651 21.2527C72.6768 21.2527 73.2743 20.7469 73.4793 19.7533C73.6014 19.1121 73.6973 16.9173 73.6973 14.5554C73.6973 12.0219 73.5752 10.5316 73.331 9.92641C73.113 9.37094 72.4762 9.01869 71.6738 9.01869C70.7493 9.01869 70.1038 9.44771 69.9207 10.1793C69.7506 10.8838 69.6546 12.6406 69.6546 15.3276C69.6546 17.5585 69.7288 19.0217 69.8509 19.7308C70.034 20.7469 70.6272 21.2527 71.6651 21.2527ZM78.2415 6.71098H81.6388L82.7465 12.8664C83.1346 15.0973 83.2349 17.1295 83.4181 21.0133C84.0984 15.8424 84.3208 14.4018 84.6348 12.8664L85.9257 6.71098H89.7373L90.954 12.8664C91.5122 15.6799 91.6343 17.5856 91.8088 21.0133C92.0268 18.1501 92.2492 16.0547 92.7813 12.8664L93.841 6.71098H96.824L93.5357 23.601H89.8463L88.3068 15.7521C88.0408 14.3883 87.7094 11.1999 87.6352 9.47029C87.1468 13.2683 87.125 13.8102 86.7325 15.7521L85.1494 23.5965H81.3728L78.2415 6.71098ZM98.2806 6.71098H102.838C105.481 6.71098 106.287 6.86453 107.112 7.46968C108.145 8.25096 108.66 9.61481 108.878 12.2883C108.952 13.336 109 14.6728 109 15.8605C109 18.8998 108.795 20.3901 108.32 21.3836C107.639 22.8107 106.065 23.6146 104.046 23.6146H98.298L98.2806 6.71098ZM103.143 20.9366C104.312 20.9366 104.957 20.6611 105.188 20.0288C105.433 19.3605 105.507 18.3895 105.507 15.6257C105.507 12.609 105.411 11.2857 105.14 10.4548C104.896 9.75029 104.238 9.35739 103.226 9.35739H101.704V20.9366H103.143ZM36.4714 0.0588379H35.3855V31.2286H36.4714V0.0588379Z" fill="white"/>
</svg>
