<svg width="658" height="272" viewBox="0 0 658 272" fill="none" xmlns="http://www.w3.org/2000/svg">
<path d="M610.832 271.555H502.322C476.781 271.555 456 252.849 456 229.851V228.008C456 207.317 472.958 189.72 495.599 186.755C495.495 185.891 495.443 185.092 495.443 184.332C495.443 172.626 505.04 163.112 516.848 163.112C521.816 163.112 526.601 164.827 530.438 167.96C536.784 149.989 553.768 138 573.093 138C598.009 138 618.296 158.098 618.296 182.81C618.296 184.125 618.231 185.479 618.114 186.833C640.43 190.004 657.167 207.575 657.167 228.008V229.851C657.154 252.849 636.373 271.555 610.832 271.555ZM516.848 164.711C505.937 164.711 497.055 173.516 497.055 184.332C497.055 185.247 497.133 186.201 497.315 187.322L497.445 188.148L496.613 188.238C474.388 190.79 457.626 207.871 457.626 227.995V229.838C457.626 251.947 477.679 269.93 502.322 269.93H610.832C635.475 269.93 655.528 251.947 655.528 229.838V227.995C655.528 208.129 639.013 191.061 617.113 188.302L616.32 188.199L616.411 187.413C616.58 185.853 616.658 184.293 616.658 182.785C616.658 158.961 597.112 139.586 573.08 139.586C554.067 139.586 537.382 151.639 531.582 169.584L531.192 170.783L530.256 169.932C526.588 166.567 521.816 164.711 516.848 164.711Z" fill="#DCD5FD"/>
<path d="M522.832 133.555H414.322C388.781 133.555 368 114.849 368 91.8511V90.0076C368 69.317 384.958 51.7202 407.599 48.7552C407.495 47.8915 407.443 47.0922 407.443 46.3316C407.443 34.6263 417.04 25.1124 428.848 25.1124C433.816 25.1124 438.601 26.827 442.438 29.9596C448.784 11.989 465.768 0 485.093 0C510.009 0 530.296 20.0977 530.296 44.8105C530.296 46.1254 530.231 47.479 530.114 48.8326C552.43 52.0038 569.167 69.5748 569.167 90.0076V91.8511C569.154 114.849 548.373 133.555 522.832 133.555ZM428.848 26.7109C417.937 26.7109 409.055 35.5158 409.055 46.3316C409.055 47.2469 409.133 48.2009 409.315 49.3224L409.445 50.1475L408.613 50.2377C386.388 52.7902 369.626 69.8713 369.626 89.9947V91.8382C369.626 113.947 389.679 131.93 414.322 131.93H522.832C547.475 131.93 567.528 113.947 567.528 91.8382V89.9947C567.528 70.1291 551.013 53.061 529.113 50.3022L528.32 50.199L528.411 49.4127C528.58 47.8528 528.658 46.293 528.658 44.7847C528.658 20.9614 509.112 1.58565 485.08 1.58565C466.067 1.58565 449.382 13.6391 443.582 31.5839L443.192 32.7828L442.256 31.932C438.588 28.5673 433.816 26.7109 428.848 26.7109Z" fill="#DCD5FD"/>
<path d="M462.692 230H368.297C346.078 230 328 213.753 328 193.778V192.177C328 174.206 342.752 158.922 362.448 156.347C362.357 155.597 362.312 154.902 362.312 154.242C362.312 144.075 370.661 135.812 380.933 135.812C385.255 135.812 389.418 137.301 392.755 140.022C398.276 124.413 413.051 114 429.862 114C451.537 114 469.186 131.456 469.186 152.92C469.186 154.063 469.129 155.238 469.027 156.414C488.44 159.168 503 174.43 503 192.177V193.778C502.989 213.753 484.911 230 462.692 230ZM380.933 137.2C371.442 137.2 363.715 144.847 363.715 154.242C363.715 155.037 363.783 155.865 363.941 156.839L364.054 157.556L363.33 157.634C343.996 159.851 329.414 174.687 329.414 192.166V193.767C329.414 212.97 346.859 228.589 368.297 228.589H462.692C484.13 228.589 501.575 212.97 501.575 193.767V192.166C501.575 174.911 487.207 160.087 468.156 157.69L467.466 157.601L467.545 156.918C467.692 155.563 467.76 154.208 467.76 152.898C467.76 132.206 450.757 115.377 429.85 115.377C413.311 115.377 398.796 125.846 393.751 141.432L393.411 142.474L392.597 141.735C389.407 138.812 385.255 137.2 380.933 137.2Z" fill="#DCD5FD"/>
<path d="M97.7655 221.177C96.3526 224.203 94.3146 226.604 91.851 228.452C90.8275 229.213 89.7406 229.884 88.5903 230.464C79.7411 234.903 67.4954 233.943 58.6372 229.612C57.0612 228.842 55.5939 227.963 54.2715 226.994C54.2534 226.984 54.2444 226.975 54.2353 226.966C47.3697 221.902 42.6961 213.956 41.6001 205.485C41.573 205.267 41.5458 205.059 41.5277 204.841C41.4009 203.727 41.3103 202.595 41.1563 201.48C40.9661 200.121 40.6944 198.789 40.1328 197.548C37.4337 191.505 29.8073 189.91 24.1464 186.486C22.8693 185.715 21.6737 184.819 20.5687 183.822C19.5814 182.925 18.6666 181.937 17.8333 180.896C15.1795 177.525 13.4042 173.457 12.8517 169.199C12.3536 165.339 12.7702 161.298 12.9151 157.348C12.9604 156.179 12.9785 155.011 12.9423 153.86C12.8427 150.716 12.3173 147.69 10.7323 144.945C9.08381 142.091 6.45714 139.935 4.50073 137.28C3.94823 136.528 3.45912 135.74 3.03342 134.915C2.50809 133.901 2.08239 132.84 1.75632 131.753C0.252777 126.806 0.723765 121.234 3.07871 116.641C3.70367 115.436 4.45544 114.294 5.33402 113.252C5.44271 113.126 5.5514 113.008 5.66009 112.881C7.39912 110.933 9.68161 109.284 12.2811 109.03C15.6777 108.704 18.3858 110.625 21.0397 112.935C22.0179 113.787 22.987 114.693 23.9834 115.563C25.5775 116.958 27.235 118.254 29.0827 119.06C33.1495 120.845 37.9681 120.174 42.2523 121.08C43.3663 121.316 44.4351 121.66 45.4496 122.177C45.5673 122.24 45.6851 122.294 45.8028 122.367C52.2427 125.973 52.7861 134.752 55.2135 141.719C55.8475 143.531 56.6899 145.343 58.1391 146.603C58.2749 146.721 58.4108 146.829 58.5557 146.938C59.4796 147.627 60.5303 148.071 61.6534 148.388C63.6913 148.958 65.9466 149.103 68.048 149.52C76.3084 151.196 83.1468 158.408 84.3695 166.753C84.9311 170.594 84.4239 174.617 84.4329 178.513C84.4329 180.533 84.5778 182.517 85.0851 184.429C85.2753 185.172 85.5289 185.906 85.8459 186.622C87.7479 190.925 91.7423 193.879 94.6497 197.575C95.2566 198.354 95.8182 199.17 96.3254 200.021C97.0137 201.19 97.6115 202.413 98.0916 203.682C100.247 209.308 100.311 215.732 97.7655 221.177Z" fill="#ECBF4C"/>
<path d="M86.5533 222.4C86.2454 222.862 85.9193 223.288 85.5479 223.66C87.4047 225.535 89.5332 227.157 91.8519 228.443C90.8285 229.204 89.7415 229.875 88.5912 230.455C86.2816 228.987 84.1622 227.211 82.3054 225.2C81.6623 225.327 81.0011 225.426 80.358 225.553L58.6382 229.603C57.0622 228.833 55.5949 227.954 54.2725 226.985L66.0653 224.783C70.6665 223.922 75.2768 223.062 79.887 222.201C77.3419 218.577 75.6753 214.491 74.6609 210.096C74.0993 207.668 73.6736 205.213 73.1301 202.785C70.5397 203.193 67.8859 203.392 65.2773 203.628C57.3792 204.334 49.4539 204.642 41.5286 204.842C41.4018 203.727 41.3113 202.595 41.1573 201.48C44.1915 201.408 47.2258 201.326 50.26 201.199C55.5405 200.991 60.821 200.692 66.0744 200.185C67.4873 200.049 68.9094 199.904 70.3223 199.732C70.9654 199.659 71.6085 199.587 72.2516 199.496C72.2606 199.496 72.2787 199.496 72.2969 199.487C71.5904 197.14 70.6575 194.884 69.4981 192.719C66.9258 187.926 63.3028 183.677 58.9099 180.461C56.7633 178.884 54.4265 177.616 52.0987 176.32C51.1114 176.828 49.9521 177.063 48.9195 177.362C47.6605 177.734 46.3925 178.087 45.1244 178.431C37.0361 180.615 28.821 182.264 20.5787 183.786C19.5914 182.889 18.6766 181.901 17.8433 180.859C21.8286 180.135 25.8139 179.383 29.7901 178.567C34.9348 177.507 40.0704 176.329 45.1426 174.934C46.1661 174.653 47.1896 174.363 48.213 174.055C46.9631 173.267 45.7494 172.424 44.6172 171.455C40.5867 168.021 38.3223 163.201 36.7282 158.245C36.0942 156.279 35.5779 154.277 35.0616 152.284C27.6526 153.815 20.2707 155.482 12.9251 157.303C12.9704 156.134 12.9885 154.965 12.9523 153.815C20.0081 152.075 27.091 150.481 34.2011 149.013C33.6667 147.083 33.0871 145.171 32.3534 143.305C31.4748 141.058 30.3879 138.829 28.8844 136.936C27.2993 134.933 25.3429 133.375 23.1601 132.07C22.1909 131.491 21.1946 130.965 20.1802 130.458C18.894 131.282 17.001 131.445 15.6333 131.781C13.5863 132.288 11.5303 132.786 9.4833 133.294C7.33668 133.819 5.19911 134.345 3.05249 134.87C2.52716 133.855 2.10146 132.795 1.77539 131.708C3.84049 131.201 5.9056 130.693 7.9707 130.186C9.76408 129.742 11.5575 129.307 13.3508 128.863L15.7239 128.283C13.5501 127.205 11.4307 126.055 9.50141 124.569C6.757 122.44 4.55603 119.703 3.08872 116.596C3.71369 115.391 4.46546 114.249 5.34403 113.207C5.35309 113.216 5.35309 113.234 5.35309 113.243C7.06495 118.516 11.0865 122.05 15.8416 124.569C16.7655 125.058 17.7075 125.529 18.6495 125.982C18.6947 125.737 18.7491 125.484 18.7944 125.239C18.9665 124.342 19.1386 123.454 19.3016 122.557C19.6367 120.763 19.9628 118.969 20.2889 117.185C20.5425 115.753 20.7961 114.322 21.0497 112.89C22.0279 113.742 22.997 114.648 23.9934 115.518C23.8213 116.478 23.6492 117.438 23.4771 118.39C23.1148 120.374 22.7525 122.358 22.3811 124.342C22.1909 125.366 21.9917 126.39 21.7924 127.404C21.7833 127.441 21.7833 127.477 21.7743 127.513C24.3919 128.836 26.928 130.277 29.138 132.261C32.8606 135.613 34.8805 139.917 36.3478 144.51C38.5487 136.746 40.5233 128.918 42.2623 121.035C43.3764 121.271 44.4451 121.615 45.4596 122.131C43.3492 131.726 40.8765 141.239 38.0777 150.662C38.911 153.86 39.7353 157.049 40.9127 160.021C41.8004 162.277 42.9054 164.497 44.418 166.399C46.0845 168.483 48.1496 170.078 50.414 171.464C50.6857 171.627 50.9575 171.79 51.2382 171.953C51.9357 169.679 52.5697 167.378 53.2399 165.095C55.0152 159.024 56.7905 152.963 58.5748 146.893C59.4987 147.581 60.5493 148.025 61.6724 148.342C61.2015 149.964 60.7214 151.577 60.2504 153.199C58.6925 158.517 57.1347 163.835 55.5768 169.154C55.1692 170.549 54.7797 171.944 54.354 173.33C54.3268 173.43 54.2906 173.53 54.2544 173.638C55.3866 174.255 56.5187 174.88 57.6238 175.541C60.0059 176.964 62.234 178.631 64.2719 180.506C68.2753 184.175 71.5451 188.733 73.7461 193.698C74.1627 194.649 74.525 195.609 74.8601 196.57C74.9326 196.434 75.005 196.289 75.0775 196.153C75.6753 194.993 76.2822 193.843 76.8799 192.692C79.3707 187.935 81.8978 183.197 84.4429 178.467C84.4429 180.488 84.5878 182.472 85.0951 184.384C82.8035 188.669 80.5392 192.955 78.2929 197.267C77.677 198.445 77.1426 199.75 76.3908 200.855C76.3093 200.964 76.2369 201.073 76.1463 201.172C76.9796 204.669 77.5774 208.239 78.5737 211.727C79.5519 215.161 81.1822 218.323 83.3198 221.077C83.347 221.041 83.3832 221.005 83.4104 220.969C84.135 220.054 84.7147 218.975 85.3396 217.997C86.6077 216.004 87.8667 214.01 89.1166 211.999C91.5802 208.022 93.9804 204.017 96.3354 199.976C97.0238 201.145 97.6216 202.368 98.1016 203.637C95.647 207.822 93.129 211.963 90.5477 216.076C89.2343 218.223 87.921 220.334 86.5533 222.4Z" fill="#E58F31"/>
<path d="M121.894 147.989C126.976 152.592 129.965 159.686 127.773 166.082C126.043 171.129 121.369 175.713 122.692 180.869C123.316 183.279 124.938 185.036 126.713 186.712C127.537 187.492 128.389 188.253 129.195 189.05C130.544 190.4 131.758 191.868 132.41 193.743C136.957 206.663 122.737 218.26 110.02 223.841C108.589 224.466 107.185 225.019 105.827 225.49C104.631 225.898 103.481 226.251 102.376 226.523C101.307 226.794 100.292 227.003 99.3504 227.139C82.6575 229.612 66.4446 216.901 68.5731 199.388C68.6094 199.098 68.6456 198.799 68.6909 198.509C68.8267 197.648 68.9988 196.796 69.1981 195.945C70.2216 191.587 71.8338 187.274 71.1273 182.898C70.439 178.622 67.7308 175.197 64.5245 172.153C62.9032 170.612 61.146 169.172 59.4704 167.768C59.3345 167.65 59.1896 167.532 59.0447 167.414C54.1808 163.292 49.2988 158.01 49.7246 151.695C50.0416 146.866 53.4019 142.879 56.0195 138.802C56.0467 138.757 56.0829 138.712 56.1101 138.666C56.7713 137.634 57.3057 136.646 57.7404 135.695C60.7113 129.081 58.1661 124.433 51.9436 119.395C49.2717 117.239 46.7265 114.847 44.9241 111.921C43.5474 109.683 42.6235 107.101 42.5329 104.492C42.5057 103.685 42.551 102.888 42.6869 102.091C42.7503 101.737 42.8228 101.393 42.9133 101.058C44.5165 95.1052 50.4944 91.2093 51.4274 85.0212C51.7987 82.5478 51.3187 80.0835 50.6756 77.6463C50.268 76.1242 49.797 74.6021 49.4257 73.1071C48.4112 69.021 48.1395 65.0617 51.9799 61.3561C53.1302 60.2417 54.4978 59.3901 55.9742 58.8012C57.1698 58.321 58.4469 58.0129 59.7421 57.877C61.0011 57.7411 62.2782 57.7774 63.5281 57.9676C68.1746 58.6924 72.4316 61.5645 75.6742 65.2248C76.4531 66.1036 77.1777 67.0278 77.8299 67.9791C78.5907 69.0935 79.261 70.2351 79.8225 71.3948C82.6122 77.1027 83.6176 84.1696 88.572 88.0473C88.6807 88.1289 88.7985 88.2195 88.9072 88.301C89.7133 88.8899 90.5828 89.3611 91.4885 89.7688C93.9975 90.8832 96.7781 91.4811 99.3233 92.5774C107.566 96.1199 113.408 105.832 111.433 114.802C110.808 117.638 109.513 120.265 108.317 122.929C107.883 123.889 107.466 124.85 107.086 125.828C106.642 126.988 106.27 128.202 106.026 129.443C105.491 132.152 105.573 134.934 106.877 137.325C109.16 141.502 114.259 143.015 118.371 145.407C118.652 145.57 118.933 145.742 119.213 145.924C120.155 146.531 121.052 147.228 121.894 147.989Z" fill="#E08675"/>
<path d="M98.4722 174.726C97.9107 175.387 97.3129 176.03 96.6517 176.583C97.5121 177.752 98.3001 178.975 98.9704 180.28C102.231 186.676 100.302 193.381 99.2783 200.049C98.8889 202.613 98.8073 205.204 99.0247 207.75C99.2783 207.551 99.5138 207.351 99.7403 207.188C100.999 206.273 102.249 205.367 103.499 204.443C105.999 202.613 108.49 200.756 110.962 198.889C116.261 194.894 121.505 190.835 126.704 186.703C127.529 187.482 128.38 188.243 129.186 189.041C127.972 190.01 126.759 190.971 125.545 191.931C120.473 195.926 115.337 199.859 110.156 203.718C107.566 205.648 104.966 207.569 102.349 209.462C101.461 210.106 100.546 210.903 99.5501 211.474C100.555 216.538 102.702 221.349 105.809 225.472C104.613 225.879 103.463 226.233 102.358 226.504C100.193 223.433 98.4903 220.045 97.331 216.475C96.869 215.043 96.5067 213.612 96.235 212.18C95.5648 212.09 94.9126 211.872 94.2605 211.591C91.3078 210.314 88.4275 208.828 85.52 207.442C82.5582 206.038 79.5965 204.624 76.6347 203.22C73.9355 201.942 71.2455 200.656 68.5463 199.369C68.5826 199.079 68.6188 198.78 68.6641 198.49C68.7999 197.63 68.972 196.778 69.1713 195.926C72.7128 197.612 76.2633 199.297 79.8048 200.982C82.6488 202.332 85.4929 203.682 88.3279 205.041C89.7499 205.72 91.1719 206.391 92.5939 207.07C93.5993 207.551 94.65 208.185 95.7188 208.583C95.3836 204.814 95.6282 201.009 96.3256 197.177C96.9143 193.942 97.657 190.663 97.4487 187.356C97.2495 184.175 95.9724 181.385 94.1427 178.821C93.9888 178.603 93.8348 178.395 93.6718 178.178C92.5033 178.449 91.2806 178.359 90.1031 178.105C83.2013 176.646 76.3448 174.898 69.4702 173.303C67.8127 172.914 66.1552 172.533 64.4976 172.144C62.8764 170.603 61.1192 169.163 59.4436 167.758C59.3077 167.641 59.1628 167.523 59.0179 167.405C63.3292 168.411 67.6496 169.416 71.961 170.422C75.3576 171.21 78.7541 172.008 82.1597 172.796C83.8263 173.185 85.4929 173.575 87.1594 173.965C88.4003 174.255 89.6865 174.653 90.9636 174.862C87.8478 171.238 84.5418 167.74 82.8934 163.147C81.2087 158.472 81.3627 153.498 81.9152 148.623C81.1091 148.478 80.3301 148.161 79.5602 147.88C78.0204 147.328 76.4897 146.766 74.9681 146.195C68.6097 143.831 62.3148 141.312 56.0742 138.657C56.7354 137.624 57.2698 136.637 57.7045 135.685C58.5016 136.021 59.2987 136.356 60.0957 136.691C65.8834 139.11 71.7255 141.412 77.6129 143.586C79.1073 144.139 80.6199 144.809 82.1507 145.235C82.2231 145.253 82.2956 145.271 82.359 145.289C82.359 145.271 82.368 145.253 82.368 145.235C83.1923 139.346 84.3154 133.158 82.6307 127.314C81.0366 121.76 77.5585 117.076 74.0986 112.51C63.3564 110.743 52.7682 108.052 42.488 104.5C42.4608 103.694 42.5061 102.897 42.642 102.1C42.7054 101.746 42.7778 101.402 42.8684 101.067C52.0889 104.301 61.5449 106.802 71.1549 108.568C67.5138 103.504 64.4433 98.1946 63.3021 91.934C62.8764 89.5693 62.6862 87.1775 62.5865 84.7856C62.0521 84.5862 61.5268 84.2873 61.0015 83.952C57.614 81.7414 54.154 79.6485 50.6307 77.6643C50.2231 76.1422 49.7521 74.6201 49.3807 73.1252C50.8118 73.8953 52.2248 74.6926 53.6287 75.4989C56.5724 77.2022 59.4798 78.969 62.342 80.8172C62.3782 80.8353 62.4144 80.8625 62.4507 80.8806C62.3601 77.4831 62.2423 74.0855 61.6445 70.7333C60.8747 66.4206 59.1628 61.8543 55.9383 58.8101C57.1339 58.3299 58.411 58.0219 59.7062 57.886C63.1028 61.9721 64.7241 67.4263 65.34 72.6359C65.5755 74.602 65.6751 76.5952 65.7385 78.5975C66.599 77.4378 67.4504 76.2872 68.3108 75.1275C70.7564 71.8296 73.1928 68.5317 75.6383 65.2338C76.4173 66.1126 77.1419 67.0367 77.794 67.9881C77.1872 68.8035 76.5803 69.6279 75.9735 70.4434C73.6638 73.56 71.3542 76.6767 69.0445 79.7844C68.0301 81.1615 67.079 82.7289 65.8834 83.9611C66.0193 87.3949 66.3001 90.8106 67.2421 94.1266C68.6822 99.2184 71.5534 103.567 74.6692 107.78C79.207 101.139 83.8263 94.5615 88.5362 88.0472C88.6449 88.1288 88.7626 88.2194 88.8713 88.3009C89.6774 88.8898 90.5469 89.3609 91.4527 89.7687C86.4711 96.6544 81.5891 103.604 76.7977 110.625C81.0909 116.324 85.3298 122.032 86.4982 129.316C87.2047 133.692 86.7519 138.114 86.145 142.499C88.1739 140.705 90.2028 138.911 92.2316 137.117C97.5755 132.388 102.919 127.658 108.272 122.92C107.838 123.88 107.421 124.84 107.041 125.819C106.597 126.979 106.225 128.193 105.981 129.434C101.171 133.692 96.3618 137.951 91.5523 142.209C90.2662 143.341 88.989 144.474 87.7119 145.606C86.9964 146.241 86.2446 147.047 85.4204 147.681C84.6777 153.371 84.3154 159.432 87.241 164.615C89.1974 168.076 91.969 170.929 94.5232 173.947C94.813 173.702 95.0847 173.421 95.3474 173.131C96.4343 171.935 97.4306 170.64 98.4632 169.398C100.583 166.852 102.72 164.334 104.885 161.824C109.54 156.433 114.305 151.124 119.169 145.914C120.111 146.521 121.007 147.219 121.85 147.98C120.79 149.113 119.73 150.254 118.679 151.405C114.033 156.469 109.477 161.616 105.021 166.852C102.847 169.462 100.691 172.125 98.4722 174.726Z" fill="white"/>
<path d="M147.23 172.986H36.9824V251.828H147.23V172.986Z" fill="white"/>
<path d="M147.23 160.973H36.9824V172.995H147.23V160.973Z" fill="#C3B7FC"/>
<path d="M134.061 166.98C134.061 168.638 132.711 169.988 131.054 169.988C129.396 169.988 128.047 168.638 128.047 166.98C128.047 165.322 129.396 163.972 131.054 163.972C132.711 163.972 134.061 165.322 134.061 166.98Z" fill="#ECBF4C"/>
<path d="M143.299 166.98C143.299 168.638 141.95 169.988 140.292 169.988C138.635 169.988 137.285 168.638 137.285 166.98C137.285 165.322 138.635 163.972 140.292 163.972C141.959 163.972 143.299 165.322 143.299 166.98Z" fill="#DD6E5C"/>
<path d="M87.5961 183.161H44.6094V227.556H87.5961V183.161Z" fill="#E08675"/>
<path d="M87.5961 227.556H44.6094V183.161L87.5961 227.556Z" fill="#EA9A8F"/>
<path d="M139.604 221.313H96.6172V247.189H139.604V221.313Z" fill="#ECBF4C"/>
<path d="M139.604 247.18H96.6172V221.313L139.604 247.18Z" fill="#F2C96D"/>
<path d="M140.301 183.396H96.6172V188.253H140.301V183.396Z" fill="#F5DDA0"/>
<path d="M140.301 194.957H96.6172V199.813H140.301V194.957Z" fill="#F5DDA0"/>
<path d="M140.301 206.518H96.6172V211.374H140.301V206.518Z" fill="#F5DDA0"/>
<path d="M393.775 133.919H283.527V251.601H393.775V133.919Z" fill="white"/>
<path d="M393.775 121.896H283.527V133.919H393.775V121.896Z" fill="#C3B7FC"/>
<path d="M377.599 130.911C379.26 130.911 380.606 129.564 380.606 127.903C380.606 126.242 379.26 124.895 377.599 124.895C375.938 124.895 374.592 126.242 374.592 127.903C374.592 129.564 375.938 130.911 377.599 130.911Z" fill="#ECBF4C"/>
<path d="M389.844 127.903C389.844 129.561 388.495 130.911 386.837 130.911C385.18 130.911 383.83 129.561 383.83 127.903C383.83 126.245 385.18 124.895 386.837 124.895C388.504 124.904 389.844 126.245 389.844 127.903Z" fill="#DD6E5C"/>
<path d="M335.526 141.547H289.07V183.161H335.526V141.547Z" fill="#E08675"/>
<path d="M335.535 183.161H289.07V141.547L335.535 183.161Z" fill="#EA9A8F"/>
<path d="M319.123 194.033H289.768V218.54H319.123V194.033Z" fill="#ECBF4C"/>
<path d="M388.223 194.033H326.053V218.54H388.223V194.033Z" fill="#C3B7FC"/>
<path opacity="0.47" d="M388.232 218.54H326.053V194.033L388.232 218.54Z" fill="#A797FB"/>
<path d="M388.231 141.783H342.699V147.328H388.231V141.783Z" fill="#DFDBFC"/>
<path d="M388.231 153.57H342.699V159.115H388.231V153.57Z" fill="#DFDBFC"/>
<path d="M388.231 165.357H342.699V170.902H388.231V165.357Z" fill="#DFDBFC"/>
<path d="M388.231 177.154H342.699V182.699H388.231V177.154Z" fill="#DFDBFC"/>
<path d="M388.231 225.245H342.699V230.79H388.231V225.245Z" fill="#DFDBFC"/>
<path d="M388.232 237.495H322.357V242.813H388.232V237.495Z" fill="#DFDBFC"/>
<path d="M389.499 71.7027V97.7325C389.499 98.6023 389.345 99.4359 389.064 100.215C388.049 102.996 385.377 104.981 382.244 104.981H339.021C335.018 104.981 331.775 101.737 331.775 97.7325V71.7027C331.775 68.7763 333.505 66.2485 335.996 65.0979C336.92 64.6902 337.944 64.4456 339.012 64.4456H382.235C386.247 64.4456 389.499 67.6891 389.499 71.7027Z" fill="#DD6E5C"/>
<path d="M250.187 245.494H172.238L176.495 218.993L181.749 186.25H240.677L245.93 218.993L250.187 245.494Z" fill="white"/>
<path opacity="0.47" d="M245.929 218.993H176.494L181.747 186.25H240.675L245.929 218.993Z" fill="#A797FB"/>
<path d="M320.717 67.9065V198.545C320.717 205.53 315.056 211.184 308.082 211.184H114.342C107.359 211.184 101.707 205.521 101.707 198.545V67.9065C101.707 60.9211 107.368 55.2676 114.342 55.2676H308.082C315.056 55.2676 320.717 60.9302 320.717 67.9065Z" fill="#A797FB"/>
<path d="M309.802 65.3967H112.611V187.799H309.802V65.3967Z" fill="#514E92"/>
<path d="M320.717 180.008V198.554C320.717 205.539 315.056 211.193 308.082 211.193H114.342C107.359 211.193 101.707 205.53 101.707 198.554V180.008H320.717Z" fill="#C3B7FC"/>
<path d="M249.57 252.253H171.033C168.189 252.253 165.879 249.943 165.879 247.098V247.017C165.879 244.172 168.189 241.861 171.033 241.861H249.57C252.414 241.861 254.724 244.172 254.724 247.017V247.098C254.724 249.943 252.414 252.253 249.57 252.253Z" fill="#C3B7FC"/>
<path d="M278.309 46.0989H141.65V180.008H278.309V46.0989Z" fill="white"/>
<path d="M278.309 31.3579H141.65V46.1713H278.309V31.3579Z" fill="#514E92"/>
<path d="M257.632 42.6832C259.793 42.6832 261.544 40.9308 261.544 38.7692C261.544 36.6076 259.793 34.8552 257.632 34.8552C255.471 34.8552 253.719 36.6076 253.719 38.7692C253.719 40.9308 255.471 42.6832 257.632 42.6832Z" fill="#ECBF4C"/>
<path d="M268.809 42.6832C270.97 42.6832 272.722 40.9308 272.722 38.7692C272.722 36.6076 270.97 34.8552 268.809 34.8552C266.648 34.8552 264.896 36.6076 264.896 38.7692C264.896 40.9308 266.648 42.6832 268.809 42.6832Z" fill="#DD6E5C"/>
<path d="M168.628 70.8298C169.471 65.6491 165.956 60.7655 160.777 59.922C155.598 59.0785 150.716 62.5945 149.873 67.7752C149.029 72.9559 152.544 77.8396 157.723 78.6831C162.903 79.5266 167.785 76.0106 168.628 70.8298Z" fill="#DD6E5C"/>
<path d="M159.257 106.204C164.505 106.204 168.758 101.949 168.758 96.6996C168.758 91.4507 164.505 87.1956 159.257 87.1956C154.01 87.1956 149.756 91.4507 149.756 96.6996C149.756 101.949 154.01 106.204 159.257 106.204Z" fill="#DD6E5C"/>
<path d="M228.566 58.1216H179.375V63.7117H228.566V58.1216Z" fill="#DFDBFC"/>
<path d="M217.942 81.6055H179.375V87.1956H217.942V81.6055Z" fill="#DFDBFC"/>
<path d="M217.942 93.6284H179.375V99.2185H217.942V93.6284Z" fill="#DFDBFC"/>
<path d="M247.569 69.8635H179.375V75.4536H247.569V69.8635Z" fill="#DFDBFC"/>
<path d="M178.814 149.539H155.898V172.461H178.814V149.539Z" fill="#DFDBFC"/>
<path opacity="0.45" d="M178.823 172.461H155.898V149.539L178.823 172.461Z" fill="#C3B7FC"/>
<path d="M207.88 149.539H184.965V172.461H207.88V149.539Z" fill="#DFDBFC"/>
<path opacity="0.45" d="M207.889 172.461H184.965V149.539L207.889 172.461Z" fill="#C3B7FC"/>
<path d="M236.945 149.539H214.029V172.461H236.945V149.539Z" fill="#DFDBFC"/>
<path opacity="0.45" d="M236.945 172.461H214.029V149.539L236.945 172.461Z" fill="#C3B7FC"/>
<path d="M266.009 149.539H243.094V172.461H266.009V149.539Z" fill="#DFDBFC"/>
<path opacity="0.45" d="M266.009 172.461H243.094V149.539L266.009 172.461Z" fill="#C3B7FC"/>
<path d="M312.085 116.967V135.984C312.085 140.669 308.254 144.501 303.571 144.501H118.463C113.781 144.501 109.949 140.669 109.949 135.984V116.967C109.949 112.283 113.781 108.451 118.463 108.451H303.58C308.254 108.451 312.085 112.283 312.085 116.967Z" fill="white"/>
<path d="M312.084 116.967V135.984C312.084 140.669 308.253 144.501 303.57 144.501H268.799V108.451H303.57C308.253 108.451 312.084 112.283 312.084 116.967Z" fill="#ECBF4C"/>
<path d="M303.082 137.117L295.772 129.66L294.532 128.392C296.814 124.931 296.461 120.22 293.445 117.139C289.976 113.597 284.269 113.542 280.728 117.013C277.186 120.483 277.132 126.19 280.601 129.733C283.617 132.813 288.318 133.257 291.823 131.047L293.064 132.315L300.374 139.772C301.008 140.424 302.058 140.433 302.71 139.799L303.064 139.455C303.707 138.811 303.716 137.769 303.082 137.117ZM281.951 128.41C279.215 125.611 279.261 121.108 282.05 118.372C284.849 115.635 289.351 115.681 292.086 118.471C294.369 120.8 294.713 124.306 293.155 126.997C292.838 127.54 292.448 128.048 291.977 128.51C291.506 128.972 290.99 129.352 290.438 129.651C287.729 131.155 284.233 130.739 281.951 128.41Z" fill="white"/>
<path d="M303.571 145.987H118.464C112.948 145.987 108.455 141.493 108.455 135.975V116.967C108.455 111.449 112.948 106.956 118.464 106.956H303.58C309.096 106.956 313.589 111.449 313.589 116.967V135.984C313.58 141.502 309.096 145.987 303.571 145.987ZM118.464 109.945C114.596 109.945 111.444 113.098 111.444 116.967V135.984C111.444 139.853 114.596 143.006 118.464 143.006H303.58C307.448 143.006 310.6 139.853 310.6 135.984V116.967C310.6 113.098 307.448 109.945 303.58 109.945H118.464Z" fill="#ECBF4C"/>
<path d="M373.703 242.568C373.685 242.64 373.658 242.713 373.63 242.785C372.996 244.688 371.583 246.255 370.089 247.642C366.095 251.32 361.031 253.966 355.534 255.578C353.976 256.031 352.391 256.412 350.778 256.702C350.072 256.829 349.365 256.937 348.659 257.037C347.934 257.137 347.201 257.218 346.467 257.282C346.304 257.3 346.132 257.309 345.969 257.327C345.326 257.381 344.692 257.418 344.049 257.445C344.04 257.445 344.031 257.445 344.022 257.445C343.406 257.472 342.79 257.481 342.174 257.481C342.083 257.481 341.993 257.481 341.902 257.481C341.232 257.481 340.571 257.463 339.9 257.436C339.248 257.409 338.596 257.363 337.944 257.309C336.866 257.218 335.797 257.091 334.738 256.928C331.169 256.385 327.736 255.433 324.584 254.074C318.742 251.556 313.77 246.029 314.05 239.805C314.059 239.551 314.087 239.288 314.114 239.035C314.195 238.346 314.349 237.666 314.576 237.014C315.074 235.574 315.925 234.26 317.148 233.318C319.132 231.795 322.166 231.506 324.177 233C321.804 229.712 319.349 226.205 319.095 222.192C318.978 220.307 319.566 218.323 320.662 216.747C321.043 216.203 321.478 215.705 321.967 215.279C323.063 214.337 324.421 213.757 325.925 213.793C328.95 213.875 331.332 216.239 333.352 218.432C332.935 214.128 333.18 209.77 334.086 205.539C334.403 204.053 334.919 202.422 336.277 201.67C336.45 201.58 336.622 201.498 336.794 201.444C337.391 201.245 338.016 201.245 338.641 201.39C340.091 201.725 341.504 202.857 342.446 204.071C344.819 207.125 346.096 210.975 346.005 214.808C347.092 209.797 349.175 205.005 352.119 200.764C352.78 199.804 353.541 198.835 354.619 198.364C355.398 198.028 356.249 197.992 357.064 198.191C357.671 198.336 358.26 198.599 358.785 198.962C359.166 199.224 359.519 199.532 359.818 199.877C361.068 201.326 361.584 203.238 361.91 205.104C362.843 210.423 362.58 215.949 361.14 221.159C362.3 219.709 363.513 218.214 365.207 217.399C366.692 216.674 368.649 216.647 369.917 217.607C370.089 217.743 370.252 217.888 370.397 218.06C370.696 218.414 370.913 218.812 371.049 219.247C371.33 220.099 371.357 221.059 371.312 221.965C371.004 227.782 368.413 233.453 364.193 237.567C366.692 236.398 369.808 235.383 372.054 236.951C373.168 237.73 373.766 239.007 373.893 240.357C373.993 241.082 373.92 241.852 373.703 242.568Z" fill="#8690F1"/>
<path d="M337.962 257.309C336.884 257.218 335.815 257.091 334.755 256.928C331.323 253.884 327.872 250.858 324.412 247.841C321.006 244.887 317.582 241.943 314.141 239.025C314.222 238.337 314.376 237.657 314.603 237.005C315.753 237.983 316.912 238.962 318.063 239.94C323.905 244.923 329.701 249.97 335.444 255.062C336.286 255.814 337.119 256.557 337.962 257.309Z" fill="#DFDBFC"/>
<path d="M341.919 257.472C341.249 257.472 340.588 257.454 339.918 257.427C339.601 256.657 339.293 255.887 338.967 255.117C336.032 248.022 332.889 241.019 329.556 234.106C326.739 228.244 323.777 222.455 320.68 216.738C321.06 216.194 321.495 215.696 321.984 215.27C323.587 218.233 325.163 221.213 326.694 224.212C330.226 231.116 333.568 238.12 336.702 245.214C338.514 249.273 340.244 253.359 341.919 257.472Z" fill="#DFDBFC"/>
<path d="M344.031 257.436C343.415 257.463 342.799 257.472 342.183 257.472C341.223 247.451 340.263 237.431 339.312 227.401C338.488 218.749 337.654 210.087 336.83 201.435C337.428 201.236 338.053 201.236 338.678 201.381C339.085 205.612 339.484 209.852 339.892 214.083C340.861 224.212 341.83 234.35 342.799 244.48C343.207 248.801 343.623 253.123 344.031 257.436Z" fill="#DFDBFC"/>
<path d="M358.812 198.952C357.78 203.809 356.738 208.665 355.688 213.521C353.586 223.243 351.449 232.964 349.275 242.677C348.179 247.56 347.083 252.444 345.969 257.327C345.326 257.381 344.692 257.418 344.049 257.445C344.239 256.602 344.438 255.751 344.628 254.908C346.829 245.205 348.994 235.492 351.132 225.771C353.143 216.584 355.135 207.387 357.083 198.191C357.698 198.327 358.287 198.59 358.812 198.952Z" fill="#DFDBFC"/>
<path d="M371.076 219.229C369.772 221.277 368.476 223.324 367.199 225.39C362.317 233.245 357.589 241.209 353.033 249.264C351.584 251.837 350.081 254.419 348.659 257.046C347.934 257.146 347.2 257.227 346.467 257.291C350.443 249.753 354.782 242.378 359.147 235.066C362.652 229.186 366.248 223.37 369.935 217.607C370.107 217.743 370.27 217.888 370.415 218.06C370.723 218.396 370.931 218.794 371.076 219.229Z" fill="#DFDBFC"/>
<path d="M373.702 242.568C373.684 242.641 373.657 242.713 373.629 242.786C373.394 242.949 373.167 243.112 372.932 243.275C367.126 247.361 361.32 251.465 355.533 255.579C353.975 256.032 352.39 256.412 350.777 256.702C354.817 253.821 358.866 250.949 362.923 248.086C366.583 245.495 370.251 242.912 373.919 240.339C373.992 241.082 373.919 241.852 373.702 242.568Z" fill="#DFDBFC"/>
<path d="M389.064 100.215C388.049 102.997 385.378 104.981 382.244 104.981H339.021C335.018 104.981 331.775 101.737 331.775 97.7326V71.7028C331.775 68.7763 333.505 66.2485 335.996 65.0979L389.064 100.215Z" fill="#E08675"/>
<path d="M350.832 73.986V95.4495C350.832 96.9897 352.471 97.9682 353.83 97.2434L373.467 86.6973C374.88 85.9363 374.898 83.9068 373.494 83.1276L353.848 72.2102C352.499 71.4582 350.832 72.4367 350.832 73.986Z" fill="white"/>
<path d="M121.632 38.0987V60.4048C121.632 62.8329 120.835 65.0889 119.504 66.919C117.475 69.6914 114.214 71.5035 110.537 71.5035H88.2373C82.1325 71.5035 77.1328 66.5113 77.1328 60.4048V38.0987C77.1328 34.4293 78.9352 31.1495 81.7159 29.1291C83.5546 27.7973 85.8099 27 88.2373 27H110.528C116.641 27 121.632 31.9921 121.632 38.0987Z" fill="#ECBF4C"/>
<path opacity="0.29" d="M119.504 66.9281C117.475 69.7005 114.214 71.5125 110.537 71.5125H88.2373C82.1325 71.5125 77.1328 66.5204 77.1328 60.4139V38.0987C77.1328 34.4293 78.9352 31.1496 81.7159 29.1292L119.504 66.9281Z" fill="white"/>
<path d="M102.14 57.9676H87.9202C85.8461 57.9676 84.1523 56.2733 84.1523 54.1985V44.323C84.1523 42.2482 85.8461 40.554 87.9202 40.554H102.14C104.215 40.554 105.908 42.2482 105.908 44.323V54.1985C105.917 56.2643 104.215 57.9676 102.14 57.9676Z" fill="white"/>
<path d="M107.992 45.7091C107.765 45.7725 107.611 46.0262 107.611 46.3162V46.9322V51.571V52.1871C107.611 52.4771 107.774 52.7307 107.992 52.7942L114.033 54.4431C114.332 54.5247 114.622 54.2347 114.622 53.8361V51.571V46.9322V44.6672C114.622 44.2686 114.332 43.9786 114.033 44.0602L107.992 45.7091Z" fill="white"/>
<path d="M270.781 239.098L264.133 234.703C269.921 225.942 276.252 217.39 282.936 209.299L289.077 214.373C282.574 222.255 276.415 230.572 270.781 239.098Z" fill="#5F5EA5"/>
<path d="M280.718 265.562C279.006 266.586 276.723 268 274.586 267.782C271.425 267.465 271.189 264.421 272.448 262.256C273.997 259.592 276.515 258.169 279.522 257.263C281.225 256.747 282.946 256.285 284.676 255.868C285.074 255.778 285.509 255.678 285.89 255.823C286.17 255.922 286.37 256.131 286.551 256.339C287.629 257.599 289.014 260.579 287.583 261.984C286.886 262.663 285.482 263.026 284.585 263.461C283.263 264.113 281.968 264.81 280.718 265.562Z" fill="#E08675"/>
<path d="M325.153 256.249C318.922 258.088 312.59 259.71 306.259 261.096C302.799 261.857 299.321 262.455 295.961 263.035C292.012 263.714 288.262 264.058 284.576 264.928C284.159 263.977 283.797 263.379 283.733 263.198C283.154 261.621 282.728 259.999 282.456 258.341C282.212 256.883 281.931 256.366 282.139 254.373C286.106 253.449 290.092 252.144 293.959 251.474C297.347 250.885 300.553 250.332 303.759 249.635C309.801 248.312 315.851 246.763 321.811 245.005C322.363 244.842 322.925 244.76 323.477 244.76C325.968 244.76 328.278 246.346 329.066 248.837C330.071 251.972 328.314 255.324 325.153 256.249Z" fill="#5F5EA5"/>
<path d="M310.183 265.562C311.894 266.586 314.177 268 316.315 267.782C319.476 267.465 319.711 264.421 318.452 262.256C316.903 259.592 314.385 258.169 311.378 257.263C309.675 256.747 307.954 256.285 306.225 255.868C305.826 255.778 305.391 255.678 305.011 255.823C304.73 255.922 304.531 256.131 304.35 256.339C303.272 257.599 301.886 260.579 303.317 261.984C304.014 262.663 305.418 263.026 306.315 263.461C307.637 264.113 308.933 264.81 310.183 265.562Z" fill="#E08675"/>
<path d="M265.746 256.249C271.978 258.088 278.309 259.71 284.64 261.096C288.1 261.857 291.578 262.455 294.938 263.035C298.887 263.714 302.637 264.058 306.324 264.928C306.74 263.977 307.102 263.379 307.166 263.198C307.746 261.621 308.171 259.999 308.443 258.341C308.688 256.883 308.968 256.366 308.76 254.373C304.793 253.449 300.808 252.144 296.94 251.474C293.552 250.885 290.346 250.332 287.14 249.635C281.098 248.312 275.048 246.763 269.088 245.005C268.536 244.842 267.974 244.76 267.422 244.76C264.931 244.76 262.621 246.346 261.833 248.837C260.828 251.972 262.594 255.324 265.746 256.249Z" fill="#5F5EA5"/>
<path d="M315.544 250.604C306.686 253.685 278.363 253.205 278.046 249.934C277.865 248.049 279.912 222.337 280.429 216.149C280.601 214.128 280.809 212.017 281.842 210.386C282.747 208.964 284.16 208.094 285.555 207.406C285.682 207.342 285.818 207.279 285.945 207.215C293.435 203.646 302.139 203.582 309.666 207.052C310.644 207.496 311.622 208.04 312.284 208.973C313.09 210.105 313.289 211.637 313.452 213.086C314.756 224.765 315.445 236.516 315.517 248.294C315.544 249.055 315.544 249.834 315.544 250.604Z" fill="#8690F1"/>
<path opacity="0.22" d="M315.544 250.604C306.686 253.685 278.363 253.205 278.046 249.934C277.865 248.049 279.912 222.337 280.429 216.149C280.601 214.128 280.809 212.017 281.842 210.386C282.747 208.964 284.16 208.094 285.555 207.406C285.682 207.342 285.818 207.279 285.945 207.215C285.8 214.21 286.896 221.177 289.341 227.746C290.482 230.835 291.932 233.834 294.015 236.38C298.408 241.744 305.128 244.552 311.622 246.953C312.9 247.424 314.204 247.895 315.517 248.294C315.544 249.055 315.544 249.834 315.544 250.604Z" fill="#5F5EA5"/>
<path d="M282.132 242.958C282.087 240.874 283.653 239.125 285.728 238.908C290.818 238.373 295.845 236.978 300.446 234.804C300.826 234.622 301.614 234.251 301.886 233.961C302.221 233.589 302.511 232.502 302.683 231.85C304.458 225.136 305.699 218.242 306.37 211.32C306.578 209.181 308.444 207.587 310.59 207.732C312.828 207.877 314.512 209.852 314.295 212.09C313.579 219.447 312.266 226.758 310.382 233.898C309.893 235.737 309.295 237.667 307.774 239.334C306.605 240.62 305.192 241.381 303.843 242.024C298.417 244.579 292.503 246.228 286.516 246.854C284.206 247.071 282.186 245.277 282.132 242.958Z" fill="#5F5EA5"/>
<path d="M301.396 194.404V206.78C301.396 209.218 299.422 211.193 296.985 211.193C294.549 211.193 292.574 209.218 292.574 206.78V194.404H301.396Z" fill="#F0C9A1"/>
<path d="M301.396 197.367V206.472C299.503 206.137 297.058 205.693 296.704 205.584C295.273 205.158 293.888 204.606 292.583 203.908C291.768 203.473 290.98 202.975 290.237 202.413C287.466 200.302 290.31 199.17 292.583 198.264C292.583 198.264 292.592 198.264 292.592 198.255C294.983 197.294 297.556 196.787 300.128 196.778C300.382 196.778 300.644 196.778 300.871 196.887C301.097 196.977 301.269 197.149 301.396 197.367Z" fill="#E9B588"/>
<path d="M308.081 176.248C309.177 177.326 309.756 178.812 310.182 180.289C311.269 184.076 311.504 188.171 310.436 191.967C309.367 195.763 306.921 199.233 303.489 201.172C302.755 201.589 301.786 201.924 301.106 201.417C300.708 201.127 300.527 200.62 300.382 200.148C298.498 194.277 297.456 188.135 297.302 181.965C297.257 180.279 297.293 178.54 297.982 177C299.757 173.013 305.345 173.566 308.081 176.248Z" fill="#363271"/>
<path d="M282.112 192.456C283.525 200.266 288.806 205.847 295.3 204.678C301.794 203.509 305.915 196.225 304.502 188.415C303.098 180.605 296.686 175.224 290.201 176.401C283.706 177.57 280.699 184.646 282.112 192.456Z" fill="#F0C9A1"/>
<path d="M301.749 190.273C301.613 192.628 303.035 194.622 304.919 194.721C306.803 194.83 308.434 193 308.56 190.653C308.687 188.298 307.274 186.304 305.39 186.205C303.515 186.096 301.885 187.917 301.749 190.273Z" fill="#F0C9A1"/>
<path d="M301.088 188.769C301.169 189.457 301.214 190.173 301.558 190.771C301.903 191.369 302.691 191.786 303.307 191.459C303.687 191.26 303.895 190.843 304.067 190.445C305.462 187.174 305.797 183.45 305.018 179.98C304.819 179.11 304.502 178.177 303.732 177.715C303.388 177.507 302.981 177.425 302.582 177.353C301.83 177.226 301.042 177.153 300.336 177.443C299.194 177.905 298.579 179.192 298.479 180.415C298.198 183.613 300.698 185.634 301.088 188.769Z" fill="#363271"/>
<path d="M279.812 177.353C277.294 179.808 275.546 183.324 276.044 186.812C276.216 188.017 276.732 189.276 277.783 189.883C278.372 190.218 279.069 190.327 279.739 190.336C283.507 190.381 286.759 187.836 289.648 185.407C289.793 186.866 291.713 187.31 293.181 187.229C296.876 187.011 300.499 185.842 303.624 183.858C305.282 182.807 306.912 181.358 307.229 179.419C307.7 176.583 305.218 174.1 302.646 172.823C295.074 169.063 285.681 171.627 279.812 177.353Z" fill="#363271"/>
<path d="M306.134 248.684H277.195C276.543 248.684 275.918 248.439 275.483 248.004C274.197 246.718 275.239 244.697 277.195 244.697H306.134C306.786 244.697 307.411 244.942 307.846 245.377C309.141 246.663 308.09 248.684 306.134 248.684Z" fill="#C3B7FC"/>
<path d="M288.879 248.684H257.033C256.263 248.684 255.611 248.122 255.503 247.361L251.979 223.723C251.843 222.79 252.568 221.947 253.51 221.947H285.356C286.126 221.947 286.778 222.509 286.887 223.27L290.41 246.908C290.546 247.841 289.821 248.684 288.879 248.684Z" fill="white"/>
<path d="M272.178 235.737C272.178 237.703 270.584 239.298 268.618 239.298C266.653 239.298 265.059 237.703 265.059 235.737C265.059 233.771 266.653 232.176 268.618 232.176C270.584 232.185 272.178 233.771 272.178 235.737Z" fill="#C3B7FC"/>
<path d="M276.182 235.737C276.182 237.703 274.588 239.298 272.622 239.298C270.657 239.298 269.062 237.703 269.062 235.737C269.062 233.771 270.657 232.176 272.622 232.176C274.597 232.185 276.182 233.771 276.182 235.737Z" fill="#E08675"/>
</svg>
