<svg width="84" height="28" viewBox="0 0 84 28" fill="none" xmlns="http://www.w3.org/2000/svg">
<g clip-path="url(#clip0_4053_4399)">
<path d="M10.3454 0.00244141H11.0924C13.6856 0.0600147 16.2367 1.12512 18.0689 3.01065C17.3924 3.71592 16.7018 4.39241 16.0393 5.09768C15.0105 4.14772 13.7702 3.41366 12.4172 3.15458C10.4158 2.72278 8.25947 3.1114 6.58229 4.27726C4.75007 5.50069 3.50981 7.57333 3.24202 9.78991C2.94605 11.9777 3.55209 14.2806 4.94739 15.979C6.28632 17.6343 8.32994 18.6706 10.444 18.7426C12.4172 18.8577 14.4749 18.2388 15.9125 16.8282C17.04 15.8351 17.5615 14.3238 17.7306 12.8557C15.391 12.8557 13.0514 12.8701 10.7118 12.8557V9.89066H20.5635C21.0709 13.0716 20.338 16.6555 17.9702 18.9297C16.3917 20.5417 14.2071 21.4917 11.9803 21.6788C9.8239 21.8947 7.59705 21.4773 5.68028 20.4122C3.38296 19.16 1.55075 17.0441 0.648732 14.5541C-0.196905 12.2656 -0.210999 9.67476 0.578262 7.37183C1.29705 5.2704 2.67826 3.41366 4.4541 2.11826C6.15947 0.837255 8.23128 0.131981 10.3454 0.00244141Z" fill="white"/>
<path d="M66.8613 0.750977H69.8774V21.3047C68.8767 21.3047 67.862 21.3191 66.8613 21.2903C66.8754 14.4534 66.8613 7.6022 66.8613 0.750977Z" fill="white"/>
<path d="M27.2723 7.87573C29.1327 7.51589 31.1481 7.91891 32.6844 9.05598C34.0797 10.0635 35.0522 11.6468 35.3482 13.374C35.7287 15.3747 35.2495 17.5624 33.981 19.1457C32.6139 20.9161 30.373 21.866 28.1884 21.7221C26.1871 21.607 24.2421 20.585 23.0582 18.9154C21.7193 17.0731 21.3951 14.5398 22.128 12.3808C22.8609 10.0635 24.9327 8.29313 27.2723 7.87573ZM27.6951 10.6105C26.934 10.812 26.2293 11.2582 25.722 11.8915C24.3548 13.5611 24.4394 16.2814 25.9475 17.8359C26.8072 18.7283 28.1038 19.1457 29.3018 18.901C30.4153 18.6995 31.3877 17.9367 31.9233 16.9291C32.8535 15.2163 32.5857 12.8558 31.1622 11.5172C30.2461 10.6536 28.9072 10.2938 27.6951 10.6105Z" fill="white"/>
<path d="M42.2112 7.87556C44.3394 7.45816 46.6649 8.06268 48.2575 9.58837C50.8508 11.9633 51.1327 16.4108 48.9199 19.1455C47.581 20.8727 45.4105 21.8227 43.2683 21.7219C41.2246 21.6643 39.2092 20.628 37.9971 18.9152C36.63 17.0297 36.334 14.4389 37.1092 12.2367C37.8844 9.99138 39.9139 8.27858 42.2112 7.87556ZM42.634 10.6103C41.873 10.8118 41.1683 11.258 40.6609 11.8769C39.3079 13.5177 39.3642 16.1949 40.8159 17.7638C41.6756 18.6993 43.0146 19.1599 44.2548 18.9008C45.3542 18.6849 46.3407 17.9365 46.8763 16.929C47.7924 15.2018 47.5246 12.8413 46.0871 11.5027C45.1709 10.6391 43.832 10.2936 42.634 10.6103Z" fill="white"/>
<path d="M54.8816 8.71034C56.5024 7.67402 58.6588 7.38615 60.4064 8.27854C60.9561 8.52322 61.4071 8.94063 61.844 9.35804C61.8581 8.96942 61.844 8.5664 61.8581 8.16339C62.8024 8.17778 63.7467 8.16339 64.7051 8.17778V20.8727C64.691 22.787 64.2118 24.8165 62.8588 26.2126C61.3789 27.7527 59.1098 28.2277 57.0661 27.911C54.8816 27.58 52.9789 25.9535 52.1333 23.8953C52.9789 23.4779 53.8668 23.1469 54.7406 22.7582C55.2339 23.9385 56.2346 24.946 57.489 25.1763C58.7433 25.4066 60.195 25.0899 61.0125 24.0248C61.8863 22.9309 61.8863 21.434 61.844 20.0955C61.1957 20.7432 60.4487 21.3189 59.5467 21.5348C57.5876 22.0961 55.4312 21.4053 53.9232 20.0523C52.401 18.6993 51.499 16.6123 51.5836 14.5396C51.6259 12.1935 52.9225 9.93377 54.8816 8.71034ZM57.799 10.5527C56.9393 10.6966 56.1359 11.186 55.5863 11.8625C54.2614 13.4745 54.2614 16.0509 55.6004 17.6342C56.3614 18.5698 57.5876 19.0879 58.7715 18.9584C59.8849 18.8432 60.9138 18.1236 61.4635 17.1304C62.3937 15.4464 62.2386 13.1579 60.9843 11.6898C60.2091 10.783 58.9688 10.3368 57.799 10.5527Z" fill="white"/>
<path d="M73.5002 9.44459C75.1915 7.83254 77.7989 7.28559 79.9694 8.1348C82.0271 8.92643 83.3379 10.9271 84.0003 12.9854C80.9419 14.2808 77.8976 15.5618 74.8392 16.8572C75.262 17.6776 75.9103 18.426 76.7841 18.7283C78.0103 19.1745 79.4761 19.0162 80.505 18.1813C80.9137 17.8647 81.2378 17.4473 81.5479 17.0443C82.3231 17.5768 83.0983 18.095 83.8734 18.6275C82.7741 20.3116 80.9278 21.4918 78.9405 21.6789C76.7418 21.9524 74.4022 21.0888 72.9787 19.3328C70.6391 16.5693 70.8646 11.9346 73.5002 9.44459ZM75.0083 12.1074C74.5291 12.8126 74.3318 13.6762 74.3459 14.5254C76.3895 13.6618 78.4331 12.7982 80.4768 11.9202C80.1385 11.1142 79.3211 10.6248 78.4895 10.4953C77.1506 10.2506 75.7553 10.9847 75.0083 12.1074Z" fill="white"/>
</g>
<defs>
<clipPath id="clip0_4053_4399">
<rect width="84" height="28" fill="white"/>
</clipPath>
</defs>
</svg>
