<svg width="20" height="20" viewBox="0 0 20 20" fill="none" xmlns="http://www.w3.org/2000/svg">
<path fill-rule="evenodd" clip-rule="evenodd" d="M6.61182 2.44519C7.51043 1.54658 8.72921 1.04175 10 1.04175C11.2709 1.04175 12.4896 1.54658 13.3883 2.44519C14.2869 3.34381 14.7917 4.56259 14.7917 5.83341C14.7917 6.17859 14.5119 6.45841 14.1667 6.45841C13.8215 6.45841 13.5417 6.17859 13.5417 5.83341C13.5417 4.89411 13.1686 3.99327 12.5044 3.32908C11.8402 2.66489 10.9393 2.29175 10 2.29175C9.06073 2.29175 8.1599 2.66489 7.4957 3.32908C6.83151 3.99327 6.45837 4.89411 6.45837 5.83341C6.45837 6.17859 6.17855 6.45841 5.83337 6.45841C5.4882 6.45841 5.20837 6.17859 5.20837 5.83341C5.20837 4.56258 5.71321 3.34381 6.61182 2.44519Z" fill="#17161A"/>
<path d="M9.99996 10.2083C9.19454 10.2083 8.54163 10.8612 8.54163 11.6666C8.54163 12.2483 8.88226 12.7505 9.37496 12.9846V14.1666C9.37496 14.5118 9.65478 14.7916 9.99996 14.7916C10.3451 14.7916 10.625 14.5118 10.625 14.1666V12.9846C11.1177 12.7505 11.4583 12.2483 11.4583 11.6666C11.4583 10.8612 10.8054 10.2083 9.99996 10.2083Z" fill="#17161A"/>
<path fill-rule="evenodd" clip-rule="evenodd" d="M6.2278 6.04175H13.7722C14.3358 6.04174 14.7904 6.04174 15.1604 6.06699C15.5409 6.09294 15.8773 6.14767 16.1959 6.27962C16.9616 6.59679 17.57 7.20515 17.8871 7.97086C18.0191 8.28942 18.0738 8.62585 18.0998 9.00631C18.125 9.37632 18.125 9.83095 18.125 10.3945V14.6056C18.125 15.1692 18.125 15.6238 18.0998 15.9938C18.0738 16.3743 18.0191 16.7107 17.8871 17.0293C17.57 17.795 16.9616 18.4034 16.1959 18.7205C15.8773 18.8525 15.5409 18.9072 15.1604 18.9332C14.7904 18.9584 14.3358 18.9584 13.7722 18.9584H6.2278C5.6642 18.9584 5.20957 18.9584 4.83957 18.9332C4.4591 18.9072 4.12268 18.8525 3.80411 18.7205C3.0384 18.4034 2.43005 17.795 2.11288 17.0293C1.98092 16.7107 1.9262 16.3743 1.90024 15.9938C1.87499 15.6238 1.875 15.1692 1.875 14.6056V10.3946C1.875 9.83095 1.87499 9.37632 1.90024 9.00631C1.9262 8.62585 1.98092 8.28942 2.11288 7.97086C2.43005 7.20515 3.0384 6.59679 3.80411 6.27962C4.12268 6.14767 4.4591 6.09294 4.83957 6.06699C5.20957 6.04174 5.6642 6.04174 6.2278 6.04175ZM4.92466 7.31409C4.60784 7.3357 4.42333 7.37613 4.28247 7.43447C3.82304 7.62478 3.45803 7.98979 3.26773 8.44922C3.20938 8.59008 3.16895 8.77458 3.14734 9.0914C3.12534 9.41384 3.125 9.82577 3.125 10.4167V14.5834C3.125 15.1744 3.12534 15.5863 3.14734 15.9088C3.16895 16.2256 3.20938 16.4101 3.26773 16.5509C3.45803 17.0104 3.82304 17.3754 4.28247 17.5657C4.42333 17.624 4.60784 17.6645 4.92466 17.6861C5.24709 17.7081 5.65902 17.7084 6.25 17.7084H13.75C14.341 17.7084 14.7529 17.7081 15.0753 17.6861C15.3922 17.6645 15.5767 17.624 15.7175 17.5657C16.177 17.3754 16.542 17.0104 16.7323 16.5509C16.7906 16.4101 16.831 16.2256 16.8527 15.9088C16.8747 15.5863 16.875 15.1744 16.875 14.5834V10.4167C16.875 9.82577 16.8747 9.41384 16.8527 9.0914C16.831 8.77458 16.7906 8.59008 16.7323 8.44922C16.542 7.98979 16.177 7.62478 15.7175 7.43447C15.5767 7.37613 15.3922 7.3357 15.0753 7.31409C14.7529 7.29209 14.341 7.29175 13.75 7.29175H6.25C5.65902 7.29175 5.24709 7.29209 4.92466 7.31409Z" fill="#17161A"/>
</svg>
