<svg width="114" height="15" viewBox="0 0 114 15" fill="none" xmlns="http://www.w3.org/2000/svg">
<path d="M11.07 11.444H15.174V14H7.65L11.07 11.444ZM0.9 7.394C0.9 6.482 1.074 5.618 1.422 4.802C1.77 3.986 2.25 3.266 2.862 2.642C3.486 2.006 4.206 1.508 5.022 1.148C5.838 0.788 6.714 0.608 7.65 0.608C8.574 0.608 9.444 0.788 10.26 1.148C11.076 1.508 11.796 2.006 12.42 2.642C13.056 3.266 13.548 3.986 13.896 4.802C14.256 5.618 14.436 6.482 14.436 7.394C14.436 8.33 14.256 9.206 13.896 10.022C13.548 10.838 13.056 11.558 12.42 12.182C11.796 12.794 11.076 13.274 10.26 13.622C9.444 13.97 8.574 14.144 7.65 14.144C6.714 14.144 5.838 13.97 5.022 13.622C4.206 13.274 3.486 12.794 2.862 12.182C2.25 11.558 1.77 10.838 1.422 10.022C1.074 9.206 0.9 8.33 0.9 7.394ZM3.6 7.394C3.6 7.97 3.702 8.516 3.906 9.032C4.122 9.536 4.416 9.986 4.788 10.382C5.172 10.766 5.61 11.066 6.102 11.282C6.606 11.498 7.152 11.606 7.74 11.606C8.304 11.606 8.826 11.498 9.306 11.282C9.798 11.066 10.224 10.766 10.584 10.382C10.944 9.998 11.226 9.554 11.43 9.05C11.634 8.534 11.736 7.982 11.736 7.394C11.736 6.818 11.628 6.278 11.412 5.774C11.208 5.258 10.92 4.808 10.548 4.424C10.188 4.04 9.762 3.74 9.27 3.524C8.778 3.308 8.244 3.2 7.668 3.2C7.092 3.2 6.558 3.308 6.066 3.524C5.574 3.74 5.142 4.04 4.77 4.424C4.398 4.808 4.11 5.258 3.906 5.774C3.702 6.278 3.6 6.818 3.6 7.394ZM15.3768 0.842H18.4368L21.2628 9.158L20.8488 8.978L23.3148 2.84L24.5208 6.422L20.7048 14.612L15.3768 0.842ZM22.0188 0.842H24.6108L27.8688 8.888L27.4008 8.816L29.8308 0.842H32.6388L27.5268 14.576L22.0188 0.842ZM34.9327 0.751999H37.5427V14H34.9327V0.751999ZM43.608 5.468L43.536 6.134L43.932 5.63L48.252 0.751999H51.636L46.164 6.692L51.654 14H48.342L44.256 8.348L43.608 8.996V14H40.962V0.751999H43.608V5.468ZM60.7098 3.956C60.2058 3.68 59.6898 3.452 59.1618 3.272C58.6458 3.092 58.1598 3.002 57.7038 3.002C57.1398 3.002 56.6958 3.116 56.3718 3.344C56.0478 3.572 55.8858 3.914 55.8858 4.37C55.8858 4.682 56.0058 4.964 56.2458 5.216C56.4978 5.456 56.8158 5.672 57.1998 5.864C57.5958 6.056 58.0038 6.23 58.4238 6.386C58.8078 6.53 59.1858 6.704 59.5578 6.908C59.9418 7.1 60.2838 7.346 60.5838 7.646C60.8838 7.934 61.1238 8.3 61.3038 8.744C61.4838 9.176 61.5738 9.71 61.5738 10.346C61.5738 11.018 61.3998 11.642 61.0518 12.218C60.7038 12.794 60.1938 13.262 59.5218 13.622C58.8498 13.97 58.0218 14.144 57.0378 14.144C56.5338 14.144 56.0178 14.096 55.4898 14C54.9738 13.892 54.4638 13.736 53.9598 13.532C53.4558 13.316 52.9698 13.046 52.5018 12.722L53.6538 10.688C53.9658 10.916 54.3018 11.12 54.6618 11.3C55.0338 11.468 55.4058 11.6 55.7778 11.696C56.1498 11.792 56.4918 11.84 56.8038 11.84C57.1158 11.84 57.4278 11.798 57.7398 11.714C58.0638 11.618 58.3278 11.462 58.5318 11.246C58.7478 11.03 58.8558 10.73 58.8558 10.346C58.8558 10.082 58.7658 9.842 58.5858 9.626C58.4178 9.41 58.1838 9.212 57.8838 9.032C57.5958 8.852 57.2778 8.696 56.9298 8.564C56.5218 8.408 56.1018 8.228 55.6698 8.024C55.2378 7.82 54.8298 7.574 54.4458 7.286C54.0738 6.986 53.7678 6.62 53.5278 6.188C53.2998 5.744 53.1858 5.204 53.1858 4.568C53.1858 3.8 53.3538 3.134 53.6898 2.57C54.0378 2.006 54.5238 1.562 55.1478 1.238C55.7718 0.901999 56.4918 0.715999 57.3078 0.68C58.3758 0.68 59.2398 0.806 59.8998 1.058C60.5718 1.31 61.1718 1.61 61.6998 1.958L60.7098 3.956ZM66.7759 5.468L66.7039 6.134L67.0999 5.63L71.4199 0.751999H74.8039L69.3319 6.692L74.8219 14H71.5099L67.4239 8.348L66.7759 8.996V14H64.1299V0.751999H66.7759V5.468ZM76.8038 0.751999H79.4138V14H76.8038V0.751999ZM82.833 0.751999H85.443V11.48H91.671V14H82.833V0.751999ZM94.3643 0.751999H96.9743V11.48H103.202V14H94.3643V0.751999ZM112.97 3.956C112.466 3.68 111.95 3.452 111.422 3.272C110.906 3.092 110.42 3.002 109.964 3.002C109.4 3.002 108.956 3.116 108.632 3.344C108.308 3.572 108.146 3.914 108.146 4.37C108.146 4.682 108.266 4.964 108.506 5.216C108.758 5.456 109.076 5.672 109.46 5.864C109.856 6.056 110.264 6.23 110.684 6.386C111.068 6.53 111.446 6.704 111.818 6.908C112.202 7.1 112.544 7.346 112.844 7.646C113.144 7.934 113.384 8.3 113.564 8.744C113.744 9.176 113.834 9.71 113.834 10.346C113.834 11.018 113.66 11.642 113.312 12.218C112.964 12.794 112.454 13.262 111.782 13.622C111.11 13.97 110.282 14.144 109.298 14.144C108.794 14.144 108.278 14.096 107.75 14C107.234 13.892 106.724 13.736 106.22 13.532C105.716 13.316 105.23 13.046 104.762 12.722L105.914 10.688C106.226 10.916 106.562 11.12 106.922 11.3C107.294 11.468 107.666 11.6 108.038 11.696C108.41 11.792 108.752 11.84 109.064 11.84C109.376 11.84 109.688 11.798 110 11.714C110.324 11.618 110.588 11.462 110.792 11.246C111.008 11.03 111.116 10.73 111.116 10.346C111.116 10.082 111.026 9.842 110.846 9.626C110.678 9.41 110.444 9.212 110.144 9.032C109.856 8.852 109.538 8.696 109.19 8.564C108.782 8.408 108.362 8.228 107.93 8.024C107.498 7.82 107.09 7.574 106.706 7.286C106.334 6.986 106.028 6.62 105.788 6.188C105.56 5.744 105.446 5.204 105.446 4.568C105.446 3.8 105.614 3.134 105.95 2.57C106.298 2.006 106.784 1.562 107.408 1.238C108.032 0.901999 108.752 0.715999 109.568 0.68C110.636 0.68 111.5 0.806 112.16 1.058C112.832 1.31 113.432 1.61 113.96 1.958L112.97 3.956Z" fill="black"/>
</svg>
