<svg width="18" height="18" viewBox="0 0 18 18" fill="none" xmlns="http://www.w3.org/2000/svg">
<path d="M17.4 0H9.6C9.44087 0 9.28826 0.0632142 9.17574 0.175736C9.06321 0.288258 9 0.44087 9 0.6V6H1.8C1.32261 6 0.864773 6.18964 0.527208 6.52721C0.189642 6.86477 0 7.32261 0 7.8V13.884C0 14.3614 0.189642 14.8192 0.527208 15.1568C0.864773 15.4944 1.32261 15.684 1.8 15.684H5.4V16.8H3.684C3.52487 16.8 3.37226 16.8632 3.25974 16.9757C3.14721 17.0883 3.084 17.2409 3.084 17.4C3.084 17.5591 3.14721 17.7117 3.25974 17.8243C3.37226 17.9368 3.52487 18 3.684 18H8.316C8.47513 18 8.62774 17.9368 8.74026 17.8243C8.85279 17.7117 8.916 17.5591 8.916 17.4C8.916 17.2409 8.85279 17.0883 8.74026 16.9757C8.62774 16.8632 8.47513 16.8 8.316 16.8H6.6V15.684H9V17.4C9 17.5591 9.06321 17.7117 9.17574 17.8243C9.28826 17.9368 9.44087 18 9.6 18H17.4C17.5591 18 17.7117 17.9368 17.8243 17.8243C17.9368 17.7117 18 17.5591 18 17.4V0.6C18 0.44087 17.9368 0.288258 17.8243 0.175736C17.7117 0.0632142 17.5591 0 17.4 0ZM1.8 7.2H9V12.174H1.2V7.8C1.2 7.64087 1.26321 7.48826 1.37574 7.37574C1.48826 7.26321 1.64087 7.2 1.8 7.2ZM1.8 14.484C1.64087 14.484 1.48826 14.4208 1.37574 14.3083C1.26321 14.1957 1.2 14.0431 1.2 13.884V13.374H9V14.484H1.8ZM16.8 16.8H10.2V1.2H16.8V16.8Z" fill="#17161A"/>
<path d="M12 3.60002H15C15.1592 3.60002 15.3118 3.53681 15.4243 3.42429C15.5368 3.31177 15.6 3.15915 15.6 3.00002C15.6 2.84089 15.5368 2.68828 15.4243 2.57576C15.3118 2.46324 15.1592 2.40002 15 2.40002H12C11.8409 2.40002 11.6883 2.46324 11.5758 2.57576C11.4632 2.68828 11.4 2.84089 11.4 3.00002C11.4 3.15915 11.4632 3.31177 11.5758 3.42429C11.6883 3.53681 11.8409 3.60002 12 3.60002Z" fill="#17161A"/>
<path d="M12 6.00005H15C15.1592 6.00005 15.3118 5.93684 15.4243 5.82431C15.5368 5.71179 15.6 5.55918 15.6 5.40005C15.6 5.24092 15.5368 5.08831 15.4243 4.97578C15.3118 4.86326 15.1592 4.80005 15 4.80005H12C11.8409 4.80005 11.6883 4.86326 11.5758 4.97578C11.4632 5.08831 11.4 5.24092 11.4 5.40005C11.4 5.55918 11.4632 5.71179 11.5758 5.82431C11.6883 5.93684 11.8409 6.00005 12 6.00005Z" fill="#17161A"/>
<path d="M13.5 15.6C13.997 15.6 14.4 15.1971 14.4 14.7C14.4 14.203 13.997 13.8 13.5 13.8C13.0029 13.8 12.6 14.203 12.6 14.7C12.6 15.1971 13.0029 15.6 13.5 15.6Z" fill="#17161A"/>
</svg>
