<svg width="42" height="45" viewBox="0 0 42 45" fill="none" xmlns="http://www.w3.org/2000/svg">
<path d="M22.5085 36.7405C23.8648 37.6563 25.2521 38.5326 26.7141 39.2958C27.4669 39.6916 28.2383 40.0534 29.0347 40.37C29.5697 40.5848 29.9865 41.1219 30.6087 41.1502C31.4859 41.1954 31.3241 40.6979 31.1686 40.1834C30.7517 38.804 31.0504 37.0288 31.125 35.6098C31.293 32.506 31.7347 29.4135 32.4004 26.3663C32.4377 26.1911 32.4813 26.0158 32.5248 25.8462C32.5373 25.8236 32.5435 25.7953 32.5435 25.7727C33.8811 19.8874 36.0088 14.1774 38.4973 8.62004C39.5798 6.20034 40.7307 3.80327 41.919 1.4288C42.0559 1.15744 41.975 0.716463 41.8194 0.462057C41.7821 0.399868 41.7386 0.343333 41.6639 0.315066C41.5644 0.281145 41.4524 0.326373 41.3528 0.371601C41.2969 0.399868 41.2346 0.422482 41.1786 0.445096C41.0853 0.479017 40.9982 0.512938 40.8987 0.546859C40.7307 0.603394 40.5627 0.733424 40.4134 0.818226C38.7337 1.77932 37.0477 2.73476 35.3617 3.6902C33.6758 4.64564 31.9898 5.60673 30.3038 6.56217C28.6178 7.51761 26.9319 8.4787 25.2459 9.43979C23.5599 10.4009 21.874 11.362 20.1942 12.3344C18.5145 13.3011 16.8347 14.2735 15.1612 15.2516C13.4876 16.2296 11.8141 17.2077 10.153 18.197C8.49194 19.1864 6.83085 20.1814 5.17598 21.1821C3.52112 22.1827 1.87869 23.1947 0.242491 24.218C0.180278 24.2576 0.155393 24.3085 0.149172 24.3593C-0.000139493 24.4554 -0.0685738 24.659 0.09318 24.7833C2.18354 26.4059 4.41076 28.1472 6.73753 29.4927C6.72509 29.5266 6.7002 29.5605 6.71264 29.6114C7.49653 34.3717 8.83411 39.098 9.96016 43.8017C10.0535 44.1974 10.6196 44.1352 10.7627 43.813C10.7876 43.7508 10.8187 43.6886 10.8436 43.6208C10.8871 43.6095 10.9245 43.5868 10.9618 43.5473C13.6121 40.37 16.2561 37.1871 18.9064 34.0098C20.0324 34.9822 21.2518 35.8924 22.5085 36.7405ZM38.6528 6.2173C38.4351 6.06466 38.2111 5.91767 37.9933 5.76503C37.7507 5.60107 37.5143 5.96855 37.7569 6.1325C37.9933 6.29645 38.2298 6.45475 38.4662 6.6187C38.3604 6.84484 38.2546 7.07663 38.1427 7.30277C37.8627 7.11055 37.5827 6.92399 37.3028 6.73177C37.0602 6.56782 36.8237 6.9353 37.0664 7.09925C37.365 7.30277 37.6636 7.50064 37.9622 7.70417C37.8503 7.94162 37.7445 8.17341 37.6325 8.41086C37.4023 8.24125 37.1659 8.07165 36.9357 7.89639C36.7055 7.72678 36.3696 8.02077 36.606 8.19602C36.886 8.4052 37.1659 8.60873 37.4459 8.81791C37.3463 9.02709 37.253 9.24192 37.1597 9.45675C36.9295 9.2928 36.6931 9.12885 36.4629 8.95924C36.2265 8.79529 35.8905 9.08927 36.1332 9.25888C36.4131 9.4624 36.6993 9.66028 36.9793 9.8638C36.8548 10.1352 36.7304 10.4122 36.6122 10.6836C36.3198 10.5196 36.0274 10.3613 35.7412 10.1974C35.4862 10.056 35.2435 10.4178 35.5048 10.5648C35.8159 10.7401 36.127 10.9097 36.4442 11.085C36.3571 11.2885 36.2763 11.4864 36.1892 11.6899C35.8346 11.4864 35.4799 11.2772 35.1253 11.0736C34.8703 10.9267 34.6338 11.2885 34.8889 11.4355C35.2684 11.656 35.6417 11.8708 36.0212 12.0913C35.9154 12.3344 35.8097 12.5831 35.7101 12.8262C35.3057 12.5662 34.8951 12.3061 34.4908 12.046C34.2419 11.8877 34.0055 12.2552 34.2543 12.4079C34.6836 12.6849 35.1129 12.9563 35.5422 13.2333C35.4177 13.5386 35.2995 13.8439 35.1751 14.1491C34.7209 13.9852 34.3601 13.6969 34.1237 13.3011C33.9806 13.058 33.5762 13.2729 33.7193 13.5103C34.0055 13.9965 34.4596 14.347 35.0196 14.5449C34.9574 14.7088 34.8889 14.8671 34.8267 15.0311C34.808 15.0141 34.7956 14.9972 34.7707 14.9802C34.3725 14.7484 33.9682 14.5166 33.57 14.2848C33.3149 14.1378 33.0785 14.5053 33.3336 14.6523C33.7318 14.8841 34.1361 15.1159 34.5343 15.3477C34.5903 15.3816 34.6463 15.3816 34.6961 15.3759C34.6338 15.5456 34.5654 15.7152 34.5032 15.8848C34.1113 15.6417 33.7193 15.4042 33.3274 15.1611C33.0785 15.0085 32.8421 15.3759 33.091 15.5286C33.514 15.7887 33.9308 16.0431 34.3539 16.3031C34.3166 16.4049 34.2792 16.5123 34.2357 16.6197C33.8748 16.3936 33.5078 16.1674 33.1469 15.9356C32.8981 15.783 32.6617 16.1448 32.9105 16.3031C33.3025 16.5462 33.6944 16.795 34.0864 17.0381C34.0179 17.2303 33.9433 17.4225 33.8748 17.6147C33.4705 17.2586 33.0599 16.8967 32.6555 16.5406C32.4377 16.354 32.108 16.648 32.3257 16.8402C32.7923 17.2473 33.2527 17.6543 33.7193 18.0614C33.6633 18.214 33.6198 18.3666 33.5638 18.5193C33.2216 18.2253 32.8794 17.9313 32.5373 17.643C32.3195 17.4564 31.9836 17.7504 32.2075 17.9426C32.6119 18.2875 33.0101 18.6324 33.4145 18.9772C33.3647 19.1242 33.3149 19.2769 33.2652 19.4238C32.9852 19.2203 32.699 19.0224 32.4191 18.8189C32.1889 18.655 31.8529 18.9489 32.0893 19.1186C32.4315 19.3673 32.7799 19.6104 33.1221 19.8592C33.0163 20.1927 32.9105 20.5206 32.8048 20.8542C32.7923 20.8259 32.7737 20.792 32.7426 20.7694C32.3942 20.4867 32.0458 20.1984 31.6974 19.9157C31.4734 19.7348 31.1375 20.0288 31.3677 20.2153C31.7161 20.498 32.0644 20.7863 32.4128 21.069C32.5248 21.1595 32.6679 21.1312 32.7488 21.052C32.6617 21.346 32.5746 21.6344 32.4875 21.9283C32.0582 21.64 31.629 21.3517 31.2059 21.0634C30.9633 20.8994 30.7269 21.2669 30.9695 21.4308C31.4361 21.7418 31.8965 22.0527 32.3631 22.3693C32.3133 22.5389 32.2635 22.7029 32.2138 22.8725C31.8032 22.5954 31.3988 22.3241 30.9882 22.0471C30.7455 21.8831 30.5091 22.2506 30.7518 22.4145C31.1997 22.7198 31.6476 23.0195 32.1018 23.3247C32.052 23.5 32.0147 23.6809 31.9649 23.8562C31.4672 23.5792 31.0255 23.2286 30.6647 22.7933C30.4842 22.5785 30.1483 22.8781 30.3349 23.093C30.7517 23.5848 31.2681 23.9806 31.8591 24.2858C31.7907 24.5516 31.7161 24.8116 31.6538 25.0773C31.1561 24.7664 30.6584 24.4498 30.1669 24.1388C29.9181 23.9806 29.6817 24.348 29.9305 24.5007C30.4718 24.8455 31.013 25.1847 31.5543 25.524C31.4734 25.8688 31.405 26.2137 31.3366 26.5585C30.702 26.1515 30.0736 25.7388 29.4391 25.3317C29.1964 25.1734 28.96 25.5409 29.2026 25.6992C29.8808 26.1402 30.5651 26.5812 31.2432 27.0165C31.1872 27.2935 31.125 27.5705 31.0753 27.8475C30.6087 27.4914 30.1421 27.1408 29.6817 26.7847C29.4515 26.6094 29.1155 26.9091 29.3457 27.0843C29.8932 27.5027 30.4469 27.921 30.9944 28.3394C30.9695 28.4751 30.9508 28.6108 30.9259 28.7464C30.422 28.3846 29.9181 28.0284 29.4142 27.6666C29.1778 27.5027 28.8418 27.7967 29.0782 27.9663C29.6692 28.3846 30.254 28.8086 30.8451 29.227C30.814 29.4418 30.7704 29.6567 30.7393 29.8771C30.1483 29.4984 29.5573 29.1196 28.9725 28.7464C28.7236 28.5881 28.4872 28.9556 28.736 29.1139C29.3831 29.5266 30.0301 29.945 30.6771 30.3577C30.646 30.5782 30.6273 30.8043 30.6024 31.0248C29.9616 30.6404 29.3146 30.2503 28.6738 29.8658C28.425 29.7132 28.1824 30.0807 28.4374 30.2333C29.1404 30.6573 29.8497 31.0813 30.5527 31.5053C30.5029 31.952 30.4531 32.4042 30.4158 32.8565C29.6879 32.4608 28.9849 32.0311 28.3441 31.5223C28.1201 31.3414 27.7842 31.641 28.0144 31.8219C28.7485 32.4042 29.551 32.9017 30.3909 33.3371C30.3598 33.795 30.3349 34.2473 30.3163 34.7052C29.4142 34.0946 28.5183 33.4784 27.6162 32.8622C27.3736 32.6982 27.1372 33.0657 27.3798 33.2297C28.3503 33.8911 29.3209 34.5582 30.2976 35.2197C30.2914 35.6267 30.3038 36.0338 30.3038 36.4408C29.1778 35.655 28.0579 34.8692 26.9319 34.0833C26.6955 33.9194 26.4591 34.2812 26.6955 34.4452C27.8962 35.2875 29.1031 36.1299 30.3038 36.9723C30.31 37.351 30.3225 37.7298 30.3474 38.1086C28.9787 37.4415 27.7406 36.6104 26.6395 35.6041C26.4279 35.4119 26.092 35.7059 26.3097 35.9038C27.5105 37.0005 28.8729 37.9051 30.3847 38.6118C30.4096 39.0075 30.4282 39.4033 30.4656 39.799C28.9102 38.6683 27.3611 37.532 25.812 36.4013C25.5818 36.2317 25.2459 36.5256 25.4823 36.7009C26.7577 37.6337 28.0393 38.5665 29.3146 39.4937C27.3425 38.5609 25.3765 37.6676 23.535 36.4748C20.9656 34.8126 18.8006 32.8396 16.5796 30.8269C24.2194 22.6294 31.2432 13.8382 38.1986 5.12618C38.2049 5.13749 38.2111 5.14314 38.2173 5.15445C38.4599 5.37493 38.7088 5.59542 38.9514 5.81591C38.7959 5.91767 38.7212 6.06466 38.6528 6.2173ZM32.5248 10.6496C32.332 10.8871 32.1329 11.1245 31.9338 11.3676C31.8094 10.7344 31.6912 10.1012 31.5667 9.4624C31.5543 9.40021 31.517 9.36064 31.4734 9.33803C31.6538 9.19104 31.8405 9.04405 32.0209 8.89706C32.1453 9.43414 32.2635 9.97122 32.388 10.5083C32.4066 10.5874 32.4564 10.6327 32.5248 10.6496ZM32.4128 8.58046C32.5684 8.45608 32.7239 8.32605 32.8857 8.20168C32.9914 8.7331 33.1034 9.26453 33.2092 9.80161C33.0785 9.96556 32.9416 10.1295 32.811 10.2935C32.6866 9.73942 32.5621 9.17973 32.4315 8.62569C32.4315 8.60873 32.4253 8.59742 32.4128 8.58046ZM31.5481 11.8312C31.3988 12.0121 31.2557 12.1874 31.1064 12.3683C30.9633 11.5768 30.8202 10.7797 30.6833 9.98818C30.6833 9.98252 30.6771 9.98252 30.6771 9.97687C30.8264 9.85815 30.9757 9.73942 31.1188 9.6207C31.2619 10.3613 31.405 11.0963 31.5481 11.8312ZM30.7206 12.8432C30.5962 12.9958 30.4656 13.1541 30.3411 13.3068C30.1794 12.4644 30.0176 11.622 29.8559 10.7797C29.8497 10.7401 29.831 10.7062 29.8061 10.6836C29.9616 10.5592 30.1172 10.4348 30.2727 10.3104C30.422 11.1528 30.5713 11.9952 30.7206 12.8432ZM29.9554 13.7704C29.8745 13.8665 29.7999 13.9626 29.719 14.0587C29.551 13.0919 29.3768 12.1252 29.2089 11.1584C29.2835 11.1019 29.352 11.0454 29.4204 10.9888C29.6008 11.916 29.7812 12.8432 29.9554 13.7704ZM29.3084 14.4149C29.3146 14.4544 29.3333 14.4827 29.352 14.5053C29.2338 14.6466 29.1218 14.788 29.0036 14.9293C29.0222 14.8897 29.0347 14.8502 29.0222 14.8049C28.8356 13.7986 28.6552 12.7867 28.4685 11.7803C28.4685 11.769 28.4623 11.769 28.4623 11.7577C28.5681 11.6729 28.6801 11.5825 28.7858 11.4977C28.9662 12.4644 29.1404 13.4368 29.3084 14.4149ZM28.5743 14.9067C28.6054 15.0876 28.8231 15.0989 28.9476 15.0028C28.6987 15.3081 28.4499 15.6134 28.201 15.913C27.9646 14.8106 27.7344 13.7082 27.498 12.6001C27.4918 12.5831 27.4856 12.5662 27.4793 12.5549C27.6722 12.3966 27.8651 12.2439 28.0641 12.0856C28.2321 13.0241 28.4063 13.9626 28.5743 14.9067ZM27.8215 16.354C27.8215 16.3597 27.8215 16.3597 27.8277 16.3597C27.61 16.6254 27.386 16.8854 27.1621 17.1455C26.9941 15.8339 26.8199 14.5223 26.6519 13.2107C26.795 13.0919 26.9381 12.9789 27.0874 12.8601C27.33 14.0304 27.5727 15.195 27.8215 16.354ZM26.7577 17.6317C26.6519 17.7561 26.5462 17.8804 26.4404 18.0048C26.2973 16.6254 26.148 15.2459 26.0049 13.8665C25.9987 13.8269 25.9862 13.793 25.9613 13.7647C26.0484 13.6912 26.1355 13.6234 26.2226 13.5499C26.4031 14.918 26.5773 16.2749 26.7577 17.6317ZM26.0236 18.4514C26.0236 18.4684 26.0298 18.4797 26.036 18.491C25.9489 18.5928 25.868 18.6889 25.7872 18.7907C25.5134 17.4112 25.2335 16.0261 24.9597 14.6466C24.9535 14.6297 24.9473 14.6184 24.9411 14.6014C25.1526 14.4318 25.3579 14.2622 25.5694 14.0926C25.7187 15.5456 25.868 16.9985 26.0236 18.4514ZM25.4014 19.2429C25.3765 19.2712 25.3517 19.2995 25.3268 19.3277C25.2335 19.4352 25.1401 19.5482 25.0468 19.6556C24.6611 18.2479 24.2754 16.8402 23.8897 15.4381C24.1012 15.2629 24.3189 15.0933 24.5304 14.918C24.8229 16.3597 25.109 17.8013 25.4014 19.2429ZM24.6798 20.0853C24.4496 20.3567 24.2132 20.628 23.983 20.9051C23.6346 19.339 23.28 17.7787 22.9316 16.2127C23.1182 16.06 23.3111 15.9074 23.4977 15.7547C23.8897 17.202 24.2878 18.6437 24.6798 20.0853ZM23.6035 21.346C23.4666 21.51 23.3297 21.6683 23.1929 21.8322C22.8383 20.1758 22.4774 18.5193 22.1228 16.8685C22.2597 16.7611 22.3965 16.6536 22.5272 16.5406C22.888 18.1405 23.2489 19.7404 23.6035 21.346ZM22.8071 22.2619C22.8071 22.2675 22.8071 22.2675 22.8134 22.2675C22.6889 22.4089 22.5645 22.5559 22.4401 22.7029C21.9922 21.0294 21.5504 19.356 21.1025 17.6882C21.2332 17.5808 21.3638 17.4734 21.4945 17.366C21.5691 17.3094 21.6375 17.2473 21.7122 17.1907C22.0793 18.8811 22.4463 20.5715 22.8071 22.2619ZM22.0793 23.1325C21.874 23.37 21.6749 23.6131 21.4696 23.8505C21.1772 22.0301 20.7417 20.2436 20.1382 18.4854C20.3311 18.3271 20.5177 18.1688 20.7106 18.0105C21.1647 19.7178 21.6251 21.4252 22.0793 23.1325ZM21.0714 24.3141C20.9097 24.5063 20.7479 24.6985 20.5861 24.8908C20.1755 22.9686 19.7649 21.052 19.3543 19.1299C19.485 19.0168 19.6218 18.9094 19.7587 18.802C20.356 20.6111 20.7977 22.4485 21.0714 24.3141ZM20.2066 25.343C20.1444 25.4222 20.076 25.4957 20.0138 25.5748C19.5285 23.647 19.0433 21.7192 18.558 19.7913C18.6887 19.6839 18.8193 19.5765 18.9499 19.4691C19.3668 21.4252 19.7898 23.3869 20.2066 25.343ZM19.6467 26.0102C19.5036 26.1798 19.3605 26.355 19.2112 26.5246C18.5456 24.6477 17.8799 22.7707 17.2142 20.8937C17.5253 20.6337 17.8488 20.3736 18.1598 20.1136C18.6575 22.081 19.149 24.0484 19.6467 26.0102ZM18.8691 26.9317C18.6078 27.2426 18.3403 27.5536 18.079 27.8645C17.9981 27.9606 17.9172 28.0511 17.8301 28.1472C17.4879 25.9593 16.9716 23.8053 16.2748 21.6909C16.4614 21.5326 16.6481 21.3686 16.8347 21.216C17.5128 23.1212 18.1909 25.0264 18.8691 26.9317ZM17.4319 28.5655C17.4319 28.5712 17.4382 28.5712 17.4382 28.5768C17.376 28.6447 17.3137 28.7069 17.2515 28.7747C16.6418 26.6546 16.0322 24.5402 15.4162 22.4202C15.578 22.2845 15.7335 22.1488 15.8953 22.0131C16.5858 24.1671 17.1022 26.3494 17.4319 28.5655ZM16.8596 29.1083C16.8658 29.1252 16.8845 29.1309 16.8907 29.1422C16.6854 29.357 16.4801 29.5662 16.281 29.7867C15.6962 27.5988 15.1114 25.4052 14.5266 23.2173C14.5266 23.206 14.5142 23.206 14.5079 23.1947C14.6821 23.0477 14.8563 22.9007 15.0243 22.7537C15.6402 24.8738 16.2499 26.9939 16.8596 29.1083ZM14.6884 34.6883C14.8252 34.366 14.9621 34.0438 15.099 33.7159C15.7024 33.1901 16.3121 32.6643 16.9156 32.1385C16.9902 32.2177 17.0649 32.2912 17.1395 32.3647C16.3246 33.1392 15.5096 33.9137 14.6884 34.6883ZM17.4568 32.6869C17.5439 32.7717 17.631 32.8565 17.7181 32.9413C16.4552 34.1229 15.1923 35.3045 13.9294 36.4861C14.0413 36.2317 14.1471 35.9716 14.2591 35.7172C15.3229 34.6996 16.3868 33.6932 17.4568 32.6869ZM15.4971 32.783C15.7086 32.2799 15.9326 31.7824 16.1379 31.2792C16.2934 31.4601 16.4552 31.6354 16.617 31.8106C16.2437 32.1385 15.8704 32.4608 15.4971 32.783ZM15.9202 30.2163C15.7709 30.3973 15.6278 30.5895 15.4971 30.7873C14.8314 28.5429 14.172 26.2928 13.5063 24.0484C13.7116 23.8731 13.9231 23.6979 14.1284 23.5226C14.7257 25.7501 15.3229 27.9832 15.9202 30.2163ZM15.1798 31.347C14.9372 31.8106 14.7257 32.2855 14.5266 32.7661C14.0849 30.1315 13.357 27.5592 12.3305 25.066C12.5233 24.8964 12.7162 24.7212 12.9091 24.5516C12.9775 24.495 13.0459 24.4328 13.1144 24.3763C13.8049 26.6999 14.4893 29.0235 15.1798 31.347ZM14.1533 33.2975C14.1658 33.3653 14.2031 33.4106 14.2529 33.4332C14.0538 33.942 13.8547 34.4508 13.6494 34.954C13.1392 31.9124 12.3429 28.933 11.2542 26.0158C11.4906 25.8066 11.727 25.5974 11.9634 25.3883C12.9962 27.955 13.7365 30.5895 14.1533 33.2975ZM13.2699 35.4628C13.2823 35.5363 13.3259 35.5815 13.3819 35.6041C13.3757 35.6098 13.3757 35.6211 13.3694 35.6267C13.1268 36.1808 12.8904 36.7348 12.654 37.2945C11.9012 33.7837 11.1547 30.2785 10.4019 26.7734C10.5636 26.632 10.7192 26.4907 10.8809 26.3494C11.9696 29.3231 12.7722 32.3647 13.2699 35.4628ZM13.4939 37.4924C15.0119 36.0734 16.5236 34.66 18.0416 33.241C18.0852 33.2805 18.1225 33.3201 18.1661 33.3597C18.1101 33.4275 18.0541 33.4954 17.9981 33.5632C17.9545 33.5689 17.911 33.5858 17.8737 33.6254C16.2312 35.3384 14.5826 37.0514 12.9402 38.7644C13.1268 38.3461 13.3134 37.9164 13.4939 37.4924ZM33.29 7.87943C33.3958 7.79463 33.4953 7.71548 33.6011 7.63067C33.6944 8.02077 33.7877 8.4052 33.8811 8.79529C33.8935 8.84052 33.9184 8.87444 33.9433 8.89706C33.8251 9.04405 33.7069 9.19104 33.5887 9.33803C33.4891 8.85183 33.3896 8.36563 33.29 7.87943C33.2963 7.87943 33.29 7.87943 33.29 7.87943ZM33.9682 7.33669C34.1299 7.20666 34.2917 7.07663 34.4472 6.95226C34.5156 7.29712 34.5841 7.63633 34.6463 7.98119C34.6463 7.9925 34.6587 7.99815 34.6587 8.00946C34.5281 8.16776 34.4037 8.32605 34.2792 8.4787C34.1983 8.13384 34.1113 7.78332 34.0304 7.43846C34.0242 7.39323 33.9993 7.35931 33.9682 7.33669ZM34.8578 6.6187C35.0071 6.49998 35.1564 6.3756 35.3057 6.25688C35.3368 6.49432 35.3617 6.73177 35.3928 6.96922C35.3991 7.00314 35.4115 7.03141 35.4239 7.05967C35.2933 7.21797 35.1627 7.38192 35.032 7.54022C34.9822 7.23493 34.92 6.92964 34.8578 6.6187ZM35.7226 5.92332C35.8346 5.83287 35.9465 5.74241 36.0585 5.65196C36.0958 5.79329 36.1394 5.92898 36.1767 6.07031C36.1829 6.08727 36.1954 6.08727 36.2016 6.09858C36.071 6.25688 35.9403 6.42083 35.8097 6.57913C35.7848 6.36995 35.7599 6.16642 35.735 5.95724C35.735 5.94594 35.7288 5.93463 35.7226 5.92332ZM36.4567 5.34101C36.8051 5.05834 37.1597 4.77567 37.5143 4.49299C37.197 4.88873 36.8735 5.28448 36.5562 5.68022C36.5189 5.5615 36.4878 5.44843 36.4567 5.34101ZM40.5316 2.05069C40.5503 2.03373 40.5503 2.01676 40.5627 1.99415C40.6436 1.92631 40.7307 1.85847 40.8116 1.79063C40.2268 2.96655 39.6482 4.15378 39.0759 5.34667C38.8768 5.16576 38.6777 4.98484 38.4724 4.80393C38.4413 4.77567 38.4102 4.76436 38.3791 4.75305C39.0945 3.85415 39.8162 2.94959 40.5316 2.05069ZM0.628212 24.4554C0.845957 24.3367 1.05748 24.218 1.27523 24.1049C1.28767 24.1162 1.29389 24.1332 1.30633 24.1445C1.85381 24.6081 2.4075 25.0717 2.95498 25.5353C3.17272 25.7218 3.50867 25.4222 3.28471 25.2356C2.74968 24.7833 2.21464 24.3311 1.67961 23.8844C1.81648 23.8109 1.94713 23.7375 2.084 23.664C2.59414 24.0936 3.10429 24.5176 3.61444 24.9473C3.83218 25.1339 4.16813 24.8342 3.94417 24.6477C3.46513 24.2463 2.97986 23.8392 2.50082 23.4378C2.69368 23.3361 2.88032 23.2343 3.06696 23.1269C3.58955 23.5339 4.11214 23.941 4.63473 24.348C4.8587 24.5233 5.19465 24.2293 4.97068 24.0484C4.4792 23.664 3.98771 23.2795 3.49001 22.8951C3.66421 22.799 3.84462 22.7029 4.01882 22.6068C4.4792 22.9629 4.93957 23.3134 5.39995 23.6696C5.63014 23.8449 5.95987 23.5509 5.72968 23.37C5.30041 23.0364 4.86492 22.7085 4.43565 22.375C4.60362 22.2845 4.7716 22.1941 4.94579 22.0979C4.96446 22.1092 4.97068 22.1206 4.98312 22.1262C5.32529 22.3128 5.66747 22.4937 6.00964 22.6803C6.27093 22.8216 6.50734 22.4541 6.24605 22.3128C5.96609 22.1601 5.67991 22.0075 5.39995 21.8548C5.6488 21.7192 5.89765 21.5778 6.14651 21.4421C6.41402 21.5948 6.68154 21.7474 6.94905 21.8944C7.20413 22.0414 7.44054 21.6739 7.18546 21.5326C6.98638 21.4195 6.7873 21.3065 6.58822 21.1934C6.77486 21.0916 6.95527 20.9899 7.14191 20.8881C7.40321 21.0973 7.6645 21.3121 7.91958 21.5213C8.14354 21.7022 8.47949 21.4026 8.2493 21.2216C8.01912 21.0351 7.78271 20.8429 7.55252 20.6563C7.71427 20.5658 7.88225 20.4754 8.044 20.3849C8.48571 20.6902 8.92121 20.9899 9.36292 21.2951C9.59933 21.4591 9.83574 21.0916 9.59933 20.9277C9.21983 20.6676 8.84655 20.4075 8.46705 20.1475C8.70968 20.0118 8.95853 19.8761 9.20116 19.7404C9.59311 20.0288 9.99127 20.3114 10.3832 20.5998C10.6134 20.7694 10.9494 20.4754 10.7129 20.3001C10.3459 20.0344 9.98505 19.7687 9.61799 19.503C9.72997 19.4408 9.84818 19.3786 9.96016 19.3108C10.3023 19.5652 10.6445 19.8196 10.9929 20.074C11.2231 20.2436 11.559 19.9496 11.3226 19.7744C11.0053 19.5426 10.6943 19.3051 10.377 19.0733C10.5885 18.9546 10.7938 18.8359 11.0053 18.7172C11.2355 18.8472 11.4657 18.9716 11.6959 19.1016C11.951 19.2429 12.1936 18.8811 11.9323 18.7341C11.7706 18.6437 11.6088 18.5532 11.4471 18.4628C11.6275 18.361 11.8079 18.2592 11.9883 18.1575C12.3305 18.3949 12.6727 18.638 13.0148 18.8755C13.2512 19.0394 13.4876 18.6776 13.2512 18.5136C12.9713 18.3158 12.6913 18.1179 12.4051 17.9257C12.542 17.8465 12.6789 17.7674 12.8157 17.6939C13.1766 17.9144 13.5374 18.1292 13.892 18.3497C14.1409 18.5023 14.3773 18.1348 14.1284 17.9822C13.836 17.8013 13.5374 17.626 13.245 17.4451C13.3508 17.3886 13.4503 17.3264 13.5561 17.2699C13.5623 17.2755 13.5685 17.2812 13.5747 17.2812C13.8671 17.4395 14.1533 17.5921 14.4457 17.7504C14.707 17.8917 14.9434 17.5243 14.6821 17.3829C14.4519 17.2586 14.228 17.1398 13.9978 17.0155C14.284 16.8515 14.5701 16.6932 14.8563 16.5293C15.1798 16.7215 15.5033 16.9137 15.8268 17.1059C16.0819 17.2529 16.3183 16.8911 16.0633 16.7384C15.8082 16.5858 15.5469 16.4331 15.2918 16.2805C15.5407 16.1392 15.7833 15.9978 16.0322 15.8565C16.2623 16.0318 16.4863 16.207 16.7165 16.3823C16.9467 16.5575 17.2764 16.2635 17.0462 16.0826C16.8471 15.93 16.6418 15.7717 16.4428 15.619C16.617 15.5173 16.7912 15.4212 16.9653 15.3194C17.2142 15.5173 17.4693 15.7095 17.7181 15.9074C17.9421 16.0826 18.278 15.7887 18.0479 15.6077C17.8239 15.4325 17.5999 15.2572 17.3697 15.082C17.5128 14.9972 17.6559 14.918 17.799 14.8332C17.9608 14.9406 18.1163 15.0424 18.278 15.1498C18.5207 15.3081 18.7571 14.9463 18.5145 14.7823C18.4149 14.7201 18.3216 14.6523 18.2221 14.5901C18.4585 14.4544 18.6949 14.3187 18.9251 14.1831C19.093 14.2905 19.2672 14.4035 19.4352 14.511C19.6778 14.6693 19.9142 14.3018 19.6716 14.1435C19.5659 14.0756 19.4539 14.0022 19.3481 13.9343C19.4414 13.8778 19.5347 13.8269 19.6281 13.7704C19.8085 13.906 19.9951 14.0361 20.1755 14.1718C20.4057 14.3414 20.7417 14.0474 20.5115 13.8721C20.356 13.7591 20.2004 13.646 20.0449 13.5329C20.2751 13.3972 20.5053 13.2615 20.7355 13.1315C20.9719 13.2729 21.2145 13.4142 21.4509 13.5555C21.706 13.7025 21.9424 13.3407 21.6873 13.1937C21.5131 13.0919 21.3389 12.9845 21.1647 12.8828C21.2892 12.8093 21.4136 12.7358 21.538 12.6679C21.6935 12.7867 21.8428 12.911 21.9922 13.0298C22.2161 13.2107 22.5521 12.911 22.3281 12.7301C22.2037 12.6284 22.073 12.5266 21.9486 12.4305C22.0357 12.3796 22.1228 12.3287 22.2099 12.2778C22.4028 12.4305 22.5894 12.5775 22.7823 12.7301C23.0062 12.911 23.3422 12.6114 23.1182 12.4305C22.9502 12.3005 22.7885 12.1704 22.6267 12.0404C22.6765 12.0121 22.7263 11.9839 22.776 11.9556C23 12.0743 23.224 12.1987 23.4479 12.3174C23.7092 12.4587 23.9456 12.0913 23.6844 11.9556C23.5288 11.8708 23.3733 11.786 23.2115 11.7012C23.3608 11.6107 23.5164 11.5259 23.6657 11.4355C23.6844 11.4524 23.7092 11.4694 23.7403 11.4807C23.9892 11.5655 24.2318 11.656 24.4807 11.7408C24.7606 11.8425 24.8851 11.4298 24.6113 11.3337C24.4558 11.2772 24.294 11.2206 24.1385 11.1641C24.2692 11.0906 24.3998 11.0115 24.5304 10.938C24.7109 11.0793 24.8913 11.2263 25.0717 11.3676C25.2957 11.5485 25.6316 11.2489 25.4014 11.068C25.2459 10.9436 25.0904 10.8192 24.9348 10.6949C25.0593 10.6214 25.1775 10.5535 25.3019 10.48C25.3206 10.5026 25.3392 10.5196 25.3641 10.5366C25.5819 10.6666 25.7934 10.8023 26.0111 10.9323C26.26 11.085 26.4964 10.7175 26.2475 10.5648C26.0671 10.4574 25.8867 10.3443 25.7125 10.2369C25.8805 10.1408 26.0422 10.0447 26.2102 9.9486C26.3657 10.0447 26.5213 10.1465 26.6768 10.2426C26.9257 10.4009 27.1621 10.0334 26.9132 9.87511C26.8199 9.81292 26.7266 9.75638 26.6333 9.6942C26.8883 9.54721 27.1372 9.39456 27.3922 9.24757C27.5353 9.32107 27.6722 9.40022 27.8153 9.47936C28.0766 9.6207 28.313 9.25323 28.0517 9.11189C27.9771 9.07231 27.9024 9.03274 27.8277 8.99317C28.0019 8.8914 28.1699 8.78964 28.3441 8.69353C28.4872 8.78964 28.6365 8.88575 28.7796 8.9762C29.0222 9.1345 29.2586 8.76702 29.016 8.60873C28.9289 8.55219 28.848 8.49566 28.7609 8.43912C29.0036 8.29779 29.2524 8.1508 29.495 8.00946C29.6755 8.12253 29.8621 8.2356 30.0425 8.35432C30.2914 8.50696 30.5278 8.14514 30.2789 7.98684C30.1607 7.91335 30.0363 7.8342 29.9181 7.7607C30.0301 7.69286 30.1421 7.63067 30.254 7.56283C30.3474 7.62502 30.4407 7.69286 30.5402 7.75505C30.7829 7.919 31.0193 7.55153 30.7766 7.38758C30.7393 7.36496 30.702 7.33669 30.6709 7.31408C33.1905 5.82721 35.7101 4.34035 38.2298 2.85913C33.2714 6.88442 28.3379 10.938 23.392 14.9746C17.9234 19.4408 11.8017 23.7375 7.10459 28.9104C5.13865 27.2822 2.81811 25.8349 0.628212 24.4554ZM10.4641 42.3996C9.91039 40.0478 9.3878 37.6846 8.80922 35.3384C8.51682 34.1625 8.21198 32.9922 7.88847 31.8276C7.72049 31.2227 7.44054 30.6008 7.49031 29.9676C7.52763 29.4927 7.77649 29.1478 8.09377 28.8312C9.07052 33.3088 9.87306 37.809 10.4952 42.3374C10.4765 42.36 10.4703 42.377 10.4641 42.3996ZM10.8374 41.529C10.2152 37.1532 9.43757 32.7943 8.48571 28.4694C8.56659 28.3959 8.65369 28.3224 8.73457 28.2489C8.81544 28.1754 8.90254 28.1019 8.98342 28.0284C9.81085 32.0198 10.6321 36.0055 11.4595 39.9969C11.4657 40.0138 11.4719 40.0251 11.4782 40.0421C11.2604 40.534 11.0489 41.0315 10.8374 41.529ZM9.39402 27.7345C9.3878 27.7119 9.38158 27.6949 9.36914 27.6836C9.58066 27.497 9.79219 27.3105 9.99749 27.1239C10.7752 30.7591 11.5528 34.3943 12.3305 38.0295C12.1501 38.4535 11.9634 38.8775 11.783 39.3072C10.9929 35.4515 10.1904 31.5901 9.39402 27.7345ZM11.9074 41.1389C12.1438 40.6018 12.374 40.0704 12.6042 39.5333C12.6851 39.5729 12.7784 39.5785 12.8593 39.4937C13.6183 38.7022 14.3773 37.9107 15.1363 37.1193C14.06 38.4591 12.9837 39.799 11.9074 41.1389ZM15.9015 36.8931C16.7663 35.819 17.631 34.7391 18.502 33.665C18.5207 33.6819 18.5393 33.6932 18.558 33.7102C17.6684 34.7674 16.7849 35.8303 15.9015 36.8931Z" fill="#FD98F3"/>
</svg>
