<svg width="18" height="18" viewBox="0 0 18 18" fill="none" xmlns="http://www.w3.org/2000/svg">
<path d="M8.80897 10.9418C8.80728 10.9418 8.80559 10.9418 8.8039 10.9418C8.4934 10.939 8.24365 10.685 8.24646 10.3742L8.249 10.093C8.249 10.0769 8.24984 10.0606 8.25153 10.0446C8.32943 9.22642 8.87253 8.72495 9.30931 8.32192C9.45725 8.18524 9.59731 8.05614 9.71656 7.92142C9.86197 7.75745 10.0729 7.42164 9.851 7.01636C9.59534 6.54836 8.97097 6.41589 8.48581 6.52699C7.979 6.64286 7.79224 7.0757 7.72587 7.3232C7.64543 7.6233 7.3369 7.80133 7.03681 7.72117C6.73671 7.64074 6.55868 7.3322 6.63884 7.03211C6.86299 6.19483 7.44462 5.61124 8.23437 5.43039C9.29722 5.18767 10.3677 5.61714 10.8376 6.47636C11.2288 7.19186 11.1217 8.03139 10.5578 8.66758C10.4011 8.8442 10.2338 8.99889 10.0718 9.14824C9.66819 9.52089 9.4159 9.77008 9.37315 10.1298L9.37091 10.3838C9.36865 10.6934 9.11722 10.9418 8.80897 10.9418Z" fill="#17161A"/>
<path d="M8.80872 12.6281C8.66247 12.6281 8.51622 12.569 8.41215 12.465C8.30528 12.3609 8.24622 12.2147 8.24622 12.0656C8.24622 11.9193 8.30528 11.7731 8.41215 11.669C8.62028 11.4609 8.99715 11.4609 9.20528 11.669C9.31215 11.7731 9.37122 11.9193 9.37122 12.0656C9.37122 12.2147 9.31215 12.3581 9.20809 12.465C9.10122 12.569 8.95778 12.6281 8.80872 12.6281Z" fill="#17161A"/>
<path d="M8.97831 16.3117C8.33846 16.3117 7.70425 16.2284 7.09309 16.0639C4.45946 15.3554 2.39734 13.1738 1.83962 10.5055C1.27122 7.78726 2.32028 4.92976 4.51262 3.22566C5.77993 2.24044 7.37828 1.69763 9.01346 1.69763C10.1455 1.69763 11.2697 1.96088 12.2647 2.45841C14.722 3.68776 16.3097 6.25613 16.3097 9.00198C16.3097 11.2424 15.2524 13.4019 13.4817 14.7783C12.2099 15.7672 10.6104 16.3117 8.97831 16.3117ZM9.01374 2.82263C7.62746 2.82263 6.27409 3.28107 5.20337 4.11385C3.34797 5.5561 2.45978 7.97457 2.941 10.2752C3.41293 12.5322 5.15753 14.3781 7.38559 14.9774C7.9014 15.1161 8.43746 15.1867 8.97831 15.1867H8.97859C10.3618 15.1867 11.7157 14.7263 12.7915 13.8901C14.2903 12.7252 15.1849 10.8979 15.1849 9.00198C15.1849 6.67857 13.8414 4.50507 11.7618 3.46473C10.922 3.04482 9.97196 2.82263 9.01374 2.82263Z" fill="#17161A"/>
</svg>
