<svg width="354" height="326" viewBox="0 0 354 326" fill="none" xmlns="http://www.w3.org/2000/svg">
<path d="M325.453 32.445L32.6406 25.0054L25.201 317.817L318.013 325.257L325.453 32.445Z" fill="#F5E5C3"/>
<path d="M320.822 27.8147L28.0098 20.375L20.5701 313.187L313.382 320.627L320.822 27.8147Z" fill="#FEBB34"/>
<path d="M42.0435 79.1446L42.0371 79.3945L303.839 86.0463L303.845 85.7964L42.0435 79.1446Z" fill="white"/>
<path d="M41.4614 101.981L41.4551 102.23L303.257 108.882L303.263 108.632L41.4614 101.981Z" fill="white"/>
<path d="M40.8774 124.816L40.8711 125.065L302.673 131.717L302.679 131.467L40.8774 124.816Z" fill="white"/>
<path d="M40.3052 147.651L40.2988 147.901L302.1 154.553L302.107 154.303L40.3052 147.651Z" fill="white"/>
<path d="M39.7231 170.486L39.7168 170.736L301.518 177.388L301.525 177.138L39.7231 170.486Z" fill="white"/>
<path d="M39.1411 193.321L39.1348 193.571L300.936 200.223L300.943 199.973L39.1411 193.321Z" fill="white"/>
<path d="M38.5688 216.147L38.5625 216.396L300.364 223.048L300.37 222.798L38.5688 216.147Z" fill="white"/>
<path d="M37.9868 238.982L37.9805 239.232L299.782 245.884L299.788 245.634L37.9868 238.982Z" fill="white"/>
<path d="M37.4048 261.817L37.3984 262.067L299.2 268.719L299.206 268.469L37.4048 261.817Z" fill="white"/>
<path d="M36.8325 284.653L36.8262 284.903L298.628 291.555L298.634 291.305L36.8325 284.653Z" fill="white"/>
<g opacity="0.8">
<path opacity="0.8" d="M82.6702 11.34C80.2102 8.58 77.3402 6.23 74.8502 3.5C73.9502 2.52 72.6902 1.27 71.9702 0L0.240234 63.91C2.75023 65.34 5.31023 69.08 6.80023 70.68C11.5102 75.74 16.2102 80.81 20.7102 86.04L92.1902 22.36C88.5002 19.3 85.9102 14.96 82.6702 11.34Z" fill="#FF876B"/>
</g>
<g opacity="0.8">
<path opacity="0.8" d="M350.04 48.0899C351.05 44.5299 351.5 40.8499 352.46 37.2799C352.81 35.9999 353.19 34.2599 353.87 32.9799L261.47 6.66992C261.6 9.54992 259.82 13.7199 259.27 15.8299C257.52 22.5099 255.76 29.1999 253.76 35.8099L345.84 62.0299C346.45 57.2799 348.72 52.7699 350.04 48.0899Z" fill="#FF876B"/>
</g>
</svg>
