<svg width="312" height="311" viewBox="0 0 312 311" fill="none" xmlns="http://www.w3.org/2000/svg">
<path d="M5.87891 297.62L298.499 310.31L311.189 17.69L18.5689 5L5.87891 297.62ZM37.4389 212.8C37.4389 217.91 33.2989 222.05 28.1889 222.05C23.0789 222.05 18.9389 217.91 18.9389 212.8C18.9389 207.69 23.0789 203.55 28.1889 203.55C33.2989 203.55 37.4389 207.69 37.4389 212.8ZM42.7289 90.6C42.7289 95.71 38.5889 99.85 33.4789 99.85C28.3689 99.85 24.2289 95.71 24.2289 90.6C24.2289 85.49 28.3689 81.35 33.4789 81.35C38.5889 81.35 42.7289 85.49 42.7289 90.6Z" fill="#B2F1C0"/>
<path d="M0.878906 292.62L293.499 305.31L306.189 12.69L13.5689 0L0.878906 292.62ZM32.4389 207.8C32.4389 212.91 28.2989 217.05 23.1889 217.05C18.0789 217.05 13.9389 212.91 13.9389 207.8C13.9389 202.69 18.0789 198.55 23.1889 198.55C28.2989 198.55 32.4389 202.69 32.4389 207.8ZM37.7289 85.6C37.7289 90.71 33.5889 94.85 28.4789 94.85C23.3689 94.85 19.2289 90.71 19.2289 85.6C19.2289 80.49 23.3689 76.35 28.4789 76.35C33.5889 76.35 37.7289 80.49 37.7289 85.6Z" fill="#42D37B"/>
<path d="M0.878906 292.62L38.1089 294.23L50.7989 1.61L13.5689 0L0.878906 292.62ZM32.4389 207.8C32.4389 212.91 28.2989 217.05 23.1889 217.05C18.0789 217.05 13.9389 212.91 13.9389 207.8C13.9389 202.69 18.0789 198.55 23.1889 198.55C28.2989 198.55 32.4389 202.69 32.4389 207.8ZM37.7289 85.6C37.7289 90.71 33.5889 94.85 28.4789 94.85C23.3689 94.85 19.2289 90.71 19.2289 85.6C19.2289 80.49 23.3689 76.35 28.4789 76.35C33.5889 76.35 37.7289 80.49 37.7289 85.6Z" fill="#93E2A5"/>
</svg>
