<svg width="330" height="332" viewBox="0 0 330 332" fill="none" xmlns="http://www.w3.org/2000/svg">
<path d="M296.54 8.08984L5.48047 40.7798L38.1805 331.85L329.25 299.15L296.54 8.08984ZM21.1405 59.6498C20.7105 55.8098 23.4705 52.3398 27.3205 51.9098C31.1705 51.4798 34.6305 54.2398 35.0605 58.0898C35.4905 61.9298 32.7305 65.3998 28.8805 65.8298C25.0405 66.2598 21.5705 63.4898 21.1405 59.6498ZM24.7005 91.3198C24.2705 87.4798 27.0305 84.0098 30.8805 83.5798C34.7205 83.1498 38.1905 85.9098 38.6205 89.7598C39.0505 93.5998 36.2905 97.0698 32.4405 97.4998C28.5905 97.9298 25.1305 95.1698 24.7005 91.3198ZM28.2505 123C27.8205 119.16 30.5805 115.69 34.4305 115.26C38.2705 114.83 41.7405 117.59 42.1705 121.44C42.6005 125.28 39.8405 128.75 35.9905 129.18C32.1505 129.61 28.6905 126.84 28.2505 123ZM31.8105 154.67C31.3805 150.83 34.1405 147.36 37.9905 146.93C41.8305 146.5 45.3005 149.26 45.7305 153.11C46.1605 156.95 43.4005 160.42 39.5505 160.85C35.7105 161.28 32.2405 158.51 31.8105 154.67ZM35.3705 186.34C34.9405 182.5 37.7005 179.03 41.5505 178.6C45.3905 178.17 48.8605 180.93 49.2905 184.78C49.7205 188.62 46.9605 192.09 43.1105 192.52C39.2705 192.95 35.8005 190.19 35.3705 186.34ZM38.9305 218.02C38.5005 214.18 41.2605 210.71 45.1105 210.28C48.9505 209.85 52.4205 212.61 52.8505 216.46C53.2805 220.3 50.5205 223.77 46.6705 224.2C42.8305 224.63 39.3605 221.86 38.9305 218.02ZM42.4905 249.69C42.0605 245.85 44.8205 242.38 48.6705 241.95C52.5105 241.52 55.9805 244.28 56.4105 248.13C56.8405 251.97 54.0805 255.44 50.2305 255.87C46.3805 256.3 42.9205 253.54 42.4905 249.69ZM46.0405 281.37C45.6105 277.53 48.3705 274.06 52.2205 273.63C56.0605 273.2 59.5305 275.96 59.9605 279.81C60.3905 283.65 57.6305 287.12 53.7805 287.55C49.9305 287.98 46.4805 285.21 46.0405 281.37ZM57.3405 319.22C53.5005 319.65 50.0305 316.89 49.6005 313.04C49.1705 309.2 51.9305 305.73 55.7805 305.3C59.6205 304.87 63.0905 307.63 63.5205 311.48C63.9505 315.32 61.1905 318.79 57.3405 319.22Z" fill="#B9B7FD"/>
<path d="M291.07 3.60986L0 36.3099L32.7 327.38L323.77 294.68L291.07 3.60986ZM15.66 55.1699C15.23 51.3299 17.99 47.8599 21.84 47.4299C25.69 46.9999 29.15 49.7599 29.58 53.6099C30.01 57.4499 27.25 60.9199 23.4 61.3499C19.56 61.7799 16.09 59.0199 15.66 55.1699ZM19.22 86.8499C18.79 83.0099 21.55 79.5399 25.4 79.1099C29.24 78.6799 32.71 81.4399 33.14 85.2899C33.57 89.1299 30.81 92.5999 26.96 93.0299C23.12 93.4599 19.65 90.6899 19.22 86.8499ZM22.78 118.52C22.35 114.68 25.11 111.21 28.96 110.78C32.8 110.35 36.27 113.11 36.7 116.96C37.13 120.8 34.37 124.27 30.52 124.7C26.68 125.13 23.21 122.36 22.78 118.52ZM26.34 150.19C25.91 146.35 28.67 142.88 32.52 142.45C36.36 142.02 39.83 144.78 40.26 148.63C40.69 152.47 37.93 155.94 34.08 156.37C30.23 156.8 26.77 154.04 26.34 150.19ZM29.89 181.87C29.46 178.03 32.22 174.56 36.07 174.13C39.91 173.7 43.38 176.46 43.81 180.31C44.24 184.15 41.48 187.62 37.63 188.05C33.79 188.48 30.33 185.71 29.89 181.87ZM33.45 213.54C33.02 209.7 35.78 206.23 39.63 205.8C43.47 205.37 46.94 208.13 47.37 211.98C47.8 215.82 45.04 219.29 41.19 219.72C37.35 220.15 33.88 217.39 33.45 213.54ZM37.01 245.22C36.58 241.38 39.34 237.91 43.19 237.48C47.03 237.05 50.5 239.81 50.93 243.66C51.36 247.5 48.6 250.97 44.75 251.4C40.91 251.83 37.44 249.06 37.01 245.22ZM40.57 276.89C40.14 273.05 42.9 269.58 46.75 269.15C50.59 268.72 54.06 271.48 54.49 275.33C54.92 279.17 52.16 282.64 48.31 283.07C44.47 283.5 41 280.73 40.57 276.89ZM51.87 314.74C48.03 315.17 44.56 312.41 44.13 308.56C43.7 304.72 46.46 301.25 50.31 300.82C54.15 300.39 57.62 303.15 58.05 307C58.48 310.84 55.71 314.31 51.87 314.74Z" fill="#2C88FF"/>
<g opacity="0.8">
<path opacity="0.8" d="M33.21 26.57C34.12 30.5 34.97 34.45 35.75 38.42C36.59 42.71 37.35 47.02 38.11 51.33L153.71 29.46C152.58 25.39 151.7 21.24 151.13 17.05C150.89 15.3 150.69 13.51 149.91 11.93C149.61 11.31 149.21 10.72 149.15 10.03C149.1 9.51 149.25 8.99 149.29 8.47C149.34 7.68 149.12 6.91 148.91 6.15C148.58 4.39 147.06 1.87 147.25 0L32.25 21.76C32.74 23.26 32.89 25.21 33.21 26.57Z" fill="#87CBCB"/>
</g>
</svg>
