<svg width="127" height="32" viewBox="0 0 127 32" fill="none" xmlns="http://www.w3.org/2000/svg">
<g clip-path="url(#clip0_3353_2129)">
<path d="M33.3786 11.3401H46.2268V13.7949H41.1679V27.6334H38.3951V13.7949H33.3574L33.3786 11.3401ZM45.6764 15.837H48.0471V18.1181H48.0894C48.1741 17.7922 48.3223 17.4881 48.5339 17.1839C48.7456 16.8798 48.9996 16.5974 49.3171 16.3584C49.6134 16.0977 49.9521 15.9022 50.3331 15.7501C50.6929 15.5981 51.0739 15.5112 51.4549 15.5112C51.7513 15.5112 51.9629 15.5329 52.0688 15.5329C52.1746 15.5546 52.3016 15.5763 52.4074 15.5763V18.0746C52.2381 18.0312 52.0476 18.0095 51.8571 17.9877C51.6666 17.966 51.4973 17.9443 51.3068 17.9443C50.8834 17.9443 50.4813 18.0312 50.1003 18.205C49.7193 18.3788 49.4018 18.6395 49.1054 18.9653C48.8303 19.3129 48.5974 19.7257 48.4281 20.2254C48.2588 20.725 48.1741 21.3116 48.1741 21.9633V27.5682H45.6341L45.6764 15.837ZM64.0491 27.6334H61.5514V25.9823H61.5091C61.1916 26.5906 60.7259 27.0468 60.1121 27.4161C59.4983 27.7854 58.8633 27.9592 58.2283 27.9592C56.7254 27.9592 55.6248 27.5899 54.9474 26.8078C54.2701 26.0475 53.9314 24.8744 53.9314 23.3319V15.837H56.4714V23.0712C56.4714 24.114 56.6619 24.8527 57.0641 25.2654C57.4451 25.6999 57.9954 25.9171 58.6939 25.9171C59.2231 25.9171 59.6676 25.8302 60.0274 25.6564C60.3873 25.4827 60.6836 25.2654 60.8953 24.983C61.1281 24.7006 61.2763 24.353 61.3821 23.962C61.4879 23.5709 61.5303 23.1364 61.5303 22.6802V15.837H64.0703V27.6334H64.0491ZM68.3671 23.8533C68.4518 24.6137 68.7269 25.1351 69.2138 25.4609C69.7006 25.7651 70.2933 25.9171 70.9706 25.9171C71.2034 25.9171 71.4786 25.8954 71.7749 25.852C72.0713 25.8085 72.3676 25.7433 72.6216 25.6347C72.8968 25.5261 73.1084 25.374 73.2778 25.1568C73.4471 24.9395 73.5318 24.6789 73.5106 24.353C73.4894 24.0271 73.3836 23.7447 73.1508 23.5275C72.9179 23.3102 72.6428 23.1581 72.3041 23.0061C71.9654 22.8757 71.5633 22.7671 71.1188 22.6802C70.6743 22.5933 70.2298 22.4847 69.7641 22.3761C69.2984 22.2674 68.8328 22.1371 68.3883 21.985C67.9438 21.833 67.5628 21.6374 67.2029 21.355C66.8643 21.0943 66.5679 20.7685 66.3774 20.3557C66.1658 19.9429 66.0599 19.465 66.0599 18.8567C66.0599 18.205 66.2081 17.6836 66.5256 17.2491C66.8219 16.8146 67.2241 16.467 67.6898 16.2063C68.1554 15.9457 68.6846 15.7501 69.2561 15.6415C69.8276 15.5329 70.3779 15.4894 70.8859 15.4894C71.4786 15.4894 72.0501 15.5546 72.5793 15.685C73.1084 15.8153 73.6164 16.0108 74.0398 16.315C74.4843 16.5974 74.8441 16.9884 75.1193 17.4446C75.4156 17.9008 75.5849 18.4657 75.6696 19.1174H73.0238C72.8968 18.4874 72.6216 18.0746 72.1983 17.8574C71.7538 17.6402 71.2669 17.5315 70.6954 17.5315C70.5261 17.5315 70.2933 17.5533 70.0604 17.575C69.8064 17.6184 69.5948 17.6619 69.3619 17.7488C69.1503 17.8357 68.9598 17.966 68.8116 18.1181C68.6634 18.2702 68.5788 18.4874 68.5788 18.7481C68.5788 19.074 68.6846 19.3129 68.8963 19.5085C69.1079 19.704 69.3831 19.856 69.7429 20.0081C70.0816 20.1385 70.4838 20.2471 70.9283 20.334C71.3728 20.4209 71.8384 20.5295 72.3041 20.6381C72.7698 20.7467 73.2143 20.8771 73.6588 21.0292C74.1033 21.1812 74.5054 21.3767 74.8441 21.6592C75.1828 21.9199 75.4791 22.2457 75.6908 22.6368C75.9024 23.0278 76.0083 23.5275 76.0083 24.0923C76.0083 24.7875 75.8601 25.374 75.5426 25.8737C75.2251 26.3516 74.8229 26.7644 74.3361 27.0685C73.8493 27.3727 73.2778 27.5899 72.6851 27.742C72.0713 27.8723 71.4786 27.9592 70.8859 27.9592C70.1663 27.9592 69.4889 27.8723 68.8751 27.6985C68.2613 27.5247 67.7109 27.2641 67.2664 26.9382C66.8219 26.5906 66.4621 26.1778 66.2081 25.6564C65.9541 25.1568 65.8059 24.5485 65.7848 23.8316H68.3459V23.8533H68.3671ZM76.7279 15.837H78.6541V12.2742H81.1941V15.8153H83.4801V17.7488H81.1941V24.0488C81.1941 24.3313 81.2153 24.5485 81.2364 24.7658C81.2576 24.9613 81.3211 25.1351 81.3846 25.2654C81.4693 25.3958 81.5963 25.5044 81.7444 25.5696C81.9138 25.6347 82.1254 25.6782 82.4218 25.6782C82.5911 25.6782 82.7816 25.6782 82.9509 25.6564C83.1203 25.6347 83.3108 25.613 83.4801 25.5696V27.5899C83.2049 27.6334 82.9298 27.6551 82.6546 27.6768C82.3794 27.7203 82.1254 27.7203 81.8291 27.7203C81.1518 27.7203 80.6226 27.6551 80.2204 27.5247C79.8183 27.3944 79.5008 27.1989 79.2679 26.9599C79.0351 26.6992 78.8869 26.3951 78.8023 26.0258C78.7176 25.6565 78.6753 25.2002 78.6541 24.7223V17.7705H76.7279V15.7936V15.837ZM85.2581 15.837H87.6499V17.4446H87.6923C88.0521 16.7495 88.5389 16.2715 89.1739 15.9674C89.8089 15.6632 90.4863 15.5112 91.2483 15.5112C92.1584 15.5112 92.9416 15.6632 93.6189 16.0108C94.2963 16.3367 94.8466 16.7712 95.2911 17.3577C95.7356 17.9226 96.0743 18.596 96.2859 19.3564C96.4976 20.1167 96.6246 20.9423 96.6246 21.7895C96.6246 22.5933 96.5188 23.3537 96.3283 24.0923C96.1166 24.8309 95.8203 25.5044 95.4181 26.0692C95.0159 26.634 94.5079 27.0903 93.8729 27.4379C93.2379 27.7854 92.5183 27.9592 91.6716 27.9592C91.3118 27.9592 90.9308 27.9158 90.5709 27.8506C90.2111 27.7854 89.8513 27.6768 89.5126 27.5247C89.1739 27.3727 88.8564 27.1772 88.5813 26.9382C88.2849 26.6992 88.0521 26.4168 87.8616 26.1127H87.8193V32H85.2793V15.837H85.2581ZM94.1269 21.7461C94.1269 21.2247 94.0634 20.7033 93.9153 20.2036C93.7883 19.704 93.5766 19.2695 93.3014 18.8784C93.0263 18.4874 92.6876 18.1833 92.3066 17.9443C91.9044 17.7053 91.4388 17.5967 90.9308 17.5967C89.8724 17.5967 89.0681 17.966 88.5178 18.7264C87.9886 19.4867 87.7134 20.5078 87.7134 21.7678C87.7134 22.3761 87.7769 22.9192 87.9251 23.4188C88.0733 23.9185 88.2638 24.353 88.5601 24.7223C88.8353 25.0916 89.1739 25.374 89.5761 25.5913C89.9783 25.8085 90.4228 25.9171 90.9519 25.9171C91.5446 25.9171 92.0103 25.7868 92.4124 25.5478C92.8146 25.3089 93.1321 24.983 93.4073 24.6137C93.6613 24.2226 93.8518 23.7882 93.9576 23.2885C94.0634 22.7671 94.1269 22.2674 94.1269 21.7461ZM98.5931 11.3401H101.133V13.7949H98.5931V11.3401ZM98.5931 15.837H101.133V27.6334H98.5931V15.837ZM103.398 11.3401H105.938V27.6334H103.398V11.3401ZM113.685 27.9592C112.775 27.9592 111.949 27.8072 111.23 27.4813C110.51 27.1554 109.917 26.7427 109.409 26.1996C108.922 25.6564 108.541 24.983 108.287 24.2226C108.033 23.4623 107.885 22.615 107.885 21.7243C107.885 20.8336 108.012 20.0081 108.287 19.2478C108.541 18.4874 108.922 17.8357 109.409 17.2708C109.896 16.7277 110.51 16.2932 111.23 15.9891C111.949 15.685 112.775 15.5112 113.685 15.5112C114.595 15.5112 115.421 15.6632 116.14 15.9891C116.86 16.2932 117.453 16.7277 117.961 17.2708C118.447 17.814 118.828 18.4874 119.082 19.2478C119.336 20.0081 119.485 20.8336 119.485 21.7243C119.485 22.6368 119.358 23.4623 119.082 24.2226C118.807 24.983 118.447 25.6347 117.961 26.1996C117.474 26.7427 116.86 27.1772 116.14 27.4813C115.421 27.7854 114.616 27.9592 113.685 27.9592ZM113.685 25.8954C114.235 25.8954 114.743 25.7651 115.145 25.5261C115.569 25.2871 115.886 24.9613 116.161 24.5702C116.437 24.1792 116.627 23.723 116.754 23.245C116.881 22.7454 116.945 22.2457 116.945 21.7243C116.945 21.2247 116.881 20.725 116.754 20.2254C116.627 19.7257 116.437 19.2912 116.161 18.9002C115.886 18.5091 115.548 18.205 115.145 17.966C114.722 17.7271 114.235 17.5967 113.685 17.5967C113.135 17.5967 112.627 17.7271 112.224 17.966C111.801 18.205 111.484 18.5309 111.208 18.9002C110.933 19.2912 110.743 19.7257 110.616 20.2254C110.489 20.725 110.425 21.2247 110.425 21.7243C110.425 22.2457 110.489 22.7454 110.616 23.245C110.743 23.7447 110.933 24.1792 111.208 24.5702C111.484 24.9613 111.822 25.2871 112.224 25.5261C112.648 25.7868 113.135 25.8954 113.685 25.8954ZM120.247 15.837H122.173V12.2742H124.713V15.8153H126.999V17.7488H124.713V24.0488C124.713 24.3313 124.734 24.5485 124.755 24.7658C124.776 24.9613 124.84 25.1351 124.903 25.2654C124.988 25.3958 125.115 25.5044 125.263 25.5696C125.432 25.6347 125.644 25.6782 125.94 25.6782C126.11 25.6782 126.3 25.6782 126.47 25.6564C126.639 25.6347 126.829 25.613 126.999 25.5696V27.5899C126.724 27.6334 126.448 27.6551 126.173 27.6768C125.898 27.7203 125.644 27.7203 125.348 27.7203C124.67 27.7203 124.141 27.6551 123.739 27.5247C123.337 27.3944 123.019 27.1989 122.787 26.9599C122.554 26.6992 122.406 26.3951 122.321 26.0258C122.236 25.6565 122.194 25.2002 122.173 24.7223V17.7705H120.247V15.7936V15.837Z" fill="black"/>
<path d="M30.4165 11.3401H18.796L15.2188 0L11.6205 11.3401L0 11.3184L9.398 18.3354L5.79967 29.6755L15.1977 22.6585L24.5957 29.6755L21.0185 18.3354L30.4165 11.3401Z" fill="#00B67A"/>
<path d="M21.8228 20.8989L21.0184 18.3354L15.2188 22.6586L21.8228 20.8989Z" fill="#005128"/>
</g>
<defs>
<clipPath id="clip0_3353_2129">
<rect width="127" height="32" fill="white"/>
</clipPath>
</defs>
</svg>
