<svg width="127" height="32" viewBox="0 0 127 32" fill="none" xmlns="http://www.w3.org/2000/svg">
<g clip-path="url(#clip0_4053_4334)">
<path d="M33.3796 11.3401H46.2277V13.7949H41.1689V27.6334H38.3961V13.7949H33.3584L33.3796 11.3401ZM45.6774 15.837H48.0481V18.1181H48.0904C48.1751 17.7922 48.3232 17.4881 48.5349 17.1839C48.7466 16.8798 49.0006 16.5974 49.3181 16.3584C49.6144 16.0977 49.9531 15.9022 50.3341 15.7501C50.6939 15.5981 51.0749 15.5112 51.4559 15.5112C51.7522 15.5112 51.9639 15.5329 52.0697 15.5329C52.1756 15.5546 52.3026 15.5763 52.4084 15.5763V18.0746C52.2391 18.0312 52.0486 18.0095 51.8581 17.9877C51.6676 17.966 51.4982 17.9443 51.3077 17.9443C50.8844 17.9443 50.4822 18.0312 50.1012 18.205C49.7202 18.3788 49.4027 18.6395 49.1064 18.9653C48.8312 19.3129 48.5984 19.7257 48.4291 20.2254C48.2597 20.725 48.1751 21.3116 48.1751 21.9633V27.5682H45.6351L45.6774 15.837ZM64.0501 27.6334H61.5524V25.9823H61.5101C61.1926 26.5906 60.7269 27.0468 60.1131 27.4161C59.4992 27.7854 58.8642 27.9592 58.2292 27.9592C56.7264 27.9592 55.6257 27.5899 54.9484 26.8078C54.2711 26.0475 53.9324 24.8744 53.9324 23.3319V15.837H56.4724V23.0712C56.4724 24.114 56.6629 24.8527 57.0651 25.2654C57.4461 25.6999 57.9964 25.9171 58.6949 25.9171C59.2241 25.9171 59.6686 25.8302 60.0284 25.6564C60.3882 25.4827 60.6846 25.2654 60.8962 24.983C61.1291 24.7006 61.2772 24.353 61.3831 23.962C61.4889 23.5709 61.5312 23.1364 61.5312 22.6802V15.837H64.0712V27.6334H64.0501ZM68.3681 23.8533C68.4527 24.6137 68.7279 25.1351 69.2147 25.4609C69.7016 25.7651 70.2942 25.9171 70.9716 25.9171C71.2044 25.9171 71.4796 25.8954 71.7759 25.852C72.0722 25.8085 72.3686 25.7433 72.6226 25.6347C72.8977 25.5261 73.1094 25.374 73.2787 25.1568C73.4481 24.9395 73.5327 24.6789 73.5116 24.353C73.4904 24.0271 73.3846 23.7447 73.1517 23.5275C72.9189 23.3102 72.6437 23.1581 72.3051 23.0061C71.9664 22.8757 71.5642 22.7671 71.1197 22.6802C70.6752 22.5933 70.2307 22.4847 69.7651 22.3761C69.2994 22.2674 68.8337 22.1371 68.3892 21.985C67.9447 21.833 67.5637 21.6374 67.2039 21.355C66.8652 21.0943 66.5689 20.7685 66.3784 20.3557C66.1667 19.9429 66.0609 19.465 66.0609 18.8567C66.0609 18.205 66.2091 17.6836 66.5266 17.2491C66.8229 16.8146 67.2251 16.467 67.6907 16.2063C68.1564 15.9457 68.6856 15.7501 69.2571 15.6415C69.8286 15.5329 70.3789 15.4894 70.8869 15.4894C71.4796 15.4894 72.0511 15.5546 72.5802 15.685C73.1094 15.8153 73.6174 16.0108 74.0407 16.315C74.4852 16.5974 74.8451 16.9884 75.1202 17.4446C75.4166 17.9008 75.5859 18.4657 75.6706 19.1174H73.0247C72.8977 18.4874 72.6226 18.0746 72.1992 17.8574C71.7547 17.6402 71.2679 17.5315 70.6964 17.5315C70.5271 17.5315 70.2942 17.5533 70.0614 17.575C69.8074 17.6184 69.5957 17.6619 69.3629 17.7488C69.1512 17.8357 68.9607 17.966 68.8126 18.1181C68.6644 18.2702 68.5797 18.4874 68.5797 18.7481C68.5797 19.074 68.6856 19.3129 68.8972 19.5085C69.1089 19.704 69.3841 19.856 69.7439 20.0081C70.0826 20.1385 70.4847 20.2471 70.9292 20.334C71.3737 20.4209 71.8394 20.5295 72.3051 20.6381C72.7707 20.7467 73.2152 20.8771 73.6597 21.0292C74.1042 21.1812 74.5064 21.3767 74.8451 21.6592C75.1837 21.9199 75.4801 22.2457 75.6917 22.6368C75.9034 23.0278 76.0092 23.5275 76.0092 24.0923C76.0092 24.7875 75.8611 25.374 75.5436 25.8737C75.2261 26.3516 74.8239 26.7644 74.3371 27.0685C73.8502 27.3727 73.2787 27.5899 72.6861 27.742C72.0722 27.8723 71.4796 27.9592 70.8869 27.9592C70.1672 27.9592 69.4899 27.8723 68.8761 27.6985C68.2622 27.5247 67.7119 27.2641 67.2674 26.9382C66.8229 26.5906 66.4631 26.1778 66.2091 25.6564C65.9551 25.1568 65.8069 24.5485 65.7857 23.8316H68.3469V23.8533H68.3681ZM76.7289 15.837H78.6551V12.2742H81.1951V15.8153H83.4811V17.7488H81.1951V24.0488C81.1951 24.3313 81.2162 24.5485 81.2374 24.7658C81.2586 24.9613 81.3221 25.1351 81.3856 25.2654C81.4702 25.3958 81.5972 25.5044 81.7454 25.5696C81.9147 25.6347 82.1264 25.6782 82.4227 25.6782C82.5921 25.6782 82.7826 25.6782 82.9519 25.6564C83.1212 25.6347 83.3117 25.613 83.4811 25.5696V27.5899C83.2059 27.6334 82.9307 27.6551 82.6556 27.6768C82.3804 27.7203 82.1264 27.7203 81.8301 27.7203C81.1527 27.7203 80.6236 27.6551 80.2214 27.5247C79.8192 27.3944 79.5017 27.1989 79.2689 26.9599C79.0361 26.6992 78.8879 26.3951 78.8032 26.0258C78.7186 25.6565 78.6762 25.2002 78.6551 24.7223V17.7705H76.7289V15.7936V15.837ZM85.2591 15.837H87.6509V17.4446H87.6932C88.0531 16.7495 88.5399 16.2715 89.1749 15.9674C89.8099 15.6632 90.4872 15.5112 91.2492 15.5112C92.1594 15.5112 92.9426 15.6632 93.6199 16.0108C94.2972 16.3367 94.8476 16.7712 95.2921 17.3577C95.7366 17.9226 96.0752 18.596 96.2869 19.3564C96.4986 20.1167 96.6256 20.9423 96.6256 21.7895C96.6256 22.5933 96.5197 23.3537 96.3292 24.0923C96.1176 24.8309 95.8212 25.5044 95.4191 26.0692C95.0169 26.634 94.5089 27.0903 93.8739 27.4379C93.2389 27.7854 92.5192 27.9592 91.6726 27.9592C91.3127 27.9592 90.9317 27.9158 90.5719 27.8506C90.2121 27.7854 89.8522 27.6768 89.5136 27.5247C89.1749 27.3727 88.8574 27.1772 88.5822 26.9382C88.2859 26.6992 88.0531 26.4168 87.8626 26.1127H87.8202V32H85.2802V15.837H85.2591ZM94.1279 21.7461C94.1279 21.2247 94.0644 20.7033 93.9162 20.2036C93.7892 19.704 93.5776 19.2695 93.3024 18.8784C93.0272 18.4874 92.6886 18.1833 92.3076 17.9443C91.9054 17.7053 91.4397 17.5967 90.9317 17.5967C89.8734 17.5967 89.0691 17.966 88.5187 18.7264C87.9896 19.4867 87.7144 20.5078 87.7144 21.7678C87.7144 22.3761 87.7779 22.9192 87.9261 23.4188C88.0742 23.9185 88.2647 24.353 88.5611 24.7223C88.8362 25.0916 89.1749 25.374 89.5771 25.5913C89.9792 25.8085 90.4237 25.9171 90.9529 25.9171C91.5456 25.9171 92.0112 25.7868 92.4134 25.5478C92.8156 25.3089 93.1331 24.983 93.4082 24.6137C93.6622 24.2226 93.8527 23.7882 93.9586 23.2885C94.0644 22.7671 94.1279 22.2674 94.1279 21.7461ZM98.5941 11.3401H101.134V13.7949H98.5941V11.3401ZM98.5941 15.837H101.134V27.6334H98.5941V15.837ZM103.399 11.3401H105.939V27.6334H103.399V11.3401ZM113.686 27.9592C112.776 27.9592 111.95 27.8072 111.231 27.4813C110.511 27.1554 109.918 26.7427 109.41 26.1996C108.923 25.6564 108.542 24.983 108.288 24.2226C108.034 23.4623 107.886 22.615 107.886 21.7243C107.886 20.8336 108.013 20.0081 108.288 19.2478C108.542 18.4874 108.923 17.8357 109.41 17.2708C109.897 16.7277 110.511 16.2932 111.231 15.9891C111.95 15.685 112.776 15.5112 113.686 15.5112C114.596 15.5112 115.422 15.6632 116.141 15.9891C116.861 16.2932 117.454 16.7277 117.962 17.2708C118.448 17.814 118.829 18.4874 119.083 19.2478C119.337 20.0081 119.486 20.8336 119.486 21.7243C119.486 22.6368 119.359 23.4623 119.083 24.2226C118.808 24.983 118.448 25.6347 117.962 26.1996C117.475 26.7427 116.861 27.1772 116.141 27.4813C115.422 27.7854 114.617 27.9592 113.686 27.9592ZM113.686 25.8954C114.236 25.8954 114.744 25.7651 115.146 25.5261C115.57 25.2871 115.887 24.9613 116.162 24.5702C116.438 24.1792 116.628 23.723 116.755 23.245C116.882 22.7454 116.946 22.2457 116.946 21.7243C116.946 21.2247 116.882 20.725 116.755 20.2254C116.628 19.7257 116.438 19.2912 116.162 18.9002C115.887 18.5091 115.549 18.205 115.146 17.966C114.723 17.7271 114.236 17.5967 113.686 17.5967C113.136 17.5967 112.628 17.7271 112.225 17.966C111.802 18.205 111.485 18.5309 111.209 18.9002C110.934 19.2912 110.744 19.7257 110.617 20.2254C110.49 20.725 110.426 21.2247 110.426 21.7243C110.426 22.2457 110.49 22.7454 110.617 23.245C110.744 23.7447 110.934 24.1792 111.209 24.5702C111.485 24.9613 111.823 25.2871 112.225 25.5261C112.649 25.7868 113.136 25.8954 113.686 25.8954ZM120.248 15.837H122.174V12.2742H124.714V15.8153H127V17.7488H124.714V24.0488C124.714 24.3313 124.735 24.5485 124.756 24.7658C124.777 24.9613 124.841 25.1351 124.904 25.2654C124.989 25.3958 125.116 25.5044 125.264 25.5696C125.433 25.6347 125.645 25.6782 125.941 25.6782C126.111 25.6782 126.301 25.6782 126.471 25.6564C126.64 25.6347 126.83 25.613 127 25.5696V27.5899C126.725 27.6334 126.449 27.6551 126.174 27.6768C125.899 27.7203 125.645 27.7203 125.349 27.7203C124.671 27.7203 124.142 27.6551 123.74 27.5247C123.338 27.3944 123.02 27.1989 122.788 26.9599C122.555 26.6992 122.407 26.3951 122.322 26.0258C122.237 25.6565 122.195 25.2002 122.174 24.7223V17.7705H120.248V15.7936V15.837Z" fill="white"/>
<path d="M30.4165 11.3401H18.796L15.2188 0L11.6205 11.3401L0 11.3184L9.398 18.3354L5.79967 29.6755L15.1977 22.6585L24.5957 29.6755L21.0185 18.3354L30.4165 11.3401Z" fill="white"/>
<path d="M21.8218 20.8989L21.0174 18.3354L15.2178 22.6586L21.8218 20.8989Z" fill="white"/>
</g>
<defs>
<clipPath id="clip0_4053_4334">
<rect width="127" height="32" fill="white"/>
</clipPath>
</defs>
</svg>
