<svg width="582" height="382" viewBox="0 0 582 382" fill="none" xmlns="http://www.w3.org/2000/svg">
<path d="M337.183 323.878H228.674C203.133 323.878 182.352 305.173 182.352 282.174V280.331C182.352 259.64 199.309 242.043 221.95 239.078C221.846 238.215 221.794 237.415 221.794 236.655C221.794 224.949 231.392 215.436 243.2 215.436C248.167 215.436 252.953 217.15 256.789 220.283C263.136 202.312 280.119 190.323 299.444 190.323C324.361 190.323 344.648 210.421 344.648 235.134C344.648 236.449 344.583 237.802 344.466 239.156C366.782 242.327 383.518 259.898 383.518 280.331V282.174C383.505 305.173 362.724 323.878 337.183 323.878ZM243.2 217.034C232.289 217.034 223.407 225.839 223.407 236.655C223.407 237.57 223.485 238.524 223.667 239.646L223.797 240.471L222.965 240.561C200.74 243.113 183.977 260.195 183.977 280.318V282.161C183.977 304.27 204.03 322.254 228.674 322.254H337.183C361.827 322.254 381.88 304.27 381.88 282.161V280.318C381.88 260.452 365.364 243.384 343.464 240.625L342.671 240.522L342.762 239.736C342.931 238.176 343.009 236.616 343.009 235.108C343.009 211.285 323.463 191.909 299.431 191.909C280.419 191.909 263.734 203.962 257.934 221.907L257.544 223.106L256.607 222.255C252.94 218.891 248.167 217.034 243.2 217.034Z" fill="#BFF2BB"/>
<path d="M210.832 211.555H102.322C76.7812 211.555 56 192.849 56 169.851V168.008C56 147.317 72.9579 129.72 95.5987 126.755C95.4947 125.891 95.4427 125.092 95.4427 124.332C95.4427 112.626 105.04 103.112 116.848 103.112C121.816 103.112 126.601 104.827 130.438 107.96C136.784 89.989 153.768 78 173.093 78C198.009 78 218.296 98.0977 218.296 122.81C218.296 124.125 218.231 125.479 218.114 126.833C240.43 130.004 257.167 147.575 257.167 168.008V169.851C257.154 192.849 236.373 211.555 210.832 211.555ZM116.848 104.711C105.937 104.711 97.0553 113.516 97.0553 124.332C97.0553 125.247 97.1333 126.201 97.3153 127.322L97.4454 128.148L96.6131 128.238C74.3884 130.79 57.6256 147.871 57.6256 167.995V169.838C57.6256 191.947 77.6785 209.93 102.322 209.93H210.832C235.475 209.93 255.528 191.947 255.528 169.838V167.995C255.528 148.129 239.013 131.061 217.113 128.302L216.32 128.199L216.411 127.413C216.58 125.853 216.658 124.293 216.658 122.785C216.658 98.9614 197.112 79.5857 173.08 79.5857C154.067 79.5857 137.382 91.6391 131.582 109.584L131.192 110.783L130.256 109.932C126.588 106.567 121.816 104.711 116.848 104.711Z" fill="#BFF2BB"/>
<path d="M134.692 296H40.2967C18.0781 296 0 279.753 0 259.778V258.177C0 240.206 14.7521 224.922 34.4479 222.347C34.3574 221.597 34.3122 220.902 34.3122 220.242C34.3122 210.075 42.6611 201.812 52.9333 201.812C57.2548 201.812 61.418 203.301 64.7553 206.022C70.276 190.413 85.0507 180 101.862 180C123.537 180 141.186 197.456 141.186 218.92C141.186 220.063 141.129 221.238 141.027 222.414C160.44 225.168 175 240.43 175 258.177V259.778C174.989 279.753 156.911 296 134.692 296ZM52.9333 203.2C43.4417 203.2 35.715 210.847 35.715 220.242C35.715 221.037 35.7828 221.865 35.9412 222.839L36.0544 223.556L35.3303 223.634C15.9965 225.851 1.41412 240.687 1.41412 258.166V259.767C1.41412 278.97 18.8587 294.589 40.2967 294.589H134.692C156.13 294.589 173.575 278.97 173.575 259.767V258.166C173.575 240.911 159.207 226.087 140.156 223.69L139.466 223.601L139.545 222.918C139.692 221.563 139.76 220.208 139.76 218.898C139.76 198.206 122.757 181.377 101.85 181.377C85.3109 181.377 70.7964 191.846 65.7508 207.432L65.4115 208.474L64.5969 207.735C61.4067 204.812 57.2548 203.2 52.9333 203.2Z" fill="#BFF2BB"/>
<path d="M465.401 309.149C465.401 312.024 462.745 314.351 459.464 314.351H231.138C227.857 314.351 225.201 312.024 225.201 309.149V181.378C225.201 178.504 227.857 176.177 231.138 176.177H459.454C462.735 176.177 465.391 178.504 465.391 181.378V309.149H465.401Z" fill="white" stroke="#131F44" stroke-width="2.3935" stroke-miterlimit="10" stroke-linecap="round" stroke-linejoin="round"/>
<path d="M459.864 305.493C459.864 308.197 457.332 310.398 454.204 310.398H236.399C233.272 310.398 230.729 308.206 230.729 305.493V185.044C230.729 182.331 233.272 180.139 236.399 180.139H454.204C457.332 180.139 459.864 182.331 459.864 185.044V305.493Z" fill="#88C58A"/>
<path d="M448.236 189.473H240.377V298.746H448.236V189.473Z" fill="#0A7E00"/>
<path d="M300.598 306.786C311.047 299.851 321.117 292.457 330.581 284.515C350.146 268.101 367.649 249.819 382.887 230.198C395.602 213.811 406.994 196.508 416.633 178.486H233.65C230.44 178.486 227.836 180.741 227.836 183.517V307.011C227.836 309.787 230.44 312.042 233.65 312.042H292.262C295.102 310.362 297.881 308.592 300.598 306.786Z" fill="#88C58A"/>
<path d="M350.742 184.199C350.742 185.754 349.306 187.02 347.532 187.02C345.758 187.02 344.312 185.763 344.312 184.199C344.312 182.645 345.748 181.378 347.532 181.378C349.306 181.378 350.742 182.645 350.742 184.199Z" fill="#84F882"/>
<path d="M375.32 304.747C375.32 306.184 373.987 307.352 372.347 307.352H362.452C360.811 307.352 359.488 306.184 359.488 304.747C359.488 303.31 360.811 302.142 362.452 302.142H372.347C373.998 302.142 375.32 303.31 375.32 304.747Z" fill="#8FEFA4"/>
<path d="M353.223 304.747C353.223 306.184 351.89 307.352 350.25 307.352H340.355C338.714 307.352 337.381 306.184 337.381 304.747C337.381 303.31 338.714 302.142 340.355 302.142H350.25C351.89 302.142 353.223 303.31 353.223 304.747Z" fill="#8FEFA4"/>
<path d="M331.114 304.747C331.114 306.184 329.781 307.352 328.14 307.352H318.245C316.604 307.352 315.271 306.184 315.271 304.747C315.271 303.31 316.604 302.142 318.245 302.142H328.14C329.781 302.142 331.114 303.31 331.114 304.747Z" fill="#8FEFA4"/>
<path d="M264.125 291.576C263.438 291.576 262.885 291.091 262.885 290.489V151.605C262.885 151.003 263.438 150.518 264.125 150.518H486.524C487.211 150.518 487.765 151.003 487.765 151.605V290.489C487.765 291.091 487.211 291.576 486.524 291.576H264.125Z" fill="white"/>
<path d="M486.525 151.605V290.489H264.126V151.605H486.525ZM486.525 149.431H264.126C262.752 149.431 261.645 150.401 261.645 151.605V290.489C261.645 291.684 262.752 292.663 264.126 292.663H486.525C487.889 292.663 489.006 291.693 489.006 290.489V151.605C489.006 150.401 487.889 149.431 486.525 149.431Z" fill="#131F44"/>
<path d="M486.526 151.605H264.127V166.043H486.526V151.605Z" fill="#99D1A9"/>
<path d="M454.737 158.819C454.737 161.461 452.287 163.608 449.272 163.608C446.247 163.608 443.807 161.461 443.807 158.819C443.807 156.169 446.257 154.022 449.272 154.022C452.287 154.031 454.737 156.178 454.737 158.819Z" fill="#AEE1BF"/>
<path d="M468.509 158.819C468.509 161.461 466.058 163.608 463.044 163.608C460.029 163.608 457.578 161.461 457.578 158.819C457.578 156.169 460.019 154.022 463.044 154.022C466.068 154.022 468.509 156.178 468.509 158.819Z" fill="#AEE1BF"/>
<path d="M482.29 158.819C482.29 161.461 479.839 163.608 476.825 163.608C473.8 163.608 471.359 161.461 471.359 158.819C471.359 156.169 473.8 154.022 476.825 154.022C479.839 154.031 482.29 156.178 482.29 158.819Z" fill="#AEE1BF"/>
<path d="M399.664 158.82C399.664 160.832 397.798 162.467 395.501 162.467H275.017C272.72 162.467 270.854 160.832 270.854 158.82C270.854 156.807 272.72 155.181 275.017 155.181H395.501C397.798 155.181 399.664 156.807 399.664 158.82Z" fill="#AEE1BF"/>
<path d="M480.229 170.562H270.863V188.287H480.229V170.562Z" fill="white"/>
<path d="M480.229 191.943H270.863V233.494H480.229V191.943Z" fill="white"/>
<path d="M334.838 235.965H270.863V284.129H334.838V235.965Z" fill="white"/>
<path d="M329.413 239.227H276.287V257.213H329.413V239.227Z" fill="#3E7A56"/>
<path d="M428.179 197.199H328.787V200.811H428.179V197.199Z" fill="#B3DFBC"/>
<path d="M329.413 260.716H276.287V264.319H329.413V260.716Z" fill="#B3DFBC"/>
<path d="M307.07 266.133H276.287V269.745H307.07V266.133Z" fill="#B3DFBC"/>
<path d="M407.527 235.965H343.553V284.129H407.527V235.965Z" fill="white"/>
<path d="M402.114 239.227H348.988V257.213H402.114V239.227Z" fill="#A07AB6"/>
<path d="M402.114 260.716H348.988V264.319H402.114V260.716Z" fill="#B3DFBC"/>
<path d="M379.771 266.133H348.988V269.745H379.771V266.133Z" fill="#B3DFBC"/>
<path d="M480.229 235.965H416.254V284.129H480.229V235.965Z" fill="white"/>
<path d="M474.804 239.227H421.678V257.213H474.804V239.227Z" fill="#D28FBE"/>
<path d="M474.804 260.716H421.678V264.319H474.804V260.716Z" fill="#B3DFBC"/>
<path d="M452.46 266.133H421.678V269.745H452.46V266.133Z" fill="#B3DFBC"/>
<path d="M436.66 204.18H320.318V207.791H436.66V204.18Z" fill="#B3DFBC"/>
<path d="M411.815 211.448H345.164V215.059H411.815V211.448Z" fill="#B3DFBC"/>
<path d="M287.28 179.42C287.28 182.07 284.83 184.208 281.815 184.208C278.79 184.208 276.35 182.061 276.35 179.42C276.35 176.779 278.8 174.631 281.815 174.631C284.84 174.631 287.28 176.779 287.28 179.42Z" fill="#3E7A56"/>
<path d="M344.323 179.42C344.323 181.091 342.774 182.447 340.867 182.447H313.243C311.335 182.447 309.787 181.091 309.787 179.42C309.787 177.749 311.335 176.392 313.243 176.392H340.867C342.774 176.401 344.323 177.758 344.323 179.42Z" fill="#B3DFBC"/>
<path d="M385.749 179.42C385.749 181.091 384.201 182.447 382.304 182.447H354.69C352.783 182.447 351.234 181.091 351.234 179.42C351.234 177.749 352.783 176.392 354.69 176.392H382.304C384.201 176.401 385.749 177.758 385.749 179.42Z" fill="#B3DFBC"/>
<path d="M391.193 224.052C391.193 226.397 390.055 228.293 388.65 228.293H368.316C366.912 228.293 365.773 226.397 365.773 224.052C365.773 221.708 366.912 219.812 368.316 219.812H388.65C390.055 219.812 391.193 221.708 391.193 224.052Z" fill="#3E7A56"/>
<path d="M315.56 277.435C315.56 279.196 314.422 280.616 313.017 280.616H292.684C291.279 280.616 290.141 279.187 290.141 277.435C290.141 275.674 291.279 274.255 292.684 274.255H313.017C314.422 274.255 315.56 275.674 315.56 277.435Z" fill="#D28FBE"/>
<path d="M388.25 277.435C388.25 279.196 387.112 280.616 385.707 280.616H365.373C363.968 280.616 362.83 279.187 362.83 277.435C362.83 275.674 363.968 274.255 365.373 274.255H385.707C387.112 274.255 388.25 275.674 388.25 277.435Z" fill="#3E7A56"/>
<path d="M465.166 277.435C465.166 279.196 464.028 280.616 462.623 280.616H442.289C440.884 280.616 439.746 279.187 439.746 277.435C439.746 275.674 440.884 274.255 442.289 274.255H462.623C464.038 274.255 465.166 275.674 465.166 277.435Z" fill="#A07AB6"/>
<path d="M427.176 179.42C427.176 181.091 425.627 182.447 423.72 182.447H396.106C394.199 182.447 392.65 181.091 392.65 179.42C392.65 177.749 394.189 176.392 396.106 176.392H423.72C425.627 176.401 427.176 177.758 427.176 179.42Z" fill="#B3DFBC"/>
<path d="M468.601 179.42C468.601 181.091 467.053 182.447 465.156 182.447H437.532C435.625 182.447 434.076 181.091 434.076 179.42C434.076 177.749 435.625 176.392 437.532 176.392H465.156C467.053 176.401 468.601 177.758 468.601 179.42Z" fill="#B3DFBC"/>
<path d="M475.615 201.035C486.556 209.534 487.56 224.187 477.87 233.773C468.18 243.359 451.446 244.249 440.505 235.75C429.564 227.251 428.549 212.598 438.249 203.012C447.939 193.417 464.674 192.537 475.615 201.035Z" fill="white" stroke="#131F44" stroke-width="2.3935" stroke-miterlimit="10" stroke-linecap="round" stroke-linejoin="round"/>
<path d="M470.406 206.183C478.097 212.158 478.804 222.462 471.996 229.2C465.177 235.938 453.415 236.558 445.725 230.593C438.034 224.618 437.327 214.314 444.136 207.576C450.954 200.838 462.706 200.218 470.406 206.183Z" fill="white" stroke="#131F44" stroke-width="2.3935" stroke-miterlimit="10" stroke-linecap="round" stroke-linejoin="round"/>
<path d="M465.187 211.34C469.627 214.79 470.037 220.737 466.1 224.627C462.162 228.517 455.374 228.877 450.934 225.427C446.494 221.977 446.084 216.03 450.021 212.14C453.959 208.25 460.747 207.89 465.187 211.34Z" fill="white" stroke="#131F44" stroke-width="2.3935" stroke-miterlimit="10" stroke-linecap="round" stroke-linejoin="round"/>
<path d="M495.856 315.581L492.544 318.681H460.367L453.764 315.581V268.415H495.856V315.581Z" fill="white"/>
<path d="M450.779 275.674C450.779 275.674 450.779 230.467 450.779 222.462C450.779 211.196 465.33 212.382 465.33 222.462C465.33 231.653 465.33 268.415 465.33 268.415" fill="white"/>
<path d="M450.779 275.674C450.779 275.674 450.779 230.467 450.779 222.462C450.779 211.196 465.33 212.382 465.33 222.462C465.33 231.653 465.33 268.415 465.33 268.415" stroke="#131F44" stroke-width="2.3935" stroke-miterlimit="10" stroke-linecap="round" stroke-linejoin="round"/>
<path d="M465.33 268.415C465.33 261.255 465.33 249.145 465.33 249.145C465.33 237.879 479.881 239.065 479.881 249.145C479.881 249.145 479.881 262.315 479.881 268.415C479.891 277.139 465.33 279.888 465.33 268.415Z" fill="white" stroke="#131F44" stroke-width="2.3935" stroke-miterlimit="10" stroke-linecap="round" stroke-linejoin="round"/>
<path d="M458.06 316.74C449.262 316.444 443.848 306.067 440.29 291.54C438.013 282.242 426.816 269.556 426.816 269.556C421.227 261.776 432.65 253.825 439.5 259.997L450.769 271.093C450.769 271.093 473.666 278.522 474.794 296.077" fill="white"/>
<path d="M458.06 316.74C449.262 316.444 443.848 306.067 440.29 291.54C438.013 282.242 426.816 269.556 426.816 269.556C421.227 261.776 432.65 253.825 439.5 259.997L450.769 271.093C450.769 271.093 473.666 278.522 474.794 296.077" stroke="#131F44" stroke-width="2.3935" stroke-miterlimit="10" stroke-linecap="round" stroke-linejoin="round"/>
<path d="M494.432 268.416V257.15C494.432 245.884 508.982 247.07 508.982 257.15C508.982 257.15 508.982 287.686 508.982 302.357C508.982 317.028 494.432 316.731 494.432 316.731" fill="white"/>
<path d="M494.432 268.416V257.15C494.432 245.884 508.982 247.07 508.982 257.15C508.982 257.15 508.982 287.686 508.982 302.357C508.982 317.028 494.432 316.731 494.432 316.731" stroke="#131F44" stroke-width="2.3935" stroke-miterlimit="10" stroke-linecap="round" stroke-linejoin="round"/>
<path d="M494.432 268.416C494.432 263.016 494.432 257.15 494.432 257.15C494.432 245.884 508.982 247.07 508.982 257.15C508.982 257.15 508.982 264.085 508.982 266.601C508.982 276.546 494.432 276.546 494.432 268.416Z" fill="white" stroke="#131F44" stroke-width="2.3935" stroke-miterlimit="10" stroke-linecap="round" stroke-linejoin="round"/>
<path d="M494.431 316.74C494.431 316.74 494.431 318.519 494.431 320.747C494.431 322.966 493.078 324.898 489.694 324.898C486.31 324.898 467.033 324.898 462.972 324.898C458.912 324.898 458.061 322.382 458.061 320.9C458.061 319.417 458.061 316.749 458.061 316.749" fill="white"/>
<path d="M494.431 316.74C494.431 316.74 494.431 318.519 494.431 320.747C494.431 322.966 493.078 324.898 489.694 324.898C486.31 324.898 467.033 324.898 462.972 324.898C458.912 324.898 458.061 322.382 458.061 320.9C458.061 319.417 458.061 316.749 458.061 316.749" stroke="#131F44" stroke-width="2.3935" stroke-miterlimit="10" stroke-linecap="round" stroke-linejoin="round"/>
<path d="M479.891 268.415C479.891 263.519 479.891 253.152 479.891 253.152C479.891 241.886 494.441 243.071 494.441 253.152C494.441 253.152 494.441 261.965 494.441 268.415C494.431 276.025 479.891 276.896 479.891 268.415Z" fill="white" stroke="#131F44" stroke-width="2.3935" stroke-miterlimit="10" stroke-linecap="round" stroke-linejoin="round"/>
<path d="M231.139 314.359H199.711" stroke="#131F44" stroke-width="2.023" stroke-miterlimit="10" stroke-linecap="round" stroke-linejoin="round"/>
<path d="M489.693 324.889H523.737" stroke="#131F44" stroke-width="2.023" stroke-miterlimit="10" stroke-linecap="round" stroke-linejoin="round"/>
<path d="M462.971 324.889H439.756" stroke="#131F44" stroke-width="2.023" stroke-miterlimit="10" stroke-linecap="round" stroke-linejoin="round"/>
<path d="M450.072 331.815H516.559" stroke="#131F44" stroke-width="2.023" stroke-miterlimit="10" stroke-linecap="round" stroke-linejoin="round"/>
<path d="M472.609 336.307H489.693" stroke="#131F44" stroke-width="2.023" stroke-miterlimit="10" stroke-linecap="round" stroke-linejoin="round"/>
<path d="M367.404 327.323H220.73" stroke="#131F44" stroke-width="2.023" stroke-miterlimit="10" stroke-linecap="round" stroke-linejoin="round"/>
<path d="M375.547 327.323H379.772" stroke="#131F44" stroke-width="2.023" stroke-miterlimit="10" stroke-linecap="round" stroke-linejoin="round"/>
<path d="M257.133 336.307H320.318" stroke="#131F44" stroke-width="2.023" stroke-miterlimit="10" stroke-linecap="round" stroke-linejoin="round"/>
<path d="M327.055 336.307H334.837" stroke="#131F44" stroke-width="2.023" stroke-miterlimit="10" stroke-linecap="round" stroke-linejoin="round"/>
<path d="M393.933 65.0889L392.374 62.205L389.072 63.5706L387.514 60.6778L384.212 62.0523L382.653 59.1595L379.351 60.525L377.793 57.6412L374.501 59.0067L372.932 56.1139L369.631 57.4884L368.072 54.5956L364.78 55.9612L363.212 53.0773L359.92 54.4429L358.351 51.55L355.06 52.9246L353.501 50.0317L350.199 51.3973L348.641 48.5134L345.339 49.879L343.78 46.9951L340.479 48.3607L342.037 51.2446L343.606 54.1374L365.467 94.5924L368.759 93.2178L367.2 90.334L370.502 88.9594L368.933 86.0756L372.235 84.71L370.677 81.8171L373.968 80.4516L375.527 83.3354L378.828 81.9699L381.956 87.7466L385.247 86.381L386.816 89.2649L388.375 92.1577L391.677 90.7922L393.235 93.676L396.527 92.3015L398.27 88.052L396.711 85.1682L395.143 82.2753L391.841 83.6409L388.724 77.8642L385.422 79.2297L383.863 76.3459L382.305 73.453L392.2 69.3473L398.793 66.6162L397.234 63.7233L393.933 65.0889Z" fill="#AEEDA9"/>
<path d="M361.655 50.1882L358.355 51.5571L359.918 54.4478L363.217 53.0789L361.655 50.1882Z" fill="#131F44"/>
<path d="M356.805 48.6663L353.506 50.0352L355.068 52.9258L358.367 51.5569L356.805 48.6663Z" fill="#131F44"/>
<path d="M351.946 47.1526L348.646 48.5215L350.209 51.4121L353.508 50.0432L351.946 47.1526Z" fill="#131F44"/>
<path d="M347.083 45.6161L343.783 46.9844L345.345 49.8753L348.644 48.5071L347.083 45.6161Z" fill="#131F44"/>
<path d="M342.213 44.1017L338.914 45.4702L340.476 48.3608L343.775 46.9923L342.213 44.1017Z" fill="#131F44"/>
<path d="M337.366 42.5834L334.066 43.9517L362.163 95.9644L365.463 94.5961L337.366 42.5834Z" fill="#131F44"/>
<path d="M366.518 51.7228L363.219 53.0923L364.782 55.9826L368.081 54.6131L366.518 51.7228Z" fill="#131F44"/>
<path d="M371.376 53.2265L368.076 54.5947L369.638 57.4857L372.937 56.1174L371.376 53.2265Z" fill="#131F44"/>
<path d="M376.225 54.7491L372.926 56.1177L374.488 59.0083L377.787 57.6397L376.225 54.7491Z" fill="#131F44"/>
<path d="M381.098 56.2747L377.799 57.6436L379.361 60.5342L382.66 59.1653L381.098 56.2747Z" fill="#131F44"/>
<path d="M385.958 57.789L382.658 59.1572L384.22 62.0482L387.519 60.6799L385.958 57.789Z" fill="#131F44"/>
<path d="M390.819 59.3154L387.52 60.6836L389.081 63.5745L392.381 62.2063L390.819 59.3154Z" fill="#131F44"/>
<path d="M395.68 60.8334L392.381 62.2017L393.943 65.0926L397.242 63.7244L395.68 60.8334Z" fill="#131F44"/>
<path d="M368.768 93.2286L365.469 94.5981L367.032 97.4885L370.331 96.1189L368.768 93.2286Z" fill="#131F44"/>
<path d="M370.491 88.9508L367.191 90.3193L368.753 93.21L372.053 91.8414L370.491 88.9508Z" fill="#131F44"/>
<path d="M372.246 84.7037L368.947 86.0742L370.511 88.9642L373.81 87.5937L372.246 84.7037Z" fill="#131F44"/>
<path d="M373.978 80.4599L370.68 81.8301L372.244 84.7201L375.542 83.3499L373.978 80.4599Z" fill="#131F44"/>
<path d="M396.514 92.3037L393.215 93.6729L394.778 96.5632L398.076 95.194L396.514 92.3037Z" fill="#131F44"/>
<path d="M398.262 88.0499L394.963 89.4185L396.525 92.3091L399.824 90.9405L398.262 88.0499Z" fill="#131F44"/>
<path d="M378.841 81.9706L375.541 83.3389L378.664 89.1208L381.964 87.7525L378.841 81.9706Z" fill="#131F44"/>
<path d="M385.256 86.3878L381.957 87.7573L385.083 93.5379L388.382 92.1684L385.256 86.3878Z" fill="#131F44"/>
<path d="M391.664 90.7934L388.365 92.1626L391.491 97.9432L394.79 96.574L391.664 90.7934Z" fill="#131F44"/>
<path d="M385.61 72.0893L382.311 73.4575L385.434 79.2394L388.733 77.8712L385.61 72.0893Z" fill="#131F44"/>
<path d="M392.028 76.4955L388.729 77.8638L391.852 83.6457L395.151 82.2774L392.028 76.4955Z" fill="#131F44"/>
<path d="M398.448 80.9072L395.148 82.2754L398.272 88.0573L401.571 86.6891L398.448 80.9072Z" fill="#131F44"/>
<path d="M400.526 62.3536L397.227 63.7222L398.789 66.6128L402.088 65.2442L400.526 62.3536Z" fill="#131F44"/>
<path d="M402.079 65.2535L382.293 73.4609L383.855 76.3516L403.641 68.1441L402.079 65.2535Z" fill="#131F44"/>
<path d="M451.911 66.8407L448.17 68.728L450.324 72.0057L454.065 70.1184L451.911 66.8407Z" fill="#131F44"/>
<path d="M470.144 79.4327L466.402 81.3193L468.556 84.5974L472.297 82.7108L470.144 79.4327Z" fill="#131F44"/>
<path d="M459.52 93.5214L455.779 95.4092L457.934 98.6869L461.675 96.7992L459.52 93.5214Z" fill="#131F44"/>
<path d="M456.335 103.839L452.594 105.726L454.748 109.004L458.489 107.116L456.335 103.839Z" fill="#131F44"/>
<path d="M470.268 109.897L466.527 111.785L470.832 118.332L474.573 116.443L470.268 109.897Z" fill="#131F44"/>
<path d="M510.924 111.181L507.184 113.069L509.339 116.346L513.079 114.458L510.924 111.181Z" fill="#131F44"/>
<path d="M513.071 114.464L490.643 125.779L492.797 129.057L515.225 117.741L513.071 114.464Z" fill="#131F44"/>
<path d="M462.227 105.241L458.486 107.128L462.79 113.676L466.531 111.789L462.227 105.241Z" fill="#131F44"/>
<path d="M478.319 114.556L474.578 116.443L478.882 122.991L482.623 121.103L478.319 114.556Z" fill="#131F44"/>
<path d="M486.339 119.224L482.598 121.11L486.899 127.659L490.641 125.772L486.339 119.224Z" fill="#131F44"/>
<path d="M448.286 99.1881L444.545 101.075L448.846 107.623L452.588 105.737L448.286 99.1881Z" fill="#131F44"/>
<path d="M453.612 92.137L446.139 95.9072L448.293 99.1849L455.766 95.4147L453.612 92.137Z" fill="#131F44"/>
<path d="M479.792 78.9377L476.051 80.8247L478.204 84.1028L481.946 82.2158L479.792 78.9377Z" fill="#131F44"/>
<path d="M489.403 78.432L485.662 80.3193L487.816 83.597L491.557 81.7097L489.403 78.432Z" fill="#131F44"/>
<path d="M485.682 80.3261L481.941 82.2139L486.245 88.7615L489.986 86.8738L485.682 80.3261Z" fill="#131F44"/>
<path d="M495.313 79.831L491.572 81.7188L493.727 84.9965L497.468 83.1087L495.313 79.831Z" fill="#131F44"/>
<path d="M510.382 102.759L506.641 104.647L510.934 111.179L514.676 109.291L510.382 102.759Z" fill="#131F44"/>
<path d="M501.192 81.2135L497.451 83.1016L510.371 102.75L514.112 100.862L501.192 81.2135Z" fill="#131F44"/>
<path d="M476.05 80.824L472.309 82.7109L478.765 92.5374L482.506 90.6504L476.05 80.824Z" fill="#131F44"/>
<path d="M450.323 71.9923L446.582 73.8804L463.807 100.076L467.547 98.1876L450.323 71.9923Z" fill="#131F44"/>
<path d="M457.8 68.2298L454.059 70.1172L471.276 96.3155L475.017 94.4282L457.8 68.2298Z" fill="#131F44"/>
<path d="M493.704 84.9888L491.551 81.7187L487.818 83.6053L489.972 86.8755L486.229 88.7621L481.922 82.2128L478.19 84.0994L482.496 90.6488L478.754 92.5354L472.294 82.7069L468.561 84.5935L475.021 94.422L471.279 96.3087L454.062 70.1113L450.319 71.998L467.546 98.1953L463.803 100.082L461.65 96.8028L457.918 98.6894L455.764 95.4103L448.289 99.1836L452.596 105.733L456.338 103.846L458.482 107.125L462.214 105.239L466.521 111.788L470.263 109.901L474.56 116.442L478.303 114.564L482.619 121.132L486.352 119.245L490.648 125.767L509.331 116.334L507.178 113.064L510.92 111.177L506.624 104.646L510.367 102.759L497.447 83.1022L493.704 84.9888Z" fill="#AEEDA9"/>
<path d="M266.136 72.6626L254.816 73.4262L246.551 76.4808L238.717 84.4856L236.533 92.113L237.405 102.031L252.642 113.477L263.963 112.713L272.227 109.659L280.072 101.654L282.246 94.0266L281.374 84.1082L266.136 72.6626Z" fill="#AEEDA9"/>
<path d="M238.71 84.4945L236.102 87.1621L239.146 89.4475L241.755 86.7799L238.71 84.4945Z" fill="#131F44"/>
<path d="M236.095 87.1659L233.486 89.8335L236.531 92.1189L239.139 89.4513L236.095 87.1659Z" fill="#131F44"/>
<path d="M236.543 92.1173L233.934 94.7842L236.977 97.0706L239.587 94.4038L236.543 92.1173Z" fill="#131F44"/>
<path d="M236.975 97.0826L234.365 99.7495L237.409 102.036L240.019 99.3691L236.975 97.0826Z" fill="#131F44"/>
<path d="M237.408 102.035L234.799 104.703L237.843 106.989L240.452 104.322L237.408 102.035Z" fill="#131F44"/>
<path d="M240.441 104.317L237.832 106.984L246.971 113.849L249.581 111.182L240.441 104.317Z" fill="#131F44"/>
<path d="M240.885 76.8624L238.275 79.5293L241.319 81.8157L243.929 79.1489L240.885 76.8624Z" fill="#131F44"/>
<path d="M238.283 79.5323L235.674 82.1992L238.718 84.4857L241.327 81.8188L238.283 79.5323Z" fill="#131F44"/>
<path d="M269.19 107.375L266.58 110.042L269.624 112.328L272.234 109.661L269.19 107.375Z" fill="#131F44"/>
<path d="M266.567 110.039L263.959 112.707L267.004 114.992L269.612 112.325L266.567 110.039Z" fill="#131F44"/>
<path d="M260.914 110.424L258.305 113.091L261.349 115.377L263.958 112.71L260.914 110.424Z" fill="#131F44"/>
<path d="M255.247 110.807L252.639 113.475L255.683 115.76L258.292 113.092L255.247 110.807Z" fill="#131F44"/>
<path d="M240.891 109.288L238.281 111.955L241.326 114.241L243.935 111.574L240.891 109.288Z" fill="#131F44"/>
<path d="M244.377 116.526L241.768 119.193L244.811 121.479L247.421 118.812L244.377 116.526Z" fill="#131F44"/>
<path d="M232.186 107.38L229.576 110.046L232.62 112.333L235.23 109.666L232.186 107.38Z" fill="#131F44"/>
<path d="M214.674 136.073L212.064 138.74L215.109 141.026L217.718 138.359L214.674 136.073Z" fill="#131F44"/>
<path d="M235.225 109.657L211.621 133.782L220.76 140.646L244.364 116.521L235.225 109.657Z" fill="#131F44"/>
<path d="M249.583 111.185L246.975 113.853L250.019 116.138L252.628 113.471L249.583 111.185Z" fill="#131F44"/>
<path d="M277.453 104.324L274.844 106.991L277.888 109.278L280.497 106.611L277.453 104.324Z" fill="#131F44"/>
<path d="M264.395 85.2456L251.34 98.5972L254.385 100.883L267.44 87.531L264.395 85.2456Z" fill="#131F44"/>
<path d="M253.078 86.0182L250.469 88.6851L265.704 100.129L268.313 97.4621L253.078 86.0182Z" fill="#131F44"/>
<path d="M274.835 106.987L272.227 109.654L275.271 111.94L277.88 109.272L274.835 106.987Z" fill="#131F44"/>
<path d="M279.626 96.6874L277.018 99.355L280.062 101.64L282.671 98.9728L279.626 96.6874Z" fill="#131F44"/>
<path d="M282.241 94.0239L279.631 96.6904L282.674 98.9772L285.284 96.3107L282.241 94.0239Z" fill="#131F44"/>
<path d="M281.814 89.0701L279.205 91.7373L282.249 94.0234L284.859 91.3562L281.814 89.0701Z" fill="#131F44"/>
<path d="M281.364 84.1122L278.756 86.7798L281.801 89.0652L284.409 86.3976L281.364 84.1122Z" fill="#131F44"/>
<path d="M280.938 79.1461L278.328 81.813L281.372 84.0994L283.982 81.4326L280.938 79.1461Z" fill="#131F44"/>
<path d="M271.787 72.2814L269.178 74.9482L278.317 81.8124L280.926 79.1455L271.787 72.2814Z" fill="#131F44"/>
<path d="M280.069 101.654L277.459 104.321L280.503 106.608L283.113 103.941L280.069 101.654Z" fill="#131F44"/>
<path d="M249.162 73.8116L246.553 76.4785L249.597 78.765L252.206 76.0981L249.162 73.8116Z" fill="#131F44"/>
<path d="M251.779 71.1448L249.17 73.812L252.214 76.0981L254.823 73.4309L251.779 71.1448Z" fill="#131F44"/>
<path d="M257.428 70.7613L254.82 73.4292L257.865 75.7142L260.473 73.0463L257.428 70.7613Z" fill="#131F44"/>
<path d="M263.099 70.3772L260.49 73.0444L263.535 75.3305L266.144 72.6633L263.099 70.3772Z" fill="#131F44"/>
<path d="M268.737 69.995L266.129 72.6626L269.174 74.948L271.782 72.2804L268.737 69.995Z" fill="#131F44"/>
<path d="M243.499 74.1889L240.889 76.8555L243.932 79.1423L246.542 76.4757L243.499 74.1889Z" fill="#131F44"/>
</svg>
