<svg width="85" height="26" viewBox="0 0 85 26" fill="none" xmlns="http://www.w3.org/2000/svg">
<path d="M17.5635 4.55296C17.9444 4.09161 18.1892 3.60914 18.1892 3.0985C18.1892 2.24273 17.5057 1.70038 16.6691 1.70038C15.8903 1.70038 15.2441 2.2216 15.1217 3.0985L13.9824 2.81324C14.2001 1.37639 15.3325 0.471313 16.6623 0.471313C18.1552 0.471313 19.3421 1.5243 19.3421 3.08793C19.3421 3.9437 18.9612 4.722 18.4103 5.38055C17.3084 6.70823 17.2812 6.75754 16.0909 8.212H19.3693V9.4305H14.0844V8.90929L17.5635 4.55296Z" fill="#425F6F"/>
<path d="M14.1066 15.4034L14.1168 10.9555H23.435C23.5302 11.5753 23.5779 12.2163 23.5779 12.8537C23.5779 19.5837 18.2862 25.0599 11.7906 25.0599C5.29167 25.0705 0 19.5942 0 12.8643C0 6.13431 5.29167 0.65808 11.7872 0.65808V4.96511C7.58042 4.96511 4.1592 8.50793 4.1592 12.8643C4.1592 17.2206 7.58042 20.7634 11.7872 20.7634C15.1302 20.7634 17.9903 18.5201 19.0174 15.4034H14.1066ZM32.2976 12.3325C32.2976 9.11719 32.488 7.80712 33.0015 7.02178C33.6477 6.03923 34.8924 5.49689 36.518 5.49689C37.9531 5.49689 39.1502 5.93005 39.7862 6.70835C40.2691 7.25773 40.4697 8.02546 40.4697 9.23692V9.96591H37.8375C37.8001 8.58893 37.7627 8.34241 37.5722 8.04659C37.3648 7.71203 36.9635 7.50425 36.4806 7.50425C35.9568 7.50425 35.5317 7.7402 35.3515 8.0959C35.0862 8.64528 35.008 9.65953 35.008 12.3149C35.008 14.5089 35.1032 15.7873 35.2733 16.3296C35.4263 16.7804 35.8616 17.0375 36.4431 17.0375C37.4702 17.0375 37.7525 16.4951 37.8409 14.4702H40.4629C40.4425 16.1817 40.3473 16.879 39.997 17.5481C39.5141 18.5131 38.2388 19.0519 36.4057 19.0519C34.27 19.0519 32.9777 18.2348 32.5492 16.6607C32.3826 16.0232 32.2976 14.4772 32.2976 12.3325ZM41.9797 5.70467H46.0539C48.0093 5.70467 48.363 5.78214 49.0466 6.35266C49.6553 6.87387 49.958 7.72964 49.958 8.99745C49.958 10.061 49.7505 10.878 49.3492 11.4274C49.0058 11.9099 48.5909 12.1177 47.6964 12.3219C49.3969 12.5368 49.9852 13.3643 50.0056 15.5795C50.0056 15.9352 50.043 16.6607 50.0804 17.5657C50.1178 18.1961 50.1382 18.3123 50.2879 18.8652H47.4856C47.37 18.0095 47.37 17.9883 47.37 16.3754C47.37 14.7906 47.2543 14.0053 46.9517 13.6496C46.7442 13.4137 46.5164 13.3538 45.8396 13.3538H44.5677V18.8723H41.9729L41.9797 5.70467ZM45.6356 11.4098C46.8224 11.4098 47.2509 10.8886 47.2509 9.51162C47.2509 8.78263 47.0605 8.1945 46.7476 7.90925C46.5198 7.71203 46.3497 7.67329 45.7036 7.67329H44.5541V11.4098H45.6356ZM51.6108 12.2656C51.6108 9.19466 51.7434 8.13463 52.2569 7.20843C52.8657 6.07797 54.1274 5.49689 55.923 5.49689C57.9091 5.49689 59.2558 6.26462 59.7796 7.70851C60.0448 8.41637 60.1604 9.80392 60.1604 12.3325C60.1604 15.097 60.0278 16.4036 59.6571 17.1537C59.0484 18.4039 57.7493 19.073 55.9434 19.073C54.1376 19.073 52.8929 18.5025 52.2671 17.3615C51.7536 16.4458 51.6108 15.3541 51.6108 12.2656ZM55.8856 17.0445C56.6746 17.0445 57.1405 16.6501 57.3004 15.8753C57.3956 15.3752 57.4704 13.6637 57.4704 11.8218C57.4704 9.84618 57.3752 8.68402 57.1847 8.21211C57.0147 7.77894 56.5182 7.50425 55.8924 7.50425C55.1714 7.50425 54.6681 7.83881 54.5253 8.40933C54.3927 8.95871 54.3178 10.3286 54.3178 12.4241C54.3178 14.1638 54.3757 15.3048 54.4709 15.8577C54.6137 16.6501 55.0762 17.0445 55.8856 17.0445ZM61.014 5.70467H63.6633L64.5271 10.5047C64.8298 12.2445 64.908 13.8292 65.0508 16.8579C65.5813 12.8255 65.7548 11.7021 65.9996 10.5047L67.0063 5.70467H69.9786L70.9274 10.5047C71.3627 12.6987 71.458 14.1849 71.594 16.8579C71.764 14.6251 71.9375 12.991 72.3524 10.5047L73.1788 5.70467H75.5049L72.9407 18.8758H70.0636L68.8631 12.7551C68.6557 11.6915 68.3972 9.20523 68.3394 7.85642C67.9585 10.8182 67.9415 11.2408 67.6354 12.7551L66.4009 18.8723H63.4558L61.014 5.70467ZM76.6408 5.70467H80.1947C82.2555 5.70467 82.8847 5.8244 83.5275 6.29631C84.3335 6.90556 84.7347 7.96911 84.9048 10.054C84.9626 10.871 85 11.9134 85 12.8396C85 15.2097 84.8402 16.3719 84.4695 17.1466C83.9389 18.2595 82.7113 18.8864 81.1367 18.8864H76.6544L76.6408 5.70467ZM80.4327 16.798C81.3441 16.798 81.8475 16.5832 82.0277 16.0901C82.2181 15.5689 82.276 14.8118 82.276 12.6565C82.276 10.304 82.2011 9.27214 81.9903 8.62415C81.7998 8.07477 81.2863 7.76838 80.4973 7.76838H79.3104V16.798H80.4327ZM28.441 0.517212H27.5942V24.8239H28.441V0.517212Z" fill="#425F6F"/>
</svg>
